solid Default
  facet normal 1.000000e+00 3.775620e-12 -1.770035e-12
    outer loop
      vertex 2.500000e+01 -6.574999e+00 0.000000e+00
      vertex 2.500000e+01 6.574999e+00 4.149963e+00
      vertex 2.500000e+01 -6.574999e+00 4.149963e+00
    endloop
  endfacet
  facet normal 1.000000e+00 3.775620e-12 -1.770035e-12
    outer loop
      vertex 2.500000e+01 6.574999e+00 4.149963e+00
      vertex 2.500000e+01 -6.574999e+00 0.000000e+00
      vertex 2.500000e+01 6.574999e+00 0.000000e+00
    endloop
  endfacet
  facet normal 6.335531e-13 1.563520e-12 1.000000e+00
    outer loop
      vertex 1.000000e+01 -6.574999e+00 4.149963e+00
      vertex 1.200000e+01 -4.250011e-01 4.149963e+00
      vertex 1.000000e+01 -4.250011e-01 4.149963e+00
    endloop
  endfacet
  facet normal 6.335531e-13 1.563520e-12 1.000000e+00
    outer loop
      vertex 1.200000e+01 -4.250011e-01 4.149963e+00
      vertex 1.000000e+01 -6.574999e+00 4.149963e+00
      vertex 1.855115e+01 -5.367718e-01 4.149963e+00
    endloop
  endfacet
  facet normal 6.335531e-13 1.563520e-12 1.000000e+00
    outer loop
      vertex 1.855115e+01 -5.367718e-01 4.149963e+00
      vertex 1.000000e+01 -6.574999e+00 4.149963e+00
      vertex 1.850000e+01 -9.250011e-01 4.149963e+00
    endloop
  endfacet
  facet normal 6.335531e-13 1.563520e-12 1.000000e+00
    outer loop
      vertex 1.850000e+01 -9.250011e-01 4.149963e+00
      vertex 1.000000e+01 -6.574999e+00 4.149963e+00
      vertex 1.855115e+01 -1.313231e+00 4.149963e+00
    endloop
  endfacet
  facet normal 6.335531e-13 1.563520e-12 1.000000e+00
    outer loop
      vertex 1.855115e+01 -1.313231e+00 4.149963e+00
      vertex 1.000000e+01 -6.574999e+00 4.149963e+00
      vertex 1.870099e+01 -1.675001e+00 4.149963e+00
    endloop
  endfacet
  facet normal 6.335531e-13 1.563520e-12 1.000000e+00
    outer loop
      vertex 1.870099e+01 -1.675001e+00 4.149963e+00
      vertex 1.000000e+01 -6.574999e+00 4.149963e+00
      vertex 1.893933e+01 -1.985662e+00 4.149963e+00
    endloop
  endfacet
  facet normal 6.335531e-13 1.563520e-12 1.000000e+00
    outer loop
      vertex 1.893933e+01 -1.985662e+00 4.149963e+00
      vertex 1.000000e+01 -6.574999e+00 4.149963e+00
      vertex 1.925000e+01 -2.224039e+00 4.149963e+00
    endloop
  endfacet
  facet normal 6.335531e-13 1.563520e-12 1.000000e+00
    outer loop
      vertex 1.925000e+01 -2.224039e+00 4.149963e+00
      vertex 1.000000e+01 -6.574999e+00 4.149963e+00
      vertex 1.961182e+01 -2.373888e+00 4.149963e+00
    endloop
  endfacet
  facet normal 6.335531e-13 1.563520e-12 1.000000e+00
    outer loop
      vertex 1.961182e+01 -2.373888e+00 4.149963e+00
      vertex 1.000000e+01 -6.574999e+00 4.149963e+00
      vertex 2.000000e+01 -2.425001e+00 4.149963e+00
    endloop
  endfacet
  facet normal 6.335531e-13 1.563520e-12 1.000000e+00
    outer loop
      vertex 1.000000e+01 2.574999e+00 4.149963e+00
      vertex 2.500000e+01 6.574999e+00 4.149963e+00
      vertex 1.000000e+01 6.574999e+00 4.149963e+00
    endloop
  endfacet
  facet normal 6.335531e-13 1.563520e-12 1.000000e+00
    outer loop
      vertex 2.500000e+01 6.574999e+00 4.149963e+00
      vertex 1.000000e+01 2.574999e+00 4.149963e+00
      vertex 1.200000e+01 2.574999e+00 4.149963e+00
    endloop
  endfacet
  facet normal 6.335531e-13 1.563520e-12 1.000000e+00
    outer loop
      vertex 2.500000e+01 6.574999e+00 4.149963e+00
      vertex 1.200000e+01 2.574999e+00 4.149963e+00
      vertex 2.038824e+01 5.238895e-01 4.149963e+00
    endloop
  endfacet
  facet normal 6.335531e-13 1.563520e-12 1.000000e+00
    outer loop
      vertex 2.500000e+01 6.574999e+00 4.149963e+00
      vertex 2.038824e+01 5.238895e-01 4.149963e+00
      vertex 2.075000e+01 3.740368e-01 4.149963e+00
    endloop
  endfacet
  facet normal 6.335531e-13 1.563520e-12 1.000000e+00
    outer loop
      vertex 2.500000e+01 6.574999e+00 4.149963e+00
      vertex 2.075000e+01 3.740368e-01 4.149963e+00
      vertex 2.106067e+01 1.356602e-01 4.149963e+00
    endloop
  endfacet
  facet normal 6.335531e-13 1.563520e-12 1.000000e+00
    outer loop
      vertex 2.500000e+01 6.574999e+00 4.149963e+00
      vertex 2.106067e+01 1.356602e-01 4.149963e+00
      vertex 2.129907e+01 -1.750011e-01 4.149963e+00
    endloop
  endfacet
  facet normal 6.335531e-13 1.563520e-12 1.000000e+00
    outer loop
      vertex 2.500000e+01 6.574999e+00 4.149963e+00
      vertex 2.129907e+01 -1.750011e-01 4.149963e+00
      vertex 2.500000e+01 -6.574999e+00 4.149963e+00
    endloop
  endfacet
  facet normal 6.335531e-13 1.563520e-12 1.000000e+00
    outer loop
      vertex 2.038824e+01 5.238895e-01 4.149963e+00
      vertex 1.200000e+01 2.574999e+00 4.149963e+00
      vertex 2.000000e+01 5.749989e-01 4.149963e+00
    endloop
  endfacet
  facet normal 6.335531e-13 1.563520e-12 1.000000e+00
    outer loop
      vertex 2.500000e+01 -6.574999e+00 4.149963e+00
      vertex 2.129907e+01 -1.750011e-01 4.149963e+00
      vertex 2.144891e+01 -5.367718e-01 4.149963e+00
    endloop
  endfacet
  facet normal 6.335531e-13 1.563520e-12 1.000000e+00
    outer loop
      vertex 2.500000e+01 -6.574999e+00 4.149963e+00
      vertex 2.144891e+01 -5.367718e-01 4.149963e+00
      vertex 2.150000e+01 -9.250011e-01 4.149963e+00
    endloop
  endfacet
  facet normal 6.335531e-13 1.563520e-12 1.000000e+00
    outer loop
      vertex 2.500000e+01 -6.574999e+00 4.149963e+00
      vertex 2.150000e+01 -9.250011e-01 4.149963e+00
      vertex 2.144891e+01 -1.313231e+00 4.149963e+00
    endloop
  endfacet
  facet normal 6.335531e-13 1.563520e-12 1.000000e+00
    outer loop
      vertex 2.500000e+01 -6.574999e+00 4.149963e+00
      vertex 2.144891e+01 -1.313231e+00 4.149963e+00
      vertex 2.129907e+01 -1.675001e+00 4.149963e+00
    endloop
  endfacet
  facet normal 6.335531e-13 1.563520e-12 1.000000e+00
    outer loop
      vertex 2.500000e+01 -6.574999e+00 4.149963e+00
      vertex 2.129907e+01 -1.675001e+00 4.149963e+00
      vertex 2.106067e+01 -1.985662e+00 4.149963e+00
    endloop
  endfacet
  facet normal 6.335531e-13 1.563520e-12 1.000000e+00
    outer loop
      vertex 2.500000e+01 -6.574999e+00 4.149963e+00
      vertex 2.106067e+01 -1.985662e+00 4.149963e+00
      vertex 2.075000e+01 -2.224039e+00 4.149963e+00
    endloop
  endfacet
  facet normal 6.335531e-13 1.563520e-12 1.000000e+00
    outer loop
      vertex 2.500000e+01 -6.574999e+00 4.149963e+00
      vertex 2.075000e+01 -2.224039e+00 4.149963e+00
      vertex 2.038824e+01 -2.373888e+00 4.149963e+00
    endloop
  endfacet
  facet normal 6.335531e-13 1.563520e-12 1.000000e+00
    outer loop
      vertex 2.500000e+01 -6.574999e+00 4.149963e+00
      vertex 2.038824e+01 -2.373888e+00 4.149963e+00
      vertex 2.000000e+01 -2.425001e+00 4.149963e+00
    endloop
  endfacet
  facet normal 6.335531e-13 1.563520e-12 1.000000e+00
    outer loop
      vertex 2.500000e+01 -6.574999e+00 4.149963e+00
      vertex 2.000000e+01 -2.425001e+00 4.149963e+00
      vertex 1.000000e+01 -6.574999e+00 4.149963e+00
    endloop
  endfacet
  facet normal 6.335531e-13 1.563520e-12 1.000000e+00
    outer loop
      vertex 1.200000e+01 -4.250011e-01 4.149963e+00
      vertex 2.000000e+01 5.749989e-01 4.149963e+00
      vertex 1.200000e+01 2.574999e+00 4.149963e+00
    endloop
  endfacet
  facet normal 6.335531e-13 1.563520e-12 1.000000e+00
    outer loop
      vertex 2.000000e+01 5.749989e-01 4.149963e+00
      vertex 1.200000e+01 -4.250011e-01 4.149963e+00
      vertex 1.961182e+01 5.238895e-01 4.149963e+00
    endloop
  endfacet
  facet normal 6.335531e-13 1.563520e-12 1.000000e+00
    outer loop
      vertex 1.961182e+01 5.238895e-01 4.149963e+00
      vertex 1.200000e+01 -4.250011e-01 4.149963e+00
      vertex 1.925000e+01 3.740368e-01 4.149963e+00
    endloop
  endfacet
  facet normal 6.335531e-13 1.563520e-12 1.000000e+00
    outer loop
      vertex 1.925000e+01 3.740368e-01 4.149963e+00
      vertex 1.200000e+01 -4.250011e-01 4.149963e+00
      vertex 1.893933e+01 1.356602e-01 4.149963e+00
    endloop
  endfacet
  facet normal 6.335531e-13 1.563520e-12 1.000000e+00
    outer loop
      vertex 1.893933e+01 1.356602e-01 4.149963e+00
      vertex 1.200000e+01 -4.250011e-01 4.149963e+00
      vertex 1.870099e+01 -1.750011e-01 4.149963e+00
    endloop
  endfacet
  facet normal 6.335531e-13 1.563520e-12 1.000000e+00
    outer loop
      vertex 1.870099e+01 -1.750011e-01 4.149963e+00
      vertex 1.200000e+01 -4.250011e-01 4.149963e+00
      vertex 1.855115e+01 -5.367718e-01 4.149963e+00
    endloop
  endfacet
  facet normal -5.618455e-15 1.000000e+00 -1.857475e-14
    outer loop
      vertex 2.500000e+01 6.574999e+00 0.000000e+00
      vertex 1.000000e+01 6.574999e+00 4.149963e+00
      vertex 2.500000e+01 6.574999e+00 4.149963e+00
    endloop
  endfacet
  facet normal -5.618455e-15 1.000000e+00 -1.857475e-14
    outer loop
      vertex 1.000000e+01 6.574999e+00 4.149963e+00
      vertex 2.500000e+01 6.574999e+00 0.000000e+00
      vertex 1.000000e+01 6.574999e+00 0.000000e+00
    endloop
  endfacet
  facet normal -1.502946e-13 -1.601460e-12 -1.000000e+00
    outer loop
      vertex 2.500000e+01 6.574999e+00 0.000000e+00
      vertex 1.000000e+01 2.574999e+00 0.000000e+00
      vertex 1.000000e+01 6.574999e+00 0.000000e+00
    endloop
  endfacet
  facet normal -1.502946e-13 -1.601460e-12 -1.000000e+00
    outer loop
      vertex 1.000000e+01 2.574999e+00 0.000000e+00
      vertex 2.500000e+01 6.574999e+00 0.000000e+00
      vertex 2.038824e+01 5.238895e-01 0.000000e+00
    endloop
  endfacet
  facet normal -1.502946e-13 -1.601460e-12 -1.000000e+00
    outer loop
      vertex 2.038824e+01 5.238895e-01 0.000000e+00
      vertex 2.500000e+01 6.574999e+00 0.000000e+00
      vertex 2.075000e+01 3.740368e-01 0.000000e+00
    endloop
  endfacet
  facet normal -1.502946e-13 -1.601460e-12 -1.000000e+00
    outer loop
      vertex 2.075000e+01 3.740368e-01 0.000000e+00
      vertex 2.500000e+01 6.574999e+00 0.000000e+00
      vertex 2.106067e+01 1.356602e-01 0.000000e+00
    endloop
  endfacet
  facet normal -1.502946e-13 -1.601460e-12 -1.000000e+00
    outer loop
      vertex 2.106067e+01 1.356602e-01 0.000000e+00
      vertex 2.500000e+01 6.574999e+00 0.000000e+00
      vertex 2.129907e+01 -1.750011e-01 0.000000e+00
    endloop
  endfacet
  facet normal -1.502946e-13 -1.601460e-12 -1.000000e+00
    outer loop
      vertex 2.129907e+01 -1.750011e-01 0.000000e+00
      vertex 2.500000e+01 6.574999e+00 0.000000e+00
      vertex 2.500000e+01 -6.574999e+00 0.000000e+00
    endloop
  endfacet
  facet normal -1.502946e-13 -1.601460e-12 -1.000000e+00
    outer loop
      vertex 1.000000e+01 2.574999e+00 0.000000e+00
      vertex 2.038824e+01 5.238895e-01 0.000000e+00
      vertex 2.000000e+01 5.749989e-01 0.000000e+00
    endloop
  endfacet
  facet normal -1.502946e-13 -1.601460e-12 -1.000000e+00
    outer loop
      vertex 1.000000e+01 2.574999e+00 0.000000e+00
      vertex 2.000000e+01 5.749989e-01 0.000000e+00
      vertex -2.500000e+01 2.574999e+00 0.000000e+00
    endloop
  endfacet
  facet normal -1.502946e-13 -1.601460e-12 -1.000000e+00
    outer loop
      vertex 2.129907e+01 -1.750011e-01 0.000000e+00
      vertex 2.500000e+01 -6.574999e+00 0.000000e+00
      vertex 2.144891e+01 -5.367718e-01 0.000000e+00
    endloop
  endfacet
  facet normal -1.502946e-13 -1.601460e-12 -1.000000e+00
    outer loop
      vertex 2.144891e+01 -5.367718e-01 0.000000e+00
      vertex 2.500000e+01 -6.574999e+00 0.000000e+00
      vertex 2.150000e+01 -9.250011e-01 0.000000e+00
    endloop
  endfacet
  facet normal -1.502946e-13 -1.601460e-12 -1.000000e+00
    outer loop
      vertex 2.150000e+01 -9.250011e-01 0.000000e+00
      vertex 2.500000e+01 -6.574999e+00 0.000000e+00
      vertex 2.144891e+01 -1.313231e+00 0.000000e+00
    endloop
  endfacet
  facet normal -1.502946e-13 -1.601460e-12 -1.000000e+00
    outer loop
      vertex 2.144891e+01 -1.313231e+00 0.000000e+00
      vertex 2.500000e+01 -6.574999e+00 0.000000e+00
      vertex 2.129907e+01 -1.675001e+00 0.000000e+00
    endloop
  endfacet
  facet normal -1.502946e-13 -1.601460e-12 -1.000000e+00
    outer loop
      vertex 2.129907e+01 -1.675001e+00 0.000000e+00
      vertex 2.500000e+01 -6.574999e+00 0.000000e+00
      vertex 2.106067e+01 -1.985662e+00 0.000000e+00
    endloop
  endfacet
  facet normal -1.502946e-13 -1.601460e-12 -1.000000e+00
    outer loop
      vertex 2.106067e+01 -1.985662e+00 0.000000e+00
      vertex 2.500000e+01 -6.574999e+00 0.000000e+00
      vertex 2.075000e+01 -2.224039e+00 0.000000e+00
    endloop
  endfacet
  facet normal -1.502946e-13 -1.601460e-12 -1.000000e+00
    outer loop
      vertex 2.075000e+01 -2.224039e+00 0.000000e+00
      vertex 2.500000e+01 -6.574999e+00 0.000000e+00
      vertex 2.038824e+01 -2.373888e+00 0.000000e+00
    endloop
  endfacet
  facet normal -1.502946e-13 -1.601460e-12 -1.000000e+00
    outer loop
      vertex 2.038824e+01 -2.373888e+00 0.000000e+00
      vertex 2.500000e+01 -6.574999e+00 0.000000e+00
      vertex 2.000000e+01 -2.425001e+00 0.000000e+00
    endloop
  endfacet
  facet normal -1.502946e-13 -1.601460e-12 -1.000000e+00
    outer loop
      vertex 2.000000e+01 -2.425001e+00 0.000000e+00
      vertex 2.500000e+01 -6.574999e+00 0.000000e+00
      vertex 1.000000e+01 -6.574999e+00 0.000000e+00
    endloop
  endfacet
  facet normal -1.502946e-13 -1.601460e-12 -1.000000e+00
    outer loop
      vertex 1.855115e+01 -5.367718e-01 0.000000e+00
      vertex 1.000000e+01 -4.250011e-01 0.000000e+00
      vertex 1.870099e+01 -1.750011e-01 0.000000e+00
    endloop
  endfacet
  facet normal -1.502946e-13 -1.601460e-12 -1.000000e+00
    outer loop
      vertex 1.000000e+01 -4.250011e-01 0.000000e+00
      vertex 1.855115e+01 -5.367718e-01 0.000000e+00
      vertex 1.000000e+01 -6.574999e+00 0.000000e+00
    endloop
  endfacet
  facet normal -1.502946e-13 -1.601460e-12 -1.000000e+00
    outer loop
      vertex 1.000000e+01 -6.574999e+00 0.000000e+00
      vertex 1.855115e+01 -5.367718e-01 0.000000e+00
      vertex 1.850000e+01 -9.250011e-01 0.000000e+00
    endloop
  endfacet
  facet normal -1.502946e-13 -1.601460e-12 -1.000000e+00
    outer loop
      vertex 1.000000e+01 -6.574999e+00 0.000000e+00
      vertex 1.850000e+01 -9.250011e-01 0.000000e+00
      vertex 1.855115e+01 -1.313231e+00 0.000000e+00
    endloop
  endfacet
  facet normal -1.502946e-13 -1.601460e-12 -1.000000e+00
    outer loop
      vertex 1.000000e+01 -6.574999e+00 0.000000e+00
      vertex 1.855115e+01 -1.313231e+00 0.000000e+00
      vertex 1.870099e+01 -1.675001e+00 0.000000e+00
    endloop
  endfacet
  facet normal -1.502946e-13 -1.601460e-12 -1.000000e+00
    outer loop
      vertex 1.000000e+01 -6.574999e+00 0.000000e+00
      vertex 1.870099e+01 -1.675001e+00 0.000000e+00
      vertex 1.893933e+01 -1.985662e+00 0.000000e+00
    endloop
  endfacet
  facet normal -1.502946e-13 -1.601460e-12 -1.000000e+00
    outer loop
      vertex 1.000000e+01 -6.574999e+00 0.000000e+00
      vertex 1.893933e+01 -1.985662e+00 0.000000e+00
      vertex 1.925000e+01 -2.224039e+00 0.000000e+00
    endloop
  endfacet
  facet normal -1.502946e-13 -1.601460e-12 -1.000000e+00
    outer loop
      vertex 1.000000e+01 -6.574999e+00 0.000000e+00
      vertex 1.925000e+01 -2.224039e+00 0.000000e+00
      vertex 1.961182e+01 -2.373888e+00 0.000000e+00
    endloop
  endfacet
  facet normal -1.502946e-13 -1.601460e-12 -1.000000e+00
    outer loop
      vertex 1.000000e+01 -6.574999e+00 0.000000e+00
      vertex 1.961182e+01 -2.373888e+00 0.000000e+00
      vertex 2.000000e+01 -2.425001e+00 0.000000e+00
    endloop
  endfacet
  facet normal -1.502946e-13 -1.601460e-12 -1.000000e+00
    outer loop
      vertex 2.000000e+01 5.749989e-01 0.000000e+00
      vertex -2.500000e+01 -4.250011e-01 0.000000e+00
      vertex -2.500000e+01 2.574999e+00 0.000000e+00
    endloop
  endfacet
  facet normal -1.502946e-13 -1.601460e-12 -1.000000e+00
    outer loop
      vertex -2.500000e+01 -4.250011e-01 0.000000e+00
      vertex 2.000000e+01 5.749989e-01 0.000000e+00
      vertex 1.961182e+01 5.238895e-01 0.000000e+00
    endloop
  endfacet
  facet normal -1.502946e-13 -1.601460e-12 -1.000000e+00
    outer loop
      vertex -2.500000e+01 -4.250011e-01 0.000000e+00
      vertex 1.961182e+01 5.238895e-01 0.000000e+00
      vertex 1.925000e+01 3.740368e-01 0.000000e+00
    endloop
  endfacet
  facet normal -1.502946e-13 -1.601460e-12 -1.000000e+00
    outer loop
      vertex -2.500000e+01 -4.250011e-01 0.000000e+00
      vertex 1.925000e+01 3.740368e-01 0.000000e+00
      vertex 1.893933e+01 1.356602e-01 0.000000e+00
    endloop
  endfacet
  facet normal -1.502946e-13 -1.601460e-12 -1.000000e+00
    outer loop
      vertex -2.500000e+01 -4.250011e-01 0.000000e+00
      vertex 1.893933e+01 1.356602e-01 0.000000e+00
      vertex 1.870099e+01 -1.750011e-01 0.000000e+00
    endloop
  endfacet
  facet normal -1.502946e-13 -1.601460e-12 -1.000000e+00
    outer loop
      vertex -2.500000e+01 -4.250011e-01 0.000000e+00
      vertex 1.870099e+01 -1.750011e-01 0.000000e+00
      vertex 1.000000e+01 -4.250011e-01 0.000000e+00
    endloop
  endfacet
  facet normal 9.914449e-01 1.305262e-01 -7.992423e-18
    outer loop
      vertex 1.855115e+01 -1.313231e+00 0.000000e+00
      vertex 1.850000e+01 -9.250011e-01 4.149963e+00
      vertex 1.855115e+01 -1.313231e+00 4.149963e+00
    endloop
  endfacet
  facet normal 9.914449e-01 1.305262e-01 -7.992423e-18
    outer loop
      vertex 1.850000e+01 -9.250011e-01 4.149963e+00
      vertex 1.855115e+01 -1.313231e+00 0.000000e+00
      vertex 1.850000e+01 -9.250011e-01 0.000000e+00
    endloop
  endfacet
  facet normal 9.238795e-01 3.826834e-01 -2.343260e-17
    outer loop
      vertex 1.870099e+01 -1.675001e+00 0.000000e+00
      vertex 1.855115e+01 -1.313231e+00 4.149963e+00
      vertex 1.870099e+01 -1.675001e+00 4.149963e+00
    endloop
  endfacet
  facet normal 9.238795e-01 3.826834e-01 -2.343260e-17
    outer loop
      vertex 1.855115e+01 -1.313231e+00 4.149963e+00
      vertex 1.870099e+01 -1.675001e+00 0.000000e+00
      vertex 1.855115e+01 -1.313231e+00 0.000000e+00
    endloop
  endfacet
  facet normal 7.933533e-01 6.087614e-01 -3.727589e-17
    outer loop
      vertex 1.893933e+01 -1.985662e+00 0.000000e+00
      vertex 1.870099e+01 -1.675001e+00 4.149963e+00
      vertex 1.893933e+01 -1.985662e+00 4.149963e+00
    endloop
  endfacet
  facet normal 7.933533e-01 6.087614e-01 -3.727589e-17
    outer loop
      vertex 1.870099e+01 -1.675001e+00 4.149963e+00
      vertex 1.893933e+01 -1.985662e+00 0.000000e+00
      vertex 1.870099e+01 -1.675001e+00 0.000000e+00
    endloop
  endfacet
  facet normal 6.087614e-01 7.933533e-01 -4.857888e-17
    outer loop
      vertex 1.925000e+01 -2.224039e+00 0.000000e+00
      vertex 1.893933e+01 -1.985662e+00 4.149963e+00
      vertex 1.925000e+01 -2.224039e+00 4.149963e+00
    endloop
  endfacet
  facet normal 6.087614e-01 7.933533e-01 -4.857888e-17
    outer loop
      vertex 1.893933e+01 -1.985662e+00 4.149963e+00
      vertex 1.925000e+01 -2.224039e+00 0.000000e+00
      vertex 1.893933e+01 -1.985662e+00 0.000000e+00
    endloop
  endfacet
  facet normal 3.826834e-01 9.238795e-01 -5.657131e-17
    outer loop
      vertex 1.961182e+01 -2.373888e+00 0.000000e+00
      vertex 1.925000e+01 -2.224039e+00 4.149963e+00
      vertex 1.961182e+01 -2.373888e+00 4.149963e+00
    endloop
  endfacet
  facet normal 3.826834e-01 9.238795e-01 -5.657131e-17
    outer loop
      vertex 1.925000e+01 -2.224039e+00 4.149963e+00
      vertex 1.961182e+01 -2.373888e+00 0.000000e+00
      vertex 1.925000e+01 -2.224039e+00 0.000000e+00
    endloop
  endfacet
  facet normal 1.305262e-01 9.914449e-01 -6.070849e-17
    outer loop
      vertex 2.000000e+01 -2.425001e+00 0.000000e+00
      vertex 1.961182e+01 -2.373888e+00 4.149963e+00
      vertex 2.000000e+01 -2.425001e+00 4.149963e+00
    endloop
  endfacet
  facet normal 1.305262e-01 9.914449e-01 -6.070849e-17
    outer loop
      vertex 1.961182e+01 -2.373888e+00 4.149963e+00
      vertex 2.000000e+01 -2.425001e+00 0.000000e+00
      vertex 1.961182e+01 -2.373888e+00 0.000000e+00
    endloop
  endfacet
  facet normal -1.305262e-01 9.914449e-01 -6.070849e-17
    outer loop
      vertex 2.038824e+01 -2.373888e+00 0.000000e+00
      vertex 2.000000e+01 -2.425001e+00 4.149963e+00
      vertex 2.038824e+01 -2.373888e+00 4.149963e+00
    endloop
  endfacet
  facet normal -1.305262e-01 9.914449e-01 -6.070849e-17
    outer loop
      vertex 2.000000e+01 -2.425001e+00 4.149963e+00
      vertex 2.038824e+01 -2.373888e+00 0.000000e+00
      vertex 2.000000e+01 -2.425001e+00 0.000000e+00
    endloop
  endfacet
  facet normal -3.826834e-01 9.238795e-01 -5.657131e-17
    outer loop
      vertex 2.075000e+01 -2.224039e+00 0.000000e+00
      vertex 2.038824e+01 -2.373888e+00 4.149963e+00
      vertex 2.075000e+01 -2.224039e+00 4.149963e+00
    endloop
  endfacet
  facet normal -3.826834e-01 9.238795e-01 -5.657131e-17
    outer loop
      vertex 2.038824e+01 -2.373888e+00 4.149963e+00
      vertex 2.075000e+01 -2.224039e+00 0.000000e+00
      vertex 2.038824e+01 -2.373888e+00 0.000000e+00
    endloop
  endfacet
  facet normal -6.087614e-01 7.933533e-01 -4.857888e-17
    outer loop
      vertex 2.106067e+01 -1.985662e+00 0.000000e+00
      vertex 2.075000e+01 -2.224039e+00 4.149963e+00
      vertex 2.106067e+01 -1.985662e+00 4.149963e+00
    endloop
  endfacet
  facet normal -6.087614e-01 7.933533e-01 -4.857888e-17
    outer loop
      vertex 2.075000e+01 -2.224039e+00 4.149963e+00
      vertex 2.106067e+01 -1.985662e+00 0.000000e+00
      vertex 2.075000e+01 -2.224039e+00 0.000000e+00
    endloop
  endfacet
  facet normal -7.933533e-01 6.087614e-01 -3.727589e-17
    outer loop
      vertex 2.129907e+01 -1.675001e+00 0.000000e+00
      vertex 2.106067e+01 -1.985662e+00 4.149963e+00
      vertex 2.129907e+01 -1.675001e+00 4.149963e+00
    endloop
  endfacet
  facet normal -7.933533e-01 6.087614e-01 -3.727589e-17
    outer loop
      vertex 2.106067e+01 -1.985662e+00 4.149963e+00
      vertex 2.129907e+01 -1.675001e+00 0.000000e+00
      vertex 2.106067e+01 -1.985662e+00 0.000000e+00
    endloop
  endfacet
  facet normal -9.238795e-01 3.826834e-01 -2.343260e-17
    outer loop
      vertex 2.144891e+01 -1.313231e+00 0.000000e+00
      vertex 2.129907e+01 -1.675001e+00 4.149963e+00
      vertex 2.144891e+01 -1.313231e+00 4.149963e+00
    endloop
  endfacet
  facet normal -9.238795e-01 3.826834e-01 -2.343260e-17
    outer loop
      vertex 2.129907e+01 -1.675001e+00 4.149963e+00
      vertex 2.144891e+01 -1.313231e+00 0.000000e+00
      vertex 2.129907e+01 -1.675001e+00 0.000000e+00
    endloop
  endfacet
  facet normal -9.914449e-01 1.305262e-01 -7.992423e-18
    outer loop
      vertex 2.150000e+01 -9.250011e-01 0.000000e+00
      vertex 2.144891e+01 -1.313231e+00 4.149963e+00
      vertex 2.150000e+01 -9.250011e-01 4.149963e+00
    endloop
  endfacet
  facet normal -9.914449e-01 1.305262e-01 -7.992423e-18
    outer loop
      vertex 2.144891e+01 -1.313231e+00 4.149963e+00
      vertex 2.150000e+01 -9.250011e-01 0.000000e+00
      vertex 2.144891e+01 -1.313231e+00 0.000000e+00
    endloop
  endfacet
  facet normal -9.914449e-01 -1.305262e-01 7.992423e-18
    outer loop
      vertex 2.144891e+01 -5.367718e-01 0.000000e+00
      vertex 2.150000e+01 -9.250011e-01 4.149963e+00
      vertex 2.144891e+01 -5.367718e-01 4.149963e+00
    endloop
  endfacet
  facet normal -9.914449e-01 -1.305262e-01 7.992423e-18
    outer loop
      vertex 2.150000e+01 -9.250011e-01 4.149963e+00
      vertex 2.144891e+01 -5.367718e-01 0.000000e+00
      vertex 2.150000e+01 -9.250011e-01 0.000000e+00
    endloop
  endfacet
  facet normal -9.238795e-01 -3.826834e-01 2.343260e-17
    outer loop
      vertex 2.129907e+01 -1.750011e-01 0.000000e+00
      vertex 2.144891e+01 -5.367718e-01 4.149963e+00
      vertex 2.129907e+01 -1.750011e-01 4.149963e+00
    endloop
  endfacet
  facet normal -9.238795e-01 -3.826834e-01 2.343260e-17
    outer loop
      vertex 2.144891e+01 -5.367718e-01 4.149963e+00
      vertex 2.129907e+01 -1.750011e-01 0.000000e+00
      vertex 2.144891e+01 -5.367718e-01 0.000000e+00
    endloop
  endfacet
  facet normal -7.933533e-01 -6.087614e-01 3.727589e-17
    outer loop
      vertex 2.106067e+01 1.356602e-01 0.000000e+00
      vertex 2.129907e+01 -1.750011e-01 4.149963e+00
      vertex 2.106067e+01 1.356602e-01 4.149963e+00
    endloop
  endfacet
  facet normal -7.933533e-01 -6.087614e-01 3.727589e-17
    outer loop
      vertex 2.129907e+01 -1.750011e-01 4.149963e+00
      vertex 2.106067e+01 1.356602e-01 0.000000e+00
      vertex 2.129907e+01 -1.750011e-01 0.000000e+00
    endloop
  endfacet
  facet normal -6.087614e-01 -7.933533e-01 4.857888e-17
    outer loop
      vertex 2.075000e+01 3.740368e-01 4.149963e+00
      vertex 2.106067e+01 1.356602e-01 0.000000e+00
      vertex 2.106067e+01 1.356602e-01 4.149963e+00
    endloop
  endfacet
  facet normal -6.087614e-01 -7.933533e-01 4.857888e-17
    outer loop
      vertex 2.106067e+01 1.356602e-01 0.000000e+00
      vertex 2.075000e+01 3.740368e-01 4.149963e+00
      vertex 2.075000e+01 3.740368e-01 0.000000e+00
    endloop
  endfacet
  facet normal -3.826834e-01 -9.238795e-01 5.657131e-17
    outer loop
      vertex 2.038824e+01 5.238895e-01 4.149963e+00
      vertex 2.075000e+01 3.740368e-01 0.000000e+00
      vertex 2.075000e+01 3.740368e-01 4.149963e+00
    endloop
  endfacet
  facet normal -3.826834e-01 -9.238795e-01 5.657131e-17
    outer loop
      vertex 2.075000e+01 3.740368e-01 0.000000e+00
      vertex 2.038824e+01 5.238895e-01 4.149963e+00
      vertex 2.038824e+01 5.238895e-01 0.000000e+00
    endloop
  endfacet
  facet normal -1.305262e-01 -9.914449e-01 6.070849e-17
    outer loop
      vertex 2.000000e+01 5.749989e-01 4.149963e+00
      vertex 2.038824e+01 5.238895e-01 0.000000e+00
      vertex 2.038824e+01 5.238895e-01 4.149963e+00
    endloop
  endfacet
  facet normal -1.305262e-01 -9.914449e-01 6.070849e-17
    outer loop
      vertex 2.038824e+01 5.238895e-01 0.000000e+00
      vertex 2.000000e+01 5.749989e-01 4.149963e+00
      vertex 2.000000e+01 5.749989e-01 0.000000e+00
    endloop
  endfacet
  facet normal 1.305262e-01 -9.914449e-01 6.070849e-17
    outer loop
      vertex 1.961182e+01 5.238895e-01 4.149963e+00
      vertex 2.000000e+01 5.749989e-01 0.000000e+00
      vertex 2.000000e+01 5.749989e-01 4.149963e+00
    endloop
  endfacet
  facet normal 1.305262e-01 -9.914449e-01 6.070849e-17
    outer loop
      vertex 2.000000e+01 5.749989e-01 0.000000e+00
      vertex 1.961182e+01 5.238895e-01 4.149963e+00
      vertex 1.961182e+01 5.238895e-01 0.000000e+00
    endloop
  endfacet
  facet normal 3.826834e-01 -9.238795e-01 5.657131e-17
    outer loop
      vertex 1.925000e+01 3.740368e-01 4.149963e+00
      vertex 1.961182e+01 5.238895e-01 0.000000e+00
      vertex 1.961182e+01 5.238895e-01 4.149963e+00
    endloop
  endfacet
  facet normal 3.826834e-01 -9.238795e-01 5.657131e-17
    outer loop
      vertex 1.961182e+01 5.238895e-01 0.000000e+00
      vertex 1.925000e+01 3.740368e-01 4.149963e+00
      vertex 1.925000e+01 3.740368e-01 0.000000e+00
    endloop
  endfacet
  facet normal 6.087614e-01 -7.933533e-01 4.857888e-17
    outer loop
      vertex 1.893933e+01 1.356602e-01 4.149963e+00
      vertex 1.925000e+01 3.740368e-01 0.000000e+00
      vertex 1.925000e+01 3.740368e-01 4.149963e+00
    endloop
  endfacet
  facet normal 6.087614e-01 -7.933533e-01 4.857888e-17
    outer loop
      vertex 1.925000e+01 3.740368e-01 0.000000e+00
      vertex 1.893933e+01 1.356602e-01 4.149963e+00
      vertex 1.893933e+01 1.356602e-01 0.000000e+00
    endloop
  endfacet
  facet normal 7.933533e-01 -6.087614e-01 3.727589e-17
    outer loop
      vertex 1.870099e+01 -1.750011e-01 0.000000e+00
      vertex 1.893933e+01 1.356602e-01 4.149963e+00
      vertex 1.870099e+01 -1.750011e-01 4.149963e+00
    endloop
  endfacet
  facet normal 7.933533e-01 -6.087614e-01 3.727589e-17
    outer loop
      vertex 1.893933e+01 1.356602e-01 4.149963e+00
      vertex 1.870099e+01 -1.750011e-01 0.000000e+00
      vertex 1.893933e+01 1.356602e-01 0.000000e+00
    endloop
  endfacet
  facet normal 9.238795e-01 -3.826834e-01 2.343260e-17
    outer loop
      vertex 1.855115e+01 -5.367718e-01 0.000000e+00
      vertex 1.870099e+01 -1.750011e-01 4.149963e+00
      vertex 1.855115e+01 -5.367718e-01 4.149963e+00
    endloop
  endfacet
  facet normal 9.238795e-01 -3.826834e-01 2.343260e-17
    outer loop
      vertex 1.870099e+01 -1.750011e-01 4.149963e+00
      vertex 1.855115e+01 -5.367718e-01 0.000000e+00
      vertex 1.870099e+01 -1.750011e-01 0.000000e+00
    endloop
  endfacet
  facet normal 9.914449e-01 -1.305262e-01 7.992423e-18
    outer loop
      vertex 1.850000e+01 -9.250011e-01 0.000000e+00
      vertex 1.855115e+01 -5.367718e-01 4.149963e+00
      vertex 1.850000e+01 -9.250011e-01 4.149963e+00
    endloop
  endfacet
  facet normal 9.914449e-01 -1.305262e-01 7.992423e-18
    outer loop
      vertex 1.855115e+01 -5.367718e-01 4.149963e+00
      vertex 1.850000e+01 -9.250011e-01 0.000000e+00
      vertex 1.855115e+01 -5.367718e-01 0.000000e+00
    endloop
  endfacet
  facet normal -1.000000e+00 5.858583e-13 8.906474e-14
    outer loop
      vertex 1.000000e+01 -4.250011e-01 4.149963e+00
      vertex 1.000000e+01 -6.574999e+00 0.000000e+00
      vertex 1.000000e+01 -6.574999e+00 4.149963e+00
    endloop
  endfacet
  facet normal -1.000000e+00 5.858583e-13 8.906474e-14
    outer loop
      vertex 1.000000e+01 -6.574999e+00 0.000000e+00
      vertex 1.000000e+01 -4.250011e-01 4.149963e+00
      vertex 1.000000e+01 -4.250011e-01 0.000000e+00
    endloop
  endfacet
  facet normal -1.227666e-12 -1.000000e+00 -1.863865e-15
    outer loop
      vertex 1.000000e+01 -6.574999e+00 4.149963e+00
      vertex 2.500000e+01 -6.574999e+00 0.000000e+00
      vertex 2.500000e+01 -6.574999e+00 4.149963e+00
    endloop
  endfacet
  facet normal -1.227666e-12 -1.000000e+00 -1.863865e-15
    outer loop
      vertex 2.500000e+01 -6.574999e+00 0.000000e+00
      vertex 1.000000e+01 -6.574999e+00 4.149963e+00
      vertex 1.000000e+01 -6.574999e+00 0.000000e+00
    endloop
  endfacet
  facet normal -2.755183e-16 1.000000e+00 2.857812e-18
    outer loop
      vertex 1.000000e+01 2.574999e+00 1.000000e+01
      vertex 5.875000e+00 2.574999e+00 6.515503e+00
      vertex 0.000000e+00 2.574999e+00 1.000000e+01
    endloop
  endfacet
  facet normal -2.755183e-16 1.000000e+00 2.857812e-18
    outer loop
      vertex 5.875000e+00 2.574999e+00 6.515503e+00
      vertex 1.000000e+01 2.574999e+00 1.000000e+01
      vertex 6.237427e+00 2.574999e+00 6.237427e+00
    endloop
  endfacet
  facet normal -2.755183e-16 1.000000e+00 2.857812e-18
    outer loop
      vertex 6.237427e+00 2.574999e+00 6.237427e+00
      vertex 1.000000e+01 2.574999e+00 1.000000e+01
      vertex 6.515564e+00 2.574999e+00 5.875000e+00
    endloop
  endfacet
  facet normal -2.755183e-16 1.000000e+00 2.857812e-18
    outer loop
      vertex 6.515564e+00 2.574999e+00 5.875000e+00
      vertex 1.000000e+01 2.574999e+00 1.000000e+01
      vertex 6.690369e+00 2.574999e+00 5.452942e+00
    endloop
  endfacet
  facet normal -2.755183e-16 1.000000e+00 2.857812e-18
    outer loop
      vertex 6.690369e+00 2.574999e+00 5.452942e+00
      vertex 1.000000e+01 2.574999e+00 1.000000e+01
      vertex 6.750000e+00 2.574999e+00 5.000000e+00
    endloop
  endfacet
  facet normal -2.755183e-16 1.000000e+00 2.857812e-18
    outer loop
      vertex 0.000000e+00 2.574999e+00 1.000000e+01
      vertex 5.875000e+00 2.574999e+00 6.515503e+00
      vertex 5.452942e+00 2.574999e+00 6.690369e+00
    endloop
  endfacet
  facet normal -2.755183e-16 1.000000e+00 2.857812e-18
    outer loop
      vertex 0.000000e+00 2.574999e+00 1.000000e+01
      vertex 5.452942e+00 2.574999e+00 6.690369e+00
      vertex 5.000000e+00 2.574999e+00 6.750000e+00
    endloop
  endfacet
  facet normal -2.755183e-16 1.000000e+00 2.857812e-18
    outer loop
      vertex 0.000000e+00 2.574999e+00 1.000000e+01
      vertex 5.000000e+00 2.574999e+00 6.750000e+00
      vertex 4.547058e+00 2.574999e+00 6.690369e+00
    endloop
  endfacet
  facet normal -2.755183e-16 1.000000e+00 2.857812e-18
    outer loop
      vertex 0.000000e+00 2.574999e+00 1.000000e+01
      vertex 4.547058e+00 2.574999e+00 6.690369e+00
      vertex 4.125000e+00 2.574999e+00 6.515503e+00
    endloop
  endfacet
  facet normal -2.755183e-16 1.000000e+00 2.857812e-18
    outer loop
      vertex 0.000000e+00 2.574999e+00 1.000000e+01
      vertex 4.125000e+00 2.574999e+00 6.515503e+00
      vertex 3.762573e+00 2.574999e+00 6.237427e+00
    endloop
  endfacet
  facet normal -2.755183e-16 1.000000e+00 2.857812e-18
    outer loop
      vertex 0.000000e+00 2.574999e+00 1.000000e+01
      vertex 3.762573e+00 2.574999e+00 6.237427e+00
      vertex 3.484497e+00 2.574999e+00 5.875000e+00
    endloop
  endfacet
  facet normal -2.755183e-16 1.000000e+00 2.857812e-18
    outer loop
      vertex 0.000000e+00 2.574999e+00 1.000000e+01
      vertex 3.484497e+00 2.574999e+00 5.875000e+00
      vertex 3.309631e+00 2.574999e+00 5.452942e+00
    endloop
  endfacet
  facet normal -2.755183e-16 1.000000e+00 2.857812e-18
    outer loop
      vertex 0.000000e+00 2.574999e+00 1.000000e+01
      vertex 3.309631e+00 2.574999e+00 5.452942e+00
      vertex 3.250000e+00 2.574999e+00 5.000000e+00
    endloop
  endfacet
  facet normal -2.755183e-16 1.000000e+00 2.857812e-18
    outer loop
      vertex 0.000000e+00 2.574999e+00 1.000000e+01
      vertex 3.250000e+00 2.574999e+00 5.000000e+00
      vertex 0.000000e+00 2.574999e+00 4.000000e+00
    endloop
  endfacet
  facet normal -2.755183e-16 1.000000e+00 2.857812e-18
    outer loop
      vertex 1.000000e+01 2.574999e+00 4.149963e+00
      vertex 1.000000e+01 2.574999e+00 1.000000e+01
      vertex 1.200000e+01 2.574999e+00 4.149963e+00
    endloop
  endfacet
  facet normal -2.755183e-16 1.000000e+00 2.857812e-18
    outer loop
      vertex 1.000000e+01 2.574999e+00 1.000000e+01
      vertex 1.000000e+01 2.574999e+00 4.149963e+00
      vertex 1.000000e+01 2.574999e+00 0.000000e+00
    endloop
  endfacet
  facet normal -2.755183e-16 1.000000e+00 2.857812e-18
    outer loop
      vertex 1.000000e+01 2.574999e+00 1.000000e+01
      vertex 1.000000e+01 2.574999e+00 0.000000e+00
      vertex 6.515564e+00 2.574999e+00 4.125000e+00
    endloop
  endfacet
  facet normal -2.755183e-16 1.000000e+00 2.857812e-18
    outer loop
      vertex 6.515564e+00 2.574999e+00 4.125000e+00
      vertex 1.000000e+01 2.574999e+00 0.000000e+00
      vertex 6.237427e+00 2.574999e+00 3.762573e+00
    endloop
  endfacet
  facet normal -2.755183e-16 1.000000e+00 2.857812e-18
    outer loop
      vertex 6.237427e+00 2.574999e+00 3.762573e+00
      vertex 1.000000e+01 2.574999e+00 0.000000e+00
      vertex 5.875000e+00 2.574999e+00 3.484436e+00
    endloop
  endfacet
  facet normal -2.755183e-16 1.000000e+00 2.857812e-18
    outer loop
      vertex 5.875000e+00 2.574999e+00 3.484436e+00
      vertex 1.000000e+01 2.574999e+00 0.000000e+00
      vertex 5.452942e+00 2.574999e+00 3.309631e+00
    endloop
  endfacet
  facet normal -2.755183e-16 1.000000e+00 2.857812e-18
    outer loop
      vertex 5.452942e+00 2.574999e+00 3.309631e+00
      vertex 1.000000e+01 2.574999e+00 0.000000e+00
      vertex 5.000000e+00 2.574999e+00 3.250000e+00
    endloop
  endfacet
  facet normal -2.755183e-16 1.000000e+00 2.857812e-18
    outer loop
      vertex 5.000000e+00 2.574999e+00 3.250000e+00
      vertex 1.000000e+01 2.574999e+00 0.000000e+00
      vertex -2.500000e+01 2.574999e+00 0.000000e+00
    endloop
  endfacet
  facet normal -2.755183e-16 1.000000e+00 2.857812e-18
    outer loop
      vertex 1.000000e+01 2.574999e+00 1.000000e+01
      vertex 6.515564e+00 2.574999e+00 4.125000e+00
      vertex 6.690369e+00 2.574999e+00 4.547058e+00
    endloop
  endfacet
  facet normal -2.755183e-16 1.000000e+00 2.857812e-18
    outer loop
      vertex 1.000000e+01 2.574999e+00 1.000000e+01
      vertex 6.690369e+00 2.574999e+00 4.547058e+00
      vertex 6.750000e+00 2.574999e+00 5.000000e+00
    endloop
  endfacet
  facet normal -2.755183e-16 1.000000e+00 2.857812e-18
    outer loop
      vertex 5.000000e+00 2.574999e+00 3.250000e+00
      vertex -2.500000e+01 2.574999e+00 0.000000e+00
      vertex 4.547058e+00 2.574999e+00 3.309631e+00
    endloop
  endfacet
  facet normal -2.755183e-16 1.000000e+00 2.857812e-18
    outer loop
      vertex 4.547058e+00 2.574999e+00 3.309631e+00
      vertex -2.500000e+01 2.574999e+00 0.000000e+00
      vertex 4.125000e+00 2.574999e+00 3.484436e+00
    endloop
  endfacet
  facet normal -2.755183e-16 1.000000e+00 2.857812e-18
    outer loop
      vertex 4.125000e+00 2.574999e+00 3.484436e+00
      vertex -2.500000e+01 2.574999e+00 0.000000e+00
      vertex 3.762573e+00 2.574999e+00 3.762573e+00
    endloop
  endfacet
  facet normal -2.755183e-16 1.000000e+00 2.857812e-18
    outer loop
      vertex 3.762573e+00 2.574999e+00 3.762573e+00
      vertex -2.500000e+01 2.574999e+00 0.000000e+00
      vertex 3.484497e+00 2.574999e+00 4.125000e+00
    endloop
  endfacet
  facet normal -2.755183e-16 1.000000e+00 2.857812e-18
    outer loop
      vertex 3.484497e+00 2.574999e+00 4.125000e+00
      vertex -2.500000e+01 2.574999e+00 0.000000e+00
      vertex 0.000000e+00 2.574999e+00 4.000000e+00
    endloop
  endfacet
  facet normal -2.755183e-16 1.000000e+00 2.857812e-18
    outer loop
      vertex 3.484497e+00 2.574999e+00 4.125000e+00
      vertex 0.000000e+00 2.574999e+00 4.000000e+00
      vertex 3.309631e+00 2.574999e+00 4.547058e+00
    endloop
  endfacet
  facet normal -2.755183e-16 1.000000e+00 2.857812e-18
    outer loop
      vertex 3.309631e+00 2.574999e+00 4.547058e+00
      vertex 0.000000e+00 2.574999e+00 4.000000e+00
      vertex 3.250000e+00 2.574999e+00 5.000000e+00
    endloop
  endfacet
  facet normal -2.755183e-16 1.000000e+00 2.857812e-18
    outer loop
      vertex 0.000000e+00 2.574999e+00 4.000000e+00
      vertex -2.500000e+01 2.574999e+00 0.000000e+00
      vertex -1.500000e+01 2.574999e+00 4.000000e+00
    endloop
  endfacet
  facet normal -2.755183e-16 1.000000e+00 2.857812e-18
    outer loop
      vertex -1.500000e+01 2.574999e+00 4.000000e+00
      vertex -2.500000e+01 2.574999e+00 0.000000e+00
      vertex -1.912500e+01 2.574999e+00 3.484436e+00
    endloop
  endfacet
  facet normal -2.755183e-16 1.000000e+00 2.857812e-18
    outer loop
      vertex -1.500000e+01 2.574999e+00 4.000000e+00
      vertex -1.912500e+01 2.574999e+00 3.484436e+00
      vertex -1.876257e+01 2.574999e+00 3.762573e+00
    endloop
  endfacet
  facet normal -2.755183e-16 1.000000e+00 2.857812e-18
    outer loop
      vertex -1.500000e+01 2.574999e+00 4.000000e+00
      vertex -1.876257e+01 2.574999e+00 3.762573e+00
      vertex -1.848444e+01 2.574999e+00 4.125000e+00
    endloop
  endfacet
  facet normal -2.755183e-16 1.000000e+00 2.857812e-18
    outer loop
      vertex -1.500000e+01 2.574999e+00 4.000000e+00
      vertex -1.848444e+01 2.574999e+00 4.125000e+00
      vertex -1.500000e+01 2.574999e+00 1.000000e+01
    endloop
  endfacet
  facet normal -2.755183e-16 1.000000e+00 2.857812e-18
    outer loop
      vertex -1.500000e+01 2.574999e+00 1.000000e+01
      vertex -1.848444e+01 2.574999e+00 4.125000e+00
      vertex -1.830963e+01 2.574999e+00 4.547058e+00
    endloop
  endfacet
  facet normal -2.755183e-16 1.000000e+00 2.857812e-18
    outer loop
      vertex -1.500000e+01 2.574999e+00 1.000000e+01
      vertex -1.830963e+01 2.574999e+00 4.547058e+00
      vertex -1.825000e+01 2.574999e+00 5.000000e+00
    endloop
  endfacet
  facet normal -2.755183e-16 1.000000e+00 2.857812e-18
    outer loop
      vertex -1.912500e+01 2.574999e+00 3.484436e+00
      vertex -2.500000e+01 2.574999e+00 0.000000e+00
      vertex -1.954706e+01 2.574999e+00 3.309631e+00
    endloop
  endfacet
  facet normal -2.755183e-16 1.000000e+00 2.857812e-18
    outer loop
      vertex -1.954706e+01 2.574999e+00 3.309631e+00
      vertex -2.500000e+01 2.574999e+00 0.000000e+00
      vertex -2.000000e+01 2.574999e+00 3.250000e+00
    endloop
  endfacet
  facet normal -2.755183e-16 1.000000e+00 2.857812e-18
    outer loop
      vertex -2.000000e+01 2.574999e+00 3.250000e+00
      vertex -2.500000e+01 2.574999e+00 0.000000e+00
      vertex -2.045294e+01 2.574999e+00 3.309631e+00
    endloop
  endfacet
  facet normal -2.755183e-16 1.000000e+00 2.857812e-18
    outer loop
      vertex -2.045294e+01 2.574999e+00 3.309631e+00
      vertex -2.500000e+01 2.574999e+00 0.000000e+00
      vertex -2.087500e+01 2.574999e+00 3.484436e+00
    endloop
  endfacet
  facet normal -2.755183e-16 1.000000e+00 2.857812e-18
    outer loop
      vertex -2.087500e+01 2.574999e+00 3.484436e+00
      vertex -2.500000e+01 2.574999e+00 0.000000e+00
      vertex -2.123743e+01 2.574999e+00 3.762573e+00
    endloop
  endfacet
  facet normal -2.755183e-16 1.000000e+00 2.857812e-18
    outer loop
      vertex -2.123743e+01 2.574999e+00 3.762573e+00
      vertex -2.500000e+01 2.574999e+00 0.000000e+00
      vertex -2.151550e+01 2.574999e+00 4.125000e+00
    endloop
  endfacet
  facet normal -2.755183e-16 1.000000e+00 2.857812e-18
    outer loop
      vertex -2.151550e+01 2.574999e+00 4.125000e+00
      vertex -2.500000e+01 2.574999e+00 0.000000e+00
      vertex -2.169037e+01 2.574999e+00 4.547058e+00
    endloop
  endfacet
  facet normal -2.755183e-16 1.000000e+00 2.857812e-18
    outer loop
      vertex -2.169037e+01 2.574999e+00 4.547058e+00
      vertex -2.500000e+01 2.574999e+00 0.000000e+00
      vertex -2.175000e+01 2.574999e+00 5.000000e+00
    endloop
  endfacet
  facet normal -2.755183e-16 1.000000e+00 2.857812e-18
    outer loop
      vertex -1.500000e+01 2.574999e+00 1.000000e+01
      vertex -1.912500e+01 2.574999e+00 6.515503e+00
      vertex -2.500000e+01 2.574999e+00 1.000000e+01
    endloop
  endfacet
  facet normal -2.755183e-16 1.000000e+00 2.857812e-18
    outer loop
      vertex -1.912500e+01 2.574999e+00 6.515503e+00
      vertex -1.500000e+01 2.574999e+00 1.000000e+01
      vertex -1.876257e+01 2.574999e+00 6.237427e+00
    endloop
  endfacet
  facet normal -2.755183e-16 1.000000e+00 2.857812e-18
    outer loop
      vertex -1.876257e+01 2.574999e+00 6.237427e+00
      vertex -1.500000e+01 2.574999e+00 1.000000e+01
      vertex -1.848444e+01 2.574999e+00 5.875000e+00
    endloop
  endfacet
  facet normal -2.755183e-16 1.000000e+00 2.857812e-18
    outer loop
      vertex -1.848444e+01 2.574999e+00 5.875000e+00
      vertex -1.500000e+01 2.574999e+00 1.000000e+01
      vertex -1.830963e+01 2.574999e+00 5.452942e+00
    endloop
  endfacet
  facet normal -2.755183e-16 1.000000e+00 2.857812e-18
    outer loop
      vertex -1.830963e+01 2.574999e+00 5.452942e+00
      vertex -1.500000e+01 2.574999e+00 1.000000e+01
      vertex -1.825000e+01 2.574999e+00 5.000000e+00
    endloop
  endfacet
  facet normal -2.755183e-16 1.000000e+00 2.857812e-18
    outer loop
      vertex -2.500000e+01 2.574999e+00 1.000000e+01
      vertex -1.912500e+01 2.574999e+00 6.515503e+00
      vertex -1.954706e+01 2.574999e+00 6.690369e+00
    endloop
  endfacet
  facet normal -2.755183e-16 1.000000e+00 2.857812e-18
    outer loop
      vertex -2.500000e+01 2.574999e+00 1.000000e+01
      vertex -1.954706e+01 2.574999e+00 6.690369e+00
      vertex -2.000000e+01 2.574999e+00 6.750000e+00
    endloop
  endfacet
  facet normal -2.755183e-16 1.000000e+00 2.857812e-18
    outer loop
      vertex -2.500000e+01 2.574999e+00 1.000000e+01
      vertex -2.000000e+01 2.574999e+00 6.750000e+00
      vertex -2.045294e+01 2.574999e+00 6.690369e+00
    endloop
  endfacet
  facet normal -2.755183e-16 1.000000e+00 2.857812e-18
    outer loop
      vertex -2.500000e+01 2.574999e+00 1.000000e+01
      vertex -2.045294e+01 2.574999e+00 6.690369e+00
      vertex -2.087500e+01 2.574999e+00 6.515503e+00
    endloop
  endfacet
  facet normal -2.755183e-16 1.000000e+00 2.857812e-18
    outer loop
      vertex -2.500000e+01 2.574999e+00 1.000000e+01
      vertex -2.087500e+01 2.574999e+00 6.515503e+00
      vertex -2.123743e+01 2.574999e+00 6.237427e+00
    endloop
  endfacet
  facet normal -2.755183e-16 1.000000e+00 2.857812e-18
    outer loop
      vertex -2.500000e+01 2.574999e+00 1.000000e+01
      vertex -2.123743e+01 2.574999e+00 6.237427e+00
      vertex -2.151550e+01 2.574999e+00 5.875000e+00
    endloop
  endfacet
  facet normal -2.755183e-16 1.000000e+00 2.857812e-18
    outer loop
      vertex -2.500000e+01 2.574999e+00 1.000000e+01
      vertex -2.151550e+01 2.574999e+00 5.875000e+00
      vertex -2.169037e+01 2.574999e+00 5.452942e+00
    endloop
  endfacet
  facet normal -2.755183e-16 1.000000e+00 2.857812e-18
    outer loop
      vertex -2.500000e+01 2.574999e+00 1.000000e+01
      vertex -2.169037e+01 2.574999e+00 5.452942e+00
      vertex -2.175000e+01 2.574999e+00 5.000000e+00
    endloop
  endfacet
  facet normal -2.755183e-16 1.000000e+00 2.857812e-18
    outer loop
      vertex -2.500000e+01 2.574999e+00 1.000000e+01
      vertex -2.175000e+01 2.574999e+00 5.000000e+00
      vertex -2.500000e+01 2.574999e+00 0.000000e+00
    endloop
  endfacet
  facet normal -7.498799e-33 6.123234e-17 1.000000e+00
    outer loop
      vertex 0.000000e+00 -4.250011e-01 1.000000e+01
      vertex 1.000000e+01 2.574999e+00 1.000000e+01
      vertex 0.000000e+00 2.574999e+00 1.000000e+01
    endloop
  endfacet
  facet normal -7.498799e-33 6.123234e-17 1.000000e+00
    outer loop
      vertex 1.000000e+01 2.574999e+00 1.000000e+01
      vertex 0.000000e+00 -4.250011e-01 1.000000e+01
      vertex 1.000000e+01 -4.250011e-01 1.000000e+01
    endloop
  endfacet
  facet normal 9.914449e-01 1.134246e-16 -1.305262e-01
    outer loop
      vertex 3.250000e+00 -4.250011e-01 5.000000e+00
      vertex 3.309631e+00 2.574999e+00 5.452942e+00
      vertex 3.309631e+00 -4.250011e-01 5.452942e+00
    endloop
  endfacet
  facet normal 9.914449e-01 1.134246e-16 -1.305262e-01
    outer loop
      vertex 3.309631e+00 2.574999e+00 5.452942e+00
      vertex 3.250000e+00 -4.250011e-01 5.000000e+00
      vertex 3.250000e+00 2.574999e+00 5.000000e+00
    endloop
  endfacet
  facet normal 9.238795e-01 8.971001e-17 -3.826834e-01
    outer loop
      vertex 3.309631e+00 -4.250011e-01 5.452942e+00
      vertex 3.484497e+00 2.574999e+00 5.875000e+00
      vertex 3.484497e+00 -4.250011e-01 5.875000e+00
    endloop
  endfacet
  facet normal 9.238795e-01 8.971001e-17 -3.826834e-01
    outer loop
      vertex 3.484497e+00 2.574999e+00 5.875000e+00
      vertex 3.309631e+00 -4.250011e-01 5.452942e+00
      vertex 3.309631e+00 2.574999e+00 5.452942e+00
    endloop
  endfacet
  facet normal 7.933533e-01 5.988187e-17 -6.087614e-01
    outer loop
      vertex 3.484497e+00 -4.250011e-01 5.875000e+00
      vertex 3.762573e+00 2.574999e+00 6.237427e+00
      vertex 3.762573e+00 -4.250011e-01 6.237427e+00
    endloop
  endfacet
  facet normal 7.933533e-01 5.988187e-17 -6.087614e-01
    outer loop
      vertex 3.762573e+00 2.574999e+00 6.237427e+00
      vertex 3.484497e+00 -4.250011e-01 5.875000e+00
      vertex 3.484497e+00 2.574999e+00 5.875000e+00
    endloop
  endfacet
  facet normal 6.087614e-01 2.597289e-17 -7.933533e-01
    outer loop
      vertex 4.125000e+00 -4.250011e-01 6.515503e+00
      vertex 3.762573e+00 2.574999e+00 6.237427e+00
      vertex 4.125000e+00 2.574999e+00 6.515503e+00
    endloop
  endfacet
  facet normal 6.087614e-01 2.597289e-17 -7.933533e-01
    outer loop
      vertex 3.762573e+00 2.574999e+00 6.237427e+00
      vertex 4.125000e+00 -4.250011e-01 6.515503e+00
      vertex 3.762573e+00 -4.250011e-01 6.237427e+00
    endloop
  endfacet
  facet normal 3.826834e-01 -9.706101e-18 -9.238795e-01
    outer loop
      vertex 4.547058e+00 -4.250011e-01 6.690369e+00
      vertex 4.125000e+00 2.574999e+00 6.515503e+00
      vertex 4.547058e+00 2.574999e+00 6.690369e+00
    endloop
  endfacet
  facet normal 3.826834e-01 -9.706101e-18 -9.238795e-01
    outer loop
      vertex 4.125000e+00 2.574999e+00 6.515503e+00
      vertex 4.547058e+00 -4.250011e-01 6.690369e+00
      vertex 4.125000e+00 -4.250011e-01 6.515503e+00
    endloop
  endfacet
  facet normal 1.305262e-01 -4.472364e-17 -9.914449e-01
    outer loop
      vertex 5.000000e+00 -4.250011e-01 6.750000e+00
      vertex 4.547058e+00 2.574999e+00 6.690369e+00
      vertex 5.000000e+00 2.574999e+00 6.750000e+00
    endloop
  endfacet
  facet normal 1.305262e-01 -4.472364e-17 -9.914449e-01
    outer loop
      vertex 4.547058e+00 2.574999e+00 6.690369e+00
      vertex 5.000000e+00 -4.250011e-01 6.750000e+00
      vertex 4.547058e+00 -4.250011e-01 6.690369e+00
    endloop
  endfacet
  facet normal -1.305262e-01 -7.669334e-17 -9.914449e-01
    outer loop
      vertex 5.452942e+00 -4.250011e-01 6.690369e+00
      vertex 5.000000e+00 2.574999e+00 6.750000e+00
      vertex 5.452942e+00 2.574999e+00 6.690369e+00
    endloop
  endfacet
  facet normal -1.305262e-01 -7.669334e-17 -9.914449e-01
    outer loop
      vertex 5.000000e+00 2.574999e+00 6.750000e+00
      vertex 5.452942e+00 -4.250011e-01 6.690369e+00
      vertex 5.000000e+00 -4.250011e-01 6.750000e+00
    endloop
  endfacet
  facet normal -3.826834e-01 -1.034365e-16 -9.238795e-01
    outer loop
      vertex 5.875000e+00 -4.250011e-01 6.515503e+00
      vertex 5.452942e+00 2.574999e+00 6.690369e+00
      vertex 5.875000e+00 2.574999e+00 6.515503e+00
    endloop
  endfacet
  facet normal -3.826834e-01 -1.034365e-16 -9.238795e-01
    outer loop
      vertex 5.452942e+00 2.574999e+00 6.690369e+00
      vertex 5.875000e+00 -4.250011e-01 6.515503e+00
      vertex 5.452942e+00 -4.250011e-01 6.690369e+00
    endloop
  endfacet
  facet normal -6.087614e-01 -1.231307e-16 -7.933533e-01
    outer loop
      vertex 6.237427e+00 -4.250011e-01 6.237427e+00
      vertex 5.875000e+00 2.574999e+00 6.515503e+00
      vertex 6.237427e+00 2.574999e+00 6.237427e+00
    endloop
  endfacet
  facet normal -6.087614e-01 -1.231307e-16 -7.933533e-01
    outer loop
      vertex 5.875000e+00 2.574999e+00 6.515503e+00
      vertex 6.237427e+00 -4.250011e-01 6.237427e+00
      vertex 5.875000e+00 -4.250011e-01 6.515503e+00
    endloop
  endfacet
  facet normal -7.933533e-01 -1.344336e-16 -6.087614e-01
    outer loop
      vertex 6.515564e+00 2.574999e+00 5.875000e+00
      vertex 6.237427e+00 -4.250011e-01 6.237427e+00
      vertex 6.237427e+00 2.574999e+00 6.237427e+00
    endloop
  endfacet
  facet normal -7.933533e-01 -1.344336e-16 -6.087614e-01
    outer loop
      vertex 6.237427e+00 -4.250011e-01 6.237427e+00
      vertex 6.515564e+00 2.574999e+00 5.875000e+00
      vertex 6.515564e+00 -4.250011e-01 5.875000e+00
    endloop
  endfacet
  facet normal -9.238795e-01 -1.365752e-16 -3.826834e-01
    outer loop
      vertex 6.690369e+00 2.574999e+00 5.452942e+00
      vertex 6.515564e+00 -4.250011e-01 5.875000e+00
      vertex 6.515564e+00 2.574999e+00 5.875000e+00
    endloop
  endfacet
  facet normal -9.238795e-01 -1.365752e-16 -3.826834e-01
    outer loop
      vertex 6.515564e+00 -4.250011e-01 5.875000e+00
      vertex 6.690369e+00 2.574999e+00 5.452942e+00
      vertex 6.690369e+00 -4.250011e-01 5.452942e+00
    endloop
  endfacet
  facet normal -9.914449e-01 -1.294094e-16 -1.305262e-01
    outer loop
      vertex 6.750000e+00 2.574999e+00 5.000000e+00
      vertex 6.690369e+00 -4.250011e-01 5.452942e+00
      vertex 6.690369e+00 2.574999e+00 5.452942e+00
    endloop
  endfacet
  facet normal -9.914449e-01 -1.294094e-16 -1.305262e-01
    outer loop
      vertex 6.690369e+00 -4.250011e-01 5.452942e+00
      vertex 6.750000e+00 2.574999e+00 5.000000e+00
      vertex 6.750000e+00 -4.250011e-01 5.000000e+00
    endloop
  endfacet
  facet normal -9.914449e-01 -1.134246e-16 1.305262e-01
    outer loop
      vertex 6.690369e+00 2.574999e+00 4.547058e+00
      vertex 6.750000e+00 -4.250011e-01 5.000000e+00
      vertex 6.750000e+00 2.574999e+00 5.000000e+00
    endloop
  endfacet
  facet normal -9.914449e-01 -1.134246e-16 1.305262e-01
    outer loop
      vertex 6.750000e+00 -4.250011e-01 5.000000e+00
      vertex 6.690369e+00 2.574999e+00 4.547058e+00
      vertex 6.690369e+00 -4.250011e-01 4.547058e+00
    endloop
  endfacet
  facet normal -9.238795e-01 -8.971001e-17 3.826834e-01
    outer loop
      vertex 6.515564e+00 2.574999e+00 4.125000e+00
      vertex 6.690369e+00 -4.250011e-01 4.547058e+00
      vertex 6.690369e+00 2.574999e+00 4.547058e+00
    endloop
  endfacet
  facet normal -9.238795e-01 -8.971001e-17 3.826834e-01
    outer loop
      vertex 6.690369e+00 -4.250011e-01 4.547058e+00
      vertex 6.515564e+00 2.574999e+00 4.125000e+00
      vertex 6.515564e+00 -4.250011e-01 4.125000e+00
    endloop
  endfacet
  facet normal -7.933533e-01 -5.988187e-17 6.087614e-01
    outer loop
      vertex 6.237427e+00 2.574999e+00 3.762573e+00
      vertex 6.515564e+00 -4.250011e-01 4.125000e+00
      vertex 6.515564e+00 2.574999e+00 4.125000e+00
    endloop
  endfacet
  facet normal -7.933533e-01 -5.988187e-17 6.087614e-01
    outer loop
      vertex 6.515564e+00 -4.250011e-01 4.125000e+00
      vertex 6.237427e+00 2.574999e+00 3.762573e+00
      vertex 6.237427e+00 -4.250011e-01 3.762573e+00
    endloop
  endfacet
  facet normal -6.087614e-01 -2.597289e-17 7.933533e-01
    outer loop
      vertex 5.875000e+00 -4.250011e-01 3.484436e+00
      vertex 6.237427e+00 2.574999e+00 3.762573e+00
      vertex 5.875000e+00 2.574999e+00 3.484436e+00
    endloop
  endfacet
  facet normal -6.087614e-01 -2.597289e-17 7.933533e-01
    outer loop
      vertex 6.237427e+00 2.574999e+00 3.762573e+00
      vertex 5.875000e+00 -4.250011e-01 3.484436e+00
      vertex 6.237427e+00 -4.250011e-01 3.762573e+00
    endloop
  endfacet
  facet normal -3.826834e-01 9.706101e-18 9.238795e-01
    outer loop
      vertex 5.452942e+00 -4.250011e-01 3.309631e+00
      vertex 5.875000e+00 2.574999e+00 3.484436e+00
      vertex 5.452942e+00 2.574999e+00 3.309631e+00
    endloop
  endfacet
  facet normal -3.826834e-01 9.706101e-18 9.238795e-01
    outer loop
      vertex 5.875000e+00 2.574999e+00 3.484436e+00
      vertex 5.452942e+00 -4.250011e-01 3.309631e+00
      vertex 5.875000e+00 -4.250011e-01 3.484436e+00
    endloop
  endfacet
  facet normal -1.305262e-01 4.472364e-17 9.914449e-01
    outer loop
      vertex 5.000000e+00 -4.250011e-01 3.250000e+00
      vertex 5.452942e+00 2.574999e+00 3.309631e+00
      vertex 5.000000e+00 2.574999e+00 3.250000e+00
    endloop
  endfacet
  facet normal -1.305262e-01 4.472364e-17 9.914449e-01
    outer loop
      vertex 5.452942e+00 2.574999e+00 3.309631e+00
      vertex 5.000000e+00 -4.250011e-01 3.250000e+00
      vertex 5.452942e+00 -4.250011e-01 3.309631e+00
    endloop
  endfacet
  facet normal 1.305262e-01 7.669334e-17 9.914449e-01
    outer loop
      vertex 4.547058e+00 -4.250011e-01 3.309631e+00
      vertex 5.000000e+00 2.574999e+00 3.250000e+00
      vertex 4.547058e+00 2.574999e+00 3.309631e+00
    endloop
  endfacet
  facet normal 1.305262e-01 7.669334e-17 9.914449e-01
    outer loop
      vertex 5.000000e+00 2.574999e+00 3.250000e+00
      vertex 4.547058e+00 -4.250011e-01 3.309631e+00
      vertex 5.000000e+00 -4.250011e-01 3.250000e+00
    endloop
  endfacet
  facet normal 3.826834e-01 1.034365e-16 9.238795e-01
    outer loop
      vertex 4.125000e+00 -4.250011e-01 3.484436e+00
      vertex 4.547058e+00 2.574999e+00 3.309631e+00
      vertex 4.125000e+00 2.574999e+00 3.484436e+00
    endloop
  endfacet
  facet normal 3.826834e-01 1.034365e-16 9.238795e-01
    outer loop
      vertex 4.547058e+00 2.574999e+00 3.309631e+00
      vertex 4.125000e+00 -4.250011e-01 3.484436e+00
      vertex 4.547058e+00 -4.250011e-01 3.309631e+00
    endloop
  endfacet
  facet normal 6.087614e-01 1.231307e-16 7.933533e-01
    outer loop
      vertex 3.762573e+00 -4.250011e-01 3.762573e+00
      vertex 4.125000e+00 2.574999e+00 3.484436e+00
      vertex 3.762573e+00 2.574999e+00 3.762573e+00
    endloop
  endfacet
  facet normal 6.087614e-01 1.231307e-16 7.933533e-01
    outer loop
      vertex 4.125000e+00 2.574999e+00 3.484436e+00
      vertex 3.762573e+00 -4.250011e-01 3.762573e+00
      vertex 4.125000e+00 -4.250011e-01 3.484436e+00
    endloop
  endfacet
  facet normal 7.933533e-01 1.344336e-16 6.087614e-01
    outer loop
      vertex 3.762573e+00 -4.250011e-01 3.762573e+00
      vertex 3.484497e+00 2.574999e+00 4.125000e+00
      vertex 3.484497e+00 -4.250011e-01 4.125000e+00
    endloop
  endfacet
  facet normal 7.933533e-01 1.344336e-16 6.087614e-01
    outer loop
      vertex 3.484497e+00 2.574999e+00 4.125000e+00
      vertex 3.762573e+00 -4.250011e-01 3.762573e+00
      vertex 3.762573e+00 2.574999e+00 3.762573e+00
    endloop
  endfacet
  facet normal 9.238795e-01 1.365752e-16 3.826834e-01
    outer loop
      vertex 3.484497e+00 -4.250011e-01 4.125000e+00
      vertex 3.309631e+00 2.574999e+00 4.547058e+00
      vertex 3.309631e+00 -4.250011e-01 4.547058e+00
    endloop
  endfacet
  facet normal 9.238795e-01 1.365752e-16 3.826834e-01
    outer loop
      vertex 3.309631e+00 2.574999e+00 4.547058e+00
      vertex 3.484497e+00 -4.250011e-01 4.125000e+00
      vertex 3.484497e+00 2.574999e+00 4.125000e+00
    endloop
  endfacet
  facet normal 9.914449e-01 1.294094e-16 1.305262e-01
    outer loop
      vertex 3.309631e+00 -4.250011e-01 4.547058e+00
      vertex 3.250000e+00 2.574999e+00 5.000000e+00
      vertex 3.250000e+00 -4.250011e-01 5.000000e+00
    endloop
  endfacet
  facet normal 9.914449e-01 1.294094e-16 1.305262e-01
    outer loop
      vertex 3.250000e+00 2.574999e+00 5.000000e+00
      vertex 3.309631e+00 -4.250011e-01 4.547058e+00
      vertex 3.309631e+00 2.574999e+00 4.547058e+00
    endloop
  endfacet
  facet normal 1.000000e+00 1.224647e-16 2.918042e-14
    outer loop
      vertex -1.500000e+01 -4.250011e-01 4.000000e+00
      vertex -1.500000e+01 2.574999e+00 1.000000e+01
      vertex -1.500000e+01 -4.250011e-01 1.000000e+01
    endloop
  endfacet
  facet normal 1.000000e+00 1.224647e-16 2.918042e-14
    outer loop
      vertex -1.500000e+01 2.574999e+00 1.000000e+01
      vertex -1.500000e+01 -4.250011e-01 4.000000e+00
      vertex -1.500000e+01 2.574999e+00 4.000000e+00
    endloop
  endfacet
  facet normal -7.498799e-33 6.123234e-17 1.000000e+00
    outer loop
      vertex -2.500000e+01 -4.250011e-01 1.000000e+01
      vertex -1.500000e+01 2.574999e+00 1.000000e+01
      vertex -2.500000e+01 2.574999e+00 1.000000e+01
    endloop
  endfacet
  facet normal -7.498799e-33 6.123234e-17 1.000000e+00
    outer loop
      vertex -1.500000e+01 2.574999e+00 1.000000e+01
      vertex -2.500000e+01 -4.250011e-01 1.000000e+01
      vertex -1.500000e+01 -4.250011e-01 1.000000e+01
    endloop
  endfacet
  facet normal -1.000000e+00 -1.224647e-16 0.000000e+00
    outer loop
      vertex -2.500000e+01 2.574999e+00 0.000000e+00
      vertex -2.500000e+01 -4.250011e-01 1.000000e+01
      vertex -2.500000e+01 2.574999e+00 1.000000e+01
    endloop
  endfacet
  facet normal -1.000000e+00 -1.224647e-16 0.000000e+00
    outer loop
      vertex -2.500000e+01 -4.250011e-01 1.000000e+01
      vertex -2.500000e+01 2.574999e+00 0.000000e+00
      vertex -2.500000e+01 -4.250011e-01 0.000000e+00
    endloop
  endfacet
  facet normal 9.914449e-01 1.134246e-16 -1.305262e-01
    outer loop
      vertex -2.175000e+01 -4.250011e-01 5.000000e+00
      vertex -2.169037e+01 2.574999e+00 5.452942e+00
      vertex -2.169037e+01 -4.250011e-01 5.452942e+00
    endloop
  endfacet
  facet normal 9.914449e-01 1.134246e-16 -1.305262e-01
    outer loop
      vertex -2.169037e+01 2.574999e+00 5.452942e+00
      vertex -2.175000e+01 -4.250011e-01 5.000000e+00
      vertex -2.175000e+01 2.574999e+00 5.000000e+00
    endloop
  endfacet
  facet normal 9.238795e-01 8.971001e-17 -3.826834e-01
    outer loop
      vertex -2.169037e+01 -4.250011e-01 5.452942e+00
      vertex -2.151550e+01 2.574999e+00 5.875000e+00
      vertex -2.151550e+01 -4.250011e-01 5.875000e+00
    endloop
  endfacet
  facet normal 9.238795e-01 8.971001e-17 -3.826834e-01
    outer loop
      vertex -2.151550e+01 2.574999e+00 5.875000e+00
      vertex -2.169037e+01 -4.250011e-01 5.452942e+00
      vertex -2.169037e+01 2.574999e+00 5.452942e+00
    endloop
  endfacet
  facet normal 7.933533e-01 5.988187e-17 -6.087614e-01
    outer loop
      vertex -2.151550e+01 -4.250011e-01 5.875000e+00
      vertex -2.123743e+01 2.574999e+00 6.237427e+00
      vertex -2.123743e+01 -4.250011e-01 6.237427e+00
    endloop
  endfacet
  facet normal 7.933533e-01 5.988187e-17 -6.087614e-01
    outer loop
      vertex -2.123743e+01 2.574999e+00 6.237427e+00
      vertex -2.151550e+01 -4.250011e-01 5.875000e+00
      vertex -2.151550e+01 2.574999e+00 5.875000e+00
    endloop
  endfacet
  facet normal 6.087614e-01 2.597289e-17 -7.933533e-01
    outer loop
      vertex -2.087500e+01 -4.250011e-01 6.515503e+00
      vertex -2.123743e+01 2.574999e+00 6.237427e+00
      vertex -2.087500e+01 2.574999e+00 6.515503e+00
    endloop
  endfacet
  facet normal 6.087614e-01 2.597289e-17 -7.933533e-01
    outer loop
      vertex -2.123743e+01 2.574999e+00 6.237427e+00
      vertex -2.087500e+01 -4.250011e-01 6.515503e+00
      vertex -2.123743e+01 -4.250011e-01 6.237427e+00
    endloop
  endfacet
  facet normal 3.826834e-01 -9.706101e-18 -9.238795e-01
    outer loop
      vertex -2.045294e+01 -4.250011e-01 6.690369e+00
      vertex -2.087500e+01 2.574999e+00 6.515503e+00
      vertex -2.045294e+01 2.574999e+00 6.690369e+00
    endloop
  endfacet
  facet normal 3.826834e-01 -9.706101e-18 -9.238795e-01
    outer loop
      vertex -2.087500e+01 2.574999e+00 6.515503e+00
      vertex -2.045294e+01 -4.250011e-01 6.690369e+00
      vertex -2.087500e+01 -4.250011e-01 6.515503e+00
    endloop
  endfacet
  facet normal 1.305262e-01 -4.472364e-17 -9.914449e-01
    outer loop
      vertex -2.000000e+01 -4.250011e-01 6.750000e+00
      vertex -2.045294e+01 2.574999e+00 6.690369e+00
      vertex -2.000000e+01 2.574999e+00 6.750000e+00
    endloop
  endfacet
  facet normal 1.305262e-01 -4.472364e-17 -9.914449e-01
    outer loop
      vertex -2.045294e+01 2.574999e+00 6.690369e+00
      vertex -2.000000e+01 -4.250011e-01 6.750000e+00
      vertex -2.045294e+01 -4.250011e-01 6.690369e+00
    endloop
  endfacet
  facet normal -1.305262e-01 -7.669334e-17 -9.914449e-01
    outer loop
      vertex -1.954706e+01 -4.250011e-01 6.690369e+00
      vertex -2.000000e+01 2.574999e+00 6.750000e+00
      vertex -1.954706e+01 2.574999e+00 6.690369e+00
    endloop
  endfacet
  facet normal -1.305262e-01 -7.669334e-17 -9.914449e-01
    outer loop
      vertex -2.000000e+01 2.574999e+00 6.750000e+00
      vertex -1.954706e+01 -4.250011e-01 6.690369e+00
      vertex -2.000000e+01 -4.250011e-01 6.750000e+00
    endloop
  endfacet
  facet normal -3.826834e-01 -1.034365e-16 -9.238795e-01
    outer loop
      vertex -1.912500e+01 -4.250011e-01 6.515503e+00
      vertex -1.954706e+01 2.574999e+00 6.690369e+00
      vertex -1.912500e+01 2.574999e+00 6.515503e+00
    endloop
  endfacet
  facet normal -3.826834e-01 -1.034365e-16 -9.238795e-01
    outer loop
      vertex -1.954706e+01 2.574999e+00 6.690369e+00
      vertex -1.912500e+01 -4.250011e-01 6.515503e+00
      vertex -1.954706e+01 -4.250011e-01 6.690369e+00
    endloop
  endfacet
  facet normal -6.087614e-01 -1.231307e-16 -7.933533e-01
    outer loop
      vertex -1.876257e+01 -4.250011e-01 6.237427e+00
      vertex -1.912500e+01 2.574999e+00 6.515503e+00
      vertex -1.876257e+01 2.574999e+00 6.237427e+00
    endloop
  endfacet
  facet normal -6.087614e-01 -1.231307e-16 -7.933533e-01
    outer loop
      vertex -1.912500e+01 2.574999e+00 6.515503e+00
      vertex -1.876257e+01 -4.250011e-01 6.237427e+00
      vertex -1.912500e+01 -4.250011e-01 6.515503e+00
    endloop
  endfacet
  facet normal -7.933533e-01 -1.344336e-16 -6.087614e-01
    outer loop
      vertex -1.848444e+01 2.574999e+00 5.875000e+00
      vertex -1.876257e+01 -4.250011e-01 6.237427e+00
      vertex -1.876257e+01 2.574999e+00 6.237427e+00
    endloop
  endfacet
  facet normal -7.933533e-01 -1.344336e-16 -6.087614e-01
    outer loop
      vertex -1.876257e+01 -4.250011e-01 6.237427e+00
      vertex -1.848444e+01 2.574999e+00 5.875000e+00
      vertex -1.848444e+01 -4.250011e-01 5.875000e+00
    endloop
  endfacet
  facet normal -9.238795e-01 -1.365752e-16 -3.826834e-01
    outer loop
      vertex -1.830963e+01 2.574999e+00 5.452942e+00
      vertex -1.848444e+01 -4.250011e-01 5.875000e+00
      vertex -1.848444e+01 2.574999e+00 5.875000e+00
    endloop
  endfacet
  facet normal -9.238795e-01 -1.365752e-16 -3.826834e-01
    outer loop
      vertex -1.848444e+01 -4.250011e-01 5.875000e+00
      vertex -1.830963e+01 2.574999e+00 5.452942e+00
      vertex -1.830963e+01 -4.250011e-01 5.452942e+00
    endloop
  endfacet
  facet normal -9.914449e-01 -1.294094e-16 -1.305262e-01
    outer loop
      vertex -1.825000e+01 2.574999e+00 5.000000e+00
      vertex -1.830963e+01 -4.250011e-01 5.452942e+00
      vertex -1.830963e+01 2.574999e+00 5.452942e+00
    endloop
  endfacet
  facet normal -9.914449e-01 -1.294094e-16 -1.305262e-01
    outer loop
      vertex -1.830963e+01 -4.250011e-01 5.452942e+00
      vertex -1.825000e+01 2.574999e+00 5.000000e+00
      vertex -1.825000e+01 -4.250011e-01 5.000000e+00
    endloop
  endfacet
  facet normal -9.914449e-01 -1.134246e-16 1.305262e-01
    outer loop
      vertex -1.830963e+01 2.574999e+00 4.547058e+00
      vertex -1.825000e+01 -4.250011e-01 5.000000e+00
      vertex -1.825000e+01 2.574999e+00 5.000000e+00
    endloop
  endfacet
  facet normal -9.914449e-01 -1.134246e-16 1.305262e-01
    outer loop
      vertex -1.825000e+01 -4.250011e-01 5.000000e+00
      vertex -1.830963e+01 2.574999e+00 4.547058e+00
      vertex -1.830963e+01 -4.250011e-01 4.547058e+00
    endloop
  endfacet
  facet normal -9.238795e-01 -8.971001e-17 3.826834e-01
    outer loop
      vertex -1.848444e+01 2.574999e+00 4.125000e+00
      vertex -1.830963e+01 -4.250011e-01 4.547058e+00
      vertex -1.830963e+01 2.574999e+00 4.547058e+00
    endloop
  endfacet
  facet normal -9.238795e-01 -8.971001e-17 3.826834e-01
    outer loop
      vertex -1.830963e+01 -4.250011e-01 4.547058e+00
      vertex -1.848444e+01 2.574999e+00 4.125000e+00
      vertex -1.848444e+01 -4.250011e-01 4.125000e+00
    endloop
  endfacet
  facet normal -7.933533e-01 -5.988187e-17 6.087614e-01
    outer loop
      vertex -1.876257e+01 2.574999e+00 3.762573e+00
      vertex -1.848444e+01 -4.250011e-01 4.125000e+00
      vertex -1.848444e+01 2.574999e+00 4.125000e+00
    endloop
  endfacet
  facet normal -7.933533e-01 -5.988187e-17 6.087614e-01
    outer loop
      vertex -1.848444e+01 -4.250011e-01 4.125000e+00
      vertex -1.876257e+01 2.574999e+00 3.762573e+00
      vertex -1.876257e+01 -4.250011e-01 3.762573e+00
    endloop
  endfacet
  facet normal -6.087614e-01 -2.597289e-17 7.933533e-01
    outer loop
      vertex -1.912500e+01 -4.250011e-01 3.484436e+00
      vertex -1.876257e+01 2.574999e+00 3.762573e+00
      vertex -1.912500e+01 2.574999e+00 3.484436e+00
    endloop
  endfacet
  facet normal -6.087614e-01 -2.597289e-17 7.933533e-01
    outer loop
      vertex -1.876257e+01 2.574999e+00 3.762573e+00
      vertex -1.912500e+01 -4.250011e-01 3.484436e+00
      vertex -1.876257e+01 -4.250011e-01 3.762573e+00
    endloop
  endfacet
  facet normal -3.826834e-01 9.706101e-18 9.238795e-01
    outer loop
      vertex -1.954706e+01 -4.250011e-01 3.309631e+00
      vertex -1.912500e+01 2.574999e+00 3.484436e+00
      vertex -1.954706e+01 2.574999e+00 3.309631e+00
    endloop
  endfacet
  facet normal -3.826834e-01 9.706101e-18 9.238795e-01
    outer loop
      vertex -1.912500e+01 2.574999e+00 3.484436e+00
      vertex -1.954706e+01 -4.250011e-01 3.309631e+00
      vertex -1.912500e+01 -4.250011e-01 3.484436e+00
    endloop
  endfacet
  facet normal -1.305262e-01 4.472364e-17 9.914449e-01
    outer loop
      vertex -2.000000e+01 -4.250011e-01 3.250000e+00
      vertex -1.954706e+01 2.574999e+00 3.309631e+00
      vertex -2.000000e+01 2.574999e+00 3.250000e+00
    endloop
  endfacet
  facet normal -1.305262e-01 4.472364e-17 9.914449e-01
    outer loop
      vertex -1.954706e+01 2.574999e+00 3.309631e+00
      vertex -2.000000e+01 -4.250011e-01 3.250000e+00
      vertex -1.954706e+01 -4.250011e-01 3.309631e+00
    endloop
  endfacet
  facet normal 1.305262e-01 7.669334e-17 9.914449e-01
    outer loop
      vertex -2.045294e+01 -4.250011e-01 3.309631e+00
      vertex -2.000000e+01 2.574999e+00 3.250000e+00
      vertex -2.045294e+01 2.574999e+00 3.309631e+00
    endloop
  endfacet
  facet normal 1.305262e-01 7.669334e-17 9.914449e-01
    outer loop
      vertex -2.000000e+01 2.574999e+00 3.250000e+00
      vertex -2.045294e+01 -4.250011e-01 3.309631e+00
      vertex -2.000000e+01 -4.250011e-01 3.250000e+00
    endloop
  endfacet
  facet normal 3.826834e-01 1.034365e-16 9.238795e-01
    outer loop
      vertex -2.087500e+01 -4.250011e-01 3.484436e+00
      vertex -2.045294e+01 2.574999e+00 3.309631e+00
      vertex -2.087500e+01 2.574999e+00 3.484436e+00
    endloop
  endfacet
  facet normal 3.826834e-01 1.034365e-16 9.238795e-01
    outer loop
      vertex -2.045294e+01 2.574999e+00 3.309631e+00
      vertex -2.087500e+01 -4.250011e-01 3.484436e+00
      vertex -2.045294e+01 -4.250011e-01 3.309631e+00
    endloop
  endfacet
  facet normal 6.087614e-01 1.231307e-16 7.933533e-01
    outer loop
      vertex -2.123743e+01 -4.250011e-01 3.762573e+00
      vertex -2.087500e+01 2.574999e+00 3.484436e+00
      vertex -2.123743e+01 2.574999e+00 3.762573e+00
    endloop
  endfacet
  facet normal 6.087614e-01 1.231307e-16 7.933533e-01
    outer loop
      vertex -2.087500e+01 2.574999e+00 3.484436e+00
      vertex -2.123743e+01 -4.250011e-01 3.762573e+00
      vertex -2.087500e+01 -4.250011e-01 3.484436e+00
    endloop
  endfacet
  facet normal 7.933533e-01 1.344336e-16 6.087614e-01
    outer loop
      vertex -2.123743e+01 -4.250011e-01 3.762573e+00
      vertex -2.151550e+01 2.574999e+00 4.125000e+00
      vertex -2.151550e+01 -4.250011e-01 4.125000e+00
    endloop
  endfacet
  facet normal 7.933533e-01 1.344336e-16 6.087614e-01
    outer loop
      vertex -2.151550e+01 2.574999e+00 4.125000e+00
      vertex -2.123743e+01 -4.250011e-01 3.762573e+00
      vertex -2.123743e+01 2.574999e+00 3.762573e+00
    endloop
  endfacet
  facet normal 9.238795e-01 1.365752e-16 3.826834e-01
    outer loop
      vertex -2.151550e+01 -4.250011e-01 4.125000e+00
      vertex -2.169037e+01 2.574999e+00 4.547058e+00
      vertex -2.169037e+01 -4.250011e-01 4.547058e+00
    endloop
  endfacet
  facet normal 9.238795e-01 1.365752e-16 3.826834e-01
    outer loop
      vertex -2.169037e+01 2.574999e+00 4.547058e+00
      vertex -2.151550e+01 -4.250011e-01 4.125000e+00
      vertex -2.151550e+01 2.574999e+00 4.125000e+00
    endloop
  endfacet
  facet normal 9.914449e-01 1.294094e-16 1.305262e-01
    outer loop
      vertex -2.169037e+01 -4.250011e-01 4.547058e+00
      vertex -2.175000e+01 2.574999e+00 5.000000e+00
      vertex -2.175000e+01 -4.250011e-01 5.000000e+00
    endloop
  endfacet
  facet normal 9.914449e-01 1.294094e-16 1.305262e-01
    outer loop
      vertex -2.175000e+01 2.574999e+00 5.000000e+00
      vertex -2.169037e+01 -4.250011e-01 4.547058e+00
      vertex -2.169037e+01 2.574999e+00 4.547058e+00
    endloop
  endfacet
  facet normal -1.000000e+00 6.236090e-13 2.226618e-13
    outer loop
      vertex 1.000000e+01 6.574999e+00 4.149963e+00
      vertex 1.000000e+01 2.574999e+00 0.000000e+00
      vertex 1.000000e+01 2.574999e+00 4.149963e+00
    endloop
  endfacet
  facet normal -1.000000e+00 6.236090e-13 2.226618e-13
    outer loop
      vertex 1.000000e+01 2.574999e+00 0.000000e+00
      vertex 1.000000e+01 6.574999e+00 4.149963e+00
      vertex 1.000000e+01 6.574999e+00 0.000000e+00
    endloop
  endfacet
  facet normal -1.000000e+00 -1.224647e-16 0.000000e+00
    outer loop
      vertex 0.000000e+00 2.574999e+00 4.000000e+00
      vertex 0.000000e+00 -4.250011e-01 1.000000e+01
      vertex 0.000000e+00 2.574999e+00 1.000000e+01
    endloop
  endfacet
  facet normal -1.000000e+00 -1.224647e-16 0.000000e+00
    outer loop
      vertex 0.000000e+00 -4.250011e-01 1.000000e+01
      vertex 0.000000e+00 2.574999e+00 4.000000e+00
      vertex 0.000000e+00 -4.250011e-01 4.000000e+00
    endloop
  endfacet
  facet normal -7.498799e-33 6.123234e-17 1.000000e+00
    outer loop
      vertex -1.500000e+01 -4.250011e-01 4.000000e+00
      vertex 0.000000e+00 2.574999e+00 4.000000e+00
      vertex -1.500000e+01 2.574999e+00 4.000000e+00
    endloop
  endfacet
  facet normal -7.498799e-33 6.123234e-17 1.000000e+00
    outer loop
      vertex 0.000000e+00 2.574999e+00 4.000000e+00
      vertex -1.500000e+01 -4.250011e-01 4.000000e+00
      vertex 0.000000e+00 -4.250011e-01 4.000000e+00
    endloop
  endfacet
  facet normal 2.310038e-16 -1.000000e+00 3.801708e-17
    outer loop
      vertex 1.000000e+01 -4.250011e-01 1.000000e+01
      vertex 1.000000e+01 -4.250011e-01 4.149963e+00
      vertex 1.200000e+01 -4.250011e-01 4.149963e+00
    endloop
  endfacet
  facet normal 2.310038e-16 -1.000000e+00 3.801708e-17
    outer loop
      vertex 1.000000e+01 -4.250011e-01 4.149963e+00
      vertex 1.000000e+01 -4.250011e-01 1.000000e+01
      vertex 0.000000e+00 -4.250011e-01 1.000000e+01
    endloop
  endfacet
  facet normal 2.310038e-16 -1.000000e+00 3.801708e-17
    outer loop
      vertex 1.000000e+01 -4.250011e-01 4.149963e+00
      vertex 0.000000e+00 -4.250011e-01 1.000000e+01
      vertex 5.875000e+00 -4.250011e-01 6.515503e+00
    endloop
  endfacet
  facet normal 2.310038e-16 -1.000000e+00 3.801708e-17
    outer loop
      vertex 1.000000e+01 -4.250011e-01 4.149963e+00
      vertex 5.875000e+00 -4.250011e-01 6.515503e+00
      vertex 6.237427e+00 -4.250011e-01 6.237427e+00
    endloop
  endfacet
  facet normal 2.310038e-16 -1.000000e+00 3.801708e-17
    outer loop
      vertex 1.000000e+01 -4.250011e-01 4.149963e+00
      vertex 6.237427e+00 -4.250011e-01 6.237427e+00
      vertex 6.515564e+00 -4.250011e-01 5.875000e+00
    endloop
  endfacet
  facet normal 2.310038e-16 -1.000000e+00 3.801708e-17
    outer loop
      vertex 1.000000e+01 -4.250011e-01 4.149963e+00
      vertex 6.515564e+00 -4.250011e-01 5.875000e+00
      vertex 1.000000e+01 -4.250011e-01 0.000000e+00
    endloop
  endfacet
  facet normal 2.310038e-16 -1.000000e+00 3.801708e-17
    outer loop
      vertex 1.000000e+01 -4.250011e-01 0.000000e+00
      vertex 6.515564e+00 -4.250011e-01 5.875000e+00
      vertex 6.690369e+00 -4.250011e-01 5.452942e+00
    endloop
  endfacet
  facet normal 2.310038e-16 -1.000000e+00 3.801708e-17
    outer loop
      vertex 1.000000e+01 -4.250011e-01 0.000000e+00
      vertex 6.690369e+00 -4.250011e-01 5.452942e+00
      vertex 6.750000e+00 -4.250011e-01 5.000000e+00
    endloop
  endfacet
  facet normal 2.310038e-16 -1.000000e+00 3.801708e-17
    outer loop
      vertex 5.875000e+00 -4.250011e-01 6.515503e+00
      vertex 0.000000e+00 -4.250011e-01 1.000000e+01
      vertex 5.452942e+00 -4.250011e-01 6.690369e+00
    endloop
  endfacet
  facet normal 2.310038e-16 -1.000000e+00 3.801708e-17
    outer loop
      vertex 5.452942e+00 -4.250011e-01 6.690369e+00
      vertex 0.000000e+00 -4.250011e-01 1.000000e+01
      vertex 5.000000e+00 -4.250011e-01 6.750000e+00
    endloop
  endfacet
  facet normal 2.310038e-16 -1.000000e+00 3.801708e-17
    outer loop
      vertex 5.000000e+00 -4.250011e-01 6.750000e+00
      vertex 0.000000e+00 -4.250011e-01 1.000000e+01
      vertex 4.547058e+00 -4.250011e-01 6.690369e+00
    endloop
  endfacet
  facet normal 2.310038e-16 -1.000000e+00 3.801708e-17
    outer loop
      vertex 4.547058e+00 -4.250011e-01 6.690369e+00
      vertex 0.000000e+00 -4.250011e-01 1.000000e+01
      vertex 4.125000e+00 -4.250011e-01 6.515503e+00
    endloop
  endfacet
  facet normal 2.310038e-16 -1.000000e+00 3.801708e-17
    outer loop
      vertex 4.125000e+00 -4.250011e-01 6.515503e+00
      vertex 0.000000e+00 -4.250011e-01 1.000000e+01
      vertex 3.762573e+00 -4.250011e-01 6.237427e+00
    endloop
  endfacet
  facet normal 2.310038e-16 -1.000000e+00 3.801708e-17
    outer loop
      vertex 3.762573e+00 -4.250011e-01 6.237427e+00
      vertex 0.000000e+00 -4.250011e-01 1.000000e+01
      vertex 3.484497e+00 -4.250011e-01 5.875000e+00
    endloop
  endfacet
  facet normal 2.310038e-16 -1.000000e+00 3.801708e-17
    outer loop
      vertex 3.484497e+00 -4.250011e-01 5.875000e+00
      vertex 0.000000e+00 -4.250011e-01 1.000000e+01
      vertex 3.309631e+00 -4.250011e-01 5.452942e+00
    endloop
  endfacet
  facet normal 2.310038e-16 -1.000000e+00 3.801708e-17
    outer loop
      vertex 3.309631e+00 -4.250011e-01 5.452942e+00
      vertex 0.000000e+00 -4.250011e-01 1.000000e+01
      vertex 3.250000e+00 -4.250011e-01 5.000000e+00
    endloop
  endfacet
  facet normal 2.310038e-16 -1.000000e+00 3.801708e-17
    outer loop
      vertex -1.500000e+01 -4.250011e-01 1.000000e+01
      vertex -1.830963e+01 -4.250011e-01 5.452942e+00
      vertex -1.825000e+01 -4.250011e-01 5.000000e+00
    endloop
  endfacet
  facet normal 2.310038e-16 -1.000000e+00 3.801708e-17
    outer loop
      vertex -1.830963e+01 -4.250011e-01 5.452942e+00
      vertex -1.500000e+01 -4.250011e-01 1.000000e+01
      vertex -1.848444e+01 -4.250011e-01 5.875000e+00
    endloop
  endfacet
  facet normal 2.310038e-16 -1.000000e+00 3.801708e-17
    outer loop
      vertex -1.848444e+01 -4.250011e-01 5.875000e+00
      vertex -1.500000e+01 -4.250011e-01 1.000000e+01
      vertex -1.876257e+01 -4.250011e-01 6.237427e+00
    endloop
  endfacet
  facet normal 2.310038e-16 -1.000000e+00 3.801708e-17
    outer loop
      vertex -1.876257e+01 -4.250011e-01 6.237427e+00
      vertex -1.500000e+01 -4.250011e-01 1.000000e+01
      vertex -1.912500e+01 -4.250011e-01 6.515503e+00
    endloop
  endfacet
  facet normal 2.310038e-16 -1.000000e+00 3.801708e-17
    outer loop
      vertex -1.912500e+01 -4.250011e-01 6.515503e+00
      vertex -1.500000e+01 -4.250011e-01 1.000000e+01
      vertex -2.500000e+01 -4.250011e-01 1.000000e+01
    endloop
  endfacet
  facet normal 2.310038e-16 -1.000000e+00 3.801708e-17
    outer loop
      vertex -1.912500e+01 -4.250011e-01 6.515503e+00
      vertex -2.500000e+01 -4.250011e-01 1.000000e+01
      vertex -1.954706e+01 -4.250011e-01 6.690369e+00
    endloop
  endfacet
  facet normal 2.310038e-16 -1.000000e+00 3.801708e-17
    outer loop
      vertex -1.954706e+01 -4.250011e-01 6.690369e+00
      vertex -2.500000e+01 -4.250011e-01 1.000000e+01
      vertex -2.000000e+01 -4.250011e-01 6.750000e+00
    endloop
  endfacet
  facet normal 2.310038e-16 -1.000000e+00 3.801708e-17
    outer loop
      vertex -2.000000e+01 -4.250011e-01 6.750000e+00
      vertex -2.500000e+01 -4.250011e-01 1.000000e+01
      vertex -2.045294e+01 -4.250011e-01 6.690369e+00
    endloop
  endfacet
  facet normal 2.310038e-16 -1.000000e+00 3.801708e-17
    outer loop
      vertex -2.045294e+01 -4.250011e-01 6.690369e+00
      vertex -2.500000e+01 -4.250011e-01 1.000000e+01
      vertex -2.087500e+01 -4.250011e-01 6.515503e+00
    endloop
  endfacet
  facet normal 2.310038e-16 -1.000000e+00 3.801708e-17
    outer loop
      vertex -2.087500e+01 -4.250011e-01 6.515503e+00
      vertex -2.500000e+01 -4.250011e-01 1.000000e+01
      vertex -2.123743e+01 -4.250011e-01 6.237427e+00
    endloop
  endfacet
  facet normal 2.310038e-16 -1.000000e+00 3.801708e-17
    outer loop
      vertex -2.123743e+01 -4.250011e-01 6.237427e+00
      vertex -2.500000e+01 -4.250011e-01 1.000000e+01
      vertex -2.151550e+01 -4.250011e-01 5.875000e+00
    endloop
  endfacet
  facet normal 2.310038e-16 -1.000000e+00 3.801708e-17
    outer loop
      vertex -2.151550e+01 -4.250011e-01 5.875000e+00
      vertex -2.500000e+01 -4.250011e-01 1.000000e+01
      vertex -2.169037e+01 -4.250011e-01 5.452942e+00
    endloop
  endfacet
  facet normal 2.310038e-16 -1.000000e+00 3.801708e-17
    outer loop
      vertex -2.169037e+01 -4.250011e-01 5.452942e+00
      vertex -2.500000e+01 -4.250011e-01 1.000000e+01
      vertex -2.175000e+01 -4.250011e-01 5.000000e+00
    endloop
  endfacet
  facet normal 2.310038e-16 -1.000000e+00 3.801708e-17
    outer loop
      vertex 1.000000e+01 -4.250011e-01 0.000000e+00
      vertex 5.000000e+00 -4.250011e-01 3.250000e+00
      vertex -2.500000e+01 -4.250011e-01 0.000000e+00
    endloop
  endfacet
  facet normal 2.310038e-16 -1.000000e+00 3.801708e-17
    outer loop
      vertex 5.000000e+00 -4.250011e-01 3.250000e+00
      vertex 1.000000e+01 -4.250011e-01 0.000000e+00
      vertex 5.452942e+00 -4.250011e-01 3.309631e+00
    endloop
  endfacet
  facet normal 2.310038e-16 -1.000000e+00 3.801708e-17
    outer loop
      vertex 5.452942e+00 -4.250011e-01 3.309631e+00
      vertex 1.000000e+01 -4.250011e-01 0.000000e+00
      vertex 5.875000e+00 -4.250011e-01 3.484436e+00
    endloop
  endfacet
  facet normal 2.310038e-16 -1.000000e+00 3.801708e-17
    outer loop
      vertex 5.875000e+00 -4.250011e-01 3.484436e+00
      vertex 1.000000e+01 -4.250011e-01 0.000000e+00
      vertex 6.237427e+00 -4.250011e-01 3.762573e+00
    endloop
  endfacet
  facet normal 2.310038e-16 -1.000000e+00 3.801708e-17
    outer loop
      vertex 6.237427e+00 -4.250011e-01 3.762573e+00
      vertex 1.000000e+01 -4.250011e-01 0.000000e+00
      vertex 6.515564e+00 -4.250011e-01 4.125000e+00
    endloop
  endfacet
  facet normal 2.310038e-16 -1.000000e+00 3.801708e-17
    outer loop
      vertex 6.515564e+00 -4.250011e-01 4.125000e+00
      vertex 1.000000e+01 -4.250011e-01 0.000000e+00
      vertex 6.690369e+00 -4.250011e-01 4.547058e+00
    endloop
  endfacet
  facet normal 2.310038e-16 -1.000000e+00 3.801708e-17
    outer loop
      vertex 6.690369e+00 -4.250011e-01 4.547058e+00
      vertex 1.000000e+01 -4.250011e-01 0.000000e+00
      vertex 6.750000e+00 -4.250011e-01 5.000000e+00
    endloop
  endfacet
  facet normal 2.310038e-16 -1.000000e+00 3.801708e-17
    outer loop
      vertex -2.500000e+01 -4.250011e-01 0.000000e+00
      vertex 5.000000e+00 -4.250011e-01 3.250000e+00
      vertex 4.547058e+00 -4.250011e-01 3.309631e+00
    endloop
  endfacet
  facet normal 2.310038e-16 -1.000000e+00 3.801708e-17
    outer loop
      vertex -2.500000e+01 -4.250011e-01 0.000000e+00
      vertex 4.547058e+00 -4.250011e-01 3.309631e+00
      vertex 4.125000e+00 -4.250011e-01 3.484436e+00
    endloop
  endfacet
  facet normal 2.310038e-16 -1.000000e+00 3.801708e-17
    outer loop
      vertex -2.500000e+01 -4.250011e-01 0.000000e+00
      vertex 4.125000e+00 -4.250011e-01 3.484436e+00
      vertex 3.762573e+00 -4.250011e-01 3.762573e+00
    endloop
  endfacet
  facet normal 2.310038e-16 -1.000000e+00 3.801708e-17
    outer loop
      vertex -2.500000e+01 -4.250011e-01 0.000000e+00
      vertex 3.762573e+00 -4.250011e-01 3.762573e+00
      vertex 3.484497e+00 -4.250011e-01 4.125000e+00
    endloop
  endfacet
  facet normal 2.310038e-16 -1.000000e+00 3.801708e-17
    outer loop
      vertex -2.500000e+01 -4.250011e-01 0.000000e+00
      vertex 3.484497e+00 -4.250011e-01 4.125000e+00
      vertex 0.000000e+00 -4.250011e-01 4.000000e+00
    endloop
  endfacet
  facet normal 2.310038e-16 -1.000000e+00 3.801708e-17
    outer loop
      vertex 0.000000e+00 -4.250011e-01 4.000000e+00
      vertex 3.484497e+00 -4.250011e-01 4.125000e+00
      vertex 3.309631e+00 -4.250011e-01 4.547058e+00
    endloop
  endfacet
  facet normal 2.310038e-16 -1.000000e+00 3.801708e-17
    outer loop
      vertex 0.000000e+00 -4.250011e-01 4.000000e+00
      vertex 3.309631e+00 -4.250011e-01 4.547058e+00
      vertex 3.250000e+00 -4.250011e-01 5.000000e+00
    endloop
  endfacet
  facet normal 2.310038e-16 -1.000000e+00 3.801708e-17
    outer loop
      vertex 0.000000e+00 -4.250011e-01 4.000000e+00
      vertex 3.250000e+00 -4.250011e-01 5.000000e+00
      vertex 0.000000e+00 -4.250011e-01 1.000000e+01
    endloop
  endfacet
  facet normal 2.310038e-16 -1.000000e+00 3.801708e-17
    outer loop
      vertex -2.500000e+01 -4.250011e-01 0.000000e+00
      vertex 0.000000e+00 -4.250011e-01 4.000000e+00
      vertex -1.500000e+01 -4.250011e-01 4.000000e+00
    endloop
  endfacet
  facet normal 2.310038e-16 -1.000000e+00 3.801708e-17
    outer loop
      vertex -2.500000e+01 -4.250011e-01 0.000000e+00
      vertex -1.500000e+01 -4.250011e-01 4.000000e+00
      vertex -1.912500e+01 -4.250011e-01 3.484436e+00
    endloop
  endfacet
  facet normal 2.310038e-16 -1.000000e+00 3.801708e-17
    outer loop
      vertex -1.912500e+01 -4.250011e-01 3.484436e+00
      vertex -1.500000e+01 -4.250011e-01 4.000000e+00
      vertex -1.876257e+01 -4.250011e-01 3.762573e+00
    endloop
  endfacet
  facet normal 2.310038e-16 -1.000000e+00 3.801708e-17
    outer loop
      vertex -1.876257e+01 -4.250011e-01 3.762573e+00
      vertex -1.500000e+01 -4.250011e-01 4.000000e+00
      vertex -1.848444e+01 -4.250011e-01 4.125000e+00
    endloop
  endfacet
  facet normal 2.310038e-16 -1.000000e+00 3.801708e-17
    outer loop
      vertex -1.848444e+01 -4.250011e-01 4.125000e+00
      vertex -1.500000e+01 -4.250011e-01 4.000000e+00
      vertex -1.500000e+01 -4.250011e-01 1.000000e+01
    endloop
  endfacet
  facet normal 2.310038e-16 -1.000000e+00 3.801708e-17
    outer loop
      vertex -1.848444e+01 -4.250011e-01 4.125000e+00
      vertex -1.500000e+01 -4.250011e-01 1.000000e+01
      vertex -1.830963e+01 -4.250011e-01 4.547058e+00
    endloop
  endfacet
  facet normal 2.310038e-16 -1.000000e+00 3.801708e-17
    outer loop
      vertex -1.830963e+01 -4.250011e-01 4.547058e+00
      vertex -1.500000e+01 -4.250011e-01 1.000000e+01
      vertex -1.825000e+01 -4.250011e-01 5.000000e+00
    endloop
  endfacet
  facet normal 2.310038e-16 -1.000000e+00 3.801708e-17
    outer loop
      vertex -2.500000e+01 -4.250011e-01 0.000000e+00
      vertex -1.912500e+01 -4.250011e-01 3.484436e+00
      vertex -1.954706e+01 -4.250011e-01 3.309631e+00
    endloop
  endfacet
  facet normal 2.310038e-16 -1.000000e+00 3.801708e-17
    outer loop
      vertex -2.500000e+01 -4.250011e-01 0.000000e+00
      vertex -1.954706e+01 -4.250011e-01 3.309631e+00
      vertex -2.000000e+01 -4.250011e-01 3.250000e+00
    endloop
  endfacet
  facet normal 2.310038e-16 -1.000000e+00 3.801708e-17
    outer loop
      vertex -2.500000e+01 -4.250011e-01 0.000000e+00
      vertex -2.000000e+01 -4.250011e-01 3.250000e+00
      vertex -2.045294e+01 -4.250011e-01 3.309631e+00
    endloop
  endfacet
  facet normal 2.310038e-16 -1.000000e+00 3.801708e-17
    outer loop
      vertex -2.500000e+01 -4.250011e-01 0.000000e+00
      vertex -2.045294e+01 -4.250011e-01 3.309631e+00
      vertex -2.087500e+01 -4.250011e-01 3.484436e+00
    endloop
  endfacet
  facet normal 2.310038e-16 -1.000000e+00 3.801708e-17
    outer loop
      vertex -2.500000e+01 -4.250011e-01 0.000000e+00
      vertex -2.087500e+01 -4.250011e-01 3.484436e+00
      vertex -2.123743e+01 -4.250011e-01 3.762573e+00
    endloop
  endfacet
  facet normal 2.310038e-16 -1.000000e+00 3.801708e-17
    outer loop
      vertex -2.500000e+01 -4.250011e-01 0.000000e+00
      vertex -2.123743e+01 -4.250011e-01 3.762573e+00
      vertex -2.151550e+01 -4.250011e-01 4.125000e+00
    endloop
  endfacet
  facet normal 2.310038e-16 -1.000000e+00 3.801708e-17
    outer loop
      vertex -2.500000e+01 -4.250011e-01 0.000000e+00
      vertex -2.151550e+01 -4.250011e-01 4.125000e+00
      vertex -2.169037e+01 -4.250011e-01 4.547058e+00
    endloop
  endfacet
  facet normal 2.310038e-16 -1.000000e+00 3.801708e-17
    outer loop
      vertex -2.500000e+01 -4.250011e-01 0.000000e+00
      vertex -2.169037e+01 -4.250011e-01 4.547058e+00
      vertex -2.175000e+01 -4.250011e-01 5.000000e+00
    endloop
  endfacet
  facet normal 2.310038e-16 -1.000000e+00 3.801708e-17
    outer loop
      vertex -2.500000e+01 -4.250011e-01 0.000000e+00
      vertex -2.175000e+01 -4.250011e-01 5.000000e+00
      vertex -2.500000e+01 -4.250011e-01 1.000000e+01
    endloop
  endfacet
  facet normal 9.462292e-01 1.101154e-16 3.234971e-01
    outer loop
      vertex 1.200000e+01 -4.250011e-01 4.149963e+00
      vertex 1.000000e+01 2.574999e+00 1.000000e+01
      vertex 1.000000e+01 -4.250011e-01 1.000000e+01
    endloop
  endfacet
  facet normal 9.462292e-01 1.101154e-16 3.234971e-01
    outer loop
      vertex 1.000000e+01 2.574999e+00 1.000000e+01
      vertex 1.200000e+01 -4.250011e-01 4.149963e+00
      vertex 1.200000e+01 2.574999e+00 4.149963e+00
    endloop
  endfacet
endsolid Default
