solid MIDIBox
facet normal 0.0 1.0 0.0
  outer loop
    vertex -639.445975684082 968.437877625897 35.35
    vertex -636.445975684082 968.437877625897 34.35
    vertex -642.445975684082 968.437877625897 34.35
  endloop
endfacet
facet normal 0.0 -1.0 0.0
  outer loop
    vertex -648.445975684082 908.337877625897 35.85
    vertex -651.445975684082 908.337877625897 34.35
    vertex -645.445975684082 908.337877625897 34.35
  endloop
endfacet
facet normal -0.447213595499957 -2.37868171810249e-030 0.894427190999917
  outer loop
    vertex -648.445975684082 908.337877625897 35.85
    vertex -651.445975684082 968.437877625897 34.35
    vertex -651.445975684082 908.337877625897 34.35
  endloop
endfacet
facet normal -0.447213595499957 -2.37868171810249e-030 0.894427190999917
  outer loop
    vertex -651.445975684082 968.437877625897 34.35
    vertex -648.445975684082 908.337877625897 35.85
    vertex -648.445975684082 968.437877625897 35.85
  endloop
endfacet
facet normal 0.0 0.0 -1.0
  outer loop
    vertex -645.445975684082 968.437877625897 34.35
    vertex -651.445975684082 908.337877625897 34.35
    vertex -651.445975684082 968.437877625897 34.35
  endloop
endfacet
facet normal 0.0 0.0 -1.0
  outer loop
    vertex -651.445975684082 908.337877625897 34.35
    vertex -645.445975684082 968.437877625897 34.35
    vertex -645.445975684082 908.337877625897 34.35
  endloop
endfacet
facet normal 0.0 1.0 0.0
  outer loop
    vertex -648.445975684082 968.437877625897 35.85
    vertex -645.445975684082 968.437877625897 34.35
    vertex -651.445975684082 968.437877625897 34.35
  endloop
endfacet
facet normal 0.447213595499957 -2.37868171810249e-030 0.894427190999917
  outer loop
    vertex -645.445975684082 908.337877625897 34.35
    vertex -648.445975684082 968.437877625897 35.85
    vertex -648.445975684082 908.337877625897 35.85
  endloop
endfacet
facet normal 0.447213595499957 -2.37868171810249e-030 0.894427190999917
  outer loop
    vertex -648.445975684082 968.437877625897 35.85
    vertex -645.445975684082 908.337877625897 34.35
    vertex -645.445975684082 968.437877625897 34.35
  endloop
endfacet
facet normal 0.316227766016836 1.21476475838953e-030 0.948683298050514
  outer loop
    vertex -636.445975684082 908.337877625897 34.35
    vertex -639.445975684082 968.437877625897 35.35
    vertex -639.445975684082 908.337877625897 35.35
  endloop
endfacet
facet normal 0.316227766016836 1.21476475838953e-030 0.948683298050514
  outer loop
    vertex -639.445975684082 968.437877625897 35.35
    vertex -636.445975684082 908.337877625897 34.35
    vertex -636.445975684082 968.437877625897 34.35
  endloop
endfacet
facet normal 0.0 -1.0 0.0
  outer loop
    vertex -639.445975684082 908.337877625897 35.35
    vertex -642.445975684082 908.337877625897 34.35
    vertex -636.445975684082 908.337877625897 34.35
  endloop
endfacet
facet normal 0.0 0.0 -1.0
  outer loop
    vertex -636.445975684082 968.437877625897 34.35
    vertex -642.445975684082 908.337877625897 34.35
    vertex -642.445975684082 968.437877625897 34.35
  endloop
endfacet
facet normal 0.0 0.0 -1.0
  outer loop
    vertex -642.445975684082 908.337877625897 34.35
    vertex -636.445975684082 968.437877625897 34.35
    vertex -636.445975684082 908.337877625897 34.35
  endloop
endfacet
facet normal -0.316227766016836 -1.77542541610778e-030 0.948683298050514
  outer loop
    vertex -639.445975684082 908.337877625897 35.35
    vertex -642.445975684082 968.437877625897 34.35
    vertex -642.445975684082 908.337877625897 34.35
  endloop
endfacet
facet normal -0.316227766016836 -1.77542541610778e-030 0.948683298050514
  outer loop
    vertex -642.445975684082 968.437877625897 34.35
    vertex -639.445975684082 908.337877625897 35.35
    vertex -639.445975684082 968.437877625897 35.35
  endloop
endfacet
facet normal 0.0 1.0 0.0
  outer loop
    vertex -657.445975684082 968.437877625897 36.35
    vertex -654.445975684082 968.437877625897 34.35
    vertex -660.445975684082 968.437877625897 34.35
  endloop
endfacet
facet normal 0.554700196225227 2.62257027179595e-030 0.832050294337845
  outer loop
    vertex -654.445975684082 908.337877625897 34.35
    vertex -657.445975684082 968.437877625897 36.35
    vertex -657.445975684082 908.337877625897 36.35
  endloop
endfacet
facet normal 0.554700196225227 2.62257027179595e-030 0.832050294337845
  outer loop
    vertex -657.445975684082 968.437877625897 36.35
    vertex -654.445975684082 908.337877625897 34.35
    vertex -654.445975684082 968.437877625897 34.35
  endloop
endfacet
facet normal 0.0 -1.0 0.0
  outer loop
    vertex -657.445975684082 908.337877625897 36.35
    vertex -660.445975684082 908.337877625897 34.35
    vertex -654.445975684082 908.337877625897 34.35
  endloop
endfacet
facet normal 0.0 0.0 -1.0
  outer loop
    vertex -654.445975684082 968.437877625897 34.35
    vertex -660.445975684082 908.337877625897 34.35
    vertex -660.445975684082 968.437877625897 34.35
  endloop
endfacet
facet normal 0.0 0.0 -1.0
  outer loop
    vertex -660.445975684082 908.337877625897 34.35
    vertex -654.445975684082 968.437877625897 34.35
    vertex -654.445975684082 908.337877625897 34.35
  endloop
endfacet
facet normal -0.554700196225227 2.62257027179595e-030 0.832050294337845
  outer loop
    vertex -657.445975684082 908.337877625897 36.35
    vertex -660.445975684082 968.437877625897 34.35
    vertex -660.445975684082 908.337877625897 34.35
  endloop
endfacet
facet normal -0.554700196225227 2.62257027179595e-030 0.832050294337845
  outer loop
    vertex -660.445975684082 968.437877625897 34.35
    vertex -657.445975684082 908.337877625897 36.35
    vertex -657.445975684082 968.437877625897 36.35
  endloop
endfacet
endsolid MIDIBox
