solid MIDIBox
facet normal 0.0 1.0 0.0
  outer loop
    vertex -101.651670176675 583.750368645952 18.3499999999999
    vertex -61.6516701766751 583.750368645952 16.3499999999999
    vertex -101.651670176675 583.750368645952 16.3499999999999
  endloop
endfacet
facet normal 0.0 1.0 0.0
  outer loop
    vertex -61.6516701766751 583.750368645952 16.3499999999999
    vertex -101.651670176675 583.750368645952 18.3499999999999
    vertex -61.6516701766751 583.750368645952 18.3499999999999
  endloop
endfacet
facet normal 1.0 0.0 0.0
  outer loop
    vertex -61.6516701766751 581.750368645952 16.3499999999999
    vertex -61.6516701766751 582.250368645952 16.8499999999999
    vertex -61.6516701766751 581.750368645952 18.3499999999999
  endloop
endfacet
facet normal 1.0 0.0 0.0
  outer loop
    vertex -61.6516701766751 582.250368645952 16.8499999999999
    vertex -61.6516701766751 581.750368645952 16.3499999999999
    vertex -61.6516701766751 583.750368645952 16.3499999999999
  endloop
endfacet
facet normal 1.0 0.0 0.0
  outer loop
    vertex -61.6516701766751 582.250368645952 16.8499999999999
    vertex -61.6516701766751 583.750368645952 16.3499999999999
    vertex -61.6516701766751 583.250368645952 16.8499999999999
  endloop
endfacet
facet normal 1.0 0.0 0.0
  outer loop
    vertex -61.6516701766751 583.250368645952 16.8499999999999
    vertex -61.6516701766751 583.750368645952 16.3499999999999
    vertex -61.6516701766751 583.250368645952 18.3499999999999
  endloop
endfacet
facet normal 1.0 0.0 0.0
  outer loop
    vertex -61.6516701766751 583.250368645952 18.3499999999999
    vertex -61.6516701766751 583.750368645952 16.3499999999999
    vertex -61.6516701766751 583.750368645952 18.3499999999999
  endloop
endfacet
facet normal 1.0 0.0 0.0
  outer loop
    vertex -61.6516701766751 582.250368645952 18.3499999999999
    vertex -61.6516701766751 581.750368645952 18.3499999999999
    vertex -61.6516701766751 582.250368645952 16.8499999999999
  endloop
endfacet
facet normal 0.0 0.0 1.0
  outer loop
    vertex -101.651670176675 581.750368645952 18.3499999999999
    vertex -81.6516701766751 582.250368645952 18.3499999999999
    vertex -101.651670176675 583.750368645952 18.3499999999999
  endloop
endfacet
facet normal 0.0 0.0 1.0
  outer loop
    vertex -81.6516701766751 582.250368645952 18.3499999999999
    vertex -101.651670176675 581.750368645952 18.3499999999999
    vertex -61.6516701766751 581.750368645952 18.3499999999999
  endloop
endfacet
facet normal 0.0 0.0 1.0
  outer loop
    vertex -81.6516701766751 582.250368645952 18.3499999999999
    vertex -61.6516701766751 581.750368645952 18.3499999999999
    vertex -61.6516701766751 582.250368645952 18.3499999999999
  endloop
endfacet
facet normal 0.0 0.0 1.0
  outer loop
    vertex -101.651670176675 583.750368645952 18.3499999999999
    vertex -81.6516701766751 583.250368645952 18.3499999999999
    vertex -61.6516701766751 583.750368645952 18.3499999999999
  endloop
endfacet
facet normal 0.0 0.0 1.0
  outer loop
    vertex -81.6516701766751 583.250368645952 18.3499999999999
    vertex -101.651670176675 583.750368645952 18.3499999999999
    vertex -81.6516701766751 582.250368645952 18.3499999999999
  endloop
endfacet
facet normal 0.0 0.0 1.0
  outer loop
    vertex -61.6516701766751 583.750368645952 18.3499999999999
    vertex -81.6516701766751 583.250368645952 18.3499999999999
    vertex -61.6516701766751 583.250368645952 18.3499999999999
  endloop
endfacet
facet normal -0.0 -1.0 -0.0
  outer loop
    vertex -61.6516701766751 581.750368645952 18.3499999999999
    vertex -101.651670176675 581.750368645952 16.3499999999999
    vertex -61.6516701766751 581.750368645952 16.3499999999999
  endloop
endfacet
facet normal -0.0 -1.0 -0.0
  outer loop
    vertex -101.651670176675 581.750368645952 16.3499999999999
    vertex -61.6516701766751 581.750368645952 18.3499999999999
    vertex -101.651670176675 581.750368645952 18.3499999999999
  endloop
endfacet
facet normal 0.0 0.0 -1.0
  outer loop
    vertex -61.6516701766751 583.750368645952 16.3499999999999
    vertex -101.651670176675 581.750368645952 16.3499999999999
    vertex -101.651670176675 583.750368645952 16.3499999999999
  endloop
endfacet
facet normal 0.0 0.0 -1.0
  outer loop
    vertex -101.651670176675 581.750368645952 16.3499999999999
    vertex -61.6516701766751 583.750368645952 16.3499999999999
    vertex -61.6516701766751 581.750368645952 16.3499999999999
  endloop
endfacet
facet normal -1.0 0.0 0.0
  outer loop
    vertex -101.651670176675 583.750368645952 18.3499999999999
    vertex -101.651670176675 581.750368645952 16.3499999999999
    vertex -101.651670176675 581.750368645952 18.3499999999999
  endloop
endfacet
facet normal -1.0 0.0 0.0
  outer loop
    vertex -101.651670176675 581.750368645952 16.3499999999999
    vertex -101.651670176675 583.750368645952 18.3499999999999
    vertex -101.651670176675 583.750368645952 16.3499999999999
  endloop
endfacet
facet normal 0.0 0.0 1.0
  outer loop
    vertex -61.6516701766751 582.250368645952 16.8499999999999
    vertex -81.6516701766751 583.250368645952 16.8499999999999
    vertex -81.6516701766751 582.250368645952 16.8499999999999
  endloop
endfacet
facet normal 0.0 0.0 1.0
  outer loop
    vertex -81.6516701766751 583.250368645952 16.8499999999999
    vertex -61.6516701766751 582.250368645952 16.8499999999999
    vertex -61.6516701766751 583.250368645952 16.8499999999999
  endloop
endfacet
facet normal -0.0 -1.0 -0.0
  outer loop
    vertex -61.6516701766751 583.250368645952 18.3499999999999
    vertex -81.6516701766751 583.250368645952 16.8499999999999
    vertex -61.6516701766751 583.250368645952 16.8499999999999
  endloop
endfacet
facet normal -0.0 -1.0 -0.0
  outer loop
    vertex -81.6516701766751 583.250368645952 16.8499999999999
    vertex -61.6516701766751 583.250368645952 18.3499999999999
    vertex -81.6516701766751 583.250368645952 18.3499999999999
  endloop
endfacet
facet normal 1.0 0.0 0.0
  outer loop
    vertex -81.6516701766751 583.250368645952 16.8499999999999
    vertex -81.6516701766751 582.250368645952 18.3499999999999
    vertex -81.6516701766751 582.250368645952 16.8499999999999
  endloop
endfacet
facet normal 1.0 0.0 0.0
  outer loop
    vertex -81.6516701766751 582.250368645952 18.3499999999999
    vertex -81.6516701766751 583.250368645952 16.8499999999999
    vertex -81.6516701766751 583.250368645952 18.3499999999999
  endloop
endfacet
facet normal 0.0 1.0 0.0
  outer loop
    vertex -81.6516701766751 582.250368645952 18.3499999999999
    vertex -61.6516701766751 582.250368645952 16.8499999999999
    vertex -81.6516701766751 582.250368645952 16.8499999999999
  endloop
endfacet
facet normal 0.0 1.0 0.0
  outer loop
    vertex -61.6516701766751 582.250368645952 16.8499999999999
    vertex -81.6516701766751 582.250368645952 18.3499999999999
    vertex -61.6516701766751 582.250368645952 18.3499999999999
  endloop
endfacet
endsolid MIDIBox
