solid Default
  facet normal -1.000000e+00 1.708106e-16 -4.028536e-16
    outer loop
      vertex -2.400000e+01 1.400000e+01 0.000000e+00
      vertex -2.400000e+01 8.515564e+00 6.125000e+00
      vertex -2.400000e+01 1.400000e+01 1.400000e+01
    endloop
  endfacet
  facet normal -1.000000e+00 1.708106e-16 -4.028536e-16
    outer loop
      vertex -2.400000e+01 8.515564e+00 6.125000e+00
      vertex -2.400000e+01 1.400000e+01 0.000000e+00
      vertex -2.400000e+01 8.237488e+00 5.762573e+00
    endloop
  endfacet
  facet normal -1.000000e+00 1.708106e-16 -4.028536e-16
    outer loop
      vertex -2.400000e+01 8.237488e+00 5.762573e+00
      vertex -2.400000e+01 1.400000e+01 0.000000e+00
      vertex -2.400000e+01 7.875000e+00 5.484436e+00
    endloop
  endfacet
  facet normal -1.000000e+00 1.708106e-16 -4.028536e-16
    outer loop
      vertex -2.400000e+01 7.875000e+00 5.484436e+00
      vertex -2.400000e+01 1.400000e+01 0.000000e+00
      vertex -2.400000e+01 7.452942e+00 5.309631e+00
    endloop
  endfacet
  facet normal -1.000000e+00 1.708106e-16 -4.028536e-16
    outer loop
      vertex -2.400000e+01 7.452942e+00 5.309631e+00
      vertex -2.400000e+01 1.400000e+01 0.000000e+00
      vertex -2.400000e+01 -1.400000e+01 0.000000e+00
    endloop
  endfacet
  facet normal -1.000000e+00 1.708106e-16 -4.028536e-16
    outer loop
      vertex -2.400000e+01 1.400000e+01 1.400000e+01
      vertex -2.400000e+01 8.515564e+00 6.125000e+00
      vertex -2.400000e+01 8.690369e+00 6.547058e+00
    endloop
  endfacet
  facet normal -1.000000e+00 1.708106e-16 -4.028536e-16
    outer loop
      vertex -2.400000e+01 1.400000e+01 1.400000e+01
      vertex -2.400000e+01 8.690369e+00 6.547058e+00
      vertex -2.400000e+01 8.750000e+00 7.000000e+00
    endloop
  endfacet
  facet normal -1.000000e+00 1.708106e-16 -4.028536e-16
    outer loop
      vertex -2.400000e+01 7.452942e+00 5.309631e+00
      vertex -2.400000e+01 -1.400000e+01 0.000000e+00
      vertex -2.400000e+01 7.000000e+00 5.250000e+00
    endloop
  endfacet
  facet normal -1.000000e+00 1.708106e-16 -4.028536e-16
    outer loop
      vertex -2.400000e+01 7.000000e+00 5.250000e+00
      vertex -2.400000e+01 -1.400000e+01 0.000000e+00
      vertex -2.400000e+01 6.547119e+00 5.309631e+00
    endloop
  endfacet
  facet normal -1.000000e+00 1.708106e-16 -4.028536e-16
    outer loop
      vertex -2.400000e+01 6.547119e+00 5.309631e+00
      vertex -2.400000e+01 -1.400000e+01 0.000000e+00
      vertex -2.400000e+01 6.125000e+00 5.484436e+00
    endloop
  endfacet
  facet normal -1.000000e+00 1.708106e-16 -4.028536e-16
    outer loop
      vertex -2.400000e+01 6.125000e+00 5.484436e+00
      vertex -2.400000e+01 -1.400000e+01 0.000000e+00
      vertex -2.400000e+01 5.762573e+00 5.762573e+00
    endloop
  endfacet
  facet normal -1.000000e+00 1.708106e-16 -4.028536e-16
    outer loop
      vertex -2.400000e+01 5.762573e+00 5.762573e+00
      vertex -2.400000e+01 -1.400000e+01 0.000000e+00
      vertex -2.400000e+01 5.484497e+00 6.125000e+00
    endloop
  endfacet
  facet normal -1.000000e+00 1.708106e-16 -4.028536e-16
    outer loop
      vertex -2.400000e+01 5.484497e+00 6.125000e+00
      vertex -2.400000e+01 -1.400000e+01 0.000000e+00
      vertex -2.400000e+01 5.309631e+00 6.547058e+00
    endloop
  endfacet
  facet normal -1.000000e+00 1.708106e-16 -4.028536e-16
    outer loop
      vertex -2.400000e+01 5.309631e+00 6.547058e+00
      vertex -2.400000e+01 -1.400000e+01 0.000000e+00
      vertex -2.400000e+01 5.250000e+00 7.000000e+00
    endloop
  endfacet
  facet normal -1.000000e+00 1.708106e-16 -4.028536e-16
    outer loop
      vertex -2.400000e+01 5.250000e+00 7.000000e+00
      vertex -2.400000e+01 -1.400000e+01 0.000000e+00
      vertex -2.400000e+01 -6.125000e+00 5.484436e+00
    endloop
  endfacet
  facet normal -1.000000e+00 1.708106e-16 -4.028536e-16
    outer loop
      vertex -2.400000e+01 5.250000e+00 7.000000e+00
      vertex -2.400000e+01 -6.125000e+00 5.484436e+00
      vertex -2.400000e+01 -5.762512e+00 5.762573e+00
    endloop
  endfacet
  facet normal -1.000000e+00 1.708106e-16 -4.028536e-16
    outer loop
      vertex -2.400000e+01 5.250000e+00 7.000000e+00
      vertex -2.400000e+01 -5.762512e+00 5.762573e+00
      vertex -2.400000e+01 -5.484436e+00 6.125000e+00
    endloop
  endfacet
  facet normal -1.000000e+00 1.708106e-16 -4.028536e-16
    outer loop
      vertex -2.400000e+01 5.250000e+00 7.000000e+00
      vertex -2.400000e+01 -5.484436e+00 6.125000e+00
      vertex -2.400000e+01 -5.309631e+00 6.547058e+00
    endloop
  endfacet
  facet normal -1.000000e+00 1.708106e-16 -4.028536e-16
    outer loop
      vertex -2.400000e+01 5.250000e+00 7.000000e+00
      vertex -2.400000e+01 -5.309631e+00 6.547058e+00
      vertex -2.400000e+01 -5.250000e+00 7.000000e+00
    endloop
  endfacet
  facet normal -1.000000e+00 1.708106e-16 -4.028536e-16
    outer loop
      vertex -2.400000e+01 -6.125000e+00 5.484436e+00
      vertex -2.400000e+01 -1.400000e+01 0.000000e+00
      vertex -2.400000e+01 -6.547058e+00 5.309631e+00
    endloop
  endfacet
  facet normal -1.000000e+00 1.708106e-16 -4.028536e-16
    outer loop
      vertex -2.400000e+01 -6.547058e+00 5.309631e+00
      vertex -2.400000e+01 -1.400000e+01 0.000000e+00
      vertex -2.400000e+01 -7.000000e+00 5.250000e+00
    endloop
  endfacet
  facet normal -1.000000e+00 1.708106e-16 -4.028536e-16
    outer loop
      vertex -2.400000e+01 -7.000000e+00 5.250000e+00
      vertex -2.400000e+01 -1.400000e+01 0.000000e+00
      vertex -2.400000e+01 -7.452881e+00 5.309631e+00
    endloop
  endfacet
  facet normal -1.000000e+00 1.708106e-16 -4.028536e-16
    outer loop
      vertex -2.400000e+01 -7.452881e+00 5.309631e+00
      vertex -2.400000e+01 -1.400000e+01 0.000000e+00
      vertex -2.400000e+01 -7.875000e+00 5.484436e+00
    endloop
  endfacet
  facet normal -1.000000e+00 1.708106e-16 -4.028536e-16
    outer loop
      vertex -2.400000e+01 -7.875000e+00 5.484436e+00
      vertex -2.400000e+01 -1.400000e+01 0.000000e+00
      vertex -2.400000e+01 -8.237427e+00 5.762573e+00
    endloop
  endfacet
  facet normal -1.000000e+00 1.708106e-16 -4.028536e-16
    outer loop
      vertex -2.400000e+01 -8.237427e+00 5.762573e+00
      vertex -2.400000e+01 -1.400000e+01 0.000000e+00
      vertex -2.400000e+01 -8.515503e+00 6.125000e+00
    endloop
  endfacet
  facet normal -1.000000e+00 1.708106e-16 -4.028536e-16
    outer loop
      vertex -2.400000e+01 -8.515503e+00 6.125000e+00
      vertex -2.400000e+01 -1.400000e+01 0.000000e+00
      vertex -2.400000e+01 -8.690369e+00 6.547058e+00
    endloop
  endfacet
  facet normal -1.000000e+00 1.708106e-16 -4.028536e-16
    outer loop
      vertex -2.400000e+01 -8.690369e+00 6.547058e+00
      vertex -2.400000e+01 -1.400000e+01 0.000000e+00
      vertex -2.400000e+01 -8.750000e+00 7.000000e+00
    endloop
  endfacet
  facet normal -1.000000e+00 1.708106e-16 -4.028536e-16
    outer loop
      vertex -2.400000e+01 1.400000e+01 1.400000e+01
      vertex -2.400000e+01 7.452942e+00 8.690369e+00
      vertex -2.400000e+01 -1.400000e+01 1.400000e+01
    endloop
  endfacet
  facet normal -1.000000e+00 1.708106e-16 -4.028536e-16
    outer loop
      vertex -2.400000e+01 7.452942e+00 8.690369e+00
      vertex -2.400000e+01 1.400000e+01 1.400000e+01
      vertex -2.400000e+01 7.875000e+00 8.515564e+00
    endloop
  endfacet
  facet normal -1.000000e+00 1.708106e-16 -4.028536e-16
    outer loop
      vertex -2.400000e+01 7.875000e+00 8.515564e+00
      vertex -2.400000e+01 1.400000e+01 1.400000e+01
      vertex -2.400000e+01 8.237488e+00 8.237427e+00
    endloop
  endfacet
  facet normal -1.000000e+00 1.708106e-16 -4.028536e-16
    outer loop
      vertex -2.400000e+01 8.237488e+00 8.237427e+00
      vertex -2.400000e+01 1.400000e+01 1.400000e+01
      vertex -2.400000e+01 8.515564e+00 7.875000e+00
    endloop
  endfacet
  facet normal -1.000000e+00 1.708106e-16 -4.028536e-16
    outer loop
      vertex -2.400000e+01 8.515564e+00 7.875000e+00
      vertex -2.400000e+01 1.400000e+01 1.400000e+01
      vertex -2.400000e+01 8.690369e+00 7.452942e+00
    endloop
  endfacet
  facet normal -1.000000e+00 1.708106e-16 -4.028536e-16
    outer loop
      vertex -2.400000e+01 8.690369e+00 7.452942e+00
      vertex -2.400000e+01 1.400000e+01 1.400000e+01
      vertex -2.400000e+01 8.750000e+00 7.000000e+00
    endloop
  endfacet
  facet normal -1.000000e+00 1.708106e-16 -4.028536e-16
    outer loop
      vertex -2.400000e+01 -1.400000e+01 1.400000e+01
      vertex -2.400000e+01 7.452942e+00 8.690369e+00
      vertex -2.400000e+01 7.000000e+00 8.750000e+00
    endloop
  endfacet
  facet normal -1.000000e+00 1.708106e-16 -4.028536e-16
    outer loop
      vertex -2.400000e+01 -1.400000e+01 1.400000e+01
      vertex -2.400000e+01 7.000000e+00 8.750000e+00
      vertex -2.400000e+01 6.547119e+00 8.690369e+00
    endloop
  endfacet
  facet normal -1.000000e+00 1.708106e-16 -4.028536e-16
    outer loop
      vertex -2.400000e+01 -1.400000e+01 1.400000e+01
      vertex -2.400000e+01 6.547119e+00 8.690369e+00
      vertex -2.400000e+01 6.125000e+00 8.515564e+00
    endloop
  endfacet
  facet normal -1.000000e+00 1.708106e-16 -4.028536e-16
    outer loop
      vertex -2.400000e+01 -1.400000e+01 1.400000e+01
      vertex -2.400000e+01 6.125000e+00 8.515564e+00
      vertex -2.400000e+01 5.762573e+00 8.237427e+00
    endloop
  endfacet
  facet normal -1.000000e+00 1.708106e-16 -4.028536e-16
    outer loop
      vertex -2.400000e+01 -1.400000e+01 1.400000e+01
      vertex -2.400000e+01 5.762573e+00 8.237427e+00
      vertex -2.400000e+01 5.484497e+00 7.875000e+00
    endloop
  endfacet
  facet normal -1.000000e+00 1.708106e-16 -4.028536e-16
    outer loop
      vertex -2.400000e+01 -1.400000e+01 1.400000e+01
      vertex -2.400000e+01 5.484497e+00 7.875000e+00
      vertex -2.400000e+01 5.309631e+00 7.452942e+00
    endloop
  endfacet
  facet normal -1.000000e+00 1.708106e-16 -4.028536e-16
    outer loop
      vertex -2.400000e+01 -1.400000e+01 1.400000e+01
      vertex -2.400000e+01 5.309631e+00 7.452942e+00
      vertex -2.400000e+01 5.250000e+00 7.000000e+00
    endloop
  endfacet
  facet normal -1.000000e+00 1.708106e-16 -4.028536e-16
    outer loop
      vertex -2.400000e+01 -1.400000e+01 1.400000e+01
      vertex -2.400000e+01 5.250000e+00 7.000000e+00
      vertex -2.400000e+01 -6.125000e+00 8.515564e+00
    endloop
  endfacet
  facet normal -1.000000e+00 1.708106e-16 -4.028536e-16
    outer loop
      vertex -2.400000e+01 -6.125000e+00 8.515564e+00
      vertex -2.400000e+01 5.250000e+00 7.000000e+00
      vertex -2.400000e+01 -5.762512e+00 8.237427e+00
    endloop
  endfacet
  facet normal -1.000000e+00 1.708106e-16 -4.028536e-16
    outer loop
      vertex -2.400000e+01 -5.762512e+00 8.237427e+00
      vertex -2.400000e+01 5.250000e+00 7.000000e+00
      vertex -2.400000e+01 -5.484436e+00 7.875000e+00
    endloop
  endfacet
  facet normal -1.000000e+00 1.708106e-16 -4.028536e-16
    outer loop
      vertex -2.400000e+01 -5.484436e+00 7.875000e+00
      vertex -2.400000e+01 5.250000e+00 7.000000e+00
      vertex -2.400000e+01 -5.309631e+00 7.452942e+00
    endloop
  endfacet
  facet normal -1.000000e+00 1.708106e-16 -4.028536e-16
    outer loop
      vertex -2.400000e+01 -5.309631e+00 7.452942e+00
      vertex -2.400000e+01 5.250000e+00 7.000000e+00
      vertex -2.400000e+01 -5.250000e+00 7.000000e+00
    endloop
  endfacet
  facet normal -1.000000e+00 1.708106e-16 -4.028536e-16
    outer loop
      vertex -2.400000e+01 -1.400000e+01 1.400000e+01
      vertex -2.400000e+01 -6.125000e+00 8.515564e+00
      vertex -2.400000e+01 -6.547058e+00 8.690369e+00
    endloop
  endfacet
  facet normal -1.000000e+00 1.708106e-16 -4.028536e-16
    outer loop
      vertex -2.400000e+01 -1.400000e+01 1.400000e+01
      vertex -2.400000e+01 -6.547058e+00 8.690369e+00
      vertex -2.400000e+01 -7.000000e+00 8.750000e+00
    endloop
  endfacet
  facet normal -1.000000e+00 1.708106e-16 -4.028536e-16
    outer loop
      vertex -2.400000e+01 -1.400000e+01 1.400000e+01
      vertex -2.400000e+01 -7.000000e+00 8.750000e+00
      vertex -2.400000e+01 -7.452881e+00 8.690369e+00
    endloop
  endfacet
  facet normal -1.000000e+00 1.708106e-16 -4.028536e-16
    outer loop
      vertex -2.400000e+01 -1.400000e+01 1.400000e+01
      vertex -2.400000e+01 -7.452881e+00 8.690369e+00
      vertex -2.400000e+01 -7.875000e+00 8.515564e+00
    endloop
  endfacet
  facet normal -1.000000e+00 1.708106e-16 -4.028536e-16
    outer loop
      vertex -2.400000e+01 -1.400000e+01 1.400000e+01
      vertex -2.400000e+01 -7.875000e+00 8.515564e+00
      vertex -2.400000e+01 -8.237427e+00 8.237427e+00
    endloop
  endfacet
  facet normal -1.000000e+00 1.708106e-16 -4.028536e-16
    outer loop
      vertex -2.400000e+01 -1.400000e+01 1.400000e+01
      vertex -2.400000e+01 -8.237427e+00 8.237427e+00
      vertex -2.400000e+01 -8.515503e+00 7.875000e+00
    endloop
  endfacet
  facet normal -1.000000e+00 1.708106e-16 -4.028536e-16
    outer loop
      vertex -2.400000e+01 -1.400000e+01 1.400000e+01
      vertex -2.400000e+01 -8.515503e+00 7.875000e+00
      vertex -2.400000e+01 -8.690369e+00 7.452942e+00
    endloop
  endfacet
  facet normal -1.000000e+00 1.708106e-16 -4.028536e-16
    outer loop
      vertex -2.400000e+01 -1.400000e+01 1.400000e+01
      vertex -2.400000e+01 -8.690369e+00 7.452942e+00
      vertex -2.400000e+01 -8.750000e+00 7.000000e+00
    endloop
  endfacet
  facet normal -1.000000e+00 1.708106e-16 -4.028536e-16
    outer loop
      vertex -2.400000e+01 -1.400000e+01 1.400000e+01
      vertex -2.400000e+01 -8.750000e+00 7.000000e+00
      vertex -2.400000e+01 -1.400000e+01 0.000000e+00
    endloop
  endfacet
  facet normal -3.068218e-16 3.826834e-01 9.238795e-01
    outer loop
      vertex -2.400000e+01 -7.452881e+00 5.309631e+00
      vertex -2.200000e+01 -7.875000e+00 5.484436e+00
      vertex -2.200000e+01 -7.452881e+00 5.309631e+00
    endloop
  endfacet
  facet normal -3.068218e-16 3.826834e-01 9.238795e-01
    outer loop
      vertex -2.200000e+01 -7.875000e+00 5.484436e+00
      vertex -2.400000e+01 -7.452881e+00 5.309631e+00
      vertex -2.400000e+01 -7.875000e+00 5.484436e+00
    endloop
  endfacet
  facet normal -3.771118e-16 1.305262e-01 9.914449e-01
    outer loop
      vertex -2.400000e+01 -7.000000e+00 5.250000e+00
      vertex -2.200000e+01 -7.452881e+00 5.309631e+00
      vertex -2.200000e+01 -7.000000e+00 5.250000e+00
    endloop
  endfacet
  facet normal -3.771118e-16 1.305262e-01 9.914449e-01
    outer loop
      vertex -2.200000e+01 -7.452881e+00 5.309631e+00
      vertex -2.400000e+01 -7.000000e+00 5.250000e+00
      vertex -2.400000e+01 -7.452881e+00 5.309631e+00
    endloop
  endfacet
  facet normal -4.375546e-16 -3.826834e-01 9.238795e-01
    outer loop
      vertex -2.400000e+01 -6.125000e+00 5.484436e+00
      vertex -2.200000e+01 -6.547058e+00 5.309631e+00
      vertex -2.200000e+01 -6.125000e+00 5.484436e+00
    endloop
  endfacet
  facet normal -4.375546e-16 -3.826834e-01 9.238795e-01
    outer loop
      vertex -2.200000e+01 -6.547058e+00 5.309631e+00
      vertex -2.400000e+01 -6.125000e+00 5.484436e+00
      vertex -2.400000e+01 -6.547058e+00 5.309631e+00
    endloop
  endfacet
  facet normal 2.156223e-16 -6.087614e-01 -7.933533e-01
    outer loop
      vertex -2.400000e+01 -6.125000e+00 8.515564e+00
      vertex -2.200000e+01 -5.762512e+00 8.237427e+00
      vertex -2.200000e+01 -6.125000e+00 8.515564e+00
    endloop
  endfacet
  facet normal 2.156223e-16 -6.087614e-01 -7.933533e-01
    outer loop
      vertex -2.200000e+01 -5.762512e+00 8.237427e+00
      vertex -2.400000e+01 -6.125000e+00 8.515564e+00
      vertex -2.400000e+01 -5.762512e+00 8.237427e+00
    endloop
  endfacet
  facet normal 3.771118e-16 -1.305262e-01 -9.914449e-01
    outer loop
      vertex -2.400000e+01 -7.000000e+00 8.750000e+00
      vertex -2.200000e+01 -6.547058e+00 8.690369e+00
      vertex -2.200000e+01 -7.000000e+00 8.750000e+00
    endloop
  endfacet
  facet normal 3.771118e-16 -1.305262e-01 -9.914449e-01
    outer loop
      vertex -2.200000e+01 -6.547058e+00 8.690369e+00
      vertex -2.400000e+01 -7.000000e+00 8.750000e+00
      vertex -2.400000e+01 -6.547058e+00 8.690369e+00
    endloop
  endfacet
  facet normal 2.219322e-16 9.914449e-01 -1.305262e-01
    outer loop
      vertex -2.400000e+01 -8.690369e+00 7.452942e+00
      vertex -2.200000e+01 -8.750000e+00 7.000000e+00
      vertex -2.400000e+01 -8.750000e+00 7.000000e+00
    endloop
  endfacet
  facet normal 2.219322e-16 9.914449e-01 -1.305262e-01
    outer loop
      vertex -2.200000e+01 -8.750000e+00 7.000000e+00
      vertex -2.400000e+01 -8.690369e+00 7.452942e+00
      vertex -2.200000e+01 -8.690369e+00 7.452942e+00
    endloop
  endfacet
  facet normal 4.217024e-16 1.305262e-01 -9.914449e-01
    outer loop
      vertex -2.400000e+01 6.547119e+00 8.690369e+00
      vertex -2.200000e+01 7.000000e+00 8.750000e+00
      vertex -2.200000e+01 6.547119e+00 8.690369e+00
    endloop
  endfacet
  facet normal 4.217024e-16 1.305262e-01 -9.914449e-01
    outer loop
      vertex -2.200000e+01 7.000000e+00 8.750000e+00
      vertex -2.400000e+01 6.547119e+00 8.690369e+00
      vertex -2.400000e+01 7.000000e+00 8.750000e+00
    endloop
  endfacet
  facet normal 3.643045e-18 9.238795e-01 3.826834e-01
    outer loop
      vertex -2.400000e+01 -8.690369e+00 6.547058e+00
      vertex -2.200000e+01 -8.515503e+00 6.125000e+00
      vertex -2.400000e+01 -8.515503e+00 6.125000e+00
    endloop
  endfacet
  facet normal 3.643045e-18 9.238795e-01 3.826834e-01
    outer loop
      vertex -2.200000e+01 -8.515503e+00 6.125000e+00
      vertex -2.400000e+01 -8.690369e+00 6.547058e+00
      vertex -2.200000e+01 -8.690369e+00 6.547058e+00
    endloop
  endfacet
  facet normal -1.097285e-16 7.933533e-01 6.087614e-01
    outer loop
      vertex -2.400000e+01 -8.515503e+00 6.125000e+00
      vertex -2.200000e+01 -8.237427e+00 5.762573e+00
      vertex -2.400000e+01 -8.237427e+00 5.762573e+00
    endloop
  endfacet
  facet normal -1.097285e-16 7.933533e-01 6.087614e-01
    outer loop
      vertex -2.200000e+01 -8.237427e+00 5.762573e+00
      vertex -2.400000e+01 -8.515503e+00 6.125000e+00
      vertex -2.200000e+01 -8.515503e+00 6.125000e+00
    endloop
  endfacet
  facet normal 3.771118e-16 -1.305262e-01 -9.914449e-01
    outer loop
      vertex -2.400000e+01 7.000000e+00 8.750000e+00
      vertex -2.200000e+01 7.452942e+00 8.690369e+00
      vertex -2.200000e+01 7.000000e+00 8.750000e+00
    endloop
  endfacet
  facet normal 3.771118e-16 -1.305262e-01 -9.914449e-01
    outer loop
      vertex -2.200000e+01 7.452942e+00 8.690369e+00
      vertex -2.400000e+01 7.000000e+00 8.750000e+00
      vertex -2.400000e+01 7.452942e+00 8.690369e+00
    endloop
  endfacet
  facet normal -3.119738e-16 -9.238795e-01 3.826834e-01
    outer loop
      vertex -2.200000e+01 -5.309631e+00 6.547058e+00
      vertex -2.400000e+01 -5.484436e+00 6.125000e+00
      vertex -2.200000e+01 -5.484436e+00 6.125000e+00
    endloop
  endfacet
  facet normal -3.119738e-16 -9.238795e-01 3.826834e-01
    outer loop
      vertex -2.400000e+01 -5.484436e+00 6.125000e+00
      vertex -2.200000e+01 -5.309631e+00 6.547058e+00
      vertex -2.400000e+01 -5.309631e+00 6.547058e+00
    endloop
  endfacet
  facet normal -2.156223e-16 6.087614e-01 7.933533e-01
    outer loop
      vertex -2.400000e+01 -7.875000e+00 5.484436e+00
      vertex -2.200000e+01 -8.237427e+00 5.762573e+00
      vertex -2.200000e+01 -7.875000e+00 5.484436e+00
    endloop
  endfacet
  facet normal -2.156223e-16 6.087614e-01 7.933533e-01
    outer loop
      vertex -2.200000e+01 -8.237427e+00 5.762573e+00
      vertex -2.400000e+01 -7.875000e+00 5.484436e+00
      vertex -2.400000e+01 -8.237427e+00 5.762573e+00
    endloop
  endfacet
  facet normal -4.217024e-16 -1.305262e-01 9.914449e-01
    outer loop
      vertex -2.400000e+01 -6.547058e+00 5.309631e+00
      vertex -2.200000e+01 -7.000000e+00 5.250000e+00
      vertex -2.200000e+01 -6.547058e+00 5.309631e+00
    endloop
  endfacet
  facet normal -4.217024e-16 -1.305262e-01 9.914449e-01
    outer loop
      vertex -2.200000e+01 -7.000000e+00 5.250000e+00
      vertex -2.400000e+01 -6.547058e+00 5.309631e+00
      vertex -2.400000e+01 -7.000000e+00 5.250000e+00
    endloop
  endfacet
  facet normal -3.807549e-16 -7.933533e-01 6.087614e-01
    outer loop
      vertex -2.200000e+01 -5.484436e+00 6.125000e+00
      vertex -2.400000e+01 -5.762512e+00 5.762573e+00
      vertex -2.200000e+01 -5.762512e+00 5.762573e+00
    endloop
  endfacet
  facet normal -3.807549e-16 -7.933533e-01 6.087614e-01
    outer loop
      vertex -2.400000e+01 -5.762512e+00 5.762573e+00
      vertex -2.200000e+01 -5.484436e+00 6.125000e+00
      vertex -2.400000e+01 -5.484436e+00 6.125000e+00
    endloop
  endfacet
  facet normal -1.167664e-16 -9.914449e-01 -1.305262e-01
    outer loop
      vertex -2.200000e+01 -5.309631e+00 7.452942e+00
      vertex -2.400000e+01 -5.250000e+00 7.000000e+00
      vertex -2.200000e+01 -5.250000e+00 7.000000e+00
    endloop
  endfacet
  facet normal -1.167664e-16 -9.914449e-01 -1.305262e-01
    outer loop
      vertex -2.400000e+01 -5.250000e+00 7.000000e+00
      vertex -2.200000e+01 -5.309631e+00 7.452942e+00
      vertex -2.400000e+01 -5.309631e+00 7.452942e+00
    endloop
  endfacet
  facet normal 3.807549e-16 7.933533e-01 -6.087614e-01
    outer loop
      vertex -2.400000e+01 -8.237427e+00 8.237427e+00
      vertex -2.200000e+01 -8.515503e+00 7.875000e+00
      vertex -2.400000e+01 -8.515503e+00 7.875000e+00
    endloop
  endfacet
  facet normal 3.807549e-16 7.933533e-01 -6.087614e-01
    outer loop
      vertex -2.200000e+01 -8.515503e+00 7.875000e+00
      vertex -2.400000e+01 -8.237427e+00 8.237427e+00
      vertex -2.200000e+01 -8.237427e+00 8.237427e+00
    endloop
  endfacet
  facet normal 1.097285e-16 -7.933533e-01 -6.087614e-01
    outer loop
      vertex -2.200000e+01 -5.762512e+00 8.237427e+00
      vertex -2.400000e+01 -5.484436e+00 7.875000e+00
      vertex -2.200000e+01 -5.484436e+00 7.875000e+00
    endloop
  endfacet
  facet normal 1.097285e-16 -7.933533e-01 -6.087614e-01
    outer loop
      vertex -2.400000e+01 -5.484436e+00 7.875000e+00
      vertex -2.200000e+01 -5.762512e+00 8.237427e+00
      vertex -2.400000e+01 -5.762512e+00 8.237427e+00
    endloop
  endfacet
  facet normal 4.375546e-16 3.826834e-01 -9.238795e-01
    outer loop
      vertex -2.400000e+01 -7.875000e+00 8.515564e+00
      vertex -2.200000e+01 -7.452881e+00 8.690369e+00
      vertex -2.200000e+01 -7.875000e+00 8.515564e+00
    endloop
  endfacet
  facet normal 4.375546e-16 3.826834e-01 -9.238795e-01
    outer loop
      vertex -2.200000e+01 -7.452881e+00 8.690369e+00
      vertex -2.400000e+01 -7.875000e+00 8.515564e+00
      vertex -2.400000e+01 -7.452881e+00 8.690369e+00
    endloop
  endfacet
  facet normal 3.119738e-16 9.238795e-01 -3.826834e-01
    outer loop
      vertex -2.400000e+01 -8.515503e+00 7.875000e+00
      vertex -2.200000e+01 -8.690369e+00 7.452942e+00
      vertex -2.400000e+01 -8.690369e+00 7.452942e+00
    endloop
  endfacet
  facet normal 3.119738e-16 9.238795e-01 -3.826834e-01
    outer loop
      vertex -2.200000e+01 -8.690369e+00 7.452942e+00
      vertex -2.400000e+01 -8.515503e+00 7.875000e+00
      vertex -2.200000e+01 -8.515503e+00 7.875000e+00
    endloop
  endfacet
  facet normal 1.708106e-16 1.000000e+00 2.011672e-31
    outer loop
      vertex -2.400000e+01 1.400000e+01 1.400000e+01
      vertex 2.400000e+01 1.400000e+01 0.000000e+00
      vertex -2.400000e+01 1.400000e+01 0.000000e+00
    endloop
  endfacet
  facet normal 1.708106e-16 1.000000e+00 2.011672e-31
    outer loop
      vertex 2.400000e+01 1.400000e+01 0.000000e+00
      vertex -2.400000e+01 1.400000e+01 1.400000e+01
      vertex 2.400000e+01 1.400000e+01 1.400000e+01
    endloop
  endfacet
  facet normal -1.708106e-16 -1.000000e+00 1.420853e-32
    outer loop
      vertex -1.900000e+01 -1.400000e+01 1.400000e+01
      vertex -2.400000e+01 -1.400000e+01 0.000000e+00
      vertex -1.900000e+01 -1.400000e+01 0.000000e+00
    endloop
  endfacet
  facet normal -1.708106e-16 -1.000000e+00 1.420853e-32
    outer loop
      vertex -2.400000e+01 -1.400000e+01 0.000000e+00
      vertex -1.900000e+01 -1.400000e+01 1.400000e+01
      vertex -2.400000e+01 -1.400000e+01 1.400000e+01
    endloop
  endfacet
  facet normal -4.235882e-16 -6.087614e-01 7.933533e-01
    outer loop
      vertex -2.400000e+01 -5.762512e+00 5.762573e+00
      vertex -2.200000e+01 -6.125000e+00 5.484436e+00
      vertex -2.200000e+01 -5.762512e+00 5.762573e+00
    endloop
  endfacet
  facet normal -4.235882e-16 -6.087614e-01 7.933533e-01
    outer loop
      vertex -2.200000e+01 -6.125000e+00 5.484436e+00
      vertex -2.400000e+01 -5.762512e+00 5.762573e+00
      vertex -2.400000e+01 -6.125000e+00 5.484436e+00
    endloop
  endfacet
  facet normal 3.068218e-16 -3.826834e-01 -9.238795e-01
    outer loop
      vertex -2.400000e+01 -6.547058e+00 8.690369e+00
      vertex -2.200000e+01 -6.125000e+00 8.515564e+00
      vertex -2.200000e+01 -6.547058e+00 8.690369e+00
    endloop
  endfacet
  facet normal 3.068218e-16 -3.826834e-01 -9.238795e-01
    outer loop
      vertex -2.200000e+01 -6.125000e+00 8.515564e+00
      vertex -2.400000e+01 -6.547058e+00 8.690369e+00
      vertex -2.400000e+01 -6.125000e+00 8.515564e+00
    endloop
  endfacet
  facet normal -3.643045e-18 -9.238795e-01 -3.826834e-01
    outer loop
      vertex -2.200000e+01 -5.484436e+00 7.875000e+00
      vertex -2.400000e+01 -5.309631e+00 7.452942e+00
      vertex -2.200000e+01 -5.309631e+00 7.452942e+00
    endloop
  endfacet
  facet normal -3.643045e-18 -9.238795e-01 -3.826834e-01
    outer loop
      vertex -2.400000e+01 -5.309631e+00 7.452942e+00
      vertex -2.200000e+01 -5.484436e+00 7.875000e+00
      vertex -2.400000e+01 -5.484436e+00 7.875000e+00
    endloop
  endfacet
  facet normal -2.219322e-16 -9.914449e-01 1.305262e-01
    outer loop
      vertex -2.200000e+01 -5.250000e+00 7.000000e+00
      vertex -2.400000e+01 -5.309631e+00 6.547058e+00
      vertex -2.200000e+01 -5.309631e+00 6.547058e+00
    endloop
  endfacet
  facet normal -2.219322e-16 -9.914449e-01 1.305262e-01
    outer loop
      vertex -2.400000e+01 -5.309631e+00 6.547058e+00
      vertex -2.200000e+01 -5.250000e+00 7.000000e+00
      vertex -2.400000e+01 -5.250000e+00 7.000000e+00
    endloop
  endfacet
  facet normal 4.375546e-16 3.826834e-01 -9.238795e-01
    outer loop
      vertex -2.400000e+01 6.125000e+00 8.515564e+00
      vertex -2.200000e+01 6.547119e+00 8.690369e+00
      vertex -2.200000e+01 6.125000e+00 8.515564e+00
    endloop
  endfacet
  facet normal 4.375546e-16 3.826834e-01 -9.238795e-01
    outer loop
      vertex -2.200000e+01 6.547119e+00 8.690369e+00
      vertex -2.400000e+01 6.125000e+00 8.515564e+00
      vertex -2.400000e+01 6.547119e+00 8.690369e+00
    endloop
  endfacet
  facet normal 1.167664e-16 9.914449e-01 1.305262e-01
    outer loop
      vertex -2.400000e+01 -8.750000e+00 7.000000e+00
      vertex -2.200000e+01 -8.690369e+00 6.547058e+00
      vertex -2.400000e+01 -8.690369e+00 6.547058e+00
    endloop
  endfacet
  facet normal 1.167664e-16 9.914449e-01 1.305262e-01
    outer loop
      vertex -2.200000e+01 -8.690369e+00 6.547058e+00
      vertex -2.400000e+01 -8.750000e+00 7.000000e+00
      vertex -2.200000e+01 -8.750000e+00 7.000000e+00
    endloop
  endfacet
  facet normal 4.217024e-16 1.305262e-01 -9.914449e-01
    outer loop
      vertex -2.400000e+01 -7.452881e+00 8.690369e+00
      vertex -2.200000e+01 -7.000000e+00 8.750000e+00
      vertex -2.200000e+01 -7.452881e+00 8.690369e+00
    endloop
  endfacet
  facet normal 4.217024e-16 1.305262e-01 -9.914449e-01
    outer loop
      vertex -2.200000e+01 -7.000000e+00 8.750000e+00
      vertex -2.400000e+01 -7.452881e+00 8.690369e+00
      vertex -2.400000e+01 -7.000000e+00 8.750000e+00
    endloop
  endfacet
  facet normal -8.856257e-15 -1.104296e-15 1.000000e+00
    outer loop
      vertex -2.400000e+01 1.400000e+01 1.400000e+01
      vertex 2.400000e+01 1.100000e+01 1.400000e+01
      vertex 2.400000e+01 1.400000e+01 1.400000e+01
    endloop
  endfacet
  facet normal -8.856257e-15 -1.104296e-15 1.000000e+00
    outer loop
      vertex 2.400000e+01 1.100000e+01 1.400000e+01
      vertex -2.400000e+01 1.400000e+01 1.400000e+01
      vertex -1.900000e+01 1.100000e+01 1.400000e+01
    endloop
  endfacet
  facet normal -8.856257e-15 -1.104296e-15 1.000000e+00
    outer loop
      vertex -1.900000e+01 1.100000e+01 1.400000e+01
      vertex -2.400000e+01 1.400000e+01 1.400000e+01
      vertex -1.900000e+01 -1.400000e+01 1.400000e+01
    endloop
  endfacet
  facet normal -8.856257e-15 -1.104296e-15 1.000000e+00
    outer loop
      vertex -1.900000e+01 -1.400000e+01 1.400000e+01
      vertex -2.400000e+01 1.400000e+01 1.400000e+01
      vertex -2.400000e+01 -1.400000e+01 1.400000e+01
    endloop
  endfacet
  facet normal 1.020595e-14 1.650083e-15 -1.000000e+00
    outer loop
      vertex 2.400000e+01 0.000000e+00 0.000000e+00
      vertex -2.400000e+01 1.400000e+01 0.000000e+00
      vertex 2.400000e+01 1.400000e+01 0.000000e+00
    endloop
  endfacet
  facet normal 1.020595e-14 1.650083e-15 -1.000000e+00
    outer loop
      vertex -2.400000e+01 1.400000e+01 0.000000e+00
      vertex 2.400000e+01 0.000000e+00 0.000000e+00
      vertex -1.900000e+01 0.000000e+00 0.000000e+00
    endloop
  endfacet
  facet normal 1.020595e-14 1.650083e-15 -1.000000e+00
    outer loop
      vertex -2.400000e+01 1.400000e+01 0.000000e+00
      vertex -1.900000e+01 0.000000e+00 0.000000e+00
      vertex -1.900000e+01 -1.400000e+01 0.000000e+00
    endloop
  endfacet
  facet normal 1.020595e-14 1.650083e-15 -1.000000e+00
    outer loop
      vertex -2.400000e+01 1.400000e+01 0.000000e+00
      vertex -1.900000e+01 -1.400000e+01 0.000000e+00
      vertex -2.400000e+01 -1.400000e+01 0.000000e+00
    endloop
  endfacet
  facet normal 4.235882e-16 6.087614e-01 -7.933533e-01
    outer loop
      vertex -2.400000e+01 -8.237427e+00 8.237427e+00
      vertex -2.200000e+01 -7.875000e+00 8.515564e+00
      vertex -2.200000e+01 -8.237427e+00 8.237427e+00
    endloop
  endfacet
  facet normal 4.235882e-16 6.087614e-01 -7.933533e-01
    outer loop
      vertex -2.200000e+01 -7.875000e+00 8.515564e+00
      vertex -2.400000e+01 -8.237427e+00 8.237427e+00
      vertex -2.400000e+01 -7.875000e+00 8.515564e+00
    endloop
  endfacet
  facet normal -3.771118e-16 1.305262e-01 9.914449e-01
    outer loop
      vertex -2.400000e+01 7.000000e+00 5.250000e+00
      vertex -2.200000e+01 6.547119e+00 5.309631e+00
      vertex -2.200000e+01 7.000000e+00 5.250000e+00
    endloop
  endfacet
  facet normal -3.771118e-16 1.305262e-01 9.914449e-01
    outer loop
      vertex -2.200000e+01 6.547119e+00 5.309631e+00
      vertex -2.400000e+01 7.000000e+00 5.250000e+00
      vertex -2.400000e+01 6.547119e+00 5.309631e+00
    endloop
  endfacet
  facet normal 1.167664e-16 9.914449e-01 1.305262e-01
    outer loop
      vertex -2.400000e+01 5.250000e+00 7.000000e+00
      vertex -2.200000e+01 5.309631e+00 6.547058e+00
      vertex -2.400000e+01 5.309631e+00 6.547058e+00
    endloop
  endfacet
  facet normal 1.167664e-16 9.914449e-01 1.305262e-01
    outer loop
      vertex -2.200000e+01 5.309631e+00 6.547058e+00
      vertex -2.400000e+01 5.250000e+00 7.000000e+00
      vertex -2.200000e+01 5.250000e+00 7.000000e+00
    endloop
  endfacet
  facet normal 3.119738e-16 9.238795e-01 -3.826834e-01
    outer loop
      vertex -2.400000e+01 5.484497e+00 7.875000e+00
      vertex -2.200000e+01 5.309631e+00 7.452942e+00
      vertex -2.400000e+01 5.309631e+00 7.452942e+00
    endloop
  endfacet
  facet normal 3.119738e-16 9.238795e-01 -3.826834e-01
    outer loop
      vertex -2.200000e+01 5.309631e+00 7.452942e+00
      vertex -2.400000e+01 5.484497e+00 7.875000e+00
      vertex -2.200000e+01 5.484497e+00 7.875000e+00
    endloop
  endfacet
  facet normal -4.375546e-16 -3.826834e-01 9.238795e-01
    outer loop
      vertex -2.400000e+01 7.875000e+00 5.484436e+00
      vertex -2.200000e+01 7.452942e+00 5.309631e+00
      vertex -2.200000e+01 7.875000e+00 5.484436e+00
    endloop
  endfacet
  facet normal -4.375546e-16 -3.826834e-01 9.238795e-01
    outer loop
      vertex -2.200000e+01 7.452942e+00 5.309631e+00
      vertex -2.400000e+01 7.875000e+00 5.484436e+00
      vertex -2.400000e+01 7.452942e+00 5.309631e+00
    endloop
  endfacet
  facet normal -2.219322e-16 -9.914449e-01 1.305262e-01
    outer loop
      vertex -2.200000e+01 8.750000e+00 7.000000e+00
      vertex -2.400000e+01 8.690369e+00 6.547058e+00
      vertex -2.200000e+01 8.690369e+00 6.547058e+00
    endloop
  endfacet
  facet normal -2.219322e-16 -9.914449e-01 1.305262e-01
    outer loop
      vertex -2.400000e+01 8.690369e+00 6.547058e+00
      vertex -2.200000e+01 8.750000e+00 7.000000e+00
      vertex -2.400000e+01 8.750000e+00 7.000000e+00
    endloop
  endfacet
  facet normal 3.068218e-16 -3.826834e-01 -9.238795e-01
    outer loop
      vertex -2.400000e+01 7.452942e+00 8.690369e+00
      vertex -2.200000e+01 7.875000e+00 8.515564e+00
      vertex -2.200000e+01 7.452942e+00 8.690369e+00
    endloop
  endfacet
  facet normal 3.068218e-16 -3.826834e-01 -9.238795e-01
    outer loop
      vertex -2.200000e+01 7.875000e+00 8.515564e+00
      vertex -2.400000e+01 7.452942e+00 8.690369e+00
      vertex -2.400000e+01 7.875000e+00 8.515564e+00
    endloop
  endfacet
  facet normal -3.068218e-16 3.826834e-01 9.238795e-01
    outer loop
      vertex -2.400000e+01 6.547119e+00 5.309631e+00
      vertex -2.200000e+01 6.125000e+00 5.484436e+00
      vertex -2.200000e+01 6.547119e+00 5.309631e+00
    endloop
  endfacet
  facet normal -3.068218e-16 3.826834e-01 9.238795e-01
    outer loop
      vertex -2.200000e+01 6.125000e+00 5.484436e+00
      vertex -2.400000e+01 6.547119e+00 5.309631e+00
      vertex -2.400000e+01 6.125000e+00 5.484436e+00
    endloop
  endfacet
  facet normal 3.643045e-18 9.238795e-01 3.826834e-01
    outer loop
      vertex -2.400000e+01 5.309631e+00 6.547058e+00
      vertex -2.200000e+01 5.484497e+00 6.125000e+00
      vertex -2.400000e+01 5.484497e+00 6.125000e+00
    endloop
  endfacet
  facet normal 3.643045e-18 9.238795e-01 3.826834e-01
    outer loop
      vertex -2.200000e+01 5.484497e+00 6.125000e+00
      vertex -2.400000e+01 5.309631e+00 6.547058e+00
      vertex -2.200000e+01 5.309631e+00 6.547058e+00
    endloop
  endfacet
  facet normal -1.167664e-16 -9.914449e-01 -1.305262e-01
    outer loop
      vertex -2.200000e+01 8.690369e+00 7.452942e+00
      vertex -2.400000e+01 8.750000e+00 7.000000e+00
      vertex -2.200000e+01 8.750000e+00 7.000000e+00
    endloop
  endfacet
  facet normal -1.167664e-16 -9.914449e-01 -1.305262e-01
    outer loop
      vertex -2.400000e+01 8.750000e+00 7.000000e+00
      vertex -2.200000e+01 8.690369e+00 7.452942e+00
      vertex -2.400000e+01 8.690369e+00 7.452942e+00
    endloop
  endfacet
  facet normal -1.097285e-16 7.933533e-01 6.087614e-01
    outer loop
      vertex -2.400000e+01 5.484497e+00 6.125000e+00
      vertex -2.200000e+01 5.762573e+00 5.762573e+00
      vertex -2.400000e+01 5.762573e+00 5.762573e+00
    endloop
  endfacet
  facet normal -1.097285e-16 7.933533e-01 6.087614e-01
    outer loop
      vertex -2.200000e+01 5.762573e+00 5.762573e+00
      vertex -2.400000e+01 5.484497e+00 6.125000e+00
      vertex -2.200000e+01 5.484497e+00 6.125000e+00
    endloop
  endfacet
  facet normal -3.119738e-16 -9.238795e-01 3.826834e-01
    outer loop
      vertex -2.200000e+01 8.690369e+00 6.547058e+00
      vertex -2.400000e+01 8.515564e+00 6.125000e+00
      vertex -2.200000e+01 8.515564e+00 6.125000e+00
    endloop
  endfacet
  facet normal -3.119738e-16 -9.238795e-01 3.826834e-01
    outer loop
      vertex -2.400000e+01 8.515564e+00 6.125000e+00
      vertex -2.200000e+01 8.690369e+00 6.547058e+00
      vertex -2.400000e+01 8.690369e+00 6.547058e+00
    endloop
  endfacet
  facet normal -3.643045e-18 -9.238795e-01 -3.826834e-01
    outer loop
      vertex -2.200000e+01 8.515564e+00 7.875000e+00
      vertex -2.400000e+01 8.690369e+00 7.452942e+00
      vertex -2.200000e+01 8.690369e+00 7.452942e+00
    endloop
  endfacet
  facet normal -3.643045e-18 -9.238795e-01 -3.826834e-01
    outer loop
      vertex -2.400000e+01 8.690369e+00 7.452942e+00
      vertex -2.200000e+01 8.515564e+00 7.875000e+00
      vertex -2.400000e+01 8.515564e+00 7.875000e+00
    endloop
  endfacet
  facet normal 2.219322e-16 9.914449e-01 -1.305262e-01
    outer loop
      vertex -2.400000e+01 5.309631e+00 7.452942e+00
      vertex -2.200000e+01 5.250000e+00 7.000000e+00
      vertex -2.400000e+01 5.250000e+00 7.000000e+00
    endloop
  endfacet
  facet normal 2.219322e-16 9.914449e-01 -1.305262e-01
    outer loop
      vertex -2.200000e+01 5.250000e+00 7.000000e+00
      vertex -2.400000e+01 5.309631e+00 7.452942e+00
      vertex -2.200000e+01 5.309631e+00 7.452942e+00
    endloop
  endfacet
  facet normal -4.217024e-16 -1.305262e-01 9.914449e-01
    outer loop
      vertex -2.400000e+01 7.452942e+00 5.309631e+00
      vertex -2.200000e+01 7.000000e+00 5.250000e+00
      vertex -2.200000e+01 7.452942e+00 5.309631e+00
    endloop
  endfacet
  facet normal -4.217024e-16 -1.305262e-01 9.914449e-01
    outer loop
      vertex -2.200000e+01 7.000000e+00 5.250000e+00
      vertex -2.400000e+01 7.452942e+00 5.309631e+00
      vertex -2.400000e+01 7.000000e+00 5.250000e+00
    endloop
  endfacet
  facet normal 3.807549e-16 7.933533e-01 -6.087614e-01
    outer loop
      vertex -2.400000e+01 5.762573e+00 8.237427e+00
      vertex -2.200000e+01 5.484497e+00 7.875000e+00
      vertex -2.400000e+01 5.484497e+00 7.875000e+00
    endloop
  endfacet
  facet normal 3.807549e-16 7.933533e-01 -6.087614e-01
    outer loop
      vertex -2.200000e+01 5.484497e+00 7.875000e+00
      vertex -2.400000e+01 5.762573e+00 8.237427e+00
      vertex -2.200000e+01 5.762573e+00 8.237427e+00
    endloop
  endfacet
  facet normal -3.807549e-16 -7.933533e-01 6.087614e-01
    outer loop
      vertex -2.200000e+01 8.515564e+00 6.125000e+00
      vertex -2.400000e+01 8.237488e+00 5.762573e+00
      vertex -2.200000e+01 8.237488e+00 5.762573e+00
    endloop
  endfacet
  facet normal -3.807549e-16 -7.933533e-01 6.087614e-01
    outer loop
      vertex -2.400000e+01 8.237488e+00 5.762573e+00
      vertex -2.200000e+01 8.515564e+00 6.125000e+00
      vertex -2.400000e+01 8.515564e+00 6.125000e+00
    endloop
  endfacet
  facet normal 1.097285e-16 -7.933533e-01 -6.087614e-01
    outer loop
      vertex -2.200000e+01 8.237488e+00 8.237427e+00
      vertex -2.400000e+01 8.515564e+00 7.875000e+00
      vertex -2.200000e+01 8.515564e+00 7.875000e+00
    endloop
  endfacet
  facet normal 1.097285e-16 -7.933533e-01 -6.087614e-01
    outer loop
      vertex -2.400000e+01 8.515564e+00 7.875000e+00
      vertex -2.200000e+01 8.237488e+00 8.237427e+00
      vertex -2.400000e+01 8.237488e+00 8.237427e+00
    endloop
  endfacet
  facet normal -2.156223e-16 6.087614e-01 7.933533e-01
    outer loop
      vertex -2.400000e+01 6.125000e+00 5.484436e+00
      vertex -2.200000e+01 5.762573e+00 5.762573e+00
      vertex -2.200000e+01 6.125000e+00 5.484436e+00
    endloop
  endfacet
  facet normal -2.156223e-16 6.087614e-01 7.933533e-01
    outer loop
      vertex -2.200000e+01 5.762573e+00 5.762573e+00
      vertex -2.400000e+01 6.125000e+00 5.484436e+00
      vertex -2.400000e+01 5.762573e+00 5.762573e+00
    endloop
  endfacet
  facet normal -4.235882e-16 -6.087614e-01 7.933533e-01
    outer loop
      vertex -2.400000e+01 8.237488e+00 5.762573e+00
      vertex -2.200000e+01 7.875000e+00 5.484436e+00
      vertex -2.200000e+01 8.237488e+00 5.762573e+00
    endloop
  endfacet
  facet normal -4.235882e-16 -6.087614e-01 7.933533e-01
    outer loop
      vertex -2.200000e+01 7.875000e+00 5.484436e+00
      vertex -2.400000e+01 8.237488e+00 5.762573e+00
      vertex -2.400000e+01 7.875000e+00 5.484436e+00
    endloop
  endfacet
  facet normal 2.156223e-16 -6.087614e-01 -7.933533e-01
    outer loop
      vertex -2.400000e+01 7.875000e+00 8.515564e+00
      vertex -2.200000e+01 8.237488e+00 8.237427e+00
      vertex -2.200000e+01 7.875000e+00 8.515564e+00
    endloop
  endfacet
  facet normal 2.156223e-16 -6.087614e-01 -7.933533e-01
    outer loop
      vertex -2.200000e+01 8.237488e+00 8.237427e+00
      vertex -2.400000e+01 7.875000e+00 8.515564e+00
      vertex -2.400000e+01 8.237488e+00 8.237427e+00
    endloop
  endfacet
  facet normal 4.235882e-16 6.087614e-01 -7.933533e-01
    outer loop
      vertex -2.400000e+01 5.762573e+00 8.237427e+00
      vertex -2.200000e+01 6.125000e+00 8.515564e+00
      vertex -2.200000e+01 5.762573e+00 8.237427e+00
    endloop
  endfacet
  facet normal 4.235882e-16 6.087614e-01 -7.933533e-01
    outer loop
      vertex -2.200000e+01 6.125000e+00 8.515564e+00
      vertex -2.400000e+01 5.762573e+00 8.237427e+00
      vertex -2.400000e+01 6.125000e+00 8.515564e+00
    endloop
  endfacet
  facet normal 1.000000e+00 6.817769e-17 4.367464e-17
    outer loop
      vertex -2.200000e+01 1.100000e+01 7.866028e+00
      vertex -2.200000e+01 9.190613e+00 3.000000e+00
      vertex -2.200000e+01 1.150000e+01 7.000000e+00
    endloop
  endfacet
  facet normal 1.000000e+00 6.817769e-17 4.367464e-17
    outer loop
      vertex -2.200000e+01 9.190613e+00 3.000000e+00
      vertex -2.200000e+01 1.100000e+01 7.866028e+00
      vertex -2.200000e+01 9.250000e+00 1.089709e+01
    endloop
  endfacet
  facet normal 1.000000e+00 6.817769e-17 4.367464e-17
    outer loop
      vertex -2.200000e+01 9.190613e+00 3.000000e+00
      vertex -2.200000e+01 9.250000e+00 1.089709e+01
      vertex -2.200000e+01 8.750000e+00 7.000000e+00
    endloop
  endfacet
  facet normal 1.000000e+00 6.817769e-17 4.367464e-17
    outer loop
      vertex -2.200000e+01 8.750000e+00 7.000000e+00
      vertex -2.200000e+01 9.250000e+00 1.089709e+01
      vertex -2.200000e+01 8.690369e+00 7.452942e+00
    endloop
  endfacet
  facet normal 1.000000e+00 6.817769e-17 4.367464e-17
    outer loop
      vertex -2.200000e+01 8.690369e+00 7.452942e+00
      vertex -2.200000e+01 9.250000e+00 1.089709e+01
      vertex -2.200000e+01 8.515564e+00 7.875000e+00
    endloop
  endfacet
  facet normal 1.000000e+00 6.817769e-17 4.367464e-17
    outer loop
      vertex -2.200000e+01 8.515564e+00 7.875000e+00
      vertex -2.200000e+01 9.250000e+00 1.089709e+01
      vertex -2.200000e+01 8.237488e+00 8.237427e+00
    endloop
  endfacet
  facet normal 1.000000e+00 6.817769e-17 4.367464e-17
    outer loop
      vertex -2.200000e+01 8.237488e+00 8.237427e+00
      vertex -2.200000e+01 9.250000e+00 1.089709e+01
      vertex -2.200000e+01 7.875000e+00 8.515564e+00
    endloop
  endfacet
  facet normal 1.000000e+00 6.817769e-17 4.367464e-17
    outer loop
      vertex -2.200000e+01 7.875000e+00 8.515564e+00
      vertex -2.200000e+01 9.250000e+00 1.089709e+01
      vertex -2.200000e+01 4.750000e+00 1.089709e+01
    endloop
  endfacet
  facet normal 1.000000e+00 6.817769e-17 4.367464e-17
    outer loop
      vertex -2.200000e+01 7.875000e+00 8.515564e+00
      vertex -2.200000e+01 4.750000e+00 1.089709e+01
      vertex -2.200000e+01 7.452942e+00 8.690369e+00
    endloop
  endfacet
  facet normal 1.000000e+00 6.817769e-17 4.367464e-17
    outer loop
      vertex -2.200000e+01 7.452942e+00 8.690369e+00
      vertex -2.200000e+01 4.750000e+00 1.089709e+01
      vertex -2.200000e+01 7.000000e+00 8.750000e+00
    endloop
  endfacet
  facet normal 1.000000e+00 6.817769e-17 4.367464e-17
    outer loop
      vertex -2.200000e+01 7.000000e+00 8.750000e+00
      vertex -2.200000e+01 4.750000e+00 1.089709e+01
      vertex -2.200000e+01 6.547119e+00 8.690369e+00
    endloop
  endfacet
  facet normal 1.000000e+00 6.817769e-17 4.367464e-17
    outer loop
      vertex -2.200000e+01 6.547119e+00 8.690369e+00
      vertex -2.200000e+01 4.750000e+00 1.089709e+01
      vertex -2.200000e+01 6.125000e+00 8.515564e+00
    endloop
  endfacet
  facet normal 1.000000e+00 6.817769e-17 4.367464e-17
    outer loop
      vertex -2.200000e+01 6.125000e+00 8.515564e+00
      vertex -2.200000e+01 4.750000e+00 1.089709e+01
      vertex -2.200000e+01 5.762573e+00 8.237427e+00
    endloop
  endfacet
  facet normal 1.000000e+00 6.817769e-17 4.367464e-17
    outer loop
      vertex -2.200000e+01 5.762573e+00 8.237427e+00
      vertex -2.200000e+01 4.750000e+00 1.089709e+01
      vertex -2.200000e+01 5.484497e+00 7.875000e+00
    endloop
  endfacet
  facet normal 1.000000e+00 6.817769e-17 4.367464e-17
    outer loop
      vertex -2.200000e+01 5.484497e+00 7.875000e+00
      vertex -2.200000e+01 4.750000e+00 1.089709e+01
      vertex -2.200000e+01 5.309631e+00 7.452942e+00
    endloop
  endfacet
  facet normal 1.000000e+00 6.817769e-17 4.367464e-17
    outer loop
      vertex -2.200000e+01 5.309631e+00 7.452942e+00
      vertex -2.200000e+01 4.750000e+00 1.089709e+01
      vertex -2.200000e+01 5.250000e+00 7.000000e+00
    endloop
  endfacet
  facet normal 1.000000e+00 6.817769e-17 4.367464e-17
    outer loop
      vertex -2.200000e+01 5.250000e+00 7.000000e+00
      vertex -2.200000e+01 4.750000e+00 1.089709e+01
      vertex -2.200000e+01 4.809448e+00 3.000000e+00
    endloop
  endfacet
  facet normal 1.000000e+00 6.817769e-17 4.367464e-17
    outer loop
      vertex -2.200000e+01 4.809448e+00 3.000000e+00
      vertex -2.200000e+01 4.750000e+00 1.089709e+01
      vertex -2.200000e+01 2.500000e+00 7.000000e+00
    endloop
  endfacet
  facet normal 1.000000e+00 6.817769e-17 4.367464e-17
    outer loop
      vertex -2.200000e+01 9.190613e+00 3.000000e+00
      vertex -2.200000e+01 8.237488e+00 5.762573e+00
      vertex -2.200000e+01 4.809448e+00 3.000000e+00
    endloop
  endfacet
  facet normal 1.000000e+00 6.817769e-17 4.367464e-17
    outer loop
      vertex -2.200000e+01 8.237488e+00 5.762573e+00
      vertex -2.200000e+01 9.190613e+00 3.000000e+00
      vertex -2.200000e+01 8.515564e+00 6.125000e+00
    endloop
  endfacet
  facet normal 1.000000e+00 6.817769e-17 4.367464e-17
    outer loop
      vertex -2.200000e+01 8.515564e+00 6.125000e+00
      vertex -2.200000e+01 9.190613e+00 3.000000e+00
      vertex -2.200000e+01 8.690369e+00 6.547058e+00
    endloop
  endfacet
  facet normal 1.000000e+00 6.817769e-17 4.367464e-17
    outer loop
      vertex -2.200000e+01 8.690369e+00 6.547058e+00
      vertex -2.200000e+01 9.190613e+00 3.000000e+00
      vertex -2.200000e+01 8.750000e+00 7.000000e+00
    endloop
  endfacet
  facet normal 1.000000e+00 6.817769e-17 4.367464e-17
    outer loop
      vertex -2.200000e+01 4.809448e+00 3.000000e+00
      vertex -2.200000e+01 8.237488e+00 5.762573e+00
      vertex -2.200000e+01 7.875000e+00 5.484436e+00
    endloop
  endfacet
  facet normal 1.000000e+00 6.817769e-17 4.367464e-17
    outer loop
      vertex -2.200000e+01 4.809448e+00 3.000000e+00
      vertex -2.200000e+01 7.875000e+00 5.484436e+00
      vertex -2.200000e+01 7.452942e+00 5.309631e+00
    endloop
  endfacet
  facet normal 1.000000e+00 6.817769e-17 4.367464e-17
    outer loop
      vertex -2.200000e+01 4.809448e+00 3.000000e+00
      vertex -2.200000e+01 7.452942e+00 5.309631e+00
      vertex -2.200000e+01 7.000000e+00 5.250000e+00
    endloop
  endfacet
  facet normal 1.000000e+00 6.817769e-17 4.367464e-17
    outer loop
      vertex -2.200000e+01 4.809448e+00 3.000000e+00
      vertex -2.200000e+01 7.000000e+00 5.250000e+00
      vertex -2.200000e+01 6.547119e+00 5.309631e+00
    endloop
  endfacet
  facet normal 1.000000e+00 6.817769e-17 4.367464e-17
    outer loop
      vertex -2.200000e+01 4.809448e+00 3.000000e+00
      vertex -2.200000e+01 6.547119e+00 5.309631e+00
      vertex -2.200000e+01 6.125000e+00 5.484436e+00
    endloop
  endfacet
  facet normal 1.000000e+00 6.817769e-17 4.367464e-17
    outer loop
      vertex -2.200000e+01 4.809448e+00 3.000000e+00
      vertex -2.200000e+01 6.125000e+00 5.484436e+00
      vertex -2.200000e+01 5.762573e+00 5.762573e+00
    endloop
  endfacet
  facet normal 1.000000e+00 6.817769e-17 4.367464e-17
    outer loop
      vertex -2.200000e+01 4.809448e+00 3.000000e+00
      vertex -2.200000e+01 5.762573e+00 5.762573e+00
      vertex -2.200000e+01 5.484497e+00 6.125000e+00
    endloop
  endfacet
  facet normal 1.000000e+00 6.817769e-17 4.367464e-17
    outer loop
      vertex -2.200000e+01 4.809448e+00 3.000000e+00
      vertex -2.200000e+01 5.484497e+00 6.125000e+00
      vertex -2.200000e+01 5.309631e+00 6.547058e+00
    endloop
  endfacet
  facet normal 1.000000e+00 6.817769e-17 4.367464e-17
    outer loop
      vertex -2.200000e+01 4.809448e+00 3.000000e+00
      vertex -2.200000e+01 5.309631e+00 6.547058e+00
      vertex -2.200000e+01 5.250000e+00 7.000000e+00
    endloop
  endfacet
  facet normal 1.000000e+00 6.123234e-17 -6.123234e-17
    outer loop
      vertex -2.200000e+01 -4.750000e+00 1.089709e+01
      vertex -2.200000e+01 -5.309631e+00 7.452942e+00
      vertex -2.200000e+01 -5.250000e+00 7.000000e+00
    endloop
  endfacet
  facet normal 1.000000e+00 6.123234e-17 -6.123234e-17
    outer loop
      vertex -2.200000e+01 -5.309631e+00 7.452942e+00
      vertex -2.200000e+01 -4.750000e+00 1.089709e+01
      vertex -2.200000e+01 -5.484436e+00 7.875000e+00
    endloop
  endfacet
  facet normal 1.000000e+00 6.123234e-17 -6.123234e-17
    outer loop
      vertex -2.200000e+01 -5.484436e+00 7.875000e+00
      vertex -2.200000e+01 -4.750000e+00 1.089709e+01
      vertex -2.200000e+01 -5.762512e+00 8.237427e+00
    endloop
  endfacet
  facet normal 1.000000e+00 6.123234e-17 -6.123234e-17
    outer loop
      vertex -2.200000e+01 -5.762512e+00 8.237427e+00
      vertex -2.200000e+01 -4.750000e+00 1.089709e+01
      vertex -2.200000e+01 -6.125000e+00 8.515564e+00
    endloop
  endfacet
  facet normal 1.000000e+00 6.123234e-17 -6.123234e-17
    outer loop
      vertex -2.200000e+01 -6.125000e+00 8.515564e+00
      vertex -2.200000e+01 -4.750000e+00 1.089709e+01
      vertex -2.200000e+01 -9.250000e+00 1.089709e+01
    endloop
  endfacet
  facet normal 1.000000e+00 6.123234e-17 -6.123234e-17
    outer loop
      vertex -2.200000e+01 -6.125000e+00 8.515564e+00
      vertex -2.200000e+01 -9.250000e+00 1.089709e+01
      vertex -2.200000e+01 -6.547058e+00 8.690369e+00
    endloop
  endfacet
  facet normal 1.000000e+00 6.123234e-17 -6.123234e-17
    outer loop
      vertex -2.200000e+01 -6.547058e+00 8.690369e+00
      vertex -2.200000e+01 -9.250000e+00 1.089709e+01
      vertex -2.200000e+01 -7.000000e+00 8.750000e+00
    endloop
  endfacet
  facet normal 1.000000e+00 6.123234e-17 -6.123234e-17
    outer loop
      vertex -2.200000e+01 -7.000000e+00 8.750000e+00
      vertex -2.200000e+01 -9.250000e+00 1.089709e+01
      vertex -2.200000e+01 -7.452881e+00 8.690369e+00
    endloop
  endfacet
  facet normal 1.000000e+00 6.123234e-17 -6.123234e-17
    outer loop
      vertex -2.200000e+01 -7.452881e+00 8.690369e+00
      vertex -2.200000e+01 -9.250000e+00 1.089709e+01
      vertex -2.200000e+01 -7.875000e+00 8.515564e+00
    endloop
  endfacet
  facet normal 1.000000e+00 6.123234e-17 -6.123234e-17
    outer loop
      vertex -2.200000e+01 -7.875000e+00 8.515564e+00
      vertex -2.200000e+01 -9.250000e+00 1.089709e+01
      vertex -2.200000e+01 -8.237427e+00 8.237427e+00
    endloop
  endfacet
  facet normal 1.000000e+00 6.123234e-17 -6.123234e-17
    outer loop
      vertex -2.200000e+01 -8.237427e+00 8.237427e+00
      vertex -2.200000e+01 -9.250000e+00 1.089709e+01
      vertex -2.200000e+01 -8.515503e+00 7.875000e+00
    endloop
  endfacet
  facet normal 1.000000e+00 6.123234e-17 -6.123234e-17
    outer loop
      vertex -2.200000e+01 -8.515503e+00 7.875000e+00
      vertex -2.200000e+01 -9.250000e+00 1.089709e+01
      vertex -2.200000e+01 -8.690369e+00 7.452942e+00
    endloop
  endfacet
  facet normal 1.000000e+00 6.123234e-17 -6.123234e-17
    outer loop
      vertex -2.200000e+01 -8.690369e+00 7.452942e+00
      vertex -2.200000e+01 -9.250000e+00 1.089709e+01
      vertex -2.200000e+01 -8.750000e+00 7.000000e+00
    endloop
  endfacet
  facet normal 1.000000e+00 6.123234e-17 -6.123234e-17
    outer loop
      vertex -2.200000e+01 -8.750000e+00 7.000000e+00
      vertex -2.200000e+01 -9.250000e+00 1.089709e+01
      vertex -2.200000e+01 -9.250000e+00 3.102905e+00
    endloop
  endfacet
  facet normal 1.000000e+00 6.123234e-17 -6.123234e-17
    outer loop
      vertex -2.200000e+01 -9.250000e+00 3.102905e+00
      vertex -2.200000e+01 -9.250000e+00 1.089709e+01
      vertex -2.200000e+01 -1.150000e+01 7.000000e+00
    endloop
  endfacet
  facet normal 1.000000e+00 6.123234e-17 -6.123234e-17
    outer loop
      vertex -2.200000e+01 -4.750000e+00 1.089709e+01
      vertex -2.200000e+01 -4.750000e+00 3.102905e+00
      vertex -2.200000e+01 -2.500000e+00 7.000000e+00
    endloop
  endfacet
  facet normal 1.000000e+00 6.123234e-17 -6.123234e-17
    outer loop
      vertex -2.200000e+01 -4.750000e+00 3.102905e+00
      vertex -2.200000e+01 -4.750000e+00 1.089709e+01
      vertex -2.200000e+01 -5.250000e+00 7.000000e+00
    endloop
  endfacet
  facet normal 1.000000e+00 6.123234e-17 -6.123234e-17
    outer loop
      vertex -2.200000e+01 -4.750000e+00 3.102905e+00
      vertex -2.200000e+01 -5.250000e+00 7.000000e+00
      vertex -2.200000e+01 -5.309631e+00 6.547058e+00
    endloop
  endfacet
  facet normal 1.000000e+00 6.123234e-17 -6.123234e-17
    outer loop
      vertex -2.200000e+01 -4.750000e+00 3.102905e+00
      vertex -2.200000e+01 -5.309631e+00 6.547058e+00
      vertex -2.200000e+01 -5.484436e+00 6.125000e+00
    endloop
  endfacet
  facet normal 1.000000e+00 6.123234e-17 -6.123234e-17
    outer loop
      vertex -2.200000e+01 -4.750000e+00 3.102905e+00
      vertex -2.200000e+01 -5.484436e+00 6.125000e+00
      vertex -2.200000e+01 -5.762512e+00 5.762573e+00
    endloop
  endfacet
  facet normal 1.000000e+00 6.123234e-17 -6.123234e-17
    outer loop
      vertex -2.200000e+01 -4.750000e+00 3.102905e+00
      vertex -2.200000e+01 -5.762512e+00 5.762573e+00
      vertex -2.200000e+01 -6.125000e+00 5.484436e+00
    endloop
  endfacet
  facet normal 1.000000e+00 6.123234e-17 -6.123234e-17
    outer loop
      vertex -2.200000e+01 -4.750000e+00 3.102905e+00
      vertex -2.200000e+01 -6.125000e+00 5.484436e+00
      vertex -2.200000e+01 -9.250000e+00 3.102905e+00
    endloop
  endfacet
  facet normal 1.000000e+00 6.123234e-17 -6.123234e-17
    outer loop
      vertex -2.200000e+01 -9.250000e+00 3.102905e+00
      vertex -2.200000e+01 -6.125000e+00 5.484436e+00
      vertex -2.200000e+01 -6.547058e+00 5.309631e+00
    endloop
  endfacet
  facet normal 1.000000e+00 6.123234e-17 -6.123234e-17
    outer loop
      vertex -2.200000e+01 -9.250000e+00 3.102905e+00
      vertex -2.200000e+01 -6.547058e+00 5.309631e+00
      vertex -2.200000e+01 -7.000000e+00 5.250000e+00
    endloop
  endfacet
  facet normal 1.000000e+00 6.123234e-17 -6.123234e-17
    outer loop
      vertex -2.200000e+01 -9.250000e+00 3.102905e+00
      vertex -2.200000e+01 -7.000000e+00 5.250000e+00
      vertex -2.200000e+01 -7.452881e+00 5.309631e+00
    endloop
  endfacet
  facet normal 1.000000e+00 6.123234e-17 -6.123234e-17
    outer loop
      vertex -2.200000e+01 -9.250000e+00 3.102905e+00
      vertex -2.200000e+01 -7.452881e+00 5.309631e+00
      vertex -2.200000e+01 -7.875000e+00 5.484436e+00
    endloop
  endfacet
  facet normal 1.000000e+00 6.123234e-17 -6.123234e-17
    outer loop
      vertex -2.200000e+01 -9.250000e+00 3.102905e+00
      vertex -2.200000e+01 -7.875000e+00 5.484436e+00
      vertex -2.200000e+01 -8.237427e+00 5.762573e+00
    endloop
  endfacet
  facet normal 1.000000e+00 6.123234e-17 -6.123234e-17
    outer loop
      vertex -2.200000e+01 -9.250000e+00 3.102905e+00
      vertex -2.200000e+01 -8.237427e+00 5.762573e+00
      vertex -2.200000e+01 -8.515503e+00 6.125000e+00
    endloop
  endfacet
  facet normal 1.000000e+00 6.123234e-17 -6.123234e-17
    outer loop
      vertex -2.200000e+01 -9.250000e+00 3.102905e+00
      vertex -2.200000e+01 -8.515503e+00 6.125000e+00
      vertex -2.200000e+01 -8.690369e+00 6.547058e+00
    endloop
  endfacet
  facet normal 1.000000e+00 6.123234e-17 -6.123234e-17
    outer loop
      vertex -2.200000e+01 -9.250000e+00 3.102905e+00
      vertex -2.200000e+01 -8.690369e+00 6.547058e+00
      vertex -2.200000e+01 -8.750000e+00 7.000000e+00
    endloop
  endfacet
  facet normal 1.000000e+00 -1.683658e-15 9.576833e-16
    outer loop
      vertex 2.400000e+01 1.400000e+01 0.000000e+00
      vertex 2.400000e+01 9.190613e+00 3.000000e+00
      vertex 2.400000e+01 0.000000e+00 0.000000e+00
    endloop
  endfacet
  facet normal 1.000000e+00 -1.683658e-15 9.576833e-16
    outer loop
      vertex 2.400000e+01 9.190613e+00 3.000000e+00
      vertex 2.400000e+01 1.400000e+01 0.000000e+00
      vertex 2.400000e+01 1.150000e+01 7.000000e+00
    endloop
  endfacet
  facet normal 1.000000e+00 -1.683658e-15 9.576833e-16
    outer loop
      vertex 2.400000e+01 0.000000e+00 0.000000e+00
      vertex 2.400000e+01 9.190613e+00 3.000000e+00
      vertex 2.400000e+01 0.000000e+00 3.000000e+00
    endloop
  endfacet
  facet normal 1.000000e+00 -1.683658e-15 9.576833e-16
    outer loop
      vertex 2.400000e+01 1.100000e+01 1.400000e+01
      vertex 2.400000e+01 1.400000e+01 0.000000e+00
      vertex 2.400000e+01 1.400000e+01 1.400000e+01
    endloop
  endfacet
  facet normal 1.000000e+00 -1.683658e-15 9.576833e-16
    outer loop
      vertex 2.400000e+01 1.400000e+01 0.000000e+00
      vertex 2.400000e+01 1.100000e+01 1.400000e+01
      vertex 2.400000e+01 1.150000e+01 7.000000e+00
    endloop
  endfacet
  facet normal 1.000000e+00 -1.683658e-15 9.576833e-16
    outer loop
      vertex 2.400000e+01 1.150000e+01 7.000000e+00
      vertex 2.400000e+01 1.100000e+01 1.400000e+01
      vertex 2.400000e+01 1.100000e+01 7.866028e+00
    endloop
  endfacet
  facet normal -1.656962e-15 -8.660254e-01 5.000000e-01
    outer loop
      vertex 2.400000e+01 1.150000e+01 7.000000e+00
      vertex -2.200000e+01 9.190613e+00 3.000000e+00
      vertex 2.400000e+01 9.190613e+00 3.000000e+00
    endloop
  endfacet
  facet normal -1.656962e-15 -8.660254e-01 5.000000e-01
    outer loop
      vertex -2.200000e+01 9.190613e+00 3.000000e+00
      vertex 2.400000e+01 1.150000e+01 7.000000e+00
      vertex -2.200000e+01 1.150000e+01 7.000000e+00
    endloop
  endfacet
  facet normal -9.576833e-16 9.017752e-31 1.000000e+00
    outer loop
      vertex -2.200000e+01 9.190613e+00 3.000000e+00
      vertex 2.400000e+01 0.000000e+00 3.000000e+00
      vertex 2.400000e+01 9.190613e+00 3.000000e+00
    endloop
  endfacet
  facet normal -9.576833e-16 9.017752e-31 1.000000e+00
    outer loop
      vertex 2.400000e+01 0.000000e+00 3.000000e+00
      vertex -2.200000e+01 9.190613e+00 3.000000e+00
      vertex -1.900000e+01 4.809448e+00 3.000000e+00
    endloop
  endfacet
  facet normal -9.576833e-16 9.017752e-31 1.000000e+00
    outer loop
      vertex -1.900000e+01 4.809448e+00 3.000000e+00
      vertex -2.200000e+01 9.190613e+00 3.000000e+00
      vertex -2.200000e+01 4.809448e+00 3.000000e+00
    endloop
  endfacet
  facet normal -9.576833e-16 9.017752e-31 1.000000e+00
    outer loop
      vertex -1.900000e+01 0.000000e+00 3.000000e+00
      vertex 2.400000e+01 0.000000e+00 3.000000e+00
      vertex -1.900000e+01 4.809448e+00 3.000000e+00
    endloop
  endfacet
  facet normal -1.683658e-15 -1.000000e+00 3.465927e-30
    outer loop
      vertex 2.400000e+01 0.000000e+00 3.000000e+00
      vertex -1.900000e+01 0.000000e+00 0.000000e+00
      vertex 2.400000e+01 0.000000e+00 0.000000e+00
    endloop
  endfacet
  facet normal -1.683658e-15 -1.000000e+00 3.465927e-30
    outer loop
      vertex -1.900000e+01 0.000000e+00 0.000000e+00
      vertex 2.400000e+01 0.000000e+00 3.000000e+00
      vertex -1.900000e+01 0.000000e+00 3.000000e+00
    endloop
  endfacet
  facet normal -1.683658e-15 -1.000000e+00 1.068437e-31
    outer loop
      vertex 2.400000e+01 1.100000e+01 1.400000e+01
      vertex -1.900000e+01 1.100000e+01 7.866028e+00
      vertex 2.400000e+01 1.100000e+01 7.866028e+00
    endloop
  endfacet
  facet normal -1.683658e-15 -1.000000e+00 1.068437e-31
    outer loop
      vertex -1.900000e+01 1.100000e+01 7.866028e+00
      vertex 2.400000e+01 1.100000e+01 1.400000e+01
      vertex -1.900000e+01 1.100000e+01 1.400000e+01
    endloop
  endfacet
  facet normal -9.792489e-16 -8.660254e-01 -5.000000e-01
    outer loop
      vertex 2.400000e+01 1.100000e+01 7.866028e+00
      vertex -2.200000e+01 1.150000e+01 7.000000e+00
      vertex 2.400000e+01 1.150000e+01 7.000000e+00
    endloop
  endfacet
  facet normal -9.792489e-16 -8.660254e-01 -5.000000e-01
    outer loop
      vertex -2.200000e+01 1.150000e+01 7.000000e+00
      vertex 2.400000e+01 1.100000e+01 7.866028e+00
      vertex -2.200000e+01 1.100000e+01 7.866028e+00
    endloop
  endfacet
  facet normal -9.792489e-16 -8.660254e-01 -5.000000e-01
    outer loop
      vertex -2.200000e+01 1.100000e+01 7.866028e+00
      vertex 2.400000e+01 1.100000e+01 7.866028e+00
      vertex -1.900000e+01 1.100000e+01 7.866028e+00
    endloop
  endfacet
  facet normal 5.611608e-16 8.660254e-01 -5.000000e-01
    outer loop
      vertex -2.200000e+01 4.750000e+00 1.089709e+01
      vertex -1.900000e+01 2.500000e+00 7.000000e+00
      vertex -2.200000e+01 2.500000e+00 7.000000e+00
    endloop
  endfacet
  facet normal 5.611608e-16 8.660254e-01 -5.000000e-01
    outer loop
      vertex -1.900000e+01 2.500000e+00 7.000000e+00
      vertex -2.200000e+01 4.750000e+00 1.089709e+01
      vertex -1.900000e+01 4.750000e+00 1.089709e+01
    endloop
  endfacet
  facet normal -9.580716e-17 -5.866497e-33 -1.000000e+00
    outer loop
      vertex -2.200000e+01 4.750000e+00 1.089709e+01
      vertex -1.900000e+01 9.250000e+00 1.089709e+01
      vertex -1.900000e+01 4.750000e+00 1.089709e+01
    endloop
  endfacet
  facet normal -9.580716e-17 -5.866497e-33 -1.000000e+00
    outer loop
      vertex -1.900000e+01 9.250000e+00 1.089709e+01
      vertex -2.200000e+01 4.750000e+00 1.089709e+01
      vertex -2.200000e+01 9.250000e+00 1.089709e+01
    endloop
  endfacet
  facet normal -6.569680e-16 -8.660254e-01 -5.000000e-01
    outer loop
      vertex -1.900000e+01 9.250000e+00 1.089709e+01
      vertex -2.200000e+01 1.100000e+01 7.866028e+00
      vertex -1.900000e+01 1.100000e+01 7.866028e+00
    endloop
  endfacet
  facet normal -6.569680e-16 -8.660254e-01 -5.000000e-01
    outer loop
      vertex -2.200000e+01 1.100000e+01 7.866028e+00
      vertex -1.900000e+01 9.250000e+00 1.089709e+01
      vertex -2.200000e+01 9.250000e+00 1.089709e+01
    endloop
  endfacet
  facet normal 6.569680e-16 8.660254e-01 5.000000e-01
    outer loop
      vertex -2.200000e+01 -1.150000e+01 7.000000e+00
      vertex -1.900000e+01 -9.250000e+00 3.102905e+00
      vertex -2.200000e+01 -9.250000e+00 3.102905e+00
    endloop
  endfacet
  facet normal 6.569680e-16 8.660254e-01 5.000000e-01
    outer loop
      vertex -1.900000e+01 -9.250000e+00 3.102905e+00
      vertex -2.200000e+01 -1.150000e+01 7.000000e+00
      vertex -1.900000e+01 -1.150000e+01 7.000000e+00
    endloop
  endfacet
  facet normal 5.611608e-16 8.660254e-01 -5.000000e-01
    outer loop
      vertex -2.200000e+01 -9.250000e+00 1.089709e+01
      vertex -1.900000e+01 -1.150000e+01 7.000000e+00
      vertex -2.200000e+01 -1.150000e+01 7.000000e+00
    endloop
  endfacet
  facet normal 5.611608e-16 8.660254e-01 -5.000000e-01
    outer loop
      vertex -1.900000e+01 -1.150000e+01 7.000000e+00
      vertex -2.200000e+01 -9.250000e+00 1.089709e+01
      vertex -1.900000e+01 -9.250000e+00 1.089709e+01
    endloop
  endfacet
  facet normal -9.580716e-17 -5.866497e-33 -1.000000e+00
    outer loop
      vertex -2.200000e+01 -9.250000e+00 1.089709e+01
      vertex -1.900000e+01 -4.750000e+00 1.089709e+01
      vertex -1.900000e+01 -9.250000e+00 1.089709e+01
    endloop
  endfacet
  facet normal -9.580716e-17 -5.866497e-33 -1.000000e+00
    outer loop
      vertex -1.900000e+01 -4.750000e+00 1.089709e+01
      vertex -2.200000e+01 -9.250000e+00 1.089709e+01
      vertex -2.200000e+01 -4.750000e+00 1.089709e+01
    endloop
  endfacet
  facet normal -6.569680e-16 -8.660254e-01 -5.000000e-01
    outer loop
      vertex -1.900000e+01 -4.750000e+00 1.089709e+01
      vertex -2.200000e+01 -2.500000e+00 7.000000e+00
      vertex -1.900000e+01 -2.500000e+00 7.000000e+00
    endloop
  endfacet
  facet normal -6.569680e-16 -8.660254e-01 -5.000000e-01
    outer loop
      vertex -2.200000e+01 -2.500000e+00 7.000000e+00
      vertex -1.900000e+01 -4.750000e+00 1.089709e+01
      vertex -2.200000e+01 -4.750000e+00 1.089709e+01
    endloop
  endfacet
  facet normal -5.611608e-16 -8.660254e-01 5.000000e-01
    outer loop
      vertex -1.900000e+01 -2.500000e+00 7.000000e+00
      vertex -2.200000e+01 -4.750000e+00 3.102905e+00
      vertex -1.900000e+01 -4.750000e+00 3.102905e+00
    endloop
  endfacet
  facet normal -5.611608e-16 -8.660254e-01 5.000000e-01
    outer loop
      vertex -2.200000e+01 -4.750000e+00 3.102905e+00
      vertex -1.900000e+01 -2.500000e+00 7.000000e+00
      vertex -2.200000e+01 -2.500000e+00 7.000000e+00
    endloop
  endfacet
  facet normal 9.580716e-17 5.866497e-33 1.000000e+00
    outer loop
      vertex -2.200000e+01 -4.750000e+00 3.102905e+00
      vertex -1.900000e+01 -9.250000e+00 3.102905e+00
      vertex -1.900000e+01 -4.750000e+00 3.102905e+00
    endloop
  endfacet
  facet normal 9.580716e-17 5.866497e-33 1.000000e+00
    outer loop
      vertex -1.900000e+01 -9.250000e+00 3.102905e+00
      vertex -2.200000e+01 -4.750000e+00 3.102905e+00
      vertex -2.200000e+01 -9.250000e+00 3.102905e+00
    endloop
  endfacet
  facet normal 1.000000e+00 -7.015218e-16 -8.075714e-17
    outer loop
      vertex -1.900000e+01 1.100000e+01 1.400000e+01
      vertex -1.900000e+01 9.250000e+00 1.089709e+01
      vertex -1.900000e+01 1.100000e+01 7.866028e+00
    endloop
  endfacet
  facet normal 1.000000e+00 -7.015218e-16 -8.075714e-17
    outer loop
      vertex -1.900000e+01 9.250000e+00 1.089709e+01
      vertex -1.900000e+01 1.100000e+01 1.400000e+01
      vertex -1.900000e+01 -1.400000e+01 1.400000e+01
    endloop
  endfacet
  facet normal 1.000000e+00 -7.015218e-16 -8.075714e-17
    outer loop
      vertex -1.900000e+01 9.250000e+00 1.089709e+01
      vertex -1.900000e+01 -1.400000e+01 1.400000e+01
      vertex -1.900000e+01 4.750000e+00 1.089709e+01
    endloop
  endfacet
  facet normal 1.000000e+00 -7.015218e-16 -8.075714e-17
    outer loop
      vertex -1.900000e+01 4.750000e+00 1.089709e+01
      vertex -1.900000e+01 -1.400000e+01 1.400000e+01
      vertex -1.900000e+01 -4.750000e+00 1.089709e+01
    endloop
  endfacet
  facet normal 1.000000e+00 -7.015218e-16 -8.075714e-17
    outer loop
      vertex -1.900000e+01 4.750000e+00 1.089709e+01
      vertex -1.900000e+01 -4.750000e+00 1.089709e+01
      vertex -1.900000e+01 2.500000e+00 7.000000e+00
    endloop
  endfacet
  facet normal 1.000000e+00 -7.015218e-16 -8.075714e-17
    outer loop
      vertex -1.900000e+01 2.500000e+00 7.000000e+00
      vertex -1.900000e+01 -4.750000e+00 1.089709e+01
      vertex -1.900000e+01 0.000000e+00 3.000000e+00
    endloop
  endfacet
  facet normal 1.000000e+00 -7.015218e-16 -8.075714e-17
    outer loop
      vertex -1.900000e+01 0.000000e+00 3.000000e+00
      vertex -1.900000e+01 -4.750000e+00 1.089709e+01
      vertex -1.900000e+01 -2.500000e+00 7.000000e+00
    endloop
  endfacet
  facet normal 1.000000e+00 -7.015218e-16 -8.075714e-17
    outer loop
      vertex -1.900000e+01 0.000000e+00 3.000000e+00
      vertex -1.900000e+01 -2.500000e+00 7.000000e+00
      vertex -1.900000e+01 0.000000e+00 0.000000e+00
    endloop
  endfacet
  facet normal 1.000000e+00 -7.015218e-16 -8.075714e-17
    outer loop
      vertex -1.900000e+01 -4.750000e+00 1.089709e+01
      vertex -1.900000e+01 -1.400000e+01 1.400000e+01
      vertex -1.900000e+01 -9.250000e+00 1.089709e+01
    endloop
  endfacet
  facet normal 1.000000e+00 -7.015218e-16 -8.075714e-17
    outer loop
      vertex -1.900000e+01 -9.250000e+00 1.089709e+01
      vertex -1.900000e+01 -1.400000e+01 1.400000e+01
      vertex -1.900000e+01 -1.150000e+01 7.000000e+00
    endloop
  endfacet
  facet normal 1.000000e+00 -7.015218e-16 -8.075714e-17
    outer loop
      vertex -1.900000e+01 0.000000e+00 0.000000e+00
      vertex -1.900000e+01 -4.750000e+00 3.102905e+00
      vertex -1.900000e+01 -1.400000e+01 0.000000e+00
    endloop
  endfacet
  facet normal 1.000000e+00 -7.015218e-16 -8.075714e-17
    outer loop
      vertex -1.900000e+01 -4.750000e+00 3.102905e+00
      vertex -1.900000e+01 0.000000e+00 0.000000e+00
      vertex -1.900000e+01 -2.500000e+00 7.000000e+00
    endloop
  endfacet
  facet normal 1.000000e+00 -7.015218e-16 -8.075714e-17
    outer loop
      vertex -1.900000e+01 -1.400000e+01 0.000000e+00
      vertex -1.900000e+01 -4.750000e+00 3.102905e+00
      vertex -1.900000e+01 -9.250000e+00 3.102905e+00
    endloop
  endfacet
  facet normal 1.000000e+00 -7.015218e-16 -8.075714e-17
    outer loop
      vertex -1.900000e+01 -1.400000e+01 0.000000e+00
      vertex -1.900000e+01 -9.250000e+00 3.102905e+00
      vertex -1.900000e+01 -1.150000e+01 7.000000e+00
    endloop
  endfacet
  facet normal 1.000000e+00 -7.015218e-16 -8.075714e-17
    outer loop
      vertex -1.900000e+01 -1.400000e+01 0.000000e+00
      vertex -1.900000e+01 -1.150000e+01 7.000000e+00
      vertex -1.900000e+01 -1.400000e+01 1.400000e+01
    endloop
  endfacet
  facet normal 1.000000e+00 -7.015218e-16 -8.075714e-17
    outer loop
      vertex -1.900000e+01 0.000000e+00 3.000000e+00
      vertex -1.900000e+01 4.809448e+00 3.000000e+00
      vertex -1.900000e+01 2.500000e+00 7.000000e+00
    endloop
  endfacet
  facet normal -2.163244e-17 8.660254e-01 5.000000e-01
    outer loop
      vertex -2.200000e+01 2.500000e+00 7.000000e+00
      vertex -1.900000e+01 4.809448e+00 3.000000e+00
      vertex -2.200000e+01 4.809448e+00 3.000000e+00
    endloop
  endfacet
  facet normal -2.163244e-17 8.660254e-01 5.000000e-01
    outer loop
      vertex -1.900000e+01 4.809448e+00 3.000000e+00
      vertex -2.200000e+01 2.500000e+00 7.000000e+00
      vertex -1.900000e+01 2.500000e+00 7.000000e+00
    endloop
  endfacet
endsolid Default
