solid Default
  facet normal -6.123234e-17 1.000000e+00 -0.000000e+00
    outer loop
      vertex 3.484998e+01 2.500000e+01 7.105427e-15
      vertex 3.004999e+01 2.500000e+01 3.000000e+00
      vertex 3.484998e+01 2.500000e+01 9.549999e+00
    endloop
  endfacet
  facet normal -6.123234e-17 1.000000e+00 -0.000000e+00
    outer loop
      vertex 3.004999e+01 2.500000e+01 3.000000e+00
      vertex 3.484998e+01 2.500000e+01 7.105427e-15
      vertex -3.284998e+01 2.500000e+01 0.000000e+00
    endloop
  endfacet
  facet normal -6.123234e-17 1.000000e+00 -0.000000e+00
    outer loop
      vertex 3.484998e+01 2.500000e+01 9.549999e+00
      vertex 3.004999e+01 2.500000e+01 3.000000e+00
      vertex 3.204999e+01 2.500000e+01 8.000000e+00
    endloop
  endfacet
  facet normal -6.123234e-17 1.000000e+00 -0.000000e+00
    outer loop
      vertex 3.004999e+01 2.500000e+01 3.000000e+00
      vertex -3.284998e+01 2.500000e+01 0.000000e+00
      vertex -3.004999e+01 2.500000e+01 3.000000e+00
    endloop
  endfacet
  facet normal -6.123234e-17 1.000000e+00 -0.000000e+00
    outer loop
      vertex -3.004999e+01 2.500000e+01 3.000000e+00
      vertex -3.284998e+01 2.500000e+01 0.000000e+00
      vertex -3.004999e+01 2.500000e+01 8.000000e+00
    endloop
  endfacet
  facet normal -6.123234e-17 1.000000e+00 -0.000000e+00
    outer loop
      vertex -3.004999e+01 2.500000e+01 8.000000e+00
      vertex -3.284998e+01 2.500000e+01 0.000000e+00
      vertex -3.204999e+01 2.500000e+01 8.000000e+00
    endloop
  endfacet
  facet normal -6.123234e-17 1.000000e+00 -0.000000e+00
    outer loop
      vertex -3.204999e+01 2.500000e+01 8.000000e+00
      vertex -3.284998e+01 2.500000e+01 0.000000e+00
      vertex -3.204999e+01 2.500000e+01 9.549999e+00
    endloop
  endfacet
  facet normal -6.123234e-17 1.000000e+00 -0.000000e+00
    outer loop
      vertex -3.204999e+01 2.500000e+01 9.549999e+00
      vertex -3.284998e+01 2.500000e+01 0.000000e+00
      vertex -3.284998e+01 2.500000e+01 4.000000e+00
    endloop
  endfacet
  facet normal -6.123234e-17 1.000000e+00 -0.000000e+00
    outer loop
      vertex -3.204999e+01 2.500000e+01 9.549999e+00
      vertex -3.284998e+01 2.500000e+01 4.000000e+00
      vertex -3.484998e+01 2.500000e+01 9.549999e+00
    endloop
  endfacet
  facet normal -6.123234e-17 1.000000e+00 -0.000000e+00
    outer loop
      vertex -3.484998e+01 2.500000e+01 9.549999e+00
      vertex -3.284998e+01 2.500000e+01 4.000000e+00
      vertex -3.484998e+01 2.500000e+01 6.000000e+00
    endloop
  endfacet
  facet normal -6.123234e-17 1.000000e+00 -0.000000e+00
    outer loop
      vertex 3.004999e+01 2.500000e+01 8.000000e+00
      vertex 3.204999e+01 2.500000e+01 8.000000e+00
      vertex 3.004999e+01 2.500000e+01 3.000000e+00
    endloop
  endfacet
  facet normal -6.123234e-17 1.000000e+00 -0.000000e+00
    outer loop
      vertex 3.204999e+01 2.500000e+01 9.549999e+00
      vertex 3.484998e+01 2.500000e+01 9.549999e+00
      vertex 3.204999e+01 2.500000e+01 8.000000e+00
    endloop
  endfacet
  facet normal 6.123234e-17 -1.000000e+00 0.000000e+00
    outer loop
      vertex 3.004999e+01 -2.500000e+01 8.000000e+00
      vertex 3.484998e+01 -2.500000e+01 7.105427e-15
      vertex 3.484998e+01 -2.500000e+01 8.000000e+00
    endloop
  endfacet
  facet normal 6.123234e-17 -1.000000e+00 0.000000e+00
    outer loop
      vertex 3.484998e+01 -2.500000e+01 7.105427e-15
      vertex 3.004999e+01 -2.500000e+01 8.000000e+00
      vertex 3.004999e+01 -2.500000e+01 7.105427e-15
    endloop
  endfacet
  facet normal 6.123234e-17 -1.000000e+00 0.000000e+00
    outer loop
      vertex -3.484998e+01 -2.500000e+01 8.000000e+00
      vertex -3.004999e+01 -2.500000e+01 0.000000e+00
      vertex -3.004999e+01 -2.500000e+01 8.000000e+00
    endloop
  endfacet
  facet normal 6.123234e-17 -1.000000e+00 0.000000e+00
    outer loop
      vertex -3.004999e+01 -2.500000e+01 0.000000e+00
      vertex -3.484998e+01 -2.500000e+01 8.000000e+00
      vertex -3.484998e+01 -2.500000e+01 0.000000e+00
    endloop
  endfacet
  facet normal -1.000000e+00 -6.123234e-17 -1.224647e-16
    outer loop
      vertex -3.284998e+01 -2.224121e+01 5.215923e+00
      vertex -3.284998e+01 -2.275885e+01 5.215923e+00
      vertex -3.284998e+01 -2.250000e+01 5.250000e+00
    endloop
  endfacet
  facet normal -1.000000e+00 -6.123234e-17 -1.224647e-16
    outer loop
      vertex -3.284998e+01 -2.275885e+01 5.215923e+00
      vertex -3.284998e+01 -2.224121e+01 5.215923e+00
      vertex -3.284998e+01 -2.200000e+01 5.116024e+00
    endloop
  endfacet
  facet normal -1.000000e+00 -6.123234e-17 -1.224647e-16
    outer loop
      vertex -3.284998e+01 -2.275885e+01 5.215923e+00
      vertex -3.284998e+01 -2.200000e+01 5.116024e+00
      vertex -3.284998e+01 -2.300000e+01 5.116024e+00
    endloop
  endfacet
  facet normal -1.000000e+00 -6.123234e-17 -1.224647e-16
    outer loop
      vertex -3.284998e+01 -2.300000e+01 5.116024e+00
      vertex -3.284998e+01 -2.200000e+01 5.116024e+00
      vertex -3.284998e+01 -2.179291e+01 4.957104e+00
    endloop
  endfacet
  facet normal -1.000000e+00 -6.123234e-17 -1.224647e-16
    outer loop
      vertex -3.284998e+01 -2.300000e+01 5.116024e+00
      vertex -3.284998e+01 -2.179291e+01 4.957104e+00
      vertex -3.284998e+01 -2.320709e+01 4.957104e+00
    endloop
  endfacet
  facet normal -1.000000e+00 -6.123234e-17 -1.224647e-16
    outer loop
      vertex -3.284998e+01 -2.320709e+01 4.957104e+00
      vertex -3.284998e+01 -2.179291e+01 4.957104e+00
      vertex -3.284998e+01 -2.163397e+01 4.750000e+00
    endloop
  endfacet
  facet normal -1.000000e+00 -6.123234e-17 -1.224647e-16
    outer loop
      vertex -3.284998e+01 -2.320709e+01 4.957104e+00
      vertex -3.284998e+01 -2.163397e+01 4.750000e+00
      vertex -3.284998e+01 -2.336603e+01 4.750000e+00
    endloop
  endfacet
  facet normal -1.000000e+00 -6.123234e-17 -1.224647e-16
    outer loop
      vertex -3.284998e+01 -2.336603e+01 4.750000e+00
      vertex -3.284998e+01 -2.163397e+01 4.750000e+00
      vertex -3.284998e+01 -2.153406e+01 4.508816e+00
    endloop
  endfacet
  facet normal -1.000000e+00 -6.123234e-17 -1.224647e-16
    outer loop
      vertex -3.284998e+01 -2.336603e+01 4.750000e+00
      vertex -3.284998e+01 -2.153406e+01 4.508816e+00
      vertex -3.284998e+01 -2.346594e+01 4.508816e+00
    endloop
  endfacet
  facet normal -1.000000e+00 -6.123234e-17 -1.224647e-16
    outer loop
      vertex -3.284998e+01 -2.346594e+01 4.508816e+00
      vertex -3.284998e+01 -2.153406e+01 4.508816e+00
      vertex -3.284998e+01 -2.150000e+01 4.250000e+00
    endloop
  endfacet
  facet normal -1.000000e+00 -6.123234e-17 -1.224647e-16
    outer loop
      vertex -3.284998e+01 -2.346594e+01 4.508816e+00
      vertex -3.284998e+01 -2.150000e+01 4.250000e+00
      vertex -3.284998e+01 -2.350000e+01 4.250000e+00
    endloop
  endfacet
  facet normal -1.000000e+00 -6.123234e-17 -1.224647e-16
    outer loop
      vertex -3.284998e+01 -2.350000e+01 4.250000e+00
      vertex -3.284998e+01 -2.150000e+01 4.250000e+00
      vertex -3.284998e+01 -2.153406e+01 3.991180e+00
    endloop
  endfacet
  facet normal -1.000000e+00 -6.123234e-17 -1.224647e-16
    outer loop
      vertex -3.284998e+01 -2.350000e+01 4.250000e+00
      vertex -3.284998e+01 -2.153406e+01 3.991180e+00
      vertex -3.284998e+01 -2.346594e+01 3.991180e+00
    endloop
  endfacet
  facet normal -1.000000e+00 -6.123234e-17 -1.224647e-16
    outer loop
      vertex -3.284998e+01 -2.346594e+01 3.991180e+00
      vertex -3.284998e+01 -2.153406e+01 3.991180e+00
      vertex -3.284998e+01 -2.163397e+01 3.750000e+00
    endloop
  endfacet
  facet normal -1.000000e+00 -6.123234e-17 -1.224647e-16
    outer loop
      vertex -3.284998e+01 -2.346594e+01 3.991180e+00
      vertex -3.284998e+01 -2.163397e+01 3.750000e+00
      vertex -3.284998e+01 -2.336603e+01 3.750000e+00
    endloop
  endfacet
  facet normal -1.000000e+00 -6.123234e-17 -1.224647e-16
    outer loop
      vertex -3.284998e+01 -2.336603e+01 3.750000e+00
      vertex -3.284998e+01 -2.163397e+01 3.750000e+00
      vertex -3.284998e+01 -2.179291e+01 3.542892e+00
    endloop
  endfacet
  facet normal -1.000000e+00 -6.123234e-17 -1.224647e-16
    outer loop
      vertex -3.284998e+01 -2.336603e+01 3.750000e+00
      vertex -3.284998e+01 -2.179291e+01 3.542892e+00
      vertex -3.284998e+01 -2.320709e+01 3.542892e+00
    endloop
  endfacet
  facet normal -1.000000e+00 -6.123234e-17 -1.224647e-16
    outer loop
      vertex -3.284998e+01 -2.320709e+01 3.542892e+00
      vertex -3.284998e+01 -2.179291e+01 3.542892e+00
      vertex -3.284998e+01 -2.200000e+01 3.383972e+00
    endloop
  endfacet
  facet normal -1.000000e+00 -6.123234e-17 -1.224647e-16
    outer loop
      vertex -3.284998e+01 -2.320709e+01 3.542892e+00
      vertex -3.284998e+01 -2.200000e+01 3.383972e+00
      vertex -3.284998e+01 -2.300000e+01 3.383972e+00
    endloop
  endfacet
  facet normal -1.000000e+00 -6.123234e-17 -1.224647e-16
    outer loop
      vertex -3.284998e+01 -2.300000e+01 3.383972e+00
      vertex -3.284998e+01 -2.200000e+01 3.383972e+00
      vertex -3.284998e+01 -2.224121e+01 3.284073e+00
    endloop
  endfacet
  facet normal -1.000000e+00 -6.123234e-17 -1.224647e-16
    outer loop
      vertex -3.284998e+01 -2.300000e+01 3.383972e+00
      vertex -3.284998e+01 -2.224121e+01 3.284073e+00
      vertex -3.284998e+01 -2.275885e+01 3.284073e+00
    endloop
  endfacet
  facet normal -1.000000e+00 -6.123234e-17 -1.224647e-16
    outer loop
      vertex -3.284998e+01 -2.275885e+01 3.284073e+00
      vertex -3.284998e+01 -2.224121e+01 3.284073e+00
      vertex -3.284998e+01 -2.250000e+01 3.250000e+00
    endloop
  endfacet
  facet normal -9.866077e-02 -9.866077e-01 1.298894e-01
    outer loop
      vertex -3.484998e+01 -2.129999e+01 4.250000e+00
      vertex -3.284998e+01 -2.153406e+01 3.991180e+00
      vertex -3.284998e+01 -2.150000e+01 4.250000e+00
    endloop
  endfacet
  facet normal -9.866077e-02 -9.866077e-01 1.298894e-01
    outer loop
      vertex -3.284998e+01 -2.153406e+01 3.991180e+00
      vertex -3.484998e+01 -2.129999e+01 4.250000e+00
      vertex -3.484998e+01 -2.134088e+01 3.939415e+00
    endloop
  endfacet
  facet normal -9.866077e-02 -3.808164e-01 -9.193720e-01
    outer loop
      vertex -3.284998e+01 -2.200000e+01 5.116024e+00
      vertex -3.484998e+01 -2.218945e+01 5.409111e+00
      vertex -3.484998e+01 -2.190002e+01 5.289230e+00
    endloop
  endfacet
  facet normal -9.866077e-02 -3.808164e-01 -9.193720e-01
    outer loop
      vertex -3.484998e+01 -2.218945e+01 5.409111e+00
      vertex -3.284998e+01 -2.200000e+01 5.116024e+00
      vertex -3.284998e+01 -2.224121e+01 5.215923e+00
    endloop
  endfacet
  facet normal -9.866077e-02 1.298894e-01 -9.866077e-01
    outer loop
      vertex -3.284998e+01 -2.275885e+01 5.215923e+00
      vertex -3.484998e+01 -2.250000e+01 5.449997e+00
      vertex -3.284998e+01 -2.250000e+01 5.250000e+00
    endloop
  endfacet
  facet normal -9.866077e-02 1.298894e-01 -9.866077e-01
    outer loop
      vertex -3.484998e+01 -2.250000e+01 5.449997e+00
      vertex -3.284998e+01 -2.275885e+01 5.215923e+00
      vertex -3.484998e+01 -2.281061e+01 5.409111e+00
    endloop
  endfacet
  facet normal -9.866077e-02 -7.894827e-01 6.057913e-01
    outer loop
      vertex -3.484998e+01 -2.146075e+01 3.649998e+00
      vertex -3.284998e+01 -2.179291e+01 3.542892e+00
      vertex -3.284998e+01 -2.163397e+01 3.750000e+00
    endloop
  endfacet
  facet normal -9.866077e-02 -7.894827e-01 6.057913e-01
    outer loop
      vertex -3.284998e+01 -2.179291e+01 3.542892e+00
      vertex -3.484998e+01 -2.146075e+01 3.649998e+00
      vertex -3.484998e+01 -2.165149e+01 3.401470e+00
    endloop
  endfacet
  facet normal -9.866077e-02 3.808164e-01 9.193720e-01
    outer loop
      vertex -3.484998e+01 -2.281061e+01 3.090889e+00
      vertex -3.284998e+01 -2.300000e+01 3.383972e+00
      vertex -3.284998e+01 -2.275885e+01 3.284073e+00
    endloop
  endfacet
  facet normal -9.866077e-02 3.808164e-01 9.193720e-01
    outer loop
      vertex -3.284998e+01 -2.300000e+01 3.383972e+00
      vertex -3.484998e+01 -2.281061e+01 3.090889e+00
      vertex -3.484998e+01 -2.310004e+01 3.210770e+00
    endloop
  endfacet
  facet normal -9.866077e-02 -6.057913e-01 -7.894827e-01
    outer loop
      vertex -3.284998e+01 -2.179291e+01 4.957104e+00
      vertex -3.484998e+01 -2.190002e+01 5.289230e+00
      vertex -3.484998e+01 -2.165149e+01 5.098526e+00
    endloop
  endfacet
  facet normal -9.866077e-02 -6.057913e-01 -7.894827e-01
    outer loop
      vertex -3.484998e+01 -2.190002e+01 5.289230e+00
      vertex -3.284998e+01 -2.179291e+01 4.957104e+00
      vertex -3.284998e+01 -2.200000e+01 5.116024e+00
    endloop
  endfacet
  facet normal -9.866077e-02 7.894827e-01 6.057913e-01
    outer loop
      vertex -3.484998e+01 -2.334851e+01 3.401470e+00
      vertex -3.284998e+01 -2.336603e+01 3.750000e+00
      vertex -3.284998e+01 -2.320709e+01 3.542892e+00
    endloop
  endfacet
  facet normal -9.866077e-02 7.894827e-01 6.057913e-01
    outer loop
      vertex -3.284998e+01 -2.336603e+01 3.750000e+00
      vertex -3.484998e+01 -2.334851e+01 3.401470e+00
      vertex -3.484998e+01 -2.353925e+01 3.649998e+00
    endloop
  endfacet
  facet normal -9.866077e-02 -9.193720e-01 -3.808164e-01
    outer loop
      vertex -3.484998e+01 -2.146075e+01 4.849998e+00
      vertex -3.284998e+01 -2.153406e+01 4.508816e+00
      vertex -3.284998e+01 -2.163397e+01 4.750000e+00
    endloop
  endfacet
  facet normal -9.866077e-02 -9.193720e-01 -3.808164e-01
    outer loop
      vertex -3.284998e+01 -2.153406e+01 4.508816e+00
      vertex -3.484998e+01 -2.146075e+01 4.849998e+00
      vertex -3.484998e+01 -2.134088e+01 4.560581e+00
    endloop
  endfacet
  facet normal -9.866077e-02 9.866077e-01 1.298894e-01
    outer loop
      vertex -3.484998e+01 -2.365912e+01 3.939415e+00
      vertex -3.284998e+01 -2.350000e+01 4.250000e+00
      vertex -3.284998e+01 -2.346594e+01 3.991180e+00
    endloop
  endfacet
  facet normal -9.866077e-02 9.866077e-01 1.298894e-01
    outer loop
      vertex -3.284998e+01 -2.350000e+01 4.250000e+00
      vertex -3.484998e+01 -2.365912e+01 3.939415e+00
      vertex -3.484998e+01 -2.370001e+01 4.250000e+00
    endloop
  endfacet
  facet normal -9.866077e-02 9.193720e-01 -3.808164e-01
    outer loop
      vertex -3.484998e+01 -2.365912e+01 4.560581e+00
      vertex -3.284998e+01 -2.336603e+01 4.750000e+00
      vertex -3.284998e+01 -2.346594e+01 4.508816e+00
    endloop
  endfacet
  facet normal -9.866077e-02 9.193720e-01 -3.808164e-01
    outer loop
      vertex -3.284998e+01 -2.336603e+01 4.750000e+00
      vertex -3.484998e+01 -2.365912e+01 4.560581e+00
      vertex -3.484998e+01 -2.353925e+01 4.849998e+00
    endloop
  endfacet
  facet normal -9.866077e-02 1.298894e-01 9.866077e-01
    outer loop
      vertex -3.484998e+01 -2.281061e+01 3.090889e+00
      vertex -3.284998e+01 -2.250000e+01 3.250000e+00
      vertex -3.484998e+01 -2.250000e+01 3.049999e+00
    endloop
  endfacet
  facet normal -9.866077e-02 1.298894e-01 9.866077e-01
    outer loop
      vertex -3.284998e+01 -2.250000e+01 3.250000e+00
      vertex -3.484998e+01 -2.281061e+01 3.090889e+00
      vertex -3.284998e+01 -2.275885e+01 3.284073e+00
    endloop
  endfacet
  facet normal -9.866077e-02 6.057913e-01 -7.894827e-01
    outer loop
      vertex -3.284998e+01 -2.320709e+01 4.957104e+00
      vertex -3.484998e+01 -2.310004e+01 5.289230e+00
      vertex -3.284998e+01 -2.300000e+01 5.116024e+00
    endloop
  endfacet
  facet normal -9.866077e-02 6.057913e-01 -7.894827e-01
    outer loop
      vertex -3.484998e+01 -2.310004e+01 5.289230e+00
      vertex -3.284998e+01 -2.320709e+01 4.957104e+00
      vertex -3.484998e+01 -2.334851e+01 5.098526e+00
    endloop
  endfacet
  facet normal -9.866077e-02 -7.894827e-01 -6.057913e-01
    outer loop
      vertex -3.484998e+01 -2.165149e+01 5.098526e+00
      vertex -3.284998e+01 -2.163397e+01 4.750000e+00
      vertex -3.284998e+01 -2.179291e+01 4.957104e+00
    endloop
  endfacet
  facet normal -9.866077e-02 -7.894827e-01 -6.057913e-01
    outer loop
      vertex -3.284998e+01 -2.163397e+01 4.750000e+00
      vertex -3.484998e+01 -2.165149e+01 5.098526e+00
      vertex -3.484998e+01 -2.146075e+01 4.849998e+00
    endloop
  endfacet
  facet normal -9.866077e-02 -9.866077e-01 -1.298894e-01
    outer loop
      vertex -3.484998e+01 -2.134088e+01 4.560581e+00
      vertex -3.284998e+01 -2.150000e+01 4.250000e+00
      vertex -3.284998e+01 -2.153406e+01 4.508816e+00
    endloop
  endfacet
  facet normal -9.866077e-02 -9.866077e-01 -1.298894e-01
    outer loop
      vertex -3.284998e+01 -2.150000e+01 4.250000e+00
      vertex -3.484998e+01 -2.134088e+01 4.560581e+00
      vertex -3.484998e+01 -2.129999e+01 4.250000e+00
    endloop
  endfacet
  facet normal -9.866077e-02 -1.298894e-01 9.866077e-01
    outer loop
      vertex -3.484998e+01 -2.250000e+01 3.049999e+00
      vertex -3.284998e+01 -2.224121e+01 3.284073e+00
      vertex -3.484998e+01 -2.218945e+01 3.090889e+00
    endloop
  endfacet
  facet normal -9.866077e-02 -1.298894e-01 9.866077e-01
    outer loop
      vertex -3.284998e+01 -2.224121e+01 3.284073e+00
      vertex -3.484998e+01 -2.250000e+01 3.049999e+00
      vertex -3.284998e+01 -2.250000e+01 3.250000e+00
    endloop
  endfacet
  facet normal -9.866077e-02 -9.193720e-01 3.808164e-01
    outer loop
      vertex -3.484998e+01 -2.134088e+01 3.939415e+00
      vertex -3.284998e+01 -2.163397e+01 3.750000e+00
      vertex -3.284998e+01 -2.153406e+01 3.991180e+00
    endloop
  endfacet
  facet normal -9.866077e-02 -9.193720e-01 3.808164e-01
    outer loop
      vertex -3.284998e+01 -2.163397e+01 3.750000e+00
      vertex -3.484998e+01 -2.134088e+01 3.939415e+00
      vertex -3.484998e+01 -2.146075e+01 3.649998e+00
    endloop
  endfacet
  facet normal -9.866077e-02 9.193720e-01 3.808164e-01
    outer loop
      vertex -3.484998e+01 -2.353925e+01 3.649998e+00
      vertex -3.284998e+01 -2.346594e+01 3.991180e+00
      vertex -3.284998e+01 -2.336603e+01 3.750000e+00
    endloop
  endfacet
  facet normal -9.866077e-02 9.193720e-01 3.808164e-01
    outer loop
      vertex -3.284998e+01 -2.346594e+01 3.991180e+00
      vertex -3.484998e+01 -2.353925e+01 3.649998e+00
      vertex -3.484998e+01 -2.365912e+01 3.939415e+00
    endloop
  endfacet
  facet normal -9.866077e-02 -6.057913e-01 7.894827e-01
    outer loop
      vertex -3.484998e+01 -2.190002e+01 3.210770e+00
      vertex -3.284998e+01 -2.179291e+01 3.542892e+00
      vertex -3.484998e+01 -2.165149e+01 3.401470e+00
    endloop
  endfacet
  facet normal -9.866077e-02 -6.057913e-01 7.894827e-01
    outer loop
      vertex -3.284998e+01 -2.179291e+01 3.542892e+00
      vertex -3.484998e+01 -2.190002e+01 3.210770e+00
      vertex -3.284998e+01 -2.200000e+01 3.383972e+00
    endloop
  endfacet
  facet normal -9.866077e-02 3.808164e-01 -9.193720e-01
    outer loop
      vertex -3.284998e+01 -2.300000e+01 5.116024e+00
      vertex -3.484998e+01 -2.281061e+01 5.409111e+00
      vertex -3.284998e+01 -2.275885e+01 5.215923e+00
    endloop
  endfacet
  facet normal -9.866077e-02 3.808164e-01 -9.193720e-01
    outer loop
      vertex -3.484998e+01 -2.281061e+01 5.409111e+00
      vertex -3.284998e+01 -2.300000e+01 5.116024e+00
      vertex -3.484998e+01 -2.310004e+01 5.289230e+00
    endloop
  endfacet
  facet normal -9.866077e-02 9.866077e-01 -1.298894e-01
    outer loop
      vertex -3.484998e+01 -2.370001e+01 4.250000e+00
      vertex -3.284998e+01 -2.346594e+01 4.508816e+00
      vertex -3.284998e+01 -2.350000e+01 4.250000e+00
    endloop
  endfacet
  facet normal -9.866077e-02 9.866077e-01 -1.298894e-01
    outer loop
      vertex -3.284998e+01 -2.346594e+01 4.508816e+00
      vertex -3.484998e+01 -2.370001e+01 4.250000e+00
      vertex -3.484998e+01 -2.365912e+01 4.560581e+00
    endloop
  endfacet
  facet normal -9.866077e-02 -1.298894e-01 -9.866077e-01
    outer loop
      vertex -3.284998e+01 -2.224121e+01 5.215923e+00
      vertex -3.484998e+01 -2.250000e+01 5.449997e+00
      vertex -3.484998e+01 -2.218945e+01 5.409111e+00
    endloop
  endfacet
  facet normal -9.866077e-02 -1.298894e-01 -9.866077e-01
    outer loop
      vertex -3.484998e+01 -2.250000e+01 5.449997e+00
      vertex -3.284998e+01 -2.224121e+01 5.215923e+00
      vertex -3.284998e+01 -2.250000e+01 5.250000e+00
    endloop
  endfacet
  facet normal -9.866077e-02 -3.808164e-01 9.193720e-01
    outer loop
      vertex -3.484998e+01 -2.218945e+01 3.090889e+00
      vertex -3.284998e+01 -2.200000e+01 3.383972e+00
      vertex -3.484998e+01 -2.190002e+01 3.210770e+00
    endloop
  endfacet
  facet normal -9.866077e-02 -3.808164e-01 9.193720e-01
    outer loop
      vertex -3.284998e+01 -2.200000e+01 3.383972e+00
      vertex -3.484998e+01 -2.218945e+01 3.090889e+00
      vertex -3.284998e+01 -2.224121e+01 3.284073e+00
    endloop
  endfacet
  facet normal -9.866077e-02 6.057913e-01 7.894827e-01
    outer loop
      vertex -3.484998e+01 -2.310004e+01 3.210770e+00
      vertex -3.284998e+01 -2.320709e+01 3.542892e+00
      vertex -3.284998e+01 -2.300000e+01 3.383972e+00
    endloop
  endfacet
  facet normal -9.866077e-02 6.057913e-01 7.894827e-01
    outer loop
      vertex -3.284998e+01 -2.320709e+01 3.542892e+00
      vertex -3.484998e+01 -2.310004e+01 3.210770e+00
      vertex -3.484998e+01 -2.334851e+01 3.401470e+00
    endloop
  endfacet
  facet normal -9.866077e-02 7.894827e-01 -6.057913e-01
    outer loop
      vertex -3.484998e+01 -2.353925e+01 4.849998e+00
      vertex -3.284998e+01 -2.320709e+01 4.957104e+00
      vertex -3.284998e+01 -2.336603e+01 4.750000e+00
    endloop
  endfacet
  facet normal -9.866077e-02 7.894827e-01 -6.057913e-01
    outer loop
      vertex -3.284998e+01 -2.320709e+01 4.957104e+00
      vertex -3.484998e+01 -2.353925e+01 4.849998e+00
      vertex -3.484998e+01 -2.334851e+01 5.098526e+00
    endloop
  endfacet
  facet normal 9.866077e-02 3.808164e-01 9.193720e-01
    outer loop
      vertex 3.284998e+01 -2.300000e+01 3.383972e+00
      vertex 3.484998e+01 -2.281061e+01 3.090889e+00
      vertex 3.284998e+01 -2.275885e+01 3.284073e+00
    endloop
  endfacet
  facet normal 9.866077e-02 3.808164e-01 9.193720e-01
    outer loop
      vertex 3.484998e+01 -2.281061e+01 3.090889e+00
      vertex 3.284998e+01 -2.300000e+01 3.383972e+00
      vertex 3.484998e+01 -2.310004e+01 3.210770e+00
    endloop
  endfacet
  facet normal 9.866077e-02 1.298894e-01 -9.866077e-01
    outer loop
      vertex 3.484998e+01 -2.281061e+01 5.409111e+00
      vertex 3.284998e+01 -2.250000e+01 5.250000e+00
      vertex 3.484998e+01 -2.250000e+01 5.449997e+00
    endloop
  endfacet
  facet normal 9.866077e-02 1.298894e-01 -9.866077e-01
    outer loop
      vertex 3.284998e+01 -2.250000e+01 5.250000e+00
      vertex 3.484998e+01 -2.281061e+01 5.409111e+00
      vertex 3.284998e+01 -2.275885e+01 5.215923e+00
    endloop
  endfacet
  facet normal 9.866077e-02 -7.894827e-01 6.057913e-01
    outer loop
      vertex 3.284998e+01 -2.163397e+01 3.750000e+00
      vertex 3.484998e+01 -2.165149e+01 3.401470e+00
      vertex 3.484998e+01 -2.146075e+01 3.649998e+00
    endloop
  endfacet
  facet normal 9.866077e-02 -7.894827e-01 6.057913e-01
    outer loop
      vertex 3.484998e+01 -2.165149e+01 3.401470e+00
      vertex 3.284998e+01 -2.163397e+01 3.750000e+00
      vertex 3.284998e+01 -2.179291e+01 3.542892e+00
    endloop
  endfacet
  facet normal 9.866077e-02 -9.193720e-01 -3.808164e-01
    outer loop
      vertex 3.284998e+01 -2.163397e+01 4.750000e+00
      vertex 3.484998e+01 -2.134088e+01 4.560581e+00
      vertex 3.484998e+01 -2.146075e+01 4.849998e+00
    endloop
  endfacet
  facet normal 9.866077e-02 -9.193720e-01 -3.808164e-01
    outer loop
      vertex 3.484998e+01 -2.134088e+01 4.560581e+00
      vertex 3.284998e+01 -2.163397e+01 4.750000e+00
      vertex 3.284998e+01 -2.153406e+01 4.508816e+00
    endloop
  endfacet
  facet normal 9.866077e-02 -6.057913e-01 -7.894827e-01
    outer loop
      vertex 3.484998e+01 -2.190002e+01 5.289230e+00
      vertex 3.284998e+01 -2.179291e+01 4.957104e+00
      vertex 3.484998e+01 -2.165149e+01 5.098526e+00
    endloop
  endfacet
  facet normal 9.866077e-02 -6.057913e-01 -7.894827e-01
    outer loop
      vertex 3.284998e+01 -2.179291e+01 4.957104e+00
      vertex 3.484998e+01 -2.190002e+01 5.289230e+00
      vertex 3.284998e+01 -2.200000e+01 5.116024e+00
    endloop
  endfacet
  facet normal 1.000000e+00 6.123234e-17 1.224647e-16
    outer loop
      vertex 3.284998e+01 -2.275885e+01 5.215923e+00
      vertex 3.284998e+01 -2.224121e+01 5.215923e+00
      vertex 3.284998e+01 -2.250000e+01 5.250000e+00
    endloop
  endfacet
  facet normal 1.000000e+00 6.123234e-17 1.224647e-16
    outer loop
      vertex 3.284998e+01 -2.224121e+01 5.215923e+00
      vertex 3.284998e+01 -2.275885e+01 5.215923e+00
      vertex 3.284998e+01 -2.300000e+01 5.116024e+00
    endloop
  endfacet
  facet normal 1.000000e+00 6.123234e-17 1.224647e-16
    outer loop
      vertex 3.284998e+01 -2.224121e+01 5.215923e+00
      vertex 3.284998e+01 -2.300000e+01 5.116024e+00
      vertex 3.284998e+01 -2.200000e+01 5.116024e+00
    endloop
  endfacet
  facet normal 1.000000e+00 6.123234e-17 1.224647e-16
    outer loop
      vertex 3.284998e+01 -2.200000e+01 5.116024e+00
      vertex 3.284998e+01 -2.300000e+01 5.116024e+00
      vertex 3.284998e+01 -2.320709e+01 4.957104e+00
    endloop
  endfacet
  facet normal 1.000000e+00 6.123234e-17 1.224647e-16
    outer loop
      vertex 3.284998e+01 -2.200000e+01 5.116024e+00
      vertex 3.284998e+01 -2.320709e+01 4.957104e+00
      vertex 3.284998e+01 -2.179291e+01 4.957104e+00
    endloop
  endfacet
  facet normal 1.000000e+00 6.123234e-17 1.224647e-16
    outer loop
      vertex 3.284998e+01 -2.179291e+01 4.957104e+00
      vertex 3.284998e+01 -2.320709e+01 4.957104e+00
      vertex 3.284998e+01 -2.336603e+01 4.750000e+00
    endloop
  endfacet
  facet normal 1.000000e+00 6.123234e-17 1.224647e-16
    outer loop
      vertex 3.284998e+01 -2.179291e+01 4.957104e+00
      vertex 3.284998e+01 -2.336603e+01 4.750000e+00
      vertex 3.284998e+01 -2.163397e+01 4.750000e+00
    endloop
  endfacet
  facet normal 1.000000e+00 6.123234e-17 1.224647e-16
    outer loop
      vertex 3.284998e+01 -2.163397e+01 4.750000e+00
      vertex 3.284998e+01 -2.336603e+01 4.750000e+00
      vertex 3.284998e+01 -2.346594e+01 4.508816e+00
    endloop
  endfacet
  facet normal 1.000000e+00 6.123234e-17 1.224647e-16
    outer loop
      vertex 3.284998e+01 -2.163397e+01 4.750000e+00
      vertex 3.284998e+01 -2.346594e+01 4.508816e+00
      vertex 3.284998e+01 -2.153406e+01 4.508816e+00
    endloop
  endfacet
  facet normal 1.000000e+00 6.123234e-17 1.224647e-16
    outer loop
      vertex 3.284998e+01 -2.153406e+01 4.508816e+00
      vertex 3.284998e+01 -2.346594e+01 4.508816e+00
      vertex 3.284998e+01 -2.350000e+01 4.250000e+00
    endloop
  endfacet
  facet normal 1.000000e+00 6.123234e-17 1.224647e-16
    outer loop
      vertex 3.284998e+01 -2.153406e+01 4.508816e+00
      vertex 3.284998e+01 -2.350000e+01 4.250000e+00
      vertex 3.284998e+01 -2.150000e+01 4.250000e+00
    endloop
  endfacet
  facet normal 1.000000e+00 6.123234e-17 1.224647e-16
    outer loop
      vertex 3.284998e+01 -2.150000e+01 4.250000e+00
      vertex 3.284998e+01 -2.350000e+01 4.250000e+00
      vertex 3.284998e+01 -2.346594e+01 3.991180e+00
    endloop
  endfacet
  facet normal 1.000000e+00 6.123234e-17 1.224647e-16
    outer loop
      vertex 3.284998e+01 -2.150000e+01 4.250000e+00
      vertex 3.284998e+01 -2.346594e+01 3.991180e+00
      vertex 3.284998e+01 -2.153406e+01 3.991180e+00
    endloop
  endfacet
  facet normal 1.000000e+00 6.123234e-17 1.224647e-16
    outer loop
      vertex 3.284998e+01 -2.153406e+01 3.991180e+00
      vertex 3.284998e+01 -2.346594e+01 3.991180e+00
      vertex 3.284998e+01 -2.336603e+01 3.750000e+00
    endloop
  endfacet
  facet normal 1.000000e+00 6.123234e-17 1.224647e-16
    outer loop
      vertex 3.284998e+01 -2.153406e+01 3.991180e+00
      vertex 3.284998e+01 -2.336603e+01 3.750000e+00
      vertex 3.284998e+01 -2.163397e+01 3.750000e+00
    endloop
  endfacet
  facet normal 1.000000e+00 6.123234e-17 1.224647e-16
    outer loop
      vertex 3.284998e+01 -2.163397e+01 3.750000e+00
      vertex 3.284998e+01 -2.336603e+01 3.750000e+00
      vertex 3.284998e+01 -2.320709e+01 3.542892e+00
    endloop
  endfacet
  facet normal 1.000000e+00 6.123234e-17 1.224647e-16
    outer loop
      vertex 3.284998e+01 -2.163397e+01 3.750000e+00
      vertex 3.284998e+01 -2.320709e+01 3.542892e+00
      vertex 3.284998e+01 -2.179291e+01 3.542892e+00
    endloop
  endfacet
  facet normal 1.000000e+00 6.123234e-17 1.224647e-16
    outer loop
      vertex 3.284998e+01 -2.179291e+01 3.542892e+00
      vertex 3.284998e+01 -2.320709e+01 3.542892e+00
      vertex 3.284998e+01 -2.300000e+01 3.383972e+00
    endloop
  endfacet
  facet normal 1.000000e+00 6.123234e-17 1.224647e-16
    outer loop
      vertex 3.284998e+01 -2.179291e+01 3.542892e+00
      vertex 3.284998e+01 -2.300000e+01 3.383972e+00
      vertex 3.284998e+01 -2.200000e+01 3.383972e+00
    endloop
  endfacet
  facet normal 1.000000e+00 6.123234e-17 1.224647e-16
    outer loop
      vertex 3.284998e+01 -2.200000e+01 3.383972e+00
      vertex 3.284998e+01 -2.300000e+01 3.383972e+00
      vertex 3.284998e+01 -2.275885e+01 3.284073e+00
    endloop
  endfacet
  facet normal 1.000000e+00 6.123234e-17 1.224647e-16
    outer loop
      vertex 3.284998e+01 -2.200000e+01 3.383972e+00
      vertex 3.284998e+01 -2.275885e+01 3.284073e+00
      vertex 3.284998e+01 -2.224121e+01 3.284073e+00
    endloop
  endfacet
  facet normal 1.000000e+00 6.123234e-17 1.224647e-16
    outer loop
      vertex 3.284998e+01 -2.224121e+01 3.284073e+00
      vertex 3.284998e+01 -2.275885e+01 3.284073e+00
      vertex 3.284998e+01 -2.250000e+01 3.250000e+00
    endloop
  endfacet
  facet normal 9.866077e-02 -9.866077e-01 1.298894e-01
    outer loop
      vertex 3.284998e+01 -2.150000e+01 4.250000e+00
      vertex 3.484998e+01 -2.134088e+01 3.939415e+00
      vertex 3.484998e+01 -2.129999e+01 4.250000e+00
    endloop
  endfacet
  facet normal 9.866077e-02 -9.866077e-01 1.298894e-01
    outer loop
      vertex 3.484998e+01 -2.134088e+01 3.939415e+00
      vertex 3.284998e+01 -2.150000e+01 4.250000e+00
      vertex 3.284998e+01 -2.153406e+01 3.991180e+00
    endloop
  endfacet
  facet normal 1.000000e+00 1.727679e-15 7.488075e-15
    outer loop
      vertex 3.484998e+01 -2.500000e+01 8.000000e+00
      vertex 3.484998e+01 -2.250000e+01 5.449997e+00
      vertex 3.484998e+01 1.600000e+01 8.000000e+00
    endloop
  endfacet
  facet normal 1.000000e+00 1.727679e-15 7.488075e-15
    outer loop
      vertex 3.484998e+01 -2.250000e+01 5.449997e+00
      vertex 3.484998e+01 -2.500000e+01 8.000000e+00
      vertex 3.484998e+01 -2.281061e+01 5.409111e+00
    endloop
  endfacet
  facet normal 1.000000e+00 1.727679e-15 7.488075e-15
    outer loop
      vertex 3.484998e+01 -2.281061e+01 5.409111e+00
      vertex 3.484998e+01 -2.500000e+01 8.000000e+00
      vertex 3.484998e+01 -2.310004e+01 5.289230e+00
    endloop
  endfacet
  facet normal 1.000000e+00 1.727679e-15 7.488075e-15
    outer loop
      vertex 3.484998e+01 -2.310004e+01 5.289230e+00
      vertex 3.484998e+01 -2.500000e+01 8.000000e+00
      vertex 3.484998e+01 -2.334851e+01 5.098526e+00
    endloop
  endfacet
  facet normal 1.000000e+00 1.727679e-15 7.488075e-15
    outer loop
      vertex 3.484998e+01 -2.334851e+01 5.098526e+00
      vertex 3.484998e+01 -2.500000e+01 8.000000e+00
      vertex 3.484998e+01 -2.353925e+01 4.849998e+00
    endloop
  endfacet
  facet normal 1.000000e+00 1.727679e-15 7.488075e-15
    outer loop
      vertex 3.484998e+01 -2.353925e+01 4.849998e+00
      vertex 3.484998e+01 -2.500000e+01 8.000000e+00
      vertex 3.484998e+01 -2.365912e+01 4.560581e+00
    endloop
  endfacet
  facet normal 1.000000e+00 1.727679e-15 7.488075e-15
    outer loop
      vertex 3.484998e+01 -2.365912e+01 4.560581e+00
      vertex 3.484998e+01 -2.500000e+01 8.000000e+00
      vertex 3.484998e+01 -2.500000e+01 7.105427e-15
    endloop
  endfacet
  facet normal 1.000000e+00 1.727679e-15 7.488075e-15
    outer loop
      vertex 3.484998e+01 -2.365912e+01 4.560581e+00
      vertex 3.484998e+01 -2.500000e+01 7.105427e-15
      vertex 3.484998e+01 -2.370001e+01 4.250000e+00
    endloop
  endfacet
  facet normal 1.000000e+00 1.727679e-15 7.488075e-15
    outer loop
      vertex 3.484998e+01 -2.370001e+01 4.250000e+00
      vertex 3.484998e+01 -2.500000e+01 7.105427e-15
      vertex 3.484998e+01 -2.365912e+01 3.939415e+00
    endloop
  endfacet
  facet normal 1.000000e+00 1.727679e-15 7.488075e-15
    outer loop
      vertex 3.484998e+01 -2.365912e+01 3.939415e+00
      vertex 3.484998e+01 -2.500000e+01 7.105427e-15
      vertex 3.484998e+01 -2.353925e+01 3.649998e+00
    endloop
  endfacet
  facet normal 1.000000e+00 1.727679e-15 7.488075e-15
    outer loop
      vertex 3.484998e+01 -2.353925e+01 3.649998e+00
      vertex 3.484998e+01 -2.500000e+01 7.105427e-15
      vertex 3.484998e+01 -2.334851e+01 3.401470e+00
    endloop
  endfacet
  facet normal 1.000000e+00 1.727679e-15 7.488075e-15
    outer loop
      vertex 3.484998e+01 -2.334851e+01 3.401470e+00
      vertex 3.484998e+01 -2.500000e+01 7.105427e-15
      vertex 3.484998e+01 -2.310004e+01 3.210770e+00
    endloop
  endfacet
  facet normal 1.000000e+00 1.727679e-15 7.488075e-15
    outer loop
      vertex 3.484998e+01 -2.310004e+01 3.210770e+00
      vertex 3.484998e+01 -2.500000e+01 7.105427e-15
      vertex 3.484998e+01 -2.281061e+01 3.090889e+00
    endloop
  endfacet
  facet normal 1.000000e+00 1.727679e-15 7.488075e-15
    outer loop
      vertex 3.484998e+01 -2.281061e+01 3.090889e+00
      vertex 3.484998e+01 -2.500000e+01 7.105427e-15
      vertex 3.484998e+01 -2.250000e+01 3.049999e+00
    endloop
  endfacet
  facet normal 1.000000e+00 1.727679e-15 7.488075e-15
    outer loop
      vertex 3.484998e+01 1.000000e+01 8.549999e+00
      vertex 3.484998e+01 2.000000e+01 1.055000e+01
      vertex 3.484998e+01 1.000000e+01 1.055000e+01
    endloop
  endfacet
  facet normal 1.000000e+00 1.727679e-15 7.488075e-15
    outer loop
      vertex 3.484998e+01 2.000000e+01 1.055000e+01
      vertex 3.484998e+01 1.000000e+01 8.549999e+00
      vertex 3.484998e+01 2.000000e+01 9.549999e+00
    endloop
  endfacet
  facet normal 1.000000e+00 1.727679e-15 7.488075e-15
    outer loop
      vertex 3.484998e+01 2.000000e+01 9.549999e+00
      vertex 3.484998e+01 1.000000e+01 8.549999e+00
      vertex 3.484998e+01 2.500000e+01 9.549999e+00
    endloop
  endfacet
  facet normal 1.000000e+00 1.727679e-15 7.488075e-15
    outer loop
      vertex 3.484998e+01 2.500000e+01 9.549999e+00
      vertex 3.484998e+01 1.000000e+01 8.549999e+00
      vertex 3.484998e+01 1.600000e+01 8.549999e+00
    endloop
  endfacet
  facet normal 1.000000e+00 1.727679e-15 7.488075e-15
    outer loop
      vertex 3.484998e+01 2.500000e+01 9.549999e+00
      vertex 3.484998e+01 1.600000e+01 8.549999e+00
      vertex 3.484998e+01 2.500000e+01 7.105427e-15
    endloop
  endfacet
  facet normal 1.000000e+00 1.727679e-15 7.488075e-15
    outer loop
      vertex 3.484998e+01 2.500000e+01 7.105427e-15
      vertex 3.484998e+01 1.600000e+01 8.549999e+00
      vertex 3.484998e+01 1.600000e+01 8.000000e+00
    endloop
  endfacet
  facet normal 1.000000e+00 1.727679e-15 7.488075e-15
    outer loop
      vertex 3.484998e+01 2.500000e+01 7.105427e-15
      vertex 3.484998e+01 1.600000e+01 8.000000e+00
      vertex 3.484998e+01 -2.250000e+01 5.449997e+00
    endloop
  endfacet
  facet normal 1.000000e+00 1.727679e-15 7.488075e-15
    outer loop
      vertex 3.484998e+01 2.500000e+01 7.105427e-15
      vertex 3.484998e+01 -2.250000e+01 5.449997e+00
      vertex 3.484998e+01 -2.218945e+01 5.409111e+00
    endloop
  endfacet
  facet normal 1.000000e+00 1.727679e-15 7.488075e-15
    outer loop
      vertex 3.484998e+01 2.500000e+01 7.105427e-15
      vertex 3.484998e+01 -2.218945e+01 5.409111e+00
      vertex 3.484998e+01 -2.190002e+01 5.289230e+00
    endloop
  endfacet
  facet normal 1.000000e+00 1.727679e-15 7.488075e-15
    outer loop
      vertex 3.484998e+01 2.500000e+01 7.105427e-15
      vertex 3.484998e+01 -2.190002e+01 5.289230e+00
      vertex 3.484998e+01 -2.165149e+01 5.098526e+00
    endloop
  endfacet
  facet normal 1.000000e+00 1.727679e-15 7.488075e-15
    outer loop
      vertex 3.484998e+01 2.500000e+01 7.105427e-15
      vertex 3.484998e+01 -2.165149e+01 5.098526e+00
      vertex 3.484998e+01 -2.146075e+01 4.849998e+00
    endloop
  endfacet
  facet normal 1.000000e+00 1.727679e-15 7.488075e-15
    outer loop
      vertex 3.484998e+01 2.500000e+01 7.105427e-15
      vertex 3.484998e+01 -2.146075e+01 4.849998e+00
      vertex 3.484998e+01 -2.134088e+01 4.560581e+00
    endloop
  endfacet
  facet normal 1.000000e+00 1.727679e-15 7.488075e-15
    outer loop
      vertex 3.484998e+01 2.500000e+01 7.105427e-15
      vertex 3.484998e+01 -2.134088e+01 4.560581e+00
      vertex 3.484998e+01 -2.129999e+01 4.250000e+00
    endloop
  endfacet
  facet normal 1.000000e+00 1.727679e-15 7.488075e-15
    outer loop
      vertex 3.484998e+01 2.500000e+01 7.105427e-15
      vertex 3.484998e+01 -2.129999e+01 4.250000e+00
      vertex 3.484998e+01 -2.134088e+01 3.939415e+00
    endloop
  endfacet
  facet normal 1.000000e+00 1.727679e-15 7.488075e-15
    outer loop
      vertex 3.484998e+01 2.500000e+01 7.105427e-15
      vertex 3.484998e+01 -2.134088e+01 3.939415e+00
      vertex 3.484998e+01 -2.146075e+01 3.649998e+00
    endloop
  endfacet
  facet normal 1.000000e+00 1.727679e-15 7.488075e-15
    outer loop
      vertex 3.484998e+01 2.500000e+01 7.105427e-15
      vertex 3.484998e+01 -2.146075e+01 3.649998e+00
      vertex 3.484998e+01 -2.165149e+01 3.401470e+00
    endloop
  endfacet
  facet normal 1.000000e+00 1.727679e-15 7.488075e-15
    outer loop
      vertex 3.484998e+01 2.500000e+01 7.105427e-15
      vertex 3.484998e+01 -2.165149e+01 3.401470e+00
      vertex 3.484998e+01 -2.190002e+01 3.210770e+00
    endloop
  endfacet
  facet normal 1.000000e+00 1.727679e-15 7.488075e-15
    outer loop
      vertex 3.484998e+01 2.500000e+01 7.105427e-15
      vertex 3.484998e+01 -2.190002e+01 3.210770e+00
      vertex 3.484998e+01 -2.218945e+01 3.090889e+00
    endloop
  endfacet
  facet normal 1.000000e+00 1.727679e-15 7.488075e-15
    outer loop
      vertex 3.484998e+01 2.500000e+01 7.105427e-15
      vertex 3.484998e+01 -2.218945e+01 3.090889e+00
      vertex 3.484998e+01 -2.250000e+01 3.049999e+00
    endloop
  endfacet
  facet normal 1.000000e+00 1.727679e-15 7.488075e-15
    outer loop
      vertex 3.484998e+01 2.500000e+01 7.105427e-15
      vertex 3.484998e+01 -2.250000e+01 3.049999e+00
      vertex 3.484998e+01 -2.500000e+01 7.105427e-15
    endloop
  endfacet
  facet normal 9.866077e-02 9.866077e-01 -1.298894e-01
    outer loop
      vertex 3.284998e+01 -2.350000e+01 4.250000e+00
      vertex 3.484998e+01 -2.365912e+01 4.560581e+00
      vertex 3.484998e+01 -2.370001e+01 4.250000e+00
    endloop
  endfacet
  facet normal 9.866077e-02 9.866077e-01 -1.298894e-01
    outer loop
      vertex 3.484998e+01 -2.365912e+01 4.560581e+00
      vertex 3.284998e+01 -2.350000e+01 4.250000e+00
      vertex 3.284998e+01 -2.346594e+01 4.508816e+00
    endloop
  endfacet
  facet normal 9.866077e-02 7.894827e-01 6.057913e-01
    outer loop
      vertex 3.284998e+01 -2.320709e+01 3.542892e+00
      vertex 3.484998e+01 -2.353925e+01 3.649998e+00
      vertex 3.484998e+01 -2.334851e+01 3.401470e+00
    endloop
  endfacet
  facet normal 9.866077e-02 7.894827e-01 6.057913e-01
    outer loop
      vertex 3.484998e+01 -2.353925e+01 3.649998e+00
      vertex 3.284998e+01 -2.320709e+01 3.542892e+00
      vertex 3.284998e+01 -2.336603e+01 3.750000e+00
    endloop
  endfacet
  facet normal 9.866077e-02 9.866077e-01 1.298894e-01
    outer loop
      vertex 3.284998e+01 -2.346594e+01 3.991180e+00
      vertex 3.484998e+01 -2.370001e+01 4.250000e+00
      vertex 3.484998e+01 -2.365912e+01 3.939415e+00
    endloop
  endfacet
  facet normal 9.866077e-02 9.866077e-01 1.298894e-01
    outer loop
      vertex 3.484998e+01 -2.370001e+01 4.250000e+00
      vertex 3.284998e+01 -2.346594e+01 3.991180e+00
      vertex 3.284998e+01 -2.350000e+01 4.250000e+00
    endloop
  endfacet
  facet normal 9.866077e-02 9.193720e-01 -3.808164e-01
    outer loop
      vertex 3.284998e+01 -2.346594e+01 4.508816e+00
      vertex 3.484998e+01 -2.353925e+01 4.849998e+00
      vertex 3.484998e+01 -2.365912e+01 4.560581e+00
    endloop
  endfacet
  facet normal 9.866077e-02 9.193720e-01 -3.808164e-01
    outer loop
      vertex 3.484998e+01 -2.353925e+01 4.849998e+00
      vertex 3.284998e+01 -2.346594e+01 4.508816e+00
      vertex 3.284998e+01 -2.336603e+01 4.750000e+00
    endloop
  endfacet
  facet normal 9.866077e-02 -3.808164e-01 -9.193720e-01
    outer loop
      vertex 3.484998e+01 -2.218945e+01 5.409111e+00
      vertex 3.284998e+01 -2.200000e+01 5.116024e+00
      vertex 3.484998e+01 -2.190002e+01 5.289230e+00
    endloop
  endfacet
  facet normal 9.866077e-02 -3.808164e-01 -9.193720e-01
    outer loop
      vertex 3.284998e+01 -2.200000e+01 5.116024e+00
      vertex 3.484998e+01 -2.218945e+01 5.409111e+00
      vertex 3.284998e+01 -2.224121e+01 5.215923e+00
    endloop
  endfacet
  facet normal 9.866077e-02 -6.057913e-01 7.894827e-01
    outer loop
      vertex 3.284998e+01 -2.179291e+01 3.542892e+00
      vertex 3.484998e+01 -2.190002e+01 3.210770e+00
      vertex 3.484998e+01 -2.165149e+01 3.401470e+00
    endloop
  endfacet
  facet normal 9.866077e-02 -6.057913e-01 7.894827e-01
    outer loop
      vertex 3.484998e+01 -2.190002e+01 3.210770e+00
      vertex 3.284998e+01 -2.179291e+01 3.542892e+00
      vertex 3.284998e+01 -2.200000e+01 3.383972e+00
    endloop
  endfacet
  facet normal 9.866077e-02 1.298894e-01 9.866077e-01
    outer loop
      vertex 3.284998e+01 -2.275885e+01 3.284073e+00
      vertex 3.484998e+01 -2.250000e+01 3.049999e+00
      vertex 3.284998e+01 -2.250000e+01 3.250000e+00
    endloop
  endfacet
  facet normal 9.866077e-02 1.298894e-01 9.866077e-01
    outer loop
      vertex 3.484998e+01 -2.250000e+01 3.049999e+00
      vertex 3.284998e+01 -2.275885e+01 3.284073e+00
      vertex 3.484998e+01 -2.281061e+01 3.090889e+00
    endloop
  endfacet
  facet normal 9.866077e-02 6.057913e-01 -7.894827e-01
    outer loop
      vertex 3.484998e+01 -2.310004e+01 5.289230e+00
      vertex 3.284998e+01 -2.320709e+01 4.957104e+00
      vertex 3.284998e+01 -2.300000e+01 5.116024e+00
    endloop
  endfacet
  facet normal 9.866077e-02 6.057913e-01 -7.894827e-01
    outer loop
      vertex 3.284998e+01 -2.320709e+01 4.957104e+00
      vertex 3.484998e+01 -2.310004e+01 5.289230e+00
      vertex 3.484998e+01 -2.334851e+01 5.098526e+00
    endloop
  endfacet
  facet normal 9.866077e-02 6.057913e-01 7.894827e-01
    outer loop
      vertex 3.284998e+01 -2.320709e+01 3.542892e+00
      vertex 3.484998e+01 -2.310004e+01 3.210770e+00
      vertex 3.284998e+01 -2.300000e+01 3.383972e+00
    endloop
  endfacet
  facet normal 9.866077e-02 6.057913e-01 7.894827e-01
    outer loop
      vertex 3.484998e+01 -2.310004e+01 3.210770e+00
      vertex 3.284998e+01 -2.320709e+01 3.542892e+00
      vertex 3.484998e+01 -2.334851e+01 3.401470e+00
    endloop
  endfacet
  facet normal 9.866077e-02 -3.808164e-01 9.193720e-01
    outer loop
      vertex 3.284998e+01 -2.200000e+01 3.383972e+00
      vertex 3.484998e+01 -2.218945e+01 3.090889e+00
      vertex 3.484998e+01 -2.190002e+01 3.210770e+00
    endloop
  endfacet
  facet normal 9.866077e-02 -3.808164e-01 9.193720e-01
    outer loop
      vertex 3.484998e+01 -2.218945e+01 3.090889e+00
      vertex 3.284998e+01 -2.200000e+01 3.383972e+00
      vertex 3.284998e+01 -2.224121e+01 3.284073e+00
    endloop
  endfacet
  facet normal 9.866077e-02 -7.894827e-01 -6.057913e-01
    outer loop
      vertex 3.284998e+01 -2.179291e+01 4.957104e+00
      vertex 3.484998e+01 -2.146075e+01 4.849998e+00
      vertex 3.484998e+01 -2.165149e+01 5.098526e+00
    endloop
  endfacet
  facet normal 9.866077e-02 -7.894827e-01 -6.057913e-01
    outer loop
      vertex 3.484998e+01 -2.146075e+01 4.849998e+00
      vertex 3.284998e+01 -2.179291e+01 4.957104e+00
      vertex 3.284998e+01 -2.163397e+01 4.750000e+00
    endloop
  endfacet
  facet normal 9.866077e-02 9.193720e-01 3.808164e-01
    outer loop
      vertex 3.284998e+01 -2.336603e+01 3.750000e+00
      vertex 3.484998e+01 -2.365912e+01 3.939415e+00
      vertex 3.484998e+01 -2.353925e+01 3.649998e+00
    endloop
  endfacet
  facet normal 9.866077e-02 9.193720e-01 3.808164e-01
    outer loop
      vertex 3.484998e+01 -2.365912e+01 3.939415e+00
      vertex 3.284998e+01 -2.336603e+01 3.750000e+00
      vertex 3.284998e+01 -2.346594e+01 3.991180e+00
    endloop
  endfacet
  facet normal 9.866077e-02 -1.298894e-01 -9.866077e-01
    outer loop
      vertex 3.484998e+01 -2.250000e+01 5.449997e+00
      vertex 3.284998e+01 -2.224121e+01 5.215923e+00
      vertex 3.484998e+01 -2.218945e+01 5.409111e+00
    endloop
  endfacet
  facet normal 9.866077e-02 -1.298894e-01 -9.866077e-01
    outer loop
      vertex 3.284998e+01 -2.224121e+01 5.215923e+00
      vertex 3.484998e+01 -2.250000e+01 5.449997e+00
      vertex 3.284998e+01 -2.250000e+01 5.250000e+00
    endloop
  endfacet
  facet normal 9.866077e-02 -9.866077e-01 -1.298894e-01
    outer loop
      vertex 3.284998e+01 -2.153406e+01 4.508816e+00
      vertex 3.484998e+01 -2.129999e+01 4.250000e+00
      vertex 3.484998e+01 -2.134088e+01 4.560581e+00
    endloop
  endfacet
  facet normal 9.866077e-02 -9.866077e-01 -1.298894e-01
    outer loop
      vertex 3.484998e+01 -2.129999e+01 4.250000e+00
      vertex 3.284998e+01 -2.153406e+01 4.508816e+00
      vertex 3.284998e+01 -2.150000e+01 4.250000e+00
    endloop
  endfacet
  facet normal 9.866077e-02 3.808164e-01 -9.193720e-01
    outer loop
      vertex 3.484998e+01 -2.281061e+01 5.409111e+00
      vertex 3.284998e+01 -2.300000e+01 5.116024e+00
      vertex 3.284998e+01 -2.275885e+01 5.215923e+00
    endloop
  endfacet
  facet normal 9.866077e-02 3.808164e-01 -9.193720e-01
    outer loop
      vertex 3.284998e+01 -2.300000e+01 5.116024e+00
      vertex 3.484998e+01 -2.281061e+01 5.409111e+00
      vertex 3.484998e+01 -2.310004e+01 5.289230e+00
    endloop
  endfacet
  facet normal 9.866077e-02 -9.193720e-01 3.808164e-01
    outer loop
      vertex 3.284998e+01 -2.153406e+01 3.991180e+00
      vertex 3.484998e+01 -2.146075e+01 3.649998e+00
      vertex 3.484998e+01 -2.134088e+01 3.939415e+00
    endloop
  endfacet
  facet normal 9.866077e-02 -9.193720e-01 3.808164e-01
    outer loop
      vertex 3.484998e+01 -2.146075e+01 3.649998e+00
      vertex 3.284998e+01 -2.153406e+01 3.991180e+00
      vertex 3.284998e+01 -2.163397e+01 3.750000e+00
    endloop
  endfacet
  facet normal 9.866077e-02 7.894827e-01 -6.057913e-01
    outer loop
      vertex 3.284998e+01 -2.336603e+01 4.750000e+00
      vertex 3.484998e+01 -2.334851e+01 5.098526e+00
      vertex 3.484998e+01 -2.353925e+01 4.849998e+00
    endloop
  endfacet
  facet normal 9.866077e-02 7.894827e-01 -6.057913e-01
    outer loop
      vertex 3.484998e+01 -2.334851e+01 5.098526e+00
      vertex 3.284998e+01 -2.336603e+01 4.750000e+00
      vertex 3.284998e+01 -2.320709e+01 4.957104e+00
    endloop
  endfacet
  facet normal 9.866077e-02 -1.298894e-01 9.866077e-01
    outer loop
      vertex 3.284998e+01 -2.224121e+01 3.284073e+00
      vertex 3.484998e+01 -2.250000e+01 3.049999e+00
      vertex 3.484998e+01 -2.218945e+01 3.090889e+00
    endloop
  endfacet
  facet normal 9.866077e-02 -1.298894e-01 9.866077e-01
    outer loop
      vertex 3.484998e+01 -2.250000e+01 3.049999e+00
      vertex 3.284998e+01 -2.224121e+01 3.284073e+00
      vertex 3.284998e+01 -2.250000e+01 3.250000e+00
    endloop
  endfacet
  facet normal -1.000000e+00 7.765389e-16 2.446789e-15
    outer loop
      vertex 3.004999e+01 2.500000e+01 3.000000e+00
      vertex 3.004999e+01 -2.500000e+01 8.000000e+00
      vertex 3.004999e+01 2.500000e+01 8.000000e+00
    endloop
  endfacet
  facet normal -1.000000e+00 7.765389e-16 2.446789e-15
    outer loop
      vertex 3.004999e+01 -2.500000e+01 8.000000e+00
      vertex 3.004999e+01 2.500000e+01 3.000000e+00
      vertex 3.004999e+01 5.000000e+00 3.000000e+00
    endloop
  endfacet
  facet normal -1.000000e+00 7.765389e-16 2.446789e-15
    outer loop
      vertex 3.004999e+01 -2.500000e+01 8.000000e+00
      vertex 3.004999e+01 5.000000e+00 3.000000e+00
      vertex 3.004999e+01 -2.500000e+01 7.105427e-15
    endloop
  endfacet
  facet normal -1.000000e+00 7.765389e-16 2.446789e-15
    outer loop
      vertex 3.004999e+01 -2.500000e+01 7.105427e-15
      vertex 3.004999e+01 5.000000e+00 3.000000e+00
      vertex 3.004999e+01 4.000000e+00 7.105427e-15
    endloop
  endfacet
  facet normal 1.956885e-17 -9.486833e-01 3.162278e-01
    outer loop
      vertex -3.004999e+01 5.000000e+00 3.000000e+00
      vertex 3.004999e+01 4.000000e+00 7.105427e-15
      vertex 3.004999e+01 5.000000e+00 3.000000e+00
    endloop
  endfacet
  facet normal 1.956885e-17 -9.486833e-01 3.162278e-01
    outer loop
      vertex 3.004999e+01 4.000000e+00 7.105427e-15
      vertex -3.004999e+01 5.000000e+00 3.000000e+00
      vertex -3.004999e+01 4.000000e+00 0.000000e+00
    endloop
  endfacet
  facet normal 1.000000e+00 -3.498391e-15 3.151520e-14
    outer loop
      vertex -3.004999e+01 -2.500000e+01 0.000000e+00
      vertex -3.004999e+01 5.000000e+00 3.000000e+00
      vertex -3.004999e+01 -2.500000e+01 8.000000e+00
    endloop
  endfacet
  facet normal 1.000000e+00 -3.498391e-15 3.151520e-14
    outer loop
      vertex -3.004999e+01 5.000000e+00 3.000000e+00
      vertex -3.004999e+01 -2.500000e+01 0.000000e+00
      vertex -3.004999e+01 4.000000e+00 0.000000e+00
    endloop
  endfacet
  facet normal 1.000000e+00 -3.498391e-15 3.151520e-14
    outer loop
      vertex -3.004999e+01 -2.500000e+01 8.000000e+00
      vertex -3.004999e+01 2.500000e+01 3.000000e+00
      vertex -3.004999e+01 2.500000e+01 8.000000e+00
    endloop
  endfacet
  facet normal 1.000000e+00 -3.498391e-15 3.151520e-14
    outer loop
      vertex -3.004999e+01 2.500000e+01 3.000000e+00
      vertex -3.004999e+01 -2.500000e+01 8.000000e+00
      vertex -3.004999e+01 5.000000e+00 3.000000e+00
    endloop
  endfacet
  facet normal 1.224647e-16 7.498799e-33 -1.000000e+00
    outer loop
      vertex 3.484998e+01 2.500000e+01 7.105427e-15
      vertex 3.004999e+01 4.000000e+00 7.105427e-15
      vertex -3.284998e+01 2.500000e+01 0.000000e+00
    endloop
  endfacet
  facet normal 1.224647e-16 7.498799e-33 -1.000000e+00
    outer loop
      vertex 3.004999e+01 4.000000e+00 7.105427e-15
      vertex 3.484998e+01 2.500000e+01 7.105427e-15
      vertex 3.484998e+01 -2.500000e+01 7.105427e-15
    endloop
  endfacet
  facet normal 1.224647e-16 7.498799e-33 -1.000000e+00
    outer loop
      vertex -3.284998e+01 2.500000e+01 0.000000e+00
      vertex 3.004999e+01 4.000000e+00 7.105427e-15
      vertex -3.284998e+01 1.900000e+01 0.000000e+00
    endloop
  endfacet
  facet normal 1.224647e-16 7.498799e-33 -1.000000e+00
    outer loop
      vertex -3.284998e+01 1.900000e+01 0.000000e+00
      vertex 3.004999e+01 4.000000e+00 7.105427e-15
      vertex -3.484998e+01 1.900000e+01 0.000000e+00
    endloop
  endfacet
  facet normal 1.224647e-16 7.498799e-33 -1.000000e+00
    outer loop
      vertex 3.004999e+01 4.000000e+00 7.105427e-15
      vertex 3.484998e+01 -2.500000e+01 7.105427e-15
      vertex 3.004999e+01 -2.500000e+01 7.105427e-15
    endloop
  endfacet
  facet normal 1.224647e-16 7.498799e-33 -1.000000e+00
    outer loop
      vertex -3.484998e+01 1.900000e+01 0.000000e+00
      vertex -3.004999e+01 4.000000e+00 0.000000e+00
      vertex -3.484998e+01 -2.500000e+01 0.000000e+00
    endloop
  endfacet
  facet normal 1.224647e-16 7.498799e-33 -1.000000e+00
    outer loop
      vertex -3.004999e+01 4.000000e+00 0.000000e+00
      vertex -3.484998e+01 1.900000e+01 0.000000e+00
      vertex 3.004999e+01 4.000000e+00 7.105427e-15
    endloop
  endfacet
  facet normal 1.224647e-16 7.498799e-33 -1.000000e+00
    outer loop
      vertex -3.484998e+01 -2.500000e+01 0.000000e+00
      vertex -3.004999e+01 4.000000e+00 0.000000e+00
      vertex -3.004999e+01 -2.500000e+01 0.000000e+00
    endloop
  endfacet
  facet normal -9.215064e-16 -1.847859e-16 1.000000e+00
    outer loop
      vertex -3.484998e+01 -2.500000e+01 8.000000e+00
      vertex -3.204999e+01 1.600000e+01 8.000000e+00
      vertex -3.484998e+01 1.600000e+01 8.000000e+00
    endloop
  endfacet
  facet normal -9.215064e-16 -1.847859e-16 1.000000e+00
    outer loop
      vertex -3.204999e+01 1.600000e+01 8.000000e+00
      vertex -3.004999e+01 2.500000e+01 8.000000e+00
      vertex -3.204999e+01 2.500000e+01 8.000000e+00
    endloop
  endfacet
  facet normal -9.215064e-16 -1.847859e-16 1.000000e+00
    outer loop
      vertex -3.004999e+01 2.500000e+01 8.000000e+00
      vertex -3.204999e+01 1.600000e+01 8.000000e+00
      vertex -3.004999e+01 -2.500000e+01 8.000000e+00
    endloop
  endfacet
  facet normal -9.215064e-16 -1.847859e-16 1.000000e+00
    outer loop
      vertex -3.004999e+01 -2.500000e+01 8.000000e+00
      vertex -3.204999e+01 1.600000e+01 8.000000e+00
      vertex -3.484998e+01 -2.500000e+01 8.000000e+00
    endloop
  endfacet
  facet normal -1.224647e-16 -7.498799e-33 1.000000e+00
    outer loop
      vertex 3.204999e+01 1.000000e+01 1.055000e+01
      vertex 3.484998e+01 2.000000e+01 1.055000e+01
      vertex 3.204999e+01 2.000000e+01 1.055000e+01
    endloop
  endfacet
  facet normal -1.224647e-16 -7.498799e-33 1.000000e+00
    outer loop
      vertex 3.484998e+01 2.000000e+01 1.055000e+01
      vertex 3.204999e+01 1.000000e+01 1.055000e+01
      vertex 3.484998e+01 1.000000e+01 1.055000e+01
    endloop
  endfacet
  facet normal 6.123234e-17 -1.000000e+00 0.000000e+00
    outer loop
      vertex 3.204999e+01 1.600000e+01 8.549999e+00
      vertex 3.484998e+01 1.600000e+01 8.000000e+00
      vertex 3.484998e+01 1.600000e+01 8.549999e+00
    endloop
  endfacet
  facet normal 6.123234e-17 -1.000000e+00 0.000000e+00
    outer loop
      vertex 3.484998e+01 1.600000e+01 8.000000e+00
      vertex 3.204999e+01 1.600000e+01 8.549999e+00
      vertex 3.204999e+01 1.600000e+01 8.000000e+00
    endloop
  endfacet
  facet normal -1.224647e-16 -7.498799e-33 1.000000e+00
    outer loop
      vertex -3.484998e+01 1.000000e+01 1.055000e+01
      vertex -3.204999e+01 2.000000e+01 1.055000e+01
      vertex -3.484998e+01 2.000000e+01 1.055000e+01
    endloop
  endfacet
  facet normal -1.224647e-16 -7.498799e-33 1.000000e+00
    outer loop
      vertex -3.204999e+01 2.000000e+01 1.055000e+01
      vertex -3.484998e+01 1.000000e+01 1.055000e+01
      vertex -3.204999e+01 1.000000e+01 1.055000e+01
    endloop
  endfacet
  facet normal -1.224647e-16 -7.498799e-33 1.000000e+00
    outer loop
      vertex 3.004999e+01 -2.500000e+01 8.000000e+00
      vertex 3.204999e+01 2.500000e+01 8.000000e+00
      vertex 3.004999e+01 2.500000e+01 8.000000e+00
    endloop
  endfacet
  facet normal -1.224647e-16 -7.498799e-33 1.000000e+00
    outer loop
      vertex 3.204999e+01 2.500000e+01 8.000000e+00
      vertex 3.004999e+01 -2.500000e+01 8.000000e+00
      vertex 3.204999e+01 1.600000e+01 8.000000e+00
    endloop
  endfacet
  facet normal -1.224647e-16 -7.498799e-33 1.000000e+00
    outer loop
      vertex 3.204999e+01 1.600000e+01 8.000000e+00
      vertex 3.004999e+01 -2.500000e+01 8.000000e+00
      vertex 3.484998e+01 1.600000e+01 8.000000e+00
    endloop
  endfacet
  facet normal -1.224647e-16 -7.498799e-33 1.000000e+00
    outer loop
      vertex 3.484998e+01 1.600000e+01 8.000000e+00
      vertex 3.004999e+01 -2.500000e+01 8.000000e+00
      vertex 3.484998e+01 -2.500000e+01 8.000000e+00
    endloop
  endfacet
  facet normal 1.000000e+00 -5.461015e-15 7.774338e-15
    outer loop
      vertex -3.204999e+01 1.000000e+01 8.549999e+00
      vertex -3.204999e+01 2.000000e+01 1.055000e+01
      vertex -3.204999e+01 1.000000e+01 1.055000e+01
    endloop
  endfacet
  facet normal 1.000000e+00 -5.461015e-15 7.774338e-15
    outer loop
      vertex -3.204999e+01 2.000000e+01 1.055000e+01
      vertex -3.204999e+01 1.000000e+01 8.549999e+00
      vertex -3.204999e+01 2.000000e+01 9.549999e+00
    endloop
  endfacet
  facet normal 1.000000e+00 -5.461015e-15 7.774338e-15
    outer loop
      vertex -3.204999e+01 2.000000e+01 9.549999e+00
      vertex -3.204999e+01 1.000000e+01 8.549999e+00
      vertex -3.204999e+01 2.500000e+01 9.549999e+00
    endloop
  endfacet
  facet normal 1.000000e+00 -5.461015e-15 7.774338e-15
    outer loop
      vertex -3.204999e+01 2.500000e+01 9.549999e+00
      vertex -3.204999e+01 1.000000e+01 8.549999e+00
      vertex -3.204999e+01 1.600000e+01 8.549999e+00
    endloop
  endfacet
  facet normal 1.000000e+00 -5.461015e-15 7.774338e-15
    outer loop
      vertex -3.204999e+01 2.500000e+01 9.549999e+00
      vertex -3.204999e+01 1.600000e+01 8.549999e+00
      vertex -3.204999e+01 2.500000e+01 8.000000e+00
    endloop
  endfacet
  facet normal 1.000000e+00 -5.461015e-15 7.774338e-15
    outer loop
      vertex -3.204999e+01 2.500000e+01 8.000000e+00
      vertex -3.204999e+01 1.600000e+01 8.549999e+00
      vertex -3.204999e+01 1.600000e+01 8.000000e+00
    endloop
  endfacet
  facet normal -1.643960e-14 -1.000000e+00 -3.910960e-30
    outer loop
      vertex -3.484998e+01 1.600000e+01 8.549999e+00
      vertex -3.204999e+01 1.600000e+01 8.000000e+00
      vertex -3.204999e+01 1.600000e+01 8.549999e+00
    endloop
  endfacet
  facet normal -1.643960e-14 -1.000000e+00 -3.910960e-30
    outer loop
      vertex -3.204999e+01 1.600000e+01 8.000000e+00
      vertex -3.484998e+01 1.600000e+01 8.549999e+00
      vertex -3.484998e+01 1.600000e+01 8.000000e+00
    endloop
  endfacet
  facet normal -1.643960e-14 -1.000000e+00 -2.020769e-30
    outer loop
      vertex -3.484998e+01 1.000000e+01 1.055000e+01
      vertex -3.204999e+01 1.000000e+01 8.549999e+00
      vertex -3.204999e+01 1.000000e+01 1.055000e+01
    endloop
  endfacet
  facet normal -1.643960e-14 -1.000000e+00 -2.020769e-30
    outer loop
      vertex -3.204999e+01 1.000000e+01 8.549999e+00
      vertex -3.484998e+01 1.000000e+01 1.055000e+01
      vertex -3.484998e+01 1.000000e+01 8.549999e+00
    endloop
  endfacet
  facet normal 1.224647e-16 7.498799e-33 -1.000000e+00
    outer loop
      vertex -3.204999e+01 1.600000e+01 8.549999e+00
      vertex -3.484998e+01 1.000000e+01 8.549999e+00
      vertex -3.484998e+01 1.600000e+01 8.549999e+00
    endloop
  endfacet
  facet normal 1.224647e-16 7.498799e-33 -1.000000e+00
    outer loop
      vertex -3.484998e+01 1.000000e+01 8.549999e+00
      vertex -3.204999e+01 1.600000e+01 8.549999e+00
      vertex -3.204999e+01 1.000000e+01 8.549999e+00
    endloop
  endfacet
  facet normal 6.123234e-17 -1.000000e+00 0.000000e+00
    outer loop
      vertex 3.204999e+01 1.000000e+01 1.055000e+01
      vertex 3.484998e+01 1.000000e+01 8.549999e+00
      vertex 3.484998e+01 1.000000e+01 1.055000e+01
    endloop
  endfacet
  facet normal 6.123234e-17 -1.000000e+00 0.000000e+00
    outer loop
      vertex 3.484998e+01 1.000000e+01 8.549999e+00
      vertex 3.204999e+01 1.000000e+01 1.055000e+01
      vertex 3.204999e+01 1.000000e+01 8.549999e+00
    endloop
  endfacet
  facet normal 1.224647e-16 7.498799e-33 -1.000000e+00
    outer loop
      vertex 3.484998e+01 1.000000e+01 8.549999e+00
      vertex 3.204999e+01 1.600000e+01 8.549999e+00
      vertex 3.484998e+01 1.600000e+01 8.549999e+00
    endloop
  endfacet
  facet normal 1.224647e-16 7.498799e-33 -1.000000e+00
    outer loop
      vertex 3.204999e+01 1.600000e+01 8.549999e+00
      vertex 3.484998e+01 1.000000e+01 8.549999e+00
      vertex 3.204999e+01 1.000000e+01 8.549999e+00
    endloop
  endfacet
  facet normal -2.185594e-16 2.887646e-16 1.000000e+00
    outer loop
      vertex -3.004999e+01 5.000000e+00 3.000000e+00
      vertex 3.004999e+01 2.500000e+01 3.000000e+00
      vertex -3.004999e+01 2.500000e+01 3.000000e+00
    endloop
  endfacet
  facet normal -2.185594e-16 2.887646e-16 1.000000e+00
    outer loop
      vertex 3.004999e+01 2.500000e+01 3.000000e+00
      vertex -3.004999e+01 5.000000e+00 3.000000e+00
      vertex 3.004999e+01 5.000000e+00 3.000000e+00
    endloop
  endfacet
  facet normal -1.000000e+00 4.343349e-16 -7.109305e-15
    outer loop
      vertex -3.484998e+01 1.900000e+01 0.000000e+00
      vertex -3.484998e+01 -2.250000e+01 5.449997e+00
      vertex -3.484998e+01 1.900000e+01 6.000000e+00
    endloop
  endfacet
  facet normal -1.000000e+00 4.343349e-16 -7.109305e-15
    outer loop
      vertex -3.484998e+01 -2.250000e+01 5.449997e+00
      vertex -3.484998e+01 1.900000e+01 0.000000e+00
      vertex -3.484998e+01 -2.218945e+01 5.409111e+00
    endloop
  endfacet
  facet normal -1.000000e+00 4.343349e-16 -7.109305e-15
    outer loop
      vertex -3.484998e+01 -2.218945e+01 5.409111e+00
      vertex -3.484998e+01 1.900000e+01 0.000000e+00
      vertex -3.484998e+01 -2.190002e+01 5.289230e+00
    endloop
  endfacet
  facet normal -1.000000e+00 4.343349e-16 -7.109305e-15
    outer loop
      vertex -3.484998e+01 -2.190002e+01 5.289230e+00
      vertex -3.484998e+01 1.900000e+01 0.000000e+00
      vertex -3.484998e+01 -2.165149e+01 5.098526e+00
    endloop
  endfacet
  facet normal -1.000000e+00 4.343349e-16 -7.109305e-15
    outer loop
      vertex -3.484998e+01 -2.165149e+01 5.098526e+00
      vertex -3.484998e+01 1.900000e+01 0.000000e+00
      vertex -3.484998e+01 -2.146075e+01 4.849998e+00
    endloop
  endfacet
  facet normal -1.000000e+00 4.343349e-16 -7.109305e-15
    outer loop
      vertex -3.484998e+01 -2.146075e+01 4.849998e+00
      vertex -3.484998e+01 1.900000e+01 0.000000e+00
      vertex -3.484998e+01 -2.134088e+01 4.560581e+00
    endloop
  endfacet
  facet normal -1.000000e+00 4.343349e-16 -7.109305e-15
    outer loop
      vertex -3.484998e+01 -2.134088e+01 4.560581e+00
      vertex -3.484998e+01 1.900000e+01 0.000000e+00
      vertex -3.484998e+01 -2.129999e+01 4.250000e+00
    endloop
  endfacet
  facet normal -1.000000e+00 4.343349e-16 -7.109305e-15
    outer loop
      vertex -3.484998e+01 -2.129999e+01 4.250000e+00
      vertex -3.484998e+01 1.900000e+01 0.000000e+00
      vertex -3.484998e+01 -2.134088e+01 3.939415e+00
    endloop
  endfacet
  facet normal -1.000000e+00 4.343349e-16 -7.109305e-15
    outer loop
      vertex -3.484998e+01 -2.134088e+01 3.939415e+00
      vertex -3.484998e+01 1.900000e+01 0.000000e+00
      vertex -3.484998e+01 -2.146075e+01 3.649998e+00
    endloop
  endfacet
  facet normal -1.000000e+00 4.343349e-16 -7.109305e-15
    outer loop
      vertex -3.484998e+01 -2.146075e+01 3.649998e+00
      vertex -3.484998e+01 1.900000e+01 0.000000e+00
      vertex -3.484998e+01 -2.165149e+01 3.401470e+00
    endloop
  endfacet
  facet normal -1.000000e+00 4.343349e-16 -7.109305e-15
    outer loop
      vertex -3.484998e+01 -2.165149e+01 3.401470e+00
      vertex -3.484998e+01 1.900000e+01 0.000000e+00
      vertex -3.484998e+01 -2.190002e+01 3.210770e+00
    endloop
  endfacet
  facet normal -1.000000e+00 4.343349e-16 -7.109305e-15
    outer loop
      vertex -3.484998e+01 -2.190002e+01 3.210770e+00
      vertex -3.484998e+01 1.900000e+01 0.000000e+00
      vertex -3.484998e+01 -2.218945e+01 3.090889e+00
    endloop
  endfacet
  facet normal -1.000000e+00 4.343349e-16 -7.109305e-15
    outer loop
      vertex -3.484998e+01 -2.218945e+01 3.090889e+00
      vertex -3.484998e+01 1.900000e+01 0.000000e+00
      vertex -3.484998e+01 -2.250000e+01 3.049999e+00
    endloop
  endfacet
  facet normal -1.000000e+00 4.343349e-16 -7.109305e-15
    outer loop
      vertex -3.484998e+01 2.500000e+01 6.000000e+00
      vertex -3.484998e+01 2.000000e+01 9.549999e+00
      vertex -3.484998e+01 2.500000e+01 9.549999e+00
    endloop
  endfacet
  facet normal -1.000000e+00 4.343349e-16 -7.109305e-15
    outer loop
      vertex -3.484998e+01 2.000000e+01 9.549999e+00
      vertex -3.484998e+01 2.500000e+01 6.000000e+00
      vertex -3.484998e+01 1.600000e+01 8.549999e+00
    endloop
  endfacet
  facet normal -1.000000e+00 4.343349e-16 -7.109305e-15
    outer loop
      vertex -3.484998e+01 1.600000e+01 8.549999e+00
      vertex -3.484998e+01 2.500000e+01 6.000000e+00
      vertex -3.484998e+01 1.600000e+01 8.000000e+00
    endloop
  endfacet
  facet normal -1.000000e+00 4.343349e-16 -7.109305e-15
    outer loop
      vertex -3.484998e+01 1.600000e+01 8.000000e+00
      vertex -3.484998e+01 2.500000e+01 6.000000e+00
      vertex -3.484998e+01 -2.500000e+01 8.000000e+00
    endloop
  endfacet
  facet normal -1.000000e+00 4.343349e-16 -7.109305e-15
    outer loop
      vertex -3.484998e+01 -2.500000e+01 8.000000e+00
      vertex -3.484998e+01 2.500000e+01 6.000000e+00
      vertex -3.484998e+01 1.900000e+01 6.000000e+00
    endloop
  endfacet
  facet normal -1.000000e+00 4.343349e-16 -7.109305e-15
    outer loop
      vertex -3.484998e+01 -2.500000e+01 8.000000e+00
      vertex -3.484998e+01 1.900000e+01 6.000000e+00
      vertex -3.484998e+01 -2.250000e+01 5.449997e+00
    endloop
  endfacet
  facet normal -1.000000e+00 4.343349e-16 -7.109305e-15
    outer loop
      vertex -3.484998e+01 -2.500000e+01 8.000000e+00
      vertex -3.484998e+01 -2.250000e+01 5.449997e+00
      vertex -3.484998e+01 -2.281061e+01 5.409111e+00
    endloop
  endfacet
  facet normal -1.000000e+00 4.343349e-16 -7.109305e-15
    outer loop
      vertex -3.484998e+01 -2.500000e+01 8.000000e+00
      vertex -3.484998e+01 -2.281061e+01 5.409111e+00
      vertex -3.484998e+01 -2.310004e+01 5.289230e+00
    endloop
  endfacet
  facet normal -1.000000e+00 4.343349e-16 -7.109305e-15
    outer loop
      vertex -3.484998e+01 -2.500000e+01 8.000000e+00
      vertex -3.484998e+01 -2.310004e+01 5.289230e+00
      vertex -3.484998e+01 -2.334851e+01 5.098526e+00
    endloop
  endfacet
  facet normal -1.000000e+00 4.343349e-16 -7.109305e-15
    outer loop
      vertex -3.484998e+01 -2.500000e+01 8.000000e+00
      vertex -3.484998e+01 -2.334851e+01 5.098526e+00
      vertex -3.484998e+01 -2.353925e+01 4.849998e+00
    endloop
  endfacet
  facet normal -1.000000e+00 4.343349e-16 -7.109305e-15
    outer loop
      vertex -3.484998e+01 -2.500000e+01 8.000000e+00
      vertex -3.484998e+01 -2.353925e+01 4.849998e+00
      vertex -3.484998e+01 -2.365912e+01 4.560581e+00
    endloop
  endfacet
  facet normal -1.000000e+00 4.343349e-16 -7.109305e-15
    outer loop
      vertex -3.484998e+01 -2.500000e+01 8.000000e+00
      vertex -3.484998e+01 -2.365912e+01 4.560581e+00
      vertex -3.484998e+01 -2.500000e+01 0.000000e+00
    endloop
  endfacet
  facet normal -1.000000e+00 4.343349e-16 -7.109305e-15
    outer loop
      vertex -3.484998e+01 -2.500000e+01 0.000000e+00
      vertex -3.484998e+01 -2.365912e+01 4.560581e+00
      vertex -3.484998e+01 -2.370001e+01 4.250000e+00
    endloop
  endfacet
  facet normal -1.000000e+00 4.343349e-16 -7.109305e-15
    outer loop
      vertex -3.484998e+01 -2.500000e+01 0.000000e+00
      vertex -3.484998e+01 -2.370001e+01 4.250000e+00
      vertex -3.484998e+01 -2.365912e+01 3.939415e+00
    endloop
  endfacet
  facet normal -1.000000e+00 4.343349e-16 -7.109305e-15
    outer loop
      vertex -3.484998e+01 -2.500000e+01 0.000000e+00
      vertex -3.484998e+01 -2.365912e+01 3.939415e+00
      vertex -3.484998e+01 -2.353925e+01 3.649998e+00
    endloop
  endfacet
  facet normal -1.000000e+00 4.343349e-16 -7.109305e-15
    outer loop
      vertex -3.484998e+01 -2.500000e+01 0.000000e+00
      vertex -3.484998e+01 -2.353925e+01 3.649998e+00
      vertex -3.484998e+01 -2.334851e+01 3.401470e+00
    endloop
  endfacet
  facet normal -1.000000e+00 4.343349e-16 -7.109305e-15
    outer loop
      vertex -3.484998e+01 -2.500000e+01 0.000000e+00
      vertex -3.484998e+01 -2.334851e+01 3.401470e+00
      vertex -3.484998e+01 -2.310004e+01 3.210770e+00
    endloop
  endfacet
  facet normal -1.000000e+00 4.343349e-16 -7.109305e-15
    outer loop
      vertex -3.484998e+01 -2.500000e+01 0.000000e+00
      vertex -3.484998e+01 -2.310004e+01 3.210770e+00
      vertex -3.484998e+01 -2.281061e+01 3.090889e+00
    endloop
  endfacet
  facet normal -1.000000e+00 4.343349e-16 -7.109305e-15
    outer loop
      vertex -3.484998e+01 -2.500000e+01 0.000000e+00
      vertex -3.484998e+01 -2.281061e+01 3.090889e+00
      vertex -3.484998e+01 -2.250000e+01 3.049999e+00
    endloop
  endfacet
  facet normal -1.000000e+00 4.343349e-16 -7.109305e-15
    outer loop
      vertex -3.484998e+01 -2.500000e+01 0.000000e+00
      vertex -3.484998e+01 -2.250000e+01 3.049999e+00
      vertex -3.484998e+01 1.900000e+01 0.000000e+00
    endloop
  endfacet
  facet normal -1.000000e+00 4.343349e-16 -7.109305e-15
    outer loop
      vertex -3.484998e+01 2.000000e+01 9.549999e+00
      vertex -3.484998e+01 1.000000e+01 1.055000e+01
      vertex -3.484998e+01 2.000000e+01 1.055000e+01
    endloop
  endfacet
  facet normal -1.000000e+00 4.343349e-16 -7.109305e-15
    outer loop
      vertex -3.484998e+01 1.000000e+01 1.055000e+01
      vertex -3.484998e+01 2.000000e+01 9.549999e+00
      vertex -3.484998e+01 1.000000e+01 8.549999e+00
    endloop
  endfacet
  facet normal -1.000000e+00 4.343349e-16 -7.109305e-15
    outer loop
      vertex -3.484998e+01 1.000000e+01 8.549999e+00
      vertex -3.484998e+01 2.000000e+01 9.549999e+00
      vertex -3.484998e+01 1.600000e+01 8.549999e+00
    endloop
  endfacet
  facet normal -1.224647e-16 -7.498799e-33 1.000000e+00
    outer loop
      vertex -3.484998e+01 2.000000e+01 9.549999e+00
      vertex -3.204999e+01 2.500000e+01 9.549999e+00
      vertex -3.484998e+01 2.500000e+01 9.549999e+00
    endloop
  endfacet
  facet normal -1.224647e-16 -7.498799e-33 1.000000e+00
    outer loop
      vertex -3.204999e+01 2.500000e+01 9.549999e+00
      vertex -3.484998e+01 2.000000e+01 9.549999e+00
      vertex -3.204999e+01 2.000000e+01 9.549999e+00
    endloop
  endfacet
  facet normal -6.123234e-17 1.000000e+00 -0.000000e+00
    outer loop
      vertex -3.484998e+01 2.000000e+01 9.549999e+00
      vertex -3.204999e+01 2.000000e+01 1.055000e+01
      vertex -3.204999e+01 2.000000e+01 9.549999e+00
    endloop
  endfacet
  facet normal -6.123234e-17 1.000000e+00 -0.000000e+00
    outer loop
      vertex -3.204999e+01 2.000000e+01 1.055000e+01
      vertex -3.484998e+01 2.000000e+01 9.549999e+00
      vertex -3.484998e+01 2.000000e+01 1.055000e+01
    endloop
  endfacet
  facet normal -1.000000e+00 -6.123234e-17 -1.224647e-16
    outer loop
      vertex 3.204999e+01 2.500000e+01 8.000000e+00
      vertex 3.204999e+01 2.000000e+01 9.549999e+00
      vertex 3.204999e+01 2.500000e+01 9.549999e+00
    endloop
  endfacet
  facet normal -1.000000e+00 -6.123234e-17 -1.224647e-16
    outer loop
      vertex 3.204999e+01 2.000000e+01 9.549999e+00
      vertex 3.204999e+01 2.500000e+01 8.000000e+00
      vertex 3.204999e+01 1.600000e+01 8.549999e+00
    endloop
  endfacet
  facet normal -1.000000e+00 -6.123234e-17 -1.224647e-16
    outer loop
      vertex 3.204999e+01 1.600000e+01 8.549999e+00
      vertex 3.204999e+01 2.500000e+01 8.000000e+00
      vertex 3.204999e+01 1.600000e+01 8.000000e+00
    endloop
  endfacet
  facet normal -1.000000e+00 -6.123234e-17 -1.224647e-16
    outer loop
      vertex 3.204999e+01 2.000000e+01 9.549999e+00
      vertex 3.204999e+01 1.000000e+01 1.055000e+01
      vertex 3.204999e+01 2.000000e+01 1.055000e+01
    endloop
  endfacet
  facet normal -1.000000e+00 -6.123234e-17 -1.224647e-16
    outer loop
      vertex 3.204999e+01 1.000000e+01 1.055000e+01
      vertex 3.204999e+01 2.000000e+01 9.549999e+00
      vertex 3.204999e+01 1.000000e+01 8.549999e+00
    endloop
  endfacet
  facet normal -1.000000e+00 -6.123234e-17 -1.224647e-16
    outer loop
      vertex 3.204999e+01 1.000000e+01 8.549999e+00
      vertex 3.204999e+01 2.000000e+01 9.549999e+00
      vertex 3.204999e+01 1.600000e+01 8.549999e+00
    endloop
  endfacet
  facet normal -1.224647e-16 -7.498799e-33 1.000000e+00
    outer loop
      vertex 3.204999e+01 2.000000e+01 9.549999e+00
      vertex 3.484998e+01 2.500000e+01 9.549999e+00
      vertex 3.204999e+01 2.500000e+01 9.549999e+00
    endloop
  endfacet
  facet normal -1.224647e-16 -7.498799e-33 1.000000e+00
    outer loop
      vertex 3.484998e+01 2.500000e+01 9.549999e+00
      vertex 3.204999e+01 2.000000e+01 9.549999e+00
      vertex 3.484998e+01 2.000000e+01 9.549999e+00
    endloop
  endfacet
  facet normal -6.123234e-17 1.000000e+00 -0.000000e+00
    outer loop
      vertex 3.204999e+01 2.000000e+01 9.549999e+00
      vertex 3.484998e+01 2.000000e+01 1.055000e+01
      vertex 3.484998e+01 2.000000e+01 9.549999e+00
    endloop
  endfacet
  facet normal -6.123234e-17 1.000000e+00 -0.000000e+00
    outer loop
      vertex 3.484998e+01 2.000000e+01 1.055000e+01
      vertex 3.204999e+01 2.000000e+01 9.549999e+00
      vertex 3.204999e+01 2.000000e+01 1.055000e+01
    endloop
  endfacet
  facet normal -1.000000e+00 -6.123234e-17 -1.224647e-16
    outer loop
      vertex -3.284998e+01 2.500000e+01 0.000000e+00
      vertex -3.284998e+01 1.900000e+01 4.000000e+00
      vertex -3.284998e+01 2.500000e+01 4.000000e+00
    endloop
  endfacet
  facet normal -1.000000e+00 -6.123234e-17 -1.224647e-16
    outer loop
      vertex -3.284998e+01 1.900000e+01 4.000000e+00
      vertex -3.284998e+01 2.500000e+01 0.000000e+00
      vertex -3.284998e+01 1.900000e+01 0.000000e+00
    endloop
  endfacet
  facet normal -6.123234e-17 1.000000e+00 -0.000000e+00
    outer loop
      vertex -3.484998e+01 1.900000e+01 0.000000e+00
      vertex -3.284998e+01 1.900000e+01 4.000000e+00
      vertex -3.284998e+01 1.900000e+01 0.000000e+00
    endloop
  endfacet
  facet normal -6.123234e-17 1.000000e+00 -0.000000e+00
    outer loop
      vertex -3.284998e+01 1.900000e+01 4.000000e+00
      vertex -3.484998e+01 1.900000e+01 0.000000e+00
      vertex -3.484998e+01 1.900000e+01 6.000000e+00
    endloop
  endfacet
  facet normal -7.071068e-01 -4.329780e-17 -7.071068e-01
    outer loop
      vertex -3.284998e+01 1.900000e+01 4.000000e+00
      vertex -3.484998e+01 2.500000e+01 6.000000e+00
      vertex -3.284998e+01 2.500000e+01 4.000000e+00
    endloop
  endfacet
  facet normal -7.071068e-01 -4.329780e-17 -7.071068e-01
    outer loop
      vertex -3.484998e+01 2.500000e+01 6.000000e+00
      vertex -3.284998e+01 1.900000e+01 4.000000e+00
      vertex -3.484998e+01 1.900000e+01 6.000000e+00
    endloop
  endfacet
endsolid Default
