solid MIDIBox
facet normal -0.923879532511266 -0.38268343236514 0.0
  outer loop
    vertex -697.830431227459 896.012877625898 13.0
    vertex -697.655605488076 895.590810954827 0.999999999999807
    vertex -697.655605488076 895.590810954827 13.0
  endloop
endfacet
facet normal -0.923879532511266 -0.38268343236514 0.0
  outer loop
    vertex -697.655605488076 895.590810954827 0.999999999999807
    vertex -697.830431227459 896.012877625898 13.0
    vertex -697.830431227459 896.012877625898 0.999999999999807
  endloop
endfacet
facet normal 0.923879532511266 -0.38268343236514 0.0
  outer loop
    vertex -700.861520140705 896.012877625898 0.999999999999807
    vertex -701.036345880088 895.590810954827 13.0
    vertex -701.036345880088 895.590810954827 0.999999999999807
  endloop
endfacet
facet normal 0.923879532511266 -0.38268343236514 0.0
  outer loop
    vertex -701.036345880088 895.590810954827 13.0
    vertex -700.861520140705 896.012877625898 0.999999999999807
    vertex -700.861520140705 896.012877625898 13.0
  endloop
endfacet
facet normal 0.991444861373823 0.130526192219953 0.0
  outer loop
    vertex -701.095975684082 895.137877625898 0.999999999999807
    vertex -701.036345880088 894.684944296968 13.0
    vertex -701.036345880088 894.684944296968 0.999999999999807
  endloop
endfacet
facet normal 0.991444861373823 0.130526192219953 0.0
  outer loop
    vertex -701.036345880088 894.684944296968 13.0
    vertex -701.095975684082 895.137877625898 0.999999999999807
    vertex -701.095975684082 895.137877625898 13.0
  endloop
endfacet
facet normal 0.793353340291178 0.608761429008795 0.0
  outer loop
    vertex -700.861520140705 894.262877625898 0.999999999999807
    vertex -700.583412551158 893.900440758821 13.0
    vertex -700.583412551158 893.900440758821 0.999999999999807
  endloop
endfacet
facet normal 0.793353340291178 0.608761429008795 0.0
  outer loop
    vertex -700.583412551158 893.900440758821 13.0
    vertex -700.861520140705 894.262877625898 0.999999999999807
    vertex -700.861520140705 894.262877625898 13.0
  endloop
endfacet
facet normal -0.793353340291276 -0.608761429008668 0.0
  outer loop
    vertex -698.108538817005 896.375314492974 13.0
    vertex -697.830431227459 896.012877625898 0.999999999999807
    vertex -697.830431227459 896.012877625898 13.0
  endloop
endfacet
facet normal -0.793353340291276 -0.608761429008668 0.0
  outer loop
    vertex -697.830431227459 896.012877625898 0.999999999999807
    vertex -698.108538817005 896.375314492974 13.0
    vertex -698.108538817005 896.375314492974 0.999999999999807
  endloop
endfacet
facet normal -0.608761429008541 -0.793353340291373 0.0
  outer loop
    vertex -698.108538817005 896.375314492974 13.0
    vertex -698.470975684082 896.65342208252 0.999999999999807
    vertex -698.108538817005 896.375314492974 0.999999999999807
  endloop
endfacet
facet normal -0.608761429008541 -0.793353340291373 0.0
  outer loop
    vertex -698.470975684082 896.65342208252 0.999999999999807
    vertex -698.108538817005 896.375314492974 13.0
    vertex -698.470975684082 896.65342208252 13.0
  endloop
endfacet
facet normal 0.608761429008541 -0.793353340291373 0.0
  outer loop
    vertex -700.220975684082 896.65342208252 13.0
    vertex -700.583412551158 896.375314492974 0.999999999999807
    vertex -700.220975684082 896.65342208252 0.999999999999807
  endloop
endfacet
facet normal 0.608761429008541 -0.793353340291373 0.0
  outer loop
    vertex -700.583412551158 896.375314492974 0.999999999999807
    vertex -700.220975684082 896.65342208252 13.0
    vertex -700.583412551158 896.375314492974 13.0
  endloop
endfacet
facet normal -0.991444861373823 -0.130526192219953 0.0
  outer loop
    vertex -697.655605488076 895.590810954827 13.0
    vertex -697.595975684082 895.137877625898 0.999999999999807
    vertex -697.595975684082 895.137877625898 13.0
  endloop
endfacet
facet normal -0.991444861373823 -0.130526192219953 0.0
  outer loop
    vertex -697.595975684082 895.137877625898 0.999999999999807
    vertex -697.655605488076 895.590810954827 13.0
    vertex -697.655605488076 895.590810954827 0.999999999999807
  endloop
endfacet
facet normal 0.793353340291276 -0.608761429008668 0.0
  outer loop
    vertex -700.583412551158 896.375314492974 0.999999999999807
    vertex -700.861520140705 896.012877625898 13.0
    vertex -700.861520140705 896.012877625898 0.999999999999807
  endloop
endfacet
facet normal 0.793353340291276 -0.608761429008668 0.0
  outer loop
    vertex -700.861520140705 896.012877625898 13.0
    vertex -700.583412551158 896.375314492974 0.999999999999807
    vertex -700.583412551158 896.375314492974 13.0
  endloop
endfacet
facet normal -0.130526192220178 0.991444861373794 0.0
  outer loop
    vertex -699.345975684082 893.387877625898 13.0
    vertex -698.893042355152 893.447507429892 0.999999999999807
    vertex -699.345975684082 893.387877625898 0.999999999999807
  endloop
endfacet
facet normal -0.130526192220178 0.991444861373794 0.0
  outer loop
    vertex -698.893042355152 893.447507429892 0.999999999999807
    vertex -699.345975684082 893.387877625898 13.0
    vertex -698.893042355152 893.447507429892 13.0
  endloop
endfacet
facet normal -0.382683432365068 -0.923879532511296 0.0
  outer loop
    vertex -698.470975684082 896.65342208252 13.0
    vertex -698.893042355152 896.828247821903 0.999999999999807
    vertex -698.470975684082 896.65342208252 0.999999999999807
  endloop
endfacet
facet normal -0.382683432365068 -0.923879532511296 0.0
  outer loop
    vertex -698.893042355152 896.828247821903 0.999999999999807
    vertex -698.470975684082 896.65342208252 13.0
    vertex -698.893042355152 896.828247821903 13.0
  endloop
endfacet
facet normal 0.130526192220178 0.991444861373794 0.0
  outer loop
    vertex -699.798909013011 893.447507429892 13.0
    vertex -699.345975684082 893.387877625898 0.999999999999807
    vertex -699.798909013011 893.447507429892 0.999999999999807
  endloop
endfacet
facet normal 0.130526192220178 0.991444861373794 0.0
  outer loop
    vertex -699.345975684082 893.387877625898 0.999999999999807
    vertex -699.798909013011 893.447507429892 13.0
    vertex -699.345975684082 893.387877625898 13.0
  endloop
endfacet
facet normal -0.991444861373823 0.130526192219953 0.0
  outer loop
    vertex -697.595975684082 895.137877625898 13.0
    vertex -697.655605488076 894.684944296968 0.999999999999807
    vertex -697.655605488076 894.684944296968 13.0
  endloop
endfacet
facet normal -0.991444861373823 0.130526192219953 0.0
  outer loop
    vertex -697.655605488076 894.684944296968 0.999999999999807
    vertex -697.595975684082 895.137877625898 13.0
    vertex -697.595975684082 895.137877625898 0.999999999999807
  endloop
endfacet
facet normal -0.793353340291276 0.608761429008668 0.0
  outer loop
    vertex -697.830431227459 894.262877625898 13.0
    vertex -698.108538817005 893.900440758821 0.999999999999807
    vertex -698.108538817005 893.900440758821 13.0
  endloop
endfacet
facet normal -0.793353340291276 0.608761429008668 0.0
  outer loop
    vertex -698.108538817005 893.900440758821 0.999999999999807
    vertex -697.830431227459 894.262877625898 13.0
    vertex -697.830431227459 894.262877625898 0.999999999999807
  endloop
endfacet
facet normal 0.923879532511266 0.38268343236514 0.0
  outer loop
    vertex -701.036345880088 894.684944296968 0.999999999999807
    vertex -700.861520140705 894.262877625898 13.0
    vertex -700.861520140705 894.262877625898 0.999999999999807
  endloop
endfacet
facet normal 0.923879532511266 0.38268343236514 0.0
  outer loop
    vertex -700.861520140705 894.262877625898 13.0
    vertex -701.036345880088 894.684944296968 0.999999999999807
    vertex -701.036345880088 894.684944296968 13.0
  endloop
endfacet
facet normal 0.382683432365068 0.923879532511296 0.0
  outer loop
    vertex -700.220975684082 893.622333169275 13.0
    vertex -699.798909013011 893.447507429892 0.999999999999807
    vertex -700.220975684082 893.622333169275 0.999999999999807
  endloop
endfacet
facet normal 0.382683432365068 0.923879532511296 0.0
  outer loop
    vertex -699.798909013011 893.447507429892 0.999999999999807
    vertex -700.220975684082 893.622333169275 13.0
    vertex -699.798909013011 893.447507429892 13.0
  endloop
endfacet
facet normal 0.991444861373823 -0.130526192219953 0.0
  outer loop
    vertex -701.036345880088 895.590810954827 0.999999999999807
    vertex -701.095975684082 895.137877625898 13.0
    vertex -701.095975684082 895.137877625898 0.999999999999807
  endloop
endfacet
facet normal 0.991444861373823 -0.130526192219953 0.0
  outer loop
    vertex -701.095975684082 895.137877625898 13.0
    vertex -701.036345880088 895.590810954827 0.999999999999807
    vertex -701.036345880088 895.590810954827 13.0
  endloop
endfacet
facet normal -0.382683432365068 0.923879532511296 0.0
  outer loop
    vertex -698.893042355152 893.447507429892 13.0
    vertex -698.470975684082 893.622333169275 0.999999999999807
    vertex -698.893042355152 893.447507429892 0.999999999999807
  endloop
endfacet
facet normal -0.382683432365068 0.923879532511296 0.0
  outer loop
    vertex -698.470975684082 893.622333169275 0.999999999999807
    vertex -698.893042355152 893.447507429892 13.0
    vertex -698.470975684082 893.622333169275 13.0
  endloop
endfacet
facet normal -0.923879532511266 0.38268343236514 0.0
  outer loop
    vertex -697.655605488076 894.684944296968 13.0
    vertex -697.830431227459 894.262877625898 0.999999999999807
    vertex -697.830431227459 894.262877625898 13.0
  endloop
endfacet
facet normal -0.923879532511266 0.38268343236514 0.0
  outer loop
    vertex -697.830431227459 894.262877625898 0.999999999999807
    vertex -697.655605488076 894.684944296968 13.0
    vertex -697.655605488076 894.684944296968 0.999999999999807
  endloop
endfacet
facet normal -0.608761429008541 0.793353340291373 0.0
  outer loop
    vertex -698.470975684082 893.622333169275 13.0
    vertex -698.108538817005 893.900440758821 0.999999999999807
    vertex -698.470975684082 893.622333169275 0.999999999999807
  endloop
endfacet
facet normal -0.608761429008541 0.793353340291373 0.0
  outer loop
    vertex -698.108538817005 893.900440758821 0.999999999999807
    vertex -698.470975684082 893.622333169275 13.0
    vertex -698.108538817005 893.900440758821 13.0
  endloop
endfacet
facet normal 0.608761429008638 0.793353340291298 0.0
  outer loop
    vertex -700.583412551158 893.900440758821 13.0
    vertex -700.220975684082 893.622333169275 0.999999999999807
    vertex -700.583412551158 893.900440758821 0.999999999999807
  endloop
endfacet
facet normal 0.608761429008638 0.793353340291298 0.0
  outer loop
    vertex -700.220975684082 893.622333169275 0.999999999999807
    vertex -700.583412551158 893.900440758821 13.0
    vertex -700.220975684082 893.622333169275 13.0
  endloop
endfacet
facet normal -1.37506937053764e-016 1.37506937053764e-016 1.0
  outer loop
    vertex -692.345975684082 888.137877625897 13.0
    vertex -706.345975684082 895.137877625898 13.0
    vertex -706.345975684082 888.137877625897 13.0
  endloop
endfacet
facet normal -1.37506937053764e-016 1.37506937053764e-016 1.0
  outer loop
    vertex -706.345975684082 895.137877625898 13.0
    vertex -692.345975684082 888.137877625897 13.0
    vertex -700.220975684082 893.622333169275 13.0
  endloop
endfacet
facet normal -1.37506937053764e-016 1.37506937053764e-016 1.0
  outer loop
    vertex -706.345975684082 895.137877625898 13.0
    vertex -700.220975684082 893.622333169275 13.0
    vertex -700.583412551158 893.900440758821 13.0
  endloop
endfacet
facet normal -1.37506937053764e-016 1.37506937053764e-016 1.0
  outer loop
    vertex -706.345975684082 895.137877625898 13.0
    vertex -700.583412551158 893.900440758821 13.0
    vertex -700.861520140705 894.262877625898 13.0
  endloop
endfacet
facet normal -1.37506937053764e-016 1.37506937053764e-016 1.0
  outer loop
    vertex -706.345975684082 895.137877625898 13.0
    vertex -700.861520140705 894.262877625898 13.0
    vertex -701.036345880088 894.684944296968 13.0
  endloop
endfacet
facet normal -1.37506937053764e-016 1.37506937053764e-016 1.0
  outer loop
    vertex -706.345975684082 895.137877625898 13.0
    vertex -701.036345880088 894.684944296968 13.0
    vertex -701.095975684082 895.137877625898 13.0
  endloop
endfacet
facet normal -1.37506937053764e-016 1.37506937053764e-016 1.0
  outer loop
    vertex -700.220975684082 893.622333169275 13.0
    vertex -692.345975684082 888.137877625897 13.0
    vertex -699.798909013011 893.447507429892 13.0
  endloop
endfacet
facet normal -1.37506937053764e-016 1.37506937053764e-016 1.0
  outer loop
    vertex -699.798909013011 893.447507429892 13.0
    vertex -692.345975684082 888.137877625897 13.0
    vertex -699.345975684082 893.387877625898 13.0
  endloop
endfacet
facet normal -1.37506937053764e-016 1.37506937053764e-016 1.0
  outer loop
    vertex -699.345975684082 893.387877625898 13.0
    vertex -692.345975684082 888.137877625897 13.0
    vertex -698.893042355152 893.447507429892 13.0
  endloop
endfacet
facet normal -1.37506937053764e-016 1.37506937053764e-016 1.0
  outer loop
    vertex -698.893042355152 893.447507429892 13.0
    vertex -692.345975684082 888.137877625897 13.0
    vertex -698.470975684082 893.622333169275 13.0
  endloop
endfacet
facet normal -1.37506937053764e-016 1.37506937053764e-016 1.0
  outer loop
    vertex -698.470975684082 893.622333169275 13.0
    vertex -692.345975684082 888.137877625897 13.0
    vertex -698.108538817005 893.900440758821 13.0
  endloop
endfacet
facet normal -1.37506937053764e-016 1.37506937053764e-016 1.0
  outer loop
    vertex -698.108538817005 893.900440758821 13.0
    vertex -692.345975684082 888.137877625897 13.0
    vertex -697.830431227459 894.262877625898 13.0
  endloop
endfacet
facet normal -1.37506937053764e-016 1.37506937053764e-016 1.0
  outer loop
    vertex -697.830431227459 894.262877625898 13.0
    vertex -692.345975684082 888.137877625897 13.0
    vertex -697.655605488076 894.684944296968 13.0
  endloop
endfacet
facet normal -1.37506937053764e-016 1.37506937053764e-016 1.0
  outer loop
    vertex -697.655605488076 894.684944296968 13.0
    vertex -692.345975684082 888.137877625897 13.0
    vertex -697.595975684082 895.137877625898 13.0
  endloop
endfacet
facet normal -1.37506937053764e-016 1.37506937053764e-016 1.0
  outer loop
    vertex -706.345975684082 895.137877625898 13.0
    vertex -701.036345880088 895.590810954827 13.0
    vertex -699.345975684082 902.137877625898 13.0
  endloop
endfacet
facet normal -1.37506937053764e-016 1.37506937053764e-016 1.0
  outer loop
    vertex -701.036345880088 895.590810954827 13.0
    vertex -706.345975684082 895.137877625898 13.0
    vertex -701.095975684082 895.137877625898 13.0
  endloop
endfacet
facet normal -1.37506937053764e-016 1.37506937053764e-016 1.0
  outer loop
    vertex -699.345975684082 902.137877625898 13.0
    vertex -701.036345880088 895.590810954827 13.0
    vertex -700.861520140705 896.012877625898 13.0
  endloop
endfacet
facet normal -1.37506937053764e-016 1.37506937053764e-016 1.0
  outer loop
    vertex -699.345975684082 902.137877625898 13.0
    vertex -700.861520140705 896.012877625898 13.0
    vertex -700.583412551158 896.375314492974 13.0
  endloop
endfacet
facet normal -1.37506937053764e-016 1.37506937053764e-016 1.0
  outer loop
    vertex -699.345975684082 902.137877625898 13.0
    vertex -700.583412551158 896.375314492974 13.0
    vertex -700.220975684082 896.65342208252 13.0
  endloop
endfacet
facet normal -1.37506937053764e-016 1.37506937053764e-016 1.0
  outer loop
    vertex -699.345975684082 902.137877625898 13.0
    vertex -700.220975684082 896.65342208252 13.0
    vertex -699.798909013011 896.828247821903 13.0
  endloop
endfacet
facet normal -1.37506937053764e-016 1.37506937053764e-016 1.0
  outer loop
    vertex -699.345975684082 902.137877625898 13.0
    vertex -699.798909013011 896.828247821903 13.0
    vertex -699.345975684082 896.887877625898 13.0
  endloop
endfacet
facet normal -1.37506937053764e-016 1.37506937053764e-016 1.0
  outer loop
    vertex -699.345975684082 902.137877625898 13.0
    vertex -699.345975684082 896.887877625898 13.0
    vertex -692.345975684082 902.137877625898 13.0
  endloop
endfacet
facet normal -1.37506937053764e-016 1.37506937053764e-016 1.0
  outer loop
    vertex -692.345975684082 902.137877625898 13.0
    vertex -699.345975684082 896.887877625898 13.0
    vertex -698.893042355152 896.828247821903 13.0
  endloop
endfacet
facet normal -1.37506937053764e-016 1.37506937053764e-016 1.0
  outer loop
    vertex -692.345975684082 902.137877625898 13.0
    vertex -698.893042355152 896.828247821903 13.0
    vertex -698.470975684082 896.65342208252 13.0
  endloop
endfacet
facet normal -1.37506937053764e-016 1.37506937053764e-016 1.0
  outer loop
    vertex -692.345975684082 902.137877625898 13.0
    vertex -698.470975684082 896.65342208252 13.0
    vertex -698.108538817005 896.375314492974 13.0
  endloop
endfacet
facet normal -1.37506937053764e-016 1.37506937053764e-016 1.0
  outer loop
    vertex -692.345975684082 902.137877625898 13.0
    vertex -698.108538817005 896.375314492974 13.0
    vertex -697.830431227459 896.012877625898 13.0
  endloop
endfacet
facet normal -1.37506937053764e-016 1.37506937053764e-016 1.0
  outer loop
    vertex -692.345975684082 902.137877625898 13.0
    vertex -697.830431227459 896.012877625898 13.0
    vertex -697.655605488076 895.590810954827 13.0
  endloop
endfacet
facet normal -1.37506937053764e-016 1.37506937053764e-016 1.0
  outer loop
    vertex -692.345975684082 902.137877625898 13.0
    vertex -697.655605488076 895.590810954827 13.0
    vertex -697.595975684082 895.137877625898 13.0
  endloop
endfacet
facet normal -1.37506937053764e-016 1.37506937053764e-016 1.0
  outer loop
    vertex -692.345975684082 902.137877625898 13.0
    vertex -697.595975684082 895.137877625898 13.0
    vertex -692.345975684082 888.137877625897 13.0
  endloop
endfacet
facet normal -0.707106781186548 0.707106781186548 0.0
  outer loop
    vertex -699.345975684082 902.137877625898 13.0
    vertex -706.345975684082 895.137877625898 0.999999999999811
    vertex -706.345975684082 895.137877625898 13.0
  endloop
endfacet
facet normal -0.707106781186548 0.707106781186548 0.0
  outer loop
    vertex -706.345975684082 895.137877625898 0.999999999999811
    vertex -699.345975684082 902.137877625898 13.0
    vertex -699.345975684082 902.137877625898 0.999999999999811
  endloop
endfacet
facet normal 0.0 1.0 0.0
  outer loop
    vertex -699.345975684082 902.137877625898 13.0
    vertex -692.345975684082 902.137877625898 0.999999999999813
    vertex -699.345975684082 902.137877625898 0.999999999999811
  endloop
endfacet
facet normal 0.0 1.0 0.0
  outer loop
    vertex -692.345975684082 902.137877625898 0.999999999999813
    vertex -699.345975684082 902.137877625898 13.0
    vertex -692.345975684082 902.137877625898 13.0
  endloop
endfacet
facet normal 1.0 0.0 0.0
  outer loop
    vertex -692.345975684082 902.137877625898 0.999999999999813
    vertex -692.345975684082 888.137877625897 13.0
    vertex -692.345975684082 888.137877625897 0.999999999999813
  endloop
endfacet
facet normal 1.0 0.0 0.0
  outer loop
    vertex -692.345975684082 888.137877625897 13.0
    vertex -692.345975684082 902.137877625898 0.999999999999813
    vertex -692.345975684082 902.137877625898 13.0
  endloop
endfacet
facet normal -1.0 0.0 0.0
  outer loop
    vertex -706.345975684082 895.137877625898 13.0
    vertex -706.345975684082 888.137877625897 0.999999999999813
    vertex -706.345975684082 888.137877625897 13.0
  endloop
endfacet
facet normal -1.0 0.0 0.0
  outer loop
    vertex -706.345975684082 888.137877625897 0.999999999999813
    vertex -706.345975684082 895.137877625898 13.0
    vertex -706.345975684082 895.137877625898 0.999999999999811
  endloop
endfacet
facet normal 0.0 -1.0 0.0
  outer loop
    vertex -692.345975684082 888.137877625897 13.0
    vertex -706.345975684082 888.137877625897 0.999999999999813
    vertex -692.345975684082 888.137877625897 0.999999999999813
  endloop
endfacet
facet normal 0.0 -1.0 0.0
  outer loop
    vertex -706.345975684082 888.137877625897 0.999999999999813
    vertex -692.345975684082 888.137877625897 13.0
    vertex -706.345975684082 888.137877625897 13.0
  endloop
endfacet
facet normal 1.85081881793348e-016 -1.85081881793347e-016 -1.0
  outer loop
    vertex -699.345975684082 902.137877625898 0.999999999999811
    vertex -706.345975684082 888.137877625897 0.999999999999813
    vertex -706.345975684082 895.137877625898 0.999999999999811
  endloop
endfacet
facet normal 1.85081881793348e-016 -1.85081881793347e-016 -1.0
  outer loop
    vertex -706.345975684082 888.137877625897 0.999999999999813
    vertex -699.345975684082 902.137877625898 0.999999999999811
    vertex -701.036345880088 895.590810954827 0.999999999999807
  endloop
endfacet
facet normal 1.85081881793348e-016 -1.85081881793347e-016 -1.0
  outer loop
    vertex -706.345975684082 888.137877625897 0.999999999999813
    vertex -701.036345880088 895.590810954827 0.999999999999807
    vertex -701.095975684082 895.137877625898 0.999999999999807
  endloop
endfacet
facet normal 1.85081881793348e-016 -1.85081881793347e-016 -1.0
  outer loop
    vertex -701.036345880088 895.590810954827 0.999999999999807
    vertex -699.345975684082 902.137877625898 0.999999999999811
    vertex -700.861520140705 896.012877625898 0.999999999999807
  endloop
endfacet
facet normal 1.85081881793348e-016 -1.85081881793347e-016 -1.0
  outer loop
    vertex -700.861520140705 896.012877625898 0.999999999999807
    vertex -699.345975684082 902.137877625898 0.999999999999811
    vertex -700.583412551158 896.375314492974 0.999999999999807
  endloop
endfacet
facet normal 1.85081881793348e-016 -1.85081881793347e-016 -1.0
  outer loop
    vertex -700.583412551158 896.375314492974 0.999999999999807
    vertex -699.345975684082 902.137877625898 0.999999999999811
    vertex -700.220975684082 896.65342208252 0.999999999999807
  endloop
endfacet
facet normal 1.85081881793348e-016 -1.85081881793347e-016 -1.0
  outer loop
    vertex -700.220975684082 896.65342208252 0.999999999999807
    vertex -699.345975684082 902.137877625898 0.999999999999811
    vertex -699.798909013011 896.828247821903 0.999999999999807
  endloop
endfacet
facet normal 1.85081881793348e-016 -1.85081881793347e-016 -1.0
  outer loop
    vertex -699.798909013011 896.828247821903 0.999999999999807
    vertex -699.345975684082 902.137877625898 0.999999999999811
    vertex -699.345975684082 896.887877625898 0.999999999999807
  endloop
endfacet
facet normal 1.85081881793348e-016 -1.85081881793347e-016 -1.0
  outer loop
    vertex -699.345975684082 896.887877625898 0.999999999999807
    vertex -699.345975684082 902.137877625898 0.999999999999811
    vertex -692.345975684082 902.137877625898 0.999999999999813
  endloop
endfacet
facet normal 1.85081881793348e-016 -1.85081881793347e-016 -1.0
  outer loop
    vertex -699.345975684082 896.887877625898 0.999999999999807
    vertex -692.345975684082 902.137877625898 0.999999999999813
    vertex -698.893042355152 896.828247821903 0.999999999999807
  endloop
endfacet
facet normal 1.85081881793348e-016 -1.85081881793347e-016 -1.0
  outer loop
    vertex -698.893042355152 896.828247821903 0.999999999999807
    vertex -692.345975684082 902.137877625898 0.999999999999813
    vertex -698.470975684082 896.65342208252 0.999999999999807
  endloop
endfacet
facet normal 1.85081881793348e-016 -1.85081881793347e-016 -1.0
  outer loop
    vertex -698.470975684082 896.65342208252 0.999999999999807
    vertex -692.345975684082 902.137877625898 0.999999999999813
    vertex -698.108538817005 896.375314492974 0.999999999999807
  endloop
endfacet
facet normal 1.85081881793348e-016 -1.85081881793347e-016 -1.0
  outer loop
    vertex -698.108538817005 896.375314492974 0.999999999999807
    vertex -692.345975684082 902.137877625898 0.999999999999813
    vertex -697.830431227459 896.012877625898 0.999999999999807
  endloop
endfacet
facet normal 1.85081881793348e-016 -1.85081881793347e-016 -1.0
  outer loop
    vertex -697.830431227459 896.012877625898 0.999999999999807
    vertex -692.345975684082 902.137877625898 0.999999999999813
    vertex -697.655605488076 895.590810954827 0.999999999999807
  endloop
endfacet
facet normal 1.85081881793348e-016 -1.85081881793347e-016 -1.0
  outer loop
    vertex -697.655605488076 895.590810954827 0.999999999999807
    vertex -692.345975684082 902.137877625898 0.999999999999813
    vertex -697.595975684082 895.137877625898 0.999999999999807
  endloop
endfacet
facet normal 1.85081881793348e-016 -1.85081881793347e-016 -1.0
  outer loop
    vertex -706.345975684082 888.137877625897 0.999999999999813
    vertex -700.220975684082 893.622333169275 0.999999999999807
    vertex -692.345975684082 888.137877625897 0.999999999999813
  endloop
endfacet
facet normal 1.85081881793348e-016 -1.85081881793347e-016 -1.0
  outer loop
    vertex -700.220975684082 893.622333169275 0.999999999999807
    vertex -706.345975684082 888.137877625897 0.999999999999813
    vertex -700.583412551158 893.900440758821 0.999999999999807
  endloop
endfacet
facet normal 1.85081881793348e-016 -1.85081881793347e-016 -1.0
  outer loop
    vertex -700.583412551158 893.900440758821 0.999999999999807
    vertex -706.345975684082 888.137877625897 0.999999999999813
    vertex -700.861520140705 894.262877625898 0.999999999999807
  endloop
endfacet
facet normal 1.85081881793348e-016 -1.85081881793347e-016 -1.0
  outer loop
    vertex -700.861520140705 894.262877625898 0.999999999999807
    vertex -706.345975684082 888.137877625897 0.999999999999813
    vertex -701.036345880088 894.684944296968 0.999999999999807
  endloop
endfacet
facet normal 1.85081881793348e-016 -1.85081881793347e-016 -1.0
  outer loop
    vertex -701.036345880088 894.684944296968 0.999999999999807
    vertex -706.345975684082 888.137877625897 0.999999999999813
    vertex -701.095975684082 895.137877625898 0.999999999999807
  endloop
endfacet
facet normal 1.85081881793348e-016 -1.85081881793347e-016 -1.0
  outer loop
    vertex -692.345975684082 888.137877625897 0.999999999999813
    vertex -700.220975684082 893.622333169275 0.999999999999807
    vertex -699.798909013011 893.447507429892 0.999999999999807
  endloop
endfacet
facet normal 1.85081881793348e-016 -1.85081881793347e-016 -1.0
  outer loop
    vertex -692.345975684082 888.137877625897 0.999999999999813
    vertex -699.798909013011 893.447507429892 0.999999999999807
    vertex -699.345975684082 893.387877625898 0.999999999999807
  endloop
endfacet
facet normal 1.85081881793348e-016 -1.85081881793347e-016 -1.0
  outer loop
    vertex -692.345975684082 888.137877625897 0.999999999999813
    vertex -699.345975684082 893.387877625898 0.999999999999807
    vertex -698.893042355152 893.447507429892 0.999999999999807
  endloop
endfacet
facet normal 1.85081881793348e-016 -1.85081881793347e-016 -1.0
  outer loop
    vertex -692.345975684082 888.137877625897 0.999999999999813
    vertex -698.893042355152 893.447507429892 0.999999999999807
    vertex -698.470975684082 893.622333169275 0.999999999999807
  endloop
endfacet
facet normal 1.85081881793348e-016 -1.85081881793347e-016 -1.0
  outer loop
    vertex -692.345975684082 888.137877625897 0.999999999999813
    vertex -698.470975684082 893.622333169275 0.999999999999807
    vertex -698.108538817005 893.900440758821 0.999999999999807
  endloop
endfacet
facet normal 1.85081881793348e-016 -1.85081881793347e-016 -1.0
  outer loop
    vertex -692.345975684082 888.137877625897 0.999999999999813
    vertex -698.108538817005 893.900440758821 0.999999999999807
    vertex -697.830431227459 894.262877625898 0.999999999999807
  endloop
endfacet
facet normal 1.85081881793348e-016 -1.85081881793347e-016 -1.0
  outer loop
    vertex -692.345975684082 888.137877625897 0.999999999999813
    vertex -697.830431227459 894.262877625898 0.999999999999807
    vertex -697.655605488076 894.684944296968 0.999999999999807
  endloop
endfacet
facet normal 1.85081881793348e-016 -1.85081881793347e-016 -1.0
  outer loop
    vertex -692.345975684082 888.137877625897 0.999999999999813
    vertex -697.655605488076 894.684944296968 0.999999999999807
    vertex -697.595975684082 895.137877625898 0.999999999999807
  endloop
endfacet
facet normal 1.85081881793348e-016 -1.85081881793347e-016 -1.0
  outer loop
    vertex -692.345975684082 888.137877625897 0.999999999999813
    vertex -697.595975684082 895.137877625898 0.999999999999807
    vertex -692.345975684082 902.137877625898 0.999999999999813
  endloop
endfacet
facet normal 0.130526192220178 -0.991444861373794 0.0
  outer loop
    vertex -699.345975684082 896.887877625898 13.0
    vertex -699.798909013011 896.828247821903 0.999999999999807
    vertex -699.345975684082 896.887877625898 0.999999999999807
  endloop
endfacet
facet normal 0.130526192220178 -0.991444861373794 0.0
  outer loop
    vertex -699.798909013011 896.828247821903 0.999999999999807
    vertex -699.345975684082 896.887877625898 13.0
    vertex -699.798909013011 896.828247821903 13.0
  endloop
endfacet
facet normal 0.382683432365068 -0.923879532511296 0.0
  outer loop
    vertex -699.798909013011 896.828247821903 13.0
    vertex -700.220975684082 896.65342208252 0.999999999999807
    vertex -699.798909013011 896.828247821903 0.999999999999807
  endloop
endfacet
facet normal 0.382683432365068 -0.923879532511296 0.0
  outer loop
    vertex -700.220975684082 896.65342208252 0.999999999999807
    vertex -699.798909013011 896.828247821903 13.0
    vertex -700.220975684082 896.65342208252 13.0
  endloop
endfacet
facet normal -0.130526192220178 -0.991444861373794 0.0
  outer loop
    vertex -698.893042355152 896.828247821903 13.0
    vertex -699.345975684082 896.887877625898 0.999999999999807
    vertex -698.893042355152 896.828247821903 0.999999999999807
  endloop
endfacet
facet normal -0.130526192220178 -0.991444861373794 0.0
  outer loop
    vertex -699.345975684082 896.887877625898 0.999999999999807
    vertex -698.893042355152 896.828247821903 13.0
    vertex -699.345975684082 896.887877625898 13.0
  endloop
endfacet
endsolid MIDIBox
