<?xml version="1.0" encoding="UTF-8" standalone="no"?>
<svg
   xmlns:dc="http://purl.org/dc/elements/1.1/"
   xmlns:cc="http://creativecommons.org/ns#"
   xmlns:rdf="http://www.w3.org/1999/02/22-rdf-syntax-ns#"
   xmlns:svg="http://www.w3.org/2000/svg"
   xmlns="http://www.w3.org/2000/svg"
   xmlns:sodipodi="http://sodipodi.sourceforge.net/DTD/sodipodi-0.dtd"
   xmlns:inkscape="http://www.inkscape.org/namespaces/inkscape"
   width="192.5mm"
   height="120.0mm"
   viewBox="0 0 192.5 120.0"
   version="1.1"
   id="svg172"
   sodipodi:docname="MusicBoxPlate.svg"
   inkscape:version="0.92.4 (5da689c313, 2019-01-14)">
  <metadata
     id="metadata178">
    <rdf:RDF>
      <cc:Work
         rdf:about="">
        <dc:format>image/svg+xml</dc:format>
        <dc:type
           rdf:resource="http://purl.org/dc/dcmitype/StillImage" />
      </cc:Work>
    </rdf:RDF>
  </metadata>
  <defs
     id="defs176" />
  <sodipodi:namedview
     pagecolor="#ffffff"
     bordercolor="#666666"
     borderopacity="1"
     objecttolerance="10"
     gridtolerance="10"
     guidetolerance="10"
     inkscape:pageopacity="0"
     inkscape:pageshadow="2"
     inkscape:window-width="2560"
     inkscape:window-height="1377"
     id="namedview174"
     showgrid="false"
     inkscape:zoom="1.5613853"
     inkscape:cx="379.50868"
     inkscape:cy="270.1554"
     inkscape:window-x="-8"
     inkscape:window-y="-8"
     inkscape:window-maximized="1"
     inkscape:current-layer="svg172" />
  <desc
     id="desc2">Output from Flights of Ideas SVG Sketchup Plugin</desc>
  <path
     id="face0-cut"
     style="fill:none;stroke:#000000;stroke-width:0.49999999;stroke-miterlimit:4;stroke-dasharray:none;stroke-linejoin:round;stroke-linecap:round"
     d="M 130.2,46.5 M 131.7,46.5 M 131.7,44.9999999999999 M 131.311771432347,45.0511112605664 M 130.95,45.2009618943234 M 130.639339828221,45.4393398282201 M 130.400961894324,45.7499999999999 M 130.251111260567,46.1117714323462 " />
  <path
     id="face1-cut"
     style="fill:none;stroke:#000000;stroke-width:0.49999999;stroke-miterlimit:4;stroke-dasharray:none;stroke-linejoin:round;stroke-linecap:round"
     d="M 131.311771432347,47.9488887394335 M 131.7,48.0 M 131.7,46.5 M 130.2,46.5 M 130.251111260567,46.8882285676538 M 130.400961894324,47.25 M 130.639339828221,47.5606601717798 M 130.95,47.7990381056766 " />
  <path
     id="face2-cut"
     style="fill:none;stroke:#000000;stroke-width:0.49999999;stroke-miterlimit:4;stroke-dasharray:none;stroke-linejoin:round;stroke-linecap:round"
     d="M 132.088228567654,45.0511112605664 M 131.7,44.9999999999999 M 131.7,46.5 M 133.2,46.5 M 133.148888739434,46.1117714323462 M 132.999038105677,45.7499999999999 M 132.76066017178,45.4393398282201 M 132.45,45.2009618943234 " />
  <path
     id="face3-cut"
     style="fill:none;stroke:#000000;stroke-width:0.49999999;stroke-miterlimit:4;stroke-dasharray:none;stroke-linejoin:round;stroke-linecap:round"
     d="M 17.4529333289296,15.3096298039941 M 17.0000000000001,15.2499999999999 M 17.0000000000001,17.0000000000001 M 18.7500000000002,17.0000000000001 M 18.690370196006,16.5470666710705 M 18.5155444566229,16.125 M 18.2374368670767,15.7625631329235 M 17.8750000000001,15.4844555433771 " />
  <path
     id="face4-cut"
     style="fill:none;stroke:#000000;stroke-width:0.49999999;stroke-miterlimit:4;stroke-dasharray:none;stroke-linejoin:round;stroke-linecap:round"
     d="M 15.25,17.0000000000001 M 17.0000000000001,17.0000000000001 M 17.0000000000001,15.2499999999999 M 16.5470666710706,15.309629803994 M 16.1250000000001,15.4844555433771 M 15.7625631329236,15.7625631329236 M 15.4844555433773,16.125 M 15.3096298039942,16.5470666710707 " />
  <path
     id="face5-cut"
     style="fill:none;stroke:#000000;stroke-width:0.49999999;stroke-miterlimit:4;stroke-dasharray:none;stroke-linejoin:round;stroke-linecap:round"
     d="M 18.7500000000002,17.0000000000001 M 17.0000000000001,17.0000000000001 M 17.0000000000001,18.7500000000001 M 17.4529333289296,18.690370196006 M 17.8750000000001,18.5155444566229 M 18.2374368670767,18.2374368670766 M 18.5155444566229,17.8750000000001 M 18.690370196006,17.4529333289294 " />
  <path
     id="face6-cut"
     style="fill:none;stroke:#000000;stroke-width:0.49999999;stroke-miterlimit:4;stroke-dasharray:none;stroke-linejoin:round;stroke-linecap:round"
     d="M 16.5470666710706,18.690370196006 M 17.0000000000001,18.7500000000001 M 17.0000000000001,17.0000000000001 M 15.25,17.0000000000001 M 15.3096298039942,17.4529333289294 M 15.4844555433773,17.8750000000001 M 15.7625631329236,18.2374368670766 M 16.1250000000001,18.5155444566228 " />
  <path
     id="face7-cut"
     style="fill:none;stroke:#000000;stroke-width:0.49999999;stroke-miterlimit:4;stroke-dasharray:none;stroke-linejoin:round;stroke-linecap:round"
     d="M 15.25,103.0 M 17.0000000000001,103.0 M 17.0000000000001,101.25 M 16.5470666710706,101.309629803994 M 16.1250000000001,101.484455543377 M 15.7625631329236,101.762563132924 M 15.4844555433774,102.125 M 15.3096298039943,102.547066671071 " />
  <path
     id="face8-cut"
     style="fill:none;stroke:#000000;stroke-width:0.49999999;stroke-miterlimit:4;stroke-dasharray:none;stroke-linejoin:round;stroke-linecap:round"
     d="M 16.5470666710706,104.690370196006 M 17.0000000000001,104.75 M 17.0000000000001,103.0 M 15.25,103.0 M 15.3096298039942,103.452933328929 M 15.4844555433774,103.875 M 15.7625631329236,104.237436867077 M 16.1250000000001,104.515544456623 " />
  <path
     id="face9-cut"
     style="fill:none;stroke:#000000;stroke-width:0.49999999;stroke-miterlimit:4;stroke-dasharray:none;stroke-linejoin:round;stroke-linecap:round"
     d="M 18.7500000000002,103.0 M 17.0000000000001,103.0 M 17.0000000000001,104.75 M 17.4529333289296,104.690370196006 M 17.8750000000001,104.515544456623 M 18.2374368670767,104.237436867077 M 18.5155444566229,103.875 M 18.690370196006,103.452933328929 " />
  <path
     id="face10-cut"
     style="fill:none;stroke:#000000;stroke-width:0.49999999;stroke-miterlimit:4;stroke-dasharray:none;stroke-linejoin:round;stroke-linecap:round"
     d="M 17.4529333289296,101.309629803994 M 17.0000000000001,101.25 M 17.0000000000001,103.0 M 18.7500000000002,103.0 M 18.690370196006,102.547066671071 M 18.5155444566229,102.125 M 18.2374368670767,101.762563132923 M 17.8750000000001,101.484455543377 " />
  <path
     id="face11-cut"
     style="fill:none;stroke:#000000;stroke-width:0.49999999;stroke-miterlimit:4;stroke-dasharray:none;stroke-linejoin:round;stroke-linecap:round"
     d="M 175.95293332893,101.309629803994 M 175.5,101.25 M 175.5,103.0 M 177.250000000001,103.0 M 177.190370196006,102.547066671071 M 177.015544456623,102.125 M 176.737436867077,101.762563132923 M 176.375,101.484455543377 " />
  <path
     id="face12-cut"
     style="fill:none;stroke:#000000;stroke-width:0.49999999;stroke-miterlimit:4;stroke-dasharray:none;stroke-linejoin:round;stroke-linecap:round"
     d="M 173.75,17.0 M 175.5,17.0 M 175.5,15.25 M 175.047066671071,15.309629803994 M 174.625,15.4844555433772 M 174.262563132924,15.7625631329235 M 173.984455543378,16.125 M 173.809629803995,16.5470666710706 " />
  <path
     id="face13-cut"
     style="fill:none;stroke:#000000;stroke-width:0.49999999;stroke-miterlimit:4;stroke-dasharray:none;stroke-linejoin:round;stroke-linecap:round"
     d="M 173.75,103.0 M 175.5,103.0 M 175.5,101.25 M 175.047066671071,101.309629803994 M 174.625,101.484455543377 M 174.262563132924,101.762563132924 M 173.984455543378,102.125 M 173.809629803995,102.547066671071 " />
  <path
     id="face14-cut"
     style="fill:none;stroke:#000000;stroke-width:0.49999999;stroke-miterlimit:4;stroke-dasharray:none;stroke-linejoin:round;stroke-linecap:round"
     d="M 177.250000000001,17.0 M 175.5,17.0 M 175.5,18.7500000000001 M 175.95293332893,18.690370196006 M 176.375,18.5155444566229 M 176.737436867077,18.2374368670766 M 177.015544456623,17.8750000000001 M 177.190370196006,17.4529333289294 " />
  <path
     id="face15-cut"
     style="fill:none;stroke:#000000;stroke-width:0.49999999;stroke-miterlimit:4;stroke-dasharray:none;stroke-linejoin:round;stroke-linecap:round"
     d="M 175.047066671071,18.690370196006 M 175.5,18.7500000000001 M 175.5,17.0 M 173.75,17.0 M 173.809629803995,17.4529333289294 M 173.984455543378,17.8750000000001 M 174.262563132924,18.2374368670766 M 174.625,18.5155444566229 " />
  <path
     id="face16-cut"
     style="fill:none;stroke:#000000;stroke-width:0.49999999;stroke-miterlimit:4;stroke-dasharray:none;stroke-linejoin:round;stroke-linecap:round"
     d="M 175.047066671071,104.690370196006 M 175.5,104.75 M 175.5,103.0 M 173.75,103.0 M 173.809629803995,103.452933328929 M 173.984455543378,103.875 M 174.262563132924,104.237436867077 M 174.625,104.515544456623 " />
  <path
     id="face17-cut"
     style="fill:none;stroke:#000000;stroke-width:0.49999999;stroke-miterlimit:4;stroke-dasharray:none;stroke-linejoin:round;stroke-linecap:round"
     d="M 177.250000000001,103.0 M 175.5,103.0 M 175.5,104.75 M 175.95293332893,104.690370196006 M 176.375,104.515544456623 M 176.737436867077,104.237436867077 M 177.015544456623,103.875 M 177.190370196006,103.452933328929 " />
  <path
     id="face18-cut"
     style="fill:none;stroke:#000000;stroke-width:0.49999999;stroke-miterlimit:4;stroke-dasharray:none;stroke-linejoin:round;stroke-linecap:round"
     d="M 175.95293332893,15.3096298039941 M 175.5,15.25 M 175.5,17.0 M 177.250000000001,17.0 M 177.190370196006,16.5470666710706 M 177.015544456623,16.125 M 176.737436867077,15.7625631329235 M 176.375,15.4844555433772 " />
  <path
     id="face19-cut"
     style="fill:none;stroke:#000000;stroke-width:0.49999999;stroke-miterlimit:4;stroke-dasharray:none;stroke-linejoin:round;stroke-linecap:round"
     d="M 98.0000000000003,86.5 M 99.5000000000003,86.5 M 99.5000000000003,85.0 M 99.1117714323466,85.0511112605664 M 98.7500000000003,85.2009618943234 M 98.4393398282205,85.4393398282202 M 98.2009618943236,85.75 M 98.0511112605668,86.1117714323462 " />
  <path
     id="face20-cut"
     style="fill:none;stroke:#000000;stroke-width:0.49999999;stroke-miterlimit:4;stroke-dasharray:none;stroke-linejoin:round;stroke-linecap:round"
     d="M 99.1117714323466,87.9488887394336 M 99.5000000000003,88.0 M 99.5000000000003,86.5 M 98.0000000000003,86.5 M 98.0511112605668,86.8882285676538 M 98.2009618943236,87.25 M 98.4393398282205,87.5606601717799 M 98.7500000000003,87.7990381056767 " />
  <path
     id="face21-cut"
     style="fill:none;stroke:#000000;stroke-width:0.49999999;stroke-miterlimit:4;stroke-dasharray:none;stroke-linejoin:round;stroke-linecap:round"
     d="M 158.388228567654,25.5511112605664 M 158.0,25.5 M 158.0,27.0000000000001 M 159.5,27.0000000000001 M 159.448888739434,26.6117714323462 M 159.299038105677,26.2500000000001 M 159.06066017178,25.9393398282202 M 158.75,25.7009618943234 " />
  <path
     id="face22-cut"
     style="fill:none;stroke:#000000;stroke-width:0.49999999;stroke-miterlimit:4;stroke-dasharray:none;stroke-linejoin:round;stroke-linecap:round"
     d="M 159.5,27.0000000000001 M 158.0,27.0000000000001 M 158.0,28.5 M 158.388228567654,28.4488887394336 M 158.75,28.2990381056767 M 159.06066017178,28.0606601717799 M 159.299038105677,27.75 M 159.448888739434,27.3882285676538 " />
  <path
     id="face23-cut"
     style="fill:none;stroke:#000000;stroke-width:0.49999999;stroke-miterlimit:4;stroke-dasharray:none;stroke-linejoin:round;stroke-linecap:round"
     d="M 157.611771432347,28.4488887394336 M 158.0,28.5 M 158.0,27.0000000000001 M 156.5,27.0000000000001 M 156.551111260567,27.3882285676538 M 156.700961894324,27.75 M 156.939339828221,28.0606601717799 M 157.25,28.2990381056767 " />
  <path
     id="face24-cut"
     style="fill:none;stroke:#000000;stroke-width:0.49999999;stroke-miterlimit:4;stroke-dasharray:none;stroke-linejoin:round;stroke-linecap:round"
     d="M 156.5,27.0000000000001 M 158.0,27.0000000000001 M 158.0,25.5 M 157.611771432347,25.5511112605664 M 157.25,25.7009618943234 M 156.939339828221,25.9393398282202 M 156.700961894324,26.2500000000001 M 156.551111260567,26.6117714323462 " />
  <path
     id="face25-cut"
     style="fill:none;stroke:#000000;stroke-width:0.49999999;stroke-miterlimit:4;stroke-dasharray:none;stroke-linejoin:round;stroke-linecap:round"
     d="M 140.0,82.5 M 141.5,82.5 M 141.5,81.0000000000001 M 141.111771432347,81.0511112605664 M 141.0,81.0974085037301 M 140.75,81.2009618943234 M 140.43933982822,81.4393398282201 M 140.200961894324,81.75 M 140.051111260567,82.1117714323462 " />
  <path
     id="face26-cut"
     style="fill:none;stroke:#000000;stroke-width:0.49999999;stroke-miterlimit:4;stroke-dasharray:none;stroke-linejoin:round;stroke-linecap:round"
     d="M 99.8882285676542,85.0511112605664 M 99.5000000000003,85.0 M 99.5000000000003,86.5 M 101.0,86.5 M 100.948888739434,86.1117714323462 M 100.799038105677,85.75 M 100.56066017178,85.4393398282202 M 100.25,85.2009618943234 " />
  <path
     id="face27-cut"
     style="fill:none;stroke:#000000;stroke-width:0.49999999;stroke-miterlimit:4;stroke-dasharray:none;stroke-linejoin:round;stroke-linecap:round"
     d="M 57.1117714323465,29.4488887394337 M 57.5000000000003,29.5 M 57.5000000000003,27.9999999999999 M 56.0000000000003,28.0 M 56.0511112605668,28.3882285676539 M 56.2009618943237,28.75 M 56.4393398282205,29.0606601717798 M 56.7500000000003,29.2990381056767 " />
  <path
     id="face28-cut"
     style="fill:none;stroke:#000000;stroke-width:0.49999999;stroke-miterlimit:4;stroke-dasharray:none;stroke-linejoin:round;stroke-linecap:round"
     d="M 143.0,82.5 M 141.5,82.5 M 141.5,84.0 M 141.888228567654,83.9488887394336 M 142.25,83.7990381056767 M 142.56066017178,83.5606601717799 M 142.799038105677,83.25 M 142.948888739434,82.8882285676538 " />
  <path
     id="face29-cut"
     style="fill:none;stroke:#000000;stroke-width:0.49999999;stroke-miterlimit:4;stroke-dasharray:none;stroke-linejoin:round;stroke-linecap:round"
     d="M 56.0000000000003,28.0 M 57.5000000000003,27.9999999999999 M 57.5000000000003,26.5 M 57.1117714323465,26.5511112605664 M 56.7500000000003,26.7009618943234 M 56.4393398282204,26.9393398282202 M 56.2009618943237,27.25 M 56.0511112605668,27.6117714323463 " />
  <path
     id="face30-cut"
     style="fill:none;stroke:#000000;stroke-width:0.49999999;stroke-miterlimit:4;stroke-dasharray:none;stroke-linejoin:round;stroke-linecap:round"
     d="M 141.888228567654,81.0511112605664 M 141.5,81.0000000000001 M 141.5,82.5 M 143.0,82.5 M 142.948888739434,82.1117714323462 M 142.799038105677,81.75 M 142.56066017178,81.4393398282201 M 142.25,81.2009618943234 " />
  <path
     id="face31-cut"
     style="fill:none;stroke:#000000;stroke-width:0.49999999;stroke-miterlimit:4;stroke-dasharray:none;stroke-linejoin:round;stroke-linecap:round"
     d="M 101.0,86.5 M 99.5000000000003,86.5 M 99.5000000000003,88.0 M 99.8882285676542,87.9488887394336 M 100.25,87.7990381056766 M 100.56066017178,87.5606601717799 M 100.799038105677,87.25 M 100.948888739434,86.8882285676538 " />
  <path
     id="face32-cut"
     style="fill:none;stroke:#000000;stroke-width:0.49999999;stroke-miterlimit:4;stroke-dasharray:none;stroke-linejoin:round;stroke-linecap:round"
     d="M 141.111771432347,83.9488887394336 M 141.5,84.0 M 141.5,82.5 M 140.0,82.5 M 140.051111260567,82.8882285676538 M 140.200961894324,83.25 M 140.43933982822,83.5606601717799 M 140.75,83.7990381056767 M 141.0,83.9025914962699 " />
  <path
     id="face33-cut"
     style="fill:none;stroke:#000000;stroke-width:0.49999999;stroke-miterlimit:4;stroke-dasharray:none;stroke-linejoin:round;stroke-linecap:round"
     d="M 57.1117714323466,83.9488887394336 M 57.5000000000003,83.9999999999999 M 57.5000000000003,82.5 M 56.0000000000004,82.5 M 56.0511112605668,82.8882285676538 M 56.2009618943237,83.25 M 56.4393398282204,83.5606601717799 M 56.7500000000003,83.7990381056767 " />
  <path
     id="face34-cut"
     style="fill:none;stroke:#000000;stroke-width:0.49999999;stroke-miterlimit:4;stroke-dasharray:none;stroke-linejoin:round;stroke-linecap:round"
     d="M 57.8882285676542,81.0511112605664 M 57.5000000000003,81.0 M 57.5000000000003,82.5 M 59.0000000000004,82.5 M 58.9488887394339,82.1117714323462 M 58.7990381056771,81.75 M 58.5606601717802,81.4393398282201 M 58.2500000000004,81.2009618943234 " />
  <path
     id="face35-cut"
     style="fill:none;stroke:#000000;stroke-width:0.49999999;stroke-miterlimit:4;stroke-dasharray:none;stroke-linejoin:round;stroke-linecap:round"
     d="M 57.8882285676542,26.5511112605664 M 57.5000000000003,26.5 M 57.5000000000003,27.9999999999999 M 59.0000000000004,28.0 M 58.9488887394339,27.6117714323463 M 58.7990381056771,27.25 M 58.5606601717802,26.9393398282202 M 58.2500000000004,26.7009618943233 " />
  <path
     id="face36-cut"
     style="fill:none;stroke:#000000;stroke-width:0.49999999;stroke-miterlimit:4;stroke-dasharray:none;stroke-linejoin:round;stroke-linecap:round"
     d="M 59.0000000000004,28.0 M 57.5000000000003,27.9999999999999 M 57.5000000000003,29.5 M 57.8882285676542,29.4488887394337 M 58.2500000000004,29.2990381056767 M 58.5606601717802,29.0606601717798 M 58.7990381056771,28.75 M 58.9488887394339,28.3882285676539 " />
  <path
     id="face37-cut"
     style="fill:none;stroke:#000000;stroke-width:0.49999999;stroke-miterlimit:4;stroke-dasharray:none;stroke-linejoin:round;stroke-linecap:round"
     d="M 56.0000000000004,82.5 M 57.5000000000003,82.5 M 57.5000000000003,81.0 M 57.1117714323465,81.0511112605664 M 56.7500000000003,81.2009618943233 M 56.4393398282204,81.4393398282201 M 56.2009618943237,81.75 M 56.0511112605668,82.1117714323462 " />
  <path
     id="face38-cut"
     style="fill:none;stroke:#000000;stroke-width:0.49999999;stroke-miterlimit:4;stroke-dasharray:none;stroke-linejoin:round;stroke-linecap:round"
     d="M 59.0000000000004,82.5 M 57.5000000000003,82.5 M 57.5000000000003,83.9999999999999 M 57.8882285676542,83.9488887394336 M 58.2500000000004,83.7990381056767 M 58.5606601717802,83.5606601717798 M 58.7990381056771,83.25 M 58.9488887394339,82.8882285676538 " />
  <path
     id="face39-cut"
     style="fill:none;stroke:#000000;stroke-width:0.49999999;stroke-miterlimit:4;stroke-dasharray:none;stroke-linejoin:round;stroke-linecap:round"
     d="M 133.2,46.5 M 131.7,46.5 M 131.7,48.0 M 132.088228567654,47.9488887394335 M 132.45,47.7990381056766 M 132.76066017178,47.5606601717798 M 132.999038105677,47.25 M 133.148888739434,46.8882285676538 " />
  <path
     id="face40-cut"
     style="fill:none;stroke:#000000;stroke-width:0.49999999;stroke-miterlimit:4;stroke-dasharray:none;stroke-linejoin:round;stroke-linecap:round"
     d="M 141.0,50.5 M 141.068546426175,50.2616702801444 M 141.158670876981,50.0306351069031 M 141.269613047371,49.8088435319123 M 141.40043701051,49.5981666262569 M 141.550039113407,49.4003816957987 M 141.717157287526,49.2171572875254 M 141.900381695799,49.050039113407 M 142.098166626257,48.9004370105093 M 142.308843531913,48.769613047371 M 142.530635106903,48.6586708769807 M 142.761670280145,48.5685464261746 M 143.0,48.5000000000001 M 161.0,48.5000000000001 M 161.0,27.0 M 160.897777478868,26.2235428646925 M 160.598076211354,25.5 M 160.12132034356,24.8786796564404 M 159.5,24.4019237886468 M 158.776457135308,24.1022225211328 M 131.0,20.0 M 66.5000000000003,20.0 M 55.7500000000003,24.9689110867545 M 55.0251262658474,25.5251262658472 M 54.4689110867548,26.2500000000001 M 54.1192596079886,27.0941333421412 M 54.0000000000003,27.9999999999999 M 54.0000000000003,82.5 M 54.1192596079886,83.4058666578589 M 54.4689110867548,84.25 M 55.0251262658474,84.9748737341529 M 55.7500000000003,85.5310889132456 M 64.5000000000003,89.5 M 134.0,89.5 M 143.25,85.5310889132456 M 143.974873734153,84.9748737341529 M 144.531088913246,84.25 M 144.880740392012,83.4058666578589 M 145.0,82.5 M 144.880740392012,81.5941333421412 M 144.531088913246,80.75 M 143.974873734153,80.0251262658471 M 143.25,79.4689110867544 M 142.405866657859,79.1192596079882 M 141.5,79.0 M 141.0,79.0 M 132.088228567654,47.9488887394335 M 131.7,48.0 M 131.311771432347,47.9488887394335 M 130.95,47.7990381056766 M 130.639339828221,47.5606601717798 M 130.400961894324,47.25 M 130.251111260567,46.8882285676538 M 130.2,46.5 M 130.251111260567,46.1117714323462 M 130.400961894324,45.7499999999999 M 130.639339828221,45.4393398282201 M 130.95,45.2009618943234 M 131.311771432347,45.0511112605664 M 131.7,44.9999999999999 M 132.088228567654,45.0511112605664 M 132.45,45.2009618943234 M 132.76066017178,45.4393398282201 M 132.999038105677,45.7499999999999 M 133.148888739434,46.1117714323462 M 133.2,46.5 M 133.148888739434,46.8882285676538 M 132.999038105677,47.25 M 132.76066017178,47.5606601717798 M 132.45,47.7990381056766 M 158.0,28.5 M 157.611771432347,28.4488887394336 M 157.25,28.2990381056767 M 156.939339828221,28.0606601717799 M 156.700961894324,27.75 M 156.551111260567,27.3882285676538 M 156.5,27.0000000000001 M 156.551111260567,26.6117714323462 M 156.700961894324,26.2500000000001 M 156.939339828221,25.9393398282202 M 157.25,25.7009618943234 M 157.611771432347,25.5511112605664 M 158.0,25.5 M 158.388228567654,25.5511112605664 M 158.75,25.7009618943234 M 159.06066017178,25.9393398282202 M 159.299038105677,26.2500000000001 M 159.448888739434,26.6117714323462 M 159.5,27.0000000000001 M 159.448888739434,27.3882285676538 M 159.299038105677,27.75 M 159.06066017178,28.0606601717799 M 158.75,28.2990381056767 M 158.388228567654,28.4488887394336 M 57.5000000000003,26.5 M 57.8882285676542,26.5511112605664 M 58.2500000000004,26.7009618943233 M 58.5606601717802,26.9393398282202 M 58.7990381056771,27.25 M 58.9488887394339,27.6117714323463 M 59.0000000000004,28.0 M 58.9488887394339,28.3882285676539 M 58.7990381056771,28.75 M 58.5606601717802,29.0606601717798 M 58.2500000000004,29.2990381056767 M 57.8882285676542,29.4488887394337 M 57.5000000000003,29.5 M 57.1117714323465,29.4488887394337 M 56.7500000000003,29.2990381056767 M 56.4393398282205,29.0606601717798 M 56.2009618943237,28.75 M 56.0511112605668,28.3882285676539 M 56.0000000000003,28.0 M 56.0511112605668,27.6117714323463 M 56.2009618943237,27.25 M 56.4393398282204,26.9393398282202 M 56.7500000000003,26.7009618943234 M 57.1117714323465,26.5511112605664 M 99.1117714323466,85.0511112605664 M 99.5000000000003,85.0 M 99.8882285676542,85.0511112605664 M 100.25,85.2009618943234 M 100.56066017178,85.4393398282202 M 100.799038105677,85.75 M 100.948888739434,86.1117714323462 M 101.0,86.5 M 100.948888739434,86.8882285676538 M 100.799038105677,87.25 M 100.56066017178,87.5606601717799 M 100.25,87.7990381056766 M 99.8882285676542,87.9488887394336 M 99.5000000000003,88.0 M 99.1117714323466,87.9488887394336 M 98.7500000000003,87.7990381056767 M 98.4393398282205,87.5606601717799 M 98.2009618943236,87.25 M 98.0511112605668,86.8882285676538 M 98.0000000000003,86.5 M 98.0511112605668,86.1117714323462 M 98.2009618943236,85.75 M 98.4393398282205,85.4393398282202 M 98.7500000000003,85.2009618943234 M 141.0,81.0974085037301 M 141.111771432347,81.0511112605664 M 141.5,81.0000000000001 M 141.888228567654,81.0511112605664 M 142.25,81.2009618943234 M 142.56066017178,81.4393398282201 M 142.799038105677,81.75 M 142.948888739434,82.1117714323462 M 143.0,82.5 M 142.948888739434,82.8882285676538 M 142.799038105677,83.25 M 142.56066017178,83.5606601717799 M 142.25,83.7990381056767 M 141.888228567654,83.9488887394336 M 141.5,84.0 M 141.111771432347,83.9488887394336 M 141.0,83.9025914962699 M 140.75,83.7990381056767 M 140.43933982822,83.5606601717799 M 140.200961894324,83.25 M 140.051111260567,82.8882285676538 M 140.0,82.5 M 140.051111260567,82.1117714323462 M 140.200961894324,81.75 M 140.43933982822,81.4393398282201 M 140.75,81.2009618943234 M 58.9488887394339,82.1117714323462 M 59.0000000000004,82.5 M 58.9488887394339,82.8882285676538 M 58.7990381056771,83.25 M 58.5606601717802,83.5606601717798 M 58.2500000000004,83.7990381056767 M 57.8882285676542,83.9488887394336 M 57.5000000000003,83.9999999999999 M 57.1117714323466,83.9488887394336 M 56.7500000000003,83.7990381056767 M 56.4393398282204,83.5606601717799 M 56.2009618943237,83.25 M 56.0511112605668,82.8882285676538 M 56.0000000000004,82.5 M 56.0511112605668,82.1117714323462 M 56.2009618943237,81.75 M 56.4393398282204,81.4393398282201 M 56.7500000000003,81.2009618943233 M 57.1117714323465,81.0511112605664 M 57.5000000000003,81.0 M 57.8882285676542,81.0511112605664 M 58.2500000000004,81.2009618943234 M 58.5606601717802,81.4393398282201 M 58.7990381056771,81.75 " />
  <path
     id="face41-cut"
     style="fill:none;stroke:#000000;stroke-width:0.49999999;stroke-miterlimit:4;stroke-dasharray:none;stroke-linejoin:round;stroke-linecap:round"
     d="M 10.0,10.0 L 10.0,110.0 L 182.5,110.0 L 182.5,10.0 L 10.0,10.0 M 18.690370196006,16.5470666710705 M 18.7500000000002,17.0000000000001 M 18.690370196006,17.4529333289294 M 18.5155444566229,17.8750000000001 M 18.2374368670767,18.2374368670766 M 17.8750000000001,18.5155444566229 M 17.4529333289296,18.690370196006 M 17.0000000000001,18.7500000000001 M 16.5470666710706,18.690370196006 M 16.1250000000001,18.5155444566228 M 15.7625631329236,18.2374368670766 M 15.4844555433773,17.8750000000001 M 15.3096298039942,17.4529333289294 M 15.25,17.0000000000001 M 15.3096298039942,16.5470666710707 M 15.4844555433773,16.125 M 15.7625631329236,15.7625631329236 M 16.1250000000001,15.4844555433771 M 16.5470666710706,15.309629803994 M 17.0000000000001,15.2499999999999 M 17.4529333289296,15.3096298039941 M 17.8750000000001,15.4844555433771 M 18.2374368670767,15.7625631329235 M 18.5155444566229,16.125 M 177.190370196006,102.547066671071 M 177.250000000001,103.0 M 177.190370196006,103.452933328929 M 177.015544456623,103.875 M 176.737436867077,104.237436867077 M 176.375,104.515544456623 M 175.95293332893,104.690370196006 M 175.5,104.75 M 175.047066671071,104.690370196006 M 174.625,104.515544456623 M 174.262563132924,104.237436867077 M 173.984455543378,103.875 M 173.809629803995,103.452933328929 M 173.75,103.0 M 173.809629803995,102.547066671071 M 173.984455543378,102.125 M 174.262563132924,101.762563132924 M 174.625,101.484455543377 M 175.047066671071,101.309629803994 M 175.5,101.25 M 175.95293332893,101.309629803994 M 176.375,101.484455543377 M 176.737436867077,101.762563132923 M 177.015544456623,102.125 M 141.068546426175,50.2616702801444 M 141.0,50.5 M 141.0,79.0 M 141.5,79.0 M 142.405866657859,79.1192596079882 M 143.25,79.4689110867544 M 143.974873734153,80.0251262658471 M 144.531088913246,80.75 M 144.880740392012,81.5941333421412 M 145.0,82.5 M 144.880740392012,83.4058666578589 M 144.531088913246,84.25 M 143.974873734153,84.9748737341529 M 143.25,85.5310889132456 M 134.0,89.5 M 64.5000000000003,89.5 M 55.7500000000003,85.5310889132456 M 55.0251262658474,84.9748737341529 M 54.4689110867548,84.25 M 54.1192596079886,83.4058666578589 M 54.0000000000003,82.5 M 54.0000000000003,27.9999999999999 M 54.1192596079886,27.0941333421412 M 54.4689110867548,26.2500000000001 M 55.0251262658474,25.5251262658472 M 55.7500000000003,24.9689110867545 M 66.5000000000003,20.0 M 131.0,20.0 M 158.776457135308,24.1022225211328 M 159.5,24.4019237886468 M 160.12132034356,24.8786796564404 M 160.598076211354,25.5 M 160.897777478868,26.2235428646925 M 161.0,27.0 M 161.0,48.5000000000001 M 143.0,48.5000000000001 M 142.761670280145,48.5685464261746 M 142.530635106903,48.6586708769807 M 142.308843531913,48.769613047371 M 142.098166626257,48.9004370105093 M 141.900381695799,49.050039113407 M 141.717157287526,49.2171572875254 M 141.550039113407,49.4003816957987 M 141.40043701051,49.5981666262569 M 141.269613047371,49.8088435319123 M 141.158670876981,50.0306351069031 M 177.190370196006,16.5470666710706 M 177.250000000001,17.0 M 177.190370196006,17.4529333289294 M 177.015544456623,17.8750000000001 M 176.737436867077,18.2374368670766 M 176.375,18.5155444566229 M 175.95293332893,18.690370196006 M 175.5,18.7500000000001 M 175.047066671071,18.690370196006 M 174.625,18.5155444566229 M 174.262563132924,18.2374368670766 M 173.984455543378,17.8750000000001 M 173.809629803995,17.4529333289294 M 173.75,17.0 M 173.809629803995,16.5470666710706 M 173.984455543378,16.125 M 174.262563132924,15.7625631329235 M 174.625,15.4844555433772 M 175.047066671071,15.309629803994 M 175.5,15.25 M 175.95293332893,15.3096298039941 M 176.375,15.4844555433772 M 176.737436867077,15.7625631329235 M 177.015544456623,16.125 M 18.690370196006,102.547066671071 M 18.7500000000002,103.0 M 18.690370196006,103.452933328929 M 18.5155444566229,103.875 M 18.2374368670767,104.237436867077 M 17.8750000000001,104.515544456623 M 17.4529333289296,104.690370196006 M 17.0000000000001,104.75 M 16.5470666710706,104.690370196006 M 16.1250000000001,104.515544456623 M 15.7625631329236,104.237436867077 M 15.4844555433774,103.875 M 15.3096298039942,103.452933328929 M 15.25,103.0 M 15.3096298039943,102.547066671071 M 15.4844555433774,102.125 M 15.7625631329236,101.762563132924 M 16.1250000000001,101.484455543377 M 16.5470666710706,101.309629803994 M 17.0000000000001,101.25 M 17.4529333289296,101.309629803994 M 17.8750000000001,101.484455543377 M 18.2374368670767,101.762563132923 M 18.5155444566229,102.125 " />
  <path
     id="face0-interior"
     style="fill:none;stroke:#000000;stroke-width:0.49999999;stroke-miterlimit:4;stroke-dasharray:none;stroke-linejoin:round;stroke-linecap:round"
     d="M 130.2,46.5 L 131.7,46.5 L 131.7,44.9999999999999 L 131.311771432347,45.0511112605664 L 130.95,45.2009618943234 L 130.639339828221,45.4393398282201 L 130.400961894324,45.7499999999999 L 130.251111260567,46.1117714323462 L 130.2,46.5 " />
  <path
     id="face1-interior"
     style="fill:none;stroke:#000000;stroke-width:0.49999999;stroke-miterlimit:4;stroke-dasharray:none;stroke-linejoin:round;stroke-linecap:round"
     d="M 131.311771432347,47.9488887394335 L 131.7,48.0 L 131.7,46.5 M 130.2,46.5 L 130.251111260567,46.8882285676538 L 130.400961894324,47.25 L 130.639339828221,47.5606601717798 L 130.95,47.7990381056766 L 131.311771432347,47.9488887394335 " />
  <path
     id="face2-interior"
     style="fill:none;stroke:#000000;stroke-width:0.49999999;stroke-miterlimit:4;stroke-dasharray:none;stroke-linejoin:round;stroke-linecap:round"
     d="M 132.088228567654,45.0511112605664 L 131.7,44.9999999999999 M 131.7,46.5 L 133.2,46.5 L 133.148888739434,46.1117714323462 L 132.999038105677,45.7499999999999 L 132.76066017178,45.4393398282201 L 132.45,45.2009618943234 L 132.088228567654,45.0511112605664 " />
  <path
     id="face3-interior"
     style="fill:none;stroke:#000000;stroke-width:0.49999999;stroke-miterlimit:4;stroke-dasharray:none;stroke-linejoin:round;stroke-linecap:round"
     d="M 17.4529333289296,15.3096298039941 L 17.0000000000001,15.2499999999999 L 17.0000000000001,17.0000000000001 L 18.7500000000002,17.0000000000001 L 18.690370196006,16.5470666710705 L 18.5155444566229,16.125 L 18.2374368670767,15.7625631329235 L 17.8750000000001,15.4844555433771 L 17.4529333289296,15.3096298039941 " />
  <path
     id="face4-interior"
     style="fill:none;stroke:#000000;stroke-width:0.49999999;stroke-miterlimit:4;stroke-dasharray:none;stroke-linejoin:round;stroke-linecap:round"
     d="M 15.25,17.0000000000001 L 17.0000000000001,17.0000000000001 M 17.0000000000001,15.2499999999999 L 16.5470666710706,15.309629803994 L 16.1250000000001,15.4844555433771 L 15.7625631329236,15.7625631329236 L 15.4844555433773,16.125 L 15.3096298039942,16.5470666710707 L 15.25,17.0000000000001 " />
  <path
     id="face5-interior"
     style="fill:none;stroke:#000000;stroke-width:0.49999999;stroke-miterlimit:4;stroke-dasharray:none;stroke-linejoin:round;stroke-linecap:round"
     d="M 18.7500000000002,17.0000000000001 M 17.0000000000001,17.0000000000001 L 17.0000000000001,18.7500000000001 L 17.4529333289296,18.690370196006 L 17.8750000000001,18.5155444566229 L 18.2374368670767,18.2374368670766 L 18.5155444566229,17.8750000000001 L 18.690370196006,17.4529333289294 L 18.7500000000002,17.0000000000001 " />
  <path
     id="face6-interior"
     style="fill:none;stroke:#000000;stroke-width:0.49999999;stroke-miterlimit:4;stroke-dasharray:none;stroke-linejoin:round;stroke-linecap:round"
     d="M 16.5470666710706,18.690370196006 L 17.0000000000001,18.7500000000001 M 17.0000000000001,17.0000000000001 M 15.25,17.0000000000001 L 15.3096298039942,17.4529333289294 L 15.4844555433773,17.8750000000001 L 15.7625631329236,18.2374368670766 L 16.1250000000001,18.5155444566228 L 16.5470666710706,18.690370196006 " />
  <path
     id="face7-interior"
     style="fill:none;stroke:#000000;stroke-width:0.49999999;stroke-miterlimit:4;stroke-dasharray:none;stroke-linejoin:round;stroke-linecap:round"
     d="M 15.25,103.0 L 17.0000000000001,103.0 L 17.0000000000001,101.25 L 16.5470666710706,101.309629803994 L 16.1250000000001,101.484455543377 L 15.7625631329236,101.762563132924 L 15.4844555433774,102.125 L 15.3096298039943,102.547066671071 L 15.25,103.0 " />
  <path
     id="face8-interior"
     style="fill:none;stroke:#000000;stroke-width:0.49999999;stroke-miterlimit:4;stroke-dasharray:none;stroke-linejoin:round;stroke-linecap:round"
     d="M 16.5470666710706,104.690370196006 L 17.0000000000001,104.75 L 17.0000000000001,103.0 M 15.25,103.0 L 15.3096298039942,103.452933328929 L 15.4844555433774,103.875 L 15.7625631329236,104.237436867077 L 16.1250000000001,104.515544456623 L 16.5470666710706,104.690370196006 " />
  <path
     id="face9-interior"
     style="fill:none;stroke:#000000;stroke-width:0.49999999;stroke-miterlimit:4;stroke-dasharray:none;stroke-linejoin:round;stroke-linecap:round"
     d="M 18.7500000000002,103.0 L 17.0000000000001,103.0 M 17.0000000000001,104.75 L 17.4529333289296,104.690370196006 L 17.8750000000001,104.515544456623 L 18.2374368670767,104.237436867077 L 18.5155444566229,103.875 L 18.690370196006,103.452933328929 L 18.7500000000002,103.0 " />
  <path
     id="face10-interior"
     style="fill:none;stroke:#000000;stroke-width:0.49999999;stroke-miterlimit:4;stroke-dasharray:none;stroke-linejoin:round;stroke-linecap:round"
     d="M 17.4529333289296,101.309629803994 L 17.0000000000001,101.25 M 17.0000000000001,103.0 M 18.7500000000002,103.0 L 18.690370196006,102.547066671071 L 18.5155444566229,102.125 L 18.2374368670767,101.762563132923 L 17.8750000000001,101.484455543377 L 17.4529333289296,101.309629803994 " />
  <path
     id="face11-interior"
     style="fill:none;stroke:#000000;stroke-width:0.49999999;stroke-miterlimit:4;stroke-dasharray:none;stroke-linejoin:round;stroke-linecap:round"
     d="M 175.95293332893,101.309629803994 L 175.5,101.25 L 175.5,103.0 L 177.250000000001,103.0 L 177.190370196006,102.547066671071 L 177.015544456623,102.125 L 176.737436867077,101.762563132923 L 176.375,101.484455543377 L 175.95293332893,101.309629803994 " />
  <path
     id="face12-interior"
     style="fill:none;stroke:#000000;stroke-width:0.49999999;stroke-miterlimit:4;stroke-dasharray:none;stroke-linejoin:round;stroke-linecap:round"
     d="M 173.75,17.0 L 175.5,17.0 L 175.5,15.25 L 175.047066671071,15.309629803994 L 174.625,15.4844555433772 L 174.262563132924,15.7625631329235 L 173.984455543378,16.125 L 173.809629803995,16.5470666710706 L 173.75,17.0 " />
  <path
     id="face13-interior"
     style="fill:none;stroke:#000000;stroke-width:0.49999999;stroke-miterlimit:4;stroke-dasharray:none;stroke-linejoin:round;stroke-linecap:round"
     d="M 173.75,103.0 L 175.5,103.0 M 175.5,101.25 L 175.047066671071,101.309629803994 L 174.625,101.484455543377 L 174.262563132924,101.762563132924 L 173.984455543378,102.125 L 173.809629803995,102.547066671071 L 173.75,103.0 " />
  <path
     id="face14-interior"
     style="fill:none;stroke:#000000;stroke-width:0.49999999;stroke-miterlimit:4;stroke-dasharray:none;stroke-linejoin:round;stroke-linecap:round"
     d="M 177.250000000001,17.0 L 175.5,17.0 L 175.5,18.7500000000001 L 175.95293332893,18.690370196006 L 176.375,18.5155444566229 L 176.737436867077,18.2374368670766 L 177.015544456623,17.8750000000001 L 177.190370196006,17.4529333289294 L 177.250000000001,17.0 " />
  <path
     id="face15-interior"
     style="fill:none;stroke:#000000;stroke-width:0.49999999;stroke-miterlimit:4;stroke-dasharray:none;stroke-linejoin:round;stroke-linecap:round"
     d="M 175.047066671071,18.690370196006 L 175.5,18.7500000000001 M 175.5,17.0 M 173.75,17.0 L 173.809629803995,17.4529333289294 L 173.984455543378,17.8750000000001 L 174.262563132924,18.2374368670766 L 174.625,18.5155444566229 L 175.047066671071,18.690370196006 " />
  <path
     id="face16-interior"
     style="fill:none;stroke:#000000;stroke-width:0.49999999;stroke-miterlimit:4;stroke-dasharray:none;stroke-linejoin:round;stroke-linecap:round"
     d="M 175.047066671071,104.690370196006 L 175.5,104.75 L 175.5,103.0 M 173.75,103.0 L 173.809629803995,103.452933328929 L 173.984455543378,103.875 L 174.262563132924,104.237436867077 L 174.625,104.515544456623 L 175.047066671071,104.690370196006 " />
  <path
     id="face17-interior"
     style="fill:none;stroke:#000000;stroke-width:0.49999999;stroke-miterlimit:4;stroke-dasharray:none;stroke-linejoin:round;stroke-linecap:round"
     d="M 177.250000000001,103.0 M 175.5,103.0 M 175.5,104.75 L 175.95293332893,104.690370196006 L 176.375,104.515544456623 L 176.737436867077,104.237436867077 L 177.015544456623,103.875 L 177.190370196006,103.452933328929 L 177.250000000001,103.0 " />
  <path
     id="face18-interior"
     style="fill:none;stroke:#000000;stroke-width:0.49999999;stroke-miterlimit:4;stroke-dasharray:none;stroke-linejoin:round;stroke-linecap:round"
     d="M 175.95293332893,15.3096298039941 L 175.5,15.25 M 175.5,17.0 M 177.250000000001,17.0 L 177.190370196006,16.5470666710706 L 177.015544456623,16.125 L 176.737436867077,15.7625631329235 L 176.375,15.4844555433772 L 175.95293332893,15.3096298039941 " />
  <path
     id="face19-interior"
     style="fill:none;stroke:#000000;stroke-width:0.49999999;stroke-miterlimit:4;stroke-dasharray:none;stroke-linejoin:round;stroke-linecap:round"
     d="M 98.0000000000003,86.5 L 99.5000000000003,86.5 L 99.5000000000003,85.0 L 99.1117714323466,85.0511112605664 L 98.7500000000003,85.2009618943234 L 98.4393398282205,85.4393398282202 L 98.2009618943236,85.75 L 98.0511112605668,86.1117714323462 L 98.0000000000003,86.5 " />
  <path
     id="face20-interior"
     style="fill:none;stroke:#000000;stroke-width:0.49999999;stroke-miterlimit:4;stroke-dasharray:none;stroke-linejoin:round;stroke-linecap:round"
     d="M 99.1117714323466,87.9488887394336 L 99.5000000000003,88.0 L 99.5000000000003,86.5 M 98.0000000000003,86.5 L 98.0511112605668,86.8882285676538 L 98.2009618943236,87.25 L 98.4393398282205,87.5606601717799 L 98.7500000000003,87.7990381056767 L 99.1117714323466,87.9488887394336 " />
  <path
     id="face21-interior"
     style="fill:none;stroke:#000000;stroke-width:0.49999999;stroke-miterlimit:4;stroke-dasharray:none;stroke-linejoin:round;stroke-linecap:round"
     d="M 158.388228567654,25.5511112605664 L 158.0,25.5 L 158.0,27.0000000000001 L 159.5,27.0000000000001 L 159.448888739434,26.6117714323462 L 159.299038105677,26.2500000000001 L 159.06066017178,25.9393398282202 L 158.75,25.7009618943234 L 158.388228567654,25.5511112605664 " />
  <path
     id="face22-interior"
     style="fill:none;stroke:#000000;stroke-width:0.49999999;stroke-miterlimit:4;stroke-dasharray:none;stroke-linejoin:round;stroke-linecap:round"
     d="M 159.5,27.0000000000001 M 158.0,27.0000000000001 L 158.0,28.5 L 158.388228567654,28.4488887394336 L 158.75,28.2990381056767 L 159.06066017178,28.0606601717799 L 159.299038105677,27.75 L 159.448888739434,27.3882285676538 L 159.5,27.0000000000001 " />
  <path
     id="face23-interior"
     style="fill:none;stroke:#000000;stroke-width:0.49999999;stroke-miterlimit:4;stroke-dasharray:none;stroke-linejoin:round;stroke-linecap:round"
     d="M 157.611771432347,28.4488887394336 L 158.0,28.5 M 158.0,27.0000000000001 L 156.5,27.0000000000001 L 156.551111260567,27.3882285676538 L 156.700961894324,27.75 L 156.939339828221,28.0606601717799 L 157.25,28.2990381056767 L 157.611771432347,28.4488887394336 " />
  <path
     id="face24-interior"
     style="fill:none;stroke:#000000;stroke-width:0.49999999;stroke-miterlimit:4;stroke-dasharray:none;stroke-linejoin:round;stroke-linecap:round"
     d="M 156.5,27.0000000000001 M 158.0,27.0000000000001 M 158.0,25.5 L 157.611771432347,25.5511112605664 L 157.25,25.7009618943234 L 156.939339828221,25.9393398282202 L 156.700961894324,26.2500000000001 L 156.551111260567,26.6117714323462 L 156.5,27.0000000000001 " />
  <path
     id="face25-interior"
     style="fill:none;stroke:#000000;stroke-width:0.49999999;stroke-miterlimit:4;stroke-dasharray:none;stroke-linejoin:round;stroke-linecap:round"
     d="M 140.0,82.5 L 141.5,82.5 L 141.5,81.0000000000001 L 141.111771432347,81.0511112605664 L 141.0,81.0974085037301 L 140.75,81.2009618943234 L 140.43933982822,81.4393398282201 L 140.200961894324,81.75 L 140.051111260567,82.1117714323462 L 140.0,82.5 " />
  <path
     id="face26-interior"
     style="fill:none;stroke:#000000;stroke-width:0.49999999;stroke-miterlimit:4;stroke-dasharray:none;stroke-linejoin:round;stroke-linecap:round"
     d="M 99.8882285676542,85.0511112605664 L 99.5000000000003,85.0 M 99.5000000000003,86.5 L 101.0,86.5 L 100.948888739434,86.1117714323462 L 100.799038105677,85.75 L 100.56066017178,85.4393398282202 L 100.25,85.2009618943234 L 99.8882285676542,85.0511112605664 " />
  <path
     id="face27-interior"
     style="fill:none;stroke:#000000;stroke-width:0.49999999;stroke-miterlimit:4;stroke-dasharray:none;stroke-linejoin:round;stroke-linecap:round"
     d="M 57.1117714323465,29.4488887394337 L 57.5000000000003,29.5 L 57.5000000000003,27.9999999999999 L 56.0000000000003,28.0 L 56.0511112605668,28.3882285676539 L 56.2009618943237,28.75 L 56.4393398282205,29.0606601717798 L 56.7500000000003,29.2990381056767 L 57.1117714323465,29.4488887394337 " />
  <path
     id="face28-interior"
     style="fill:none;stroke:#000000;stroke-width:0.49999999;stroke-miterlimit:4;stroke-dasharray:none;stroke-linejoin:round;stroke-linecap:round"
     d="M 143.0,82.5 L 141.5,82.5 L 141.5,84.0 L 141.888228567654,83.9488887394336 L 142.25,83.7990381056767 L 142.56066017178,83.5606601717799 L 142.799038105677,83.25 L 142.948888739434,82.8882285676538 L 143.0,82.5 " />
  <path
     id="face29-interior"
     style="fill:none;stroke:#000000;stroke-width:0.49999999;stroke-miterlimit:4;stroke-dasharray:none;stroke-linejoin:round;stroke-linecap:round"
     d="M 56.0000000000003,28.0 M 57.5000000000003,27.9999999999999 L 57.5000000000003,26.5 L 57.1117714323465,26.5511112605664 L 56.7500000000003,26.7009618943234 L 56.4393398282204,26.9393398282202 L 56.2009618943237,27.25 L 56.0511112605668,27.6117714323463 L 56.0000000000003,28.0 " />
  <path
     id="face30-interior"
     style="fill:none;stroke:#000000;stroke-width:0.49999999;stroke-miterlimit:4;stroke-dasharray:none;stroke-linejoin:round;stroke-linecap:round"
     d="M 141.888228567654,81.0511112605664 L 141.5,81.0000000000001 M 141.5,82.5 M 143.0,82.5 L 142.948888739434,82.1117714323462 L 142.799038105677,81.75 L 142.56066017178,81.4393398282201 L 142.25,81.2009618943234 L 141.888228567654,81.0511112605664 " />
  <path
     id="face31-interior"
     style="fill:none;stroke:#000000;stroke-width:0.49999999;stroke-miterlimit:4;stroke-dasharray:none;stroke-linejoin:round;stroke-linecap:round"
     d="M 101.0,86.5 M 99.5000000000003,86.5 M 99.5000000000003,88.0 L 99.8882285676542,87.9488887394336 L 100.25,87.7990381056766 L 100.56066017178,87.5606601717799 L 100.799038105677,87.25 L 100.948888739434,86.8882285676538 L 101.0,86.5 " />
  <path
     id="face32-interior"
     style="fill:none;stroke:#000000;stroke-width:0.49999999;stroke-miterlimit:4;stroke-dasharray:none;stroke-linejoin:round;stroke-linecap:round"
     d="M 141.111771432347,83.9488887394336 L 141.5,84.0 M 141.5,82.5 M 140.0,82.5 L 140.051111260567,82.8882285676538 L 140.200961894324,83.25 L 140.43933982822,83.5606601717799 L 140.75,83.7990381056767 L 141.0,83.9025914962699 L 141.111771432347,83.9488887394336 " />
  <path
     id="face33-interior"
     style="fill:none;stroke:#000000;stroke-width:0.49999999;stroke-miterlimit:4;stroke-dasharray:none;stroke-linejoin:round;stroke-linecap:round"
     d="M 57.1117714323466,83.9488887394336 L 57.5000000000003,83.9999999999999 L 57.5000000000003,82.5 L 56.0000000000004,82.5 L 56.0511112605668,82.8882285676538 L 56.2009618943237,83.25 L 56.4393398282204,83.5606601717799 L 56.7500000000003,83.7990381056767 L 57.1117714323466,83.9488887394336 " />
  <path
     id="face34-interior"
     style="fill:none;stroke:#000000;stroke-width:0.49999999;stroke-miterlimit:4;stroke-dasharray:none;stroke-linejoin:round;stroke-linecap:round"
     d="M 57.8882285676542,81.0511112605664 L 57.5000000000003,81.0 L 57.5000000000003,82.5 L 59.0000000000004,82.5 L 58.9488887394339,82.1117714323462 L 58.7990381056771,81.75 L 58.5606601717802,81.4393398282201 L 58.2500000000004,81.2009618943234 L 57.8882285676542,81.0511112605664 " />
  <path
     id="face35-interior"
     style="fill:none;stroke:#000000;stroke-width:0.49999999;stroke-miterlimit:4;stroke-dasharray:none;stroke-linejoin:round;stroke-linecap:round"
     d="M 57.8882285676542,26.5511112605664 L 57.5000000000003,26.5 M 57.5000000000003,27.9999999999999 L 59.0000000000004,28.0 L 58.9488887394339,27.6117714323463 L 58.7990381056771,27.25 L 58.5606601717802,26.9393398282202 L 58.2500000000004,26.7009618943233 L 57.8882285676542,26.5511112605664 " />
  <path
     id="face36-interior"
     style="fill:none;stroke:#000000;stroke-width:0.49999999;stroke-miterlimit:4;stroke-dasharray:none;stroke-linejoin:round;stroke-linecap:round"
     d="M 59.0000000000004,28.0 M 57.5000000000003,27.9999999999999 M 57.5000000000003,29.5 L 57.8882285676542,29.4488887394337 L 58.2500000000004,29.2990381056767 L 58.5606601717802,29.0606601717798 L 58.7990381056771,28.75 L 58.9488887394339,28.3882285676539 L 59.0000000000004,28.0 " />
  <path
     id="face37-interior"
     style="fill:none;stroke:#000000;stroke-width:0.49999999;stroke-miterlimit:4;stroke-dasharray:none;stroke-linejoin:round;stroke-linecap:round"
     d="M 56.0000000000004,82.5 M 57.5000000000003,82.5 M 57.5000000000003,81.0 L 57.1117714323465,81.0511112605664 L 56.7500000000003,81.2009618943233 L 56.4393398282204,81.4393398282201 L 56.2009618943237,81.75 L 56.0511112605668,82.1117714323462 L 56.0000000000004,82.5 " />
  <path
     id="face38-interior"
     style="fill:none;stroke:#000000;stroke-width:0.49999999;stroke-miterlimit:4;stroke-dasharray:none;stroke-linejoin:round;stroke-linecap:round"
     d="M 59.0000000000004,82.5 M 57.5000000000003,82.5 M 57.5000000000003,83.9999999999999 L 57.8882285676542,83.9488887394336 L 58.2500000000004,83.7990381056767 L 58.5606601717802,83.5606601717798 L 58.7990381056771,83.25 L 58.9488887394339,82.8882285676538 L 59.0000000000004,82.5 " />
  <path
     id="face39-interior"
     style="fill:none;stroke:#000000;stroke-width:0.49999999;stroke-miterlimit:4;stroke-dasharray:none;stroke-linejoin:round;stroke-linecap:round"
     d="M 133.2,46.5 M 131.7,46.5 M 131.7,48.0 L 132.088228567654,47.9488887394335 L 132.45,47.7990381056766 L 132.76066017178,47.5606601717798 L 132.999038105677,47.25 L 133.148888739434,46.8882285676538 L 133.2,46.5 " />
  <path
     id="face40-interior"
     style="fill:none;stroke:#000000;stroke-width:0.49999999;stroke-miterlimit:4;stroke-dasharray:none;stroke-linejoin:round;stroke-linecap:round"
     d="M 141.0,50.5 L 141.068546426175,50.2616702801444 L 141.158670876981,50.0306351069031 L 141.269613047371,49.8088435319123 L 141.40043701051,49.5981666262569 L 141.550039113407,49.4003816957987 L 141.717157287526,49.2171572875254 L 141.900381695799,49.050039113407 L 142.098166626257,48.9004370105093 L 142.308843531913,48.769613047371 L 142.530635106903,48.6586708769807 L 142.761670280145,48.5685464261746 L 143.0,48.5000000000001 L 161.0,48.5000000000001 L 161.0,27.0 L 160.897777478868,26.2235428646925 L 160.598076211354,25.5 L 160.12132034356,24.8786796564404 L 159.5,24.4019237886468 L 158.776457135308,24.1022225211328 L 131.0,20.0 L 66.5000000000003,20.0 L 55.7500000000003,24.9689110867545 L 55.0251262658474,25.5251262658472 L 54.4689110867548,26.2500000000001 L 54.1192596079886,27.0941333421412 L 54.0000000000003,27.9999999999999 L 54.0000000000003,82.5 L 54.1192596079886,83.4058666578589 L 54.4689110867548,84.25 L 55.0251262658474,84.9748737341529 L 55.7500000000003,85.5310889132456 L 64.5000000000003,89.5 L 134.0,89.5 L 143.25,85.5310889132456 L 143.974873734153,84.9748737341529 L 144.531088913246,84.25 L 144.880740392012,83.4058666578589 L 145.0,82.5 L 144.880740392012,81.5941333421412 L 144.531088913246,80.75 L 143.974873734153,80.0251262658471 L 143.25,79.4689110867544 L 142.405866657859,79.1192596079882 L 141.5,79.0 L 141.0,79.0 L 141.0,50.5 M 132.088228567654,47.9488887394335 M 131.7,48.0 M 131.311771432347,47.9488887394335 M 130.95,47.7990381056766 M 130.639339828221,47.5606601717798 M 130.400961894324,47.25 M 130.251111260567,46.8882285676538 M 130.2,46.5 M 130.251111260567,46.1117714323462 M 130.400961894324,45.7499999999999 M 130.639339828221,45.4393398282201 M 130.95,45.2009618943234 M 131.311771432347,45.0511112605664 M 131.7,44.9999999999999 M 132.088228567654,45.0511112605664 M 132.45,45.2009618943234 M 132.76066017178,45.4393398282201 M 132.999038105677,45.7499999999999 M 133.148888739434,46.1117714323462 M 133.2,46.5 M 133.148888739434,46.8882285676538 M 132.999038105677,47.25 M 132.76066017178,47.5606601717798 M 132.45,47.7990381056766 M 158.0,28.5 M 157.611771432347,28.4488887394336 M 157.25,28.2990381056767 M 156.939339828221,28.0606601717799 M 156.700961894324,27.75 M 156.551111260567,27.3882285676538 M 156.5,27.0000000000001 M 156.551111260567,26.6117714323462 M 156.700961894324,26.2500000000001 M 156.939339828221,25.9393398282202 M 157.25,25.7009618943234 M 157.611771432347,25.5511112605664 M 158.0,25.5 M 158.388228567654,25.5511112605664 M 158.75,25.7009618943234 M 159.06066017178,25.9393398282202 M 159.299038105677,26.2500000000001 M 159.448888739434,26.6117714323462 M 159.5,27.0000000000001 M 159.448888739434,27.3882285676538 M 159.299038105677,27.75 M 159.06066017178,28.0606601717799 M 158.75,28.2990381056767 M 158.388228567654,28.4488887394336 M 57.5000000000003,26.5 M 57.8882285676542,26.5511112605664 M 58.2500000000004,26.7009618943233 M 58.5606601717802,26.9393398282202 M 58.7990381056771,27.25 M 58.9488887394339,27.6117714323463 M 59.0000000000004,28.0 M 58.9488887394339,28.3882285676539 M 58.7990381056771,28.75 M 58.5606601717802,29.0606601717798 M 58.2500000000004,29.2990381056767 M 57.8882285676542,29.4488887394337 M 57.5000000000003,29.5 M 57.1117714323465,29.4488887394337 M 56.7500000000003,29.2990381056767 M 56.4393398282205,29.0606601717798 M 56.2009618943237,28.75 M 56.0511112605668,28.3882285676539 M 56.0000000000003,28.0 M 56.0511112605668,27.6117714323463 M 56.2009618943237,27.25 M 56.4393398282204,26.9393398282202 M 56.7500000000003,26.7009618943234 M 57.1117714323465,26.5511112605664 M 99.1117714323466,85.0511112605664 M 99.5000000000003,85.0 M 99.8882285676542,85.0511112605664 M 100.25,85.2009618943234 M 100.56066017178,85.4393398282202 M 100.799038105677,85.75 M 100.948888739434,86.1117714323462 M 101.0,86.5 M 100.948888739434,86.8882285676538 M 100.799038105677,87.25 M 100.56066017178,87.5606601717799 M 100.25,87.7990381056766 M 99.8882285676542,87.9488887394336 M 99.5000000000003,88.0 M 99.1117714323466,87.9488887394336 M 98.7500000000003,87.7990381056767 M 98.4393398282205,87.5606601717799 M 98.2009618943236,87.25 M 98.0511112605668,86.8882285676538 M 98.0000000000003,86.5 M 98.0511112605668,86.1117714323462 M 98.2009618943236,85.75 M 98.4393398282205,85.4393398282202 M 98.7500000000003,85.2009618943234 M 141.0,81.0974085037301 M 141.111771432347,81.0511112605664 M 141.5,81.0000000000001 M 141.888228567654,81.0511112605664 M 142.25,81.2009618943234 M 142.56066017178,81.4393398282201 M 142.799038105677,81.75 M 142.948888739434,82.1117714323462 M 143.0,82.5 M 142.948888739434,82.8882285676538 M 142.799038105677,83.25 M 142.56066017178,83.5606601717799 M 142.25,83.7990381056767 M 141.888228567654,83.9488887394336 M 141.5,84.0 M 141.111771432347,83.9488887394336 M 141.0,83.9025914962699 M 140.75,83.7990381056767 M 140.43933982822,83.5606601717799 M 140.200961894324,83.25 M 140.051111260567,82.8882285676538 M 140.0,82.5 M 140.051111260567,82.1117714323462 M 140.200961894324,81.75 M 140.43933982822,81.4393398282201 M 140.75,81.2009618943234 M 58.9488887394339,82.1117714323462 M 59.0000000000004,82.5 M 58.9488887394339,82.8882285676538 M 58.7990381056771,83.25 M 58.5606601717802,83.5606601717798 M 58.2500000000004,83.7990381056767 M 57.8882285676542,83.9488887394336 M 57.5000000000003,83.9999999999999 M 57.1117714323466,83.9488887394336 M 56.7500000000003,83.7990381056767 M 56.4393398282204,83.5606601717799 M 56.2009618943237,83.25 M 56.0511112605668,82.8882285676538 M 56.0000000000004,82.5 M 56.0511112605668,82.1117714323462 M 56.2009618943237,81.75 M 56.4393398282204,81.4393398282201 M 56.7500000000003,81.2009618943233 M 57.1117714323465,81.0511112605664 M 57.5000000000003,81.0 M 57.8882285676542,81.0511112605664 M 58.2500000000004,81.2009618943234 M 58.5606601717802,81.4393398282201 M 58.7990381056771,81.75 " />
  <path
     id="face41-interior"
     style="fill:none;stroke:#000000;stroke-width:0.49999999;stroke-miterlimit:4;stroke-dasharray:none;stroke-linejoin:round;stroke-linecap:round"
     d="M 10.0,10.0 M 10.0,110.0 M 182.5,110.0 M 182.5,10.0 M 18.690370196006,16.5470666710705 M 18.7500000000002,17.0000000000001 M 18.690370196006,17.4529333289294 M 18.5155444566229,17.8750000000001 M 18.2374368670767,18.2374368670766 M 17.8750000000001,18.5155444566229 M 17.4529333289296,18.690370196006 M 17.0000000000001,18.7500000000001 M 16.5470666710706,18.690370196006 M 16.1250000000001,18.5155444566228 M 15.7625631329236,18.2374368670766 M 15.4844555433773,17.8750000000001 M 15.3096298039942,17.4529333289294 M 15.25,17.0000000000001 M 15.3096298039942,16.5470666710707 M 15.4844555433773,16.125 M 15.7625631329236,15.7625631329236 M 16.1250000000001,15.4844555433771 M 16.5470666710706,15.309629803994 M 17.0000000000001,15.2499999999999 M 17.4529333289296,15.3096298039941 M 17.8750000000001,15.4844555433771 M 18.2374368670767,15.7625631329235 M 18.5155444566229,16.125 M 177.190370196006,102.547066671071 M 177.250000000001,103.0 M 177.190370196006,103.452933328929 M 177.015544456623,103.875 M 176.737436867077,104.237436867077 M 176.375,104.515544456623 M 175.95293332893,104.690370196006 M 175.5,104.75 M 175.047066671071,104.690370196006 M 174.625,104.515544456623 M 174.262563132924,104.237436867077 M 173.984455543378,103.875 M 173.809629803995,103.452933328929 M 173.75,103.0 M 173.809629803995,102.547066671071 M 173.984455543378,102.125 M 174.262563132924,101.762563132924 M 174.625,101.484455543377 M 175.047066671071,101.309629803994 M 175.5,101.25 M 175.95293332893,101.309629803994 M 176.375,101.484455543377 M 176.737436867077,101.762563132923 M 177.015544456623,102.125 M 141.068546426175,50.2616702801444 M 141.0,50.5 M 141.0,79.0 M 141.5,79.0 M 142.405866657859,79.1192596079882 M 143.25,79.4689110867544 M 143.974873734153,80.0251262658471 M 144.531088913246,80.75 M 144.880740392012,81.5941333421412 M 145.0,82.5 M 144.880740392012,83.4058666578589 M 144.531088913246,84.25 M 143.974873734153,84.9748737341529 M 143.25,85.5310889132456 M 134.0,89.5 M 64.5000000000003,89.5 M 55.7500000000003,85.5310889132456 M 55.0251262658474,84.9748737341529 M 54.4689110867548,84.25 M 54.1192596079886,83.4058666578589 M 54.0000000000003,82.5 M 54.0000000000003,27.9999999999999 M 54.1192596079886,27.0941333421412 M 54.4689110867548,26.2500000000001 M 55.0251262658474,25.5251262658472 M 55.7500000000003,24.9689110867545 M 66.5000000000003,20.0 M 131.0,20.0 M 158.776457135308,24.1022225211328 M 159.5,24.4019237886468 M 160.12132034356,24.8786796564404 M 160.598076211354,25.5 M 160.897777478868,26.2235428646925 M 161.0,27.0 M 161.0,48.5000000000001 M 143.0,48.5000000000001 M 142.761670280145,48.5685464261746 M 142.530635106903,48.6586708769807 M 142.308843531913,48.769613047371 M 142.098166626257,48.9004370105093 M 141.900381695799,49.050039113407 M 141.717157287526,49.2171572875254 M 141.550039113407,49.4003816957987 M 141.40043701051,49.5981666262569 M 141.269613047371,49.8088435319123 M 141.158670876981,50.0306351069031 M 177.190370196006,16.5470666710706 M 177.250000000001,17.0 M 177.190370196006,17.4529333289294 M 177.015544456623,17.8750000000001 M 176.737436867077,18.2374368670766 M 176.375,18.5155444566229 M 175.95293332893,18.690370196006 M 175.5,18.7500000000001 M 175.047066671071,18.690370196006 M 174.625,18.5155444566229 M 174.262563132924,18.2374368670766 M 173.984455543378,17.8750000000001 M 173.809629803995,17.4529333289294 M 173.75,17.0 M 173.809629803995,16.5470666710706 M 173.984455543378,16.125 M 174.262563132924,15.7625631329235 M 174.625,15.4844555433772 M 175.047066671071,15.309629803994 M 175.5,15.25 M 175.95293332893,15.3096298039941 M 176.375,15.4844555433772 M 176.737436867077,15.7625631329235 M 177.015544456623,16.125 M 18.690370196006,102.547066671071 M 18.7500000000002,103.0 M 18.690370196006,103.452933328929 M 18.5155444566229,103.875 M 18.2374368670767,104.237436867077 M 17.8750000000001,104.515544456623 M 17.4529333289296,104.690370196006 M 17.0000000000001,104.75 M 16.5470666710706,104.690370196006 M 16.1250000000001,104.515544456623 M 15.7625631329236,104.237436867077 M 15.4844555433774,103.875 M 15.3096298039942,103.452933328929 M 15.25,103.0 M 15.3096298039943,102.547066671071 M 15.4844555433774,102.125 M 15.7625631329236,101.762563132924 M 16.1250000000001,101.484455543377 M 16.5470666710706,101.309629803994 M 17.0000000000001,101.25 M 17.4529333289296,101.309629803994 M 17.8750000000001,101.484455543377 M 18.2374368670767,101.762563132923 M 18.5155444566229,102.125 " />
  <path
     id="path88"
     style="fill:none;stroke:#000000;stroke-width:0.49999999;stroke-miterlimit:4;stroke-dasharray:none;stroke-linejoin:round;stroke-linecap:round"
     d="M 130.2,46.5 M 131.7,46.5 M 131.7,44.9999999999999 M 131.311771432347,45.0511112605664 M 130.95,45.2009618943234 M 130.639339828221,45.4393398282201 M 130.400961894324,45.7499999999999 M 130.251111260567,46.1117714323462 " />
  <path
     id="path90"
     style="fill:none;stroke:#000000;stroke-width:0.49999999;stroke-miterlimit:4;stroke-dasharray:none;stroke-linejoin:round;stroke-linecap:round"
     d="M 131.311771432347,47.9488887394335 M 131.7,48.0 M 131.7,46.5 M 130.2,46.5 M 130.251111260567,46.8882285676538 M 130.400961894324,47.25 M 130.639339828221,47.5606601717798 M 130.95,47.7990381056766 " />
  <path
     id="path92"
     style="fill:none;stroke:#000000;stroke-width:0.49999999;stroke-miterlimit:4;stroke-dasharray:none;stroke-linejoin:round;stroke-linecap:round"
     d="M 132.088228567654,45.0511112605664 M 131.7,44.9999999999999 M 131.7,46.5 M 133.2,46.5 M 133.148888739434,46.1117714323462 M 132.999038105677,45.7499999999999 M 132.76066017178,45.4393398282201 M 132.45,45.2009618943234 " />
  <path
     id="path94"
     style="fill:none;stroke:#000000;stroke-width:0.49999999;stroke-miterlimit:4;stroke-dasharray:none;stroke-linejoin:round;stroke-linecap:round"
     d="M 17.4529333289296,15.3096298039941 M 17.0000000000001,15.2499999999999 M 17.0000000000001,17.0000000000001 M 18.7500000000002,17.0000000000001 M 18.690370196006,16.5470666710705 M 18.5155444566229,16.125 M 18.2374368670767,15.7625631329235 M 17.8750000000001,15.4844555433771 " />
  <path
     id="path96"
     style="fill:none;stroke:#000000;stroke-width:0.49999999;stroke-miterlimit:4;stroke-dasharray:none;stroke-linejoin:round;stroke-linecap:round"
     d="M 15.25,17.0000000000001 M 17.0000000000001,17.0000000000001 M 17.0000000000001,15.2499999999999 M 16.5470666710706,15.309629803994 M 16.1250000000001,15.4844555433771 M 15.7625631329236,15.7625631329236 M 15.4844555433773,16.125 M 15.3096298039942,16.5470666710707 " />
  <path
     id="path98"
     style="fill:none;stroke:#000000;stroke-width:0.49999999;stroke-miterlimit:4;stroke-dasharray:none;stroke-linejoin:round;stroke-linecap:round"
     d="M 18.7500000000002,17.0000000000001 M 17.0000000000001,17.0000000000001 M 17.0000000000001,18.7500000000001 M 17.4529333289296,18.690370196006 M 17.8750000000001,18.5155444566229 M 18.2374368670767,18.2374368670766 M 18.5155444566229,17.8750000000001 M 18.690370196006,17.4529333289294 " />
  <path
     id="path100"
     style="fill:none;stroke:#000000;stroke-width:0.49999999;stroke-miterlimit:4;stroke-dasharray:none;stroke-linejoin:round;stroke-linecap:round"
     d="M 16.5470666710706,18.690370196006 M 17.0000000000001,18.7500000000001 M 17.0000000000001,17.0000000000001 M 15.25,17.0000000000001 M 15.3096298039942,17.4529333289294 M 15.4844555433773,17.8750000000001 M 15.7625631329236,18.2374368670766 M 16.1250000000001,18.5155444566228 " />
  <path
     id="path102"
     style="fill:none;stroke:#000000;stroke-width:0.49999999;stroke-miterlimit:4;stroke-dasharray:none;stroke-linejoin:round;stroke-linecap:round"
     d="M 15.25,103.0 M 17.0000000000001,103.0 M 17.0000000000001,101.25 M 16.5470666710706,101.309629803994 M 16.1250000000001,101.484455543377 M 15.7625631329236,101.762563132924 M 15.4844555433774,102.125 M 15.3096298039943,102.547066671071 " />
  <path
     id="path104"
     style="fill:none;stroke:#000000;stroke-width:0.49999999;stroke-miterlimit:4;stroke-dasharray:none;stroke-linejoin:round;stroke-linecap:round"
     d="M 16.5470666710706,104.690370196006 M 17.0000000000001,104.75 M 17.0000000000001,103.0 M 15.25,103.0 M 15.3096298039942,103.452933328929 M 15.4844555433774,103.875 M 15.7625631329236,104.237436867077 M 16.1250000000001,104.515544456623 " />
  <path
     id="path106"
     style="fill:none;stroke:#000000;stroke-width:0.49999999;stroke-miterlimit:4;stroke-dasharray:none;stroke-linejoin:round;stroke-linecap:round"
     d="M 18.7500000000002,103.0 M 17.0000000000001,103.0 M 17.0000000000001,104.75 M 17.4529333289296,104.690370196006 M 17.8750000000001,104.515544456623 M 18.2374368670767,104.237436867077 M 18.5155444566229,103.875 M 18.690370196006,103.452933328929 " />
  <path
     id="path108"
     style="fill:none;stroke:#000000;stroke-width:0.49999999;stroke-miterlimit:4;stroke-dasharray:none;stroke-linejoin:round;stroke-linecap:round"
     d="M 17.4529333289296,101.309629803994 M 17.0000000000001,101.25 M 17.0000000000001,103.0 M 18.7500000000002,103.0 M 18.690370196006,102.547066671071 M 18.5155444566229,102.125 M 18.2374368670767,101.762563132923 M 17.8750000000001,101.484455543377 " />
  <path
     id="path110"
     style="fill:none;stroke:#000000;stroke-width:0.49999999;stroke-miterlimit:4;stroke-dasharray:none;stroke-linejoin:round;stroke-linecap:round"
     d="M 175.95293332893,101.309629803994 M 175.5,101.25 M 175.5,103.0 M 177.250000000001,103.0 M 177.190370196006,102.547066671071 M 177.015544456623,102.125 M 176.737436867077,101.762563132923 M 176.375,101.484455543377 " />
  <path
     id="path112"
     style="fill:none;stroke:#000000;stroke-width:0.49999999;stroke-miterlimit:4;stroke-dasharray:none;stroke-linejoin:round;stroke-linecap:round"
     d="M 173.75,17.0 M 175.5,17.0 M 175.5,15.25 M 175.047066671071,15.309629803994 M 174.625,15.4844555433772 M 174.262563132924,15.7625631329235 M 173.984455543378,16.125 M 173.809629803995,16.5470666710706 " />
  <path
     id="path114"
     style="fill:none;stroke:#000000;stroke-width:0.49999999;stroke-miterlimit:4;stroke-dasharray:none;stroke-linejoin:round;stroke-linecap:round"
     d="M 173.75,103.0 M 175.5,103.0 M 175.5,101.25 M 175.047066671071,101.309629803994 M 174.625,101.484455543377 M 174.262563132924,101.762563132924 M 173.984455543378,102.125 M 173.809629803995,102.547066671071 " />
  <path
     id="path116"
     style="fill:none;stroke:#000000;stroke-width:0.49999999;stroke-miterlimit:4;stroke-dasharray:none;stroke-linejoin:round;stroke-linecap:round"
     d="M 177.250000000001,17.0 M 175.5,17.0 M 175.5,18.7500000000001 M 175.95293332893,18.690370196006 M 176.375,18.5155444566229 M 176.737436867077,18.2374368670766 M 177.015544456623,17.8750000000001 M 177.190370196006,17.4529333289294 " />
  <path
     id="path118"
     style="fill:none;stroke:#000000;stroke-width:0.49999999;stroke-miterlimit:4;stroke-dasharray:none;stroke-linejoin:round;stroke-linecap:round"
     d="M 175.047066671071,18.690370196006 M 175.5,18.7500000000001 M 175.5,17.0 M 173.75,17.0 M 173.809629803995,17.4529333289294 M 173.984455543378,17.8750000000001 M 174.262563132924,18.2374368670766 M 174.625,18.5155444566229 " />
  <path
     id="path120"
     style="fill:none;stroke:#000000;stroke-width:0.49999999;stroke-miterlimit:4;stroke-dasharray:none;stroke-linejoin:round;stroke-linecap:round"
     d="M 175.047066671071,104.690370196006 M 175.5,104.75 M 175.5,103.0 M 173.75,103.0 M 173.809629803995,103.452933328929 M 173.984455543378,103.875 M 174.262563132924,104.237436867077 M 174.625,104.515544456623 " />
  <path
     id="path122"
     style="fill:none;stroke:#000000;stroke-width:0.49999999;stroke-miterlimit:4;stroke-dasharray:none;stroke-linejoin:round;stroke-linecap:round"
     d="M 177.250000000001,103.0 M 175.5,103.0 M 175.5,104.75 M 175.95293332893,104.690370196006 M 176.375,104.515544456623 M 176.737436867077,104.237436867077 M 177.015544456623,103.875 M 177.190370196006,103.452933328929 " />
  <path
     id="path124"
     style="fill:none;stroke:#000000;stroke-width:0.49999999;stroke-miterlimit:4;stroke-dasharray:none;stroke-linejoin:round;stroke-linecap:round"
     d="M 175.95293332893,15.3096298039941 M 175.5,15.25 M 175.5,17.0 M 177.250000000001,17.0 M 177.190370196006,16.5470666710706 M 177.015544456623,16.125 M 176.737436867077,15.7625631329235 M 176.375,15.4844555433772 " />
  <path
     id="path126"
     style="fill:none;stroke:#000000;stroke-width:0.49999999;stroke-miterlimit:4;stroke-dasharray:none;stroke-linejoin:round;stroke-linecap:round"
     d="M 98.0000000000003,86.5 M 99.5000000000003,86.5 M 99.5000000000003,85.0 M 99.1117714323466,85.0511112605664 M 98.7500000000003,85.2009618943234 M 98.4393398282205,85.4393398282202 M 98.2009618943236,85.75 M 98.0511112605668,86.1117714323462 " />
  <path
     id="path128"
     style="fill:none;stroke:#000000;stroke-width:0.49999999;stroke-miterlimit:4;stroke-dasharray:none;stroke-linejoin:round;stroke-linecap:round"
     d="M 99.1117714323466,87.9488887394336 M 99.5000000000003,88.0 M 99.5000000000003,86.5 M 98.0000000000003,86.5 M 98.0511112605668,86.8882285676538 M 98.2009618943236,87.25 M 98.4393398282205,87.5606601717799 M 98.7500000000003,87.7990381056767 " />
  <path
     id="path130"
     style="fill:none;stroke:#000000;stroke-width:0.49999999;stroke-miterlimit:4;stroke-dasharray:none;stroke-linejoin:round;stroke-linecap:round"
     d="M 158.388228567654,25.5511112605664 M 158.0,25.5 M 158.0,27.0000000000001 M 159.5,27.0000000000001 M 159.448888739434,26.6117714323462 M 159.299038105677,26.2500000000001 M 159.06066017178,25.9393398282202 M 158.75,25.7009618943234 " />
  <path
     id="path132"
     style="fill:none;stroke:#000000;stroke-width:0.49999999;stroke-miterlimit:4;stroke-dasharray:none;stroke-linejoin:round;stroke-linecap:round"
     d="M 159.5,27.0000000000001 M 158.0,27.0000000000001 M 158.0,28.5 M 158.388228567654,28.4488887394336 M 158.75,28.2990381056767 M 159.06066017178,28.0606601717799 M 159.299038105677,27.75 M 159.448888739434,27.3882285676538 " />
  <path
     id="path134"
     style="fill:none;stroke:#000000;stroke-width:0.49999999;stroke-miterlimit:4;stroke-dasharray:none;stroke-linejoin:round;stroke-linecap:round"
     d="M 157.611771432347,28.4488887394336 M 158.0,28.5 M 158.0,27.0000000000001 M 156.5,27.0000000000001 M 156.551111260567,27.3882285676538 M 156.700961894324,27.75 M 156.939339828221,28.0606601717799 M 157.25,28.2990381056767 " />
  <path
     id="path136"
     style="fill:none;stroke:#000000;stroke-width:0.49999999;stroke-miterlimit:4;stroke-dasharray:none;stroke-linejoin:round;stroke-linecap:round"
     d="M 156.5,27.0000000000001 M 158.0,27.0000000000001 M 158.0,25.5 M 157.611771432347,25.5511112605664 M 157.25,25.7009618943234 M 156.939339828221,25.9393398282202 M 156.700961894324,26.2500000000001 M 156.551111260567,26.6117714323462 " />
  <path
     id="path138"
     style="fill:none;stroke:#000000;stroke-width:0.49999999;stroke-miterlimit:4;stroke-dasharray:none;stroke-linejoin:round;stroke-linecap:round"
     d="M 140.0,82.5 M 141.5,82.5 M 141.5,81.0000000000001 M 141.111771432347,81.0511112605664 M 141.0,81.0974085037301 M 140.75,81.2009618943234 M 140.43933982822,81.4393398282201 M 140.200961894324,81.75 M 140.051111260567,82.1117714323462 " />
  <path
     id="path140"
     style="fill:none;stroke:#000000;stroke-width:0.49999999;stroke-miterlimit:4;stroke-dasharray:none;stroke-linejoin:round;stroke-linecap:round"
     d="M 99.8882285676542,85.0511112605664 M 99.5000000000003,85.0 M 99.5000000000003,86.5 M 101.0,86.5 M 100.948888739434,86.1117714323462 M 100.799038105677,85.75 M 100.56066017178,85.4393398282202 M 100.25,85.2009618943234 " />
  <path
     id="path142"
     style="fill:none;stroke:#000000;stroke-width:0.49999999;stroke-miterlimit:4;stroke-dasharray:none;stroke-linejoin:round;stroke-linecap:round"
     d="M 57.1117714323465,29.4488887394337 M 57.5000000000003,29.5 M 57.5000000000003,27.9999999999999 M 56.0000000000003,28.0 M 56.0511112605668,28.3882285676539 M 56.2009618943237,28.75 M 56.4393398282205,29.0606601717798 M 56.7500000000003,29.2990381056767 " />
  <path
     id="path144"
     style="fill:none;stroke:#000000;stroke-width:0.49999999;stroke-miterlimit:4;stroke-dasharray:none;stroke-linejoin:round;stroke-linecap:round"
     d="M 143.0,82.5 M 141.5,82.5 M 141.5,84.0 M 141.888228567654,83.9488887394336 M 142.25,83.7990381056767 M 142.56066017178,83.5606601717799 M 142.799038105677,83.25 M 142.948888739434,82.8882285676538 " />
  <path
     id="path146"
     style="fill:none;stroke:#000000;stroke-width:0.49999999;stroke-miterlimit:4;stroke-dasharray:none;stroke-linejoin:round;stroke-linecap:round"
     d="M 56.0000000000003,28.0 M 57.5000000000003,27.9999999999999 M 57.5000000000003,26.5 M 57.1117714323465,26.5511112605664 M 56.7500000000003,26.7009618943234 M 56.4393398282204,26.9393398282202 M 56.2009618943237,27.25 M 56.0511112605668,27.6117714323463 " />
  <path
     id="path148"
     style="fill:none;stroke:#000000;stroke-width:0.49999999;stroke-miterlimit:4;stroke-dasharray:none;stroke-linejoin:round;stroke-linecap:round"
     d="M 141.888228567654,81.0511112605664 M 141.5,81.0000000000001 M 141.5,82.5 M 143.0,82.5 M 142.948888739434,82.1117714323462 M 142.799038105677,81.75 M 142.56066017178,81.4393398282201 M 142.25,81.2009618943234 " />
  <path
     id="path150"
     style="fill:none;stroke:#000000;stroke-width:0.49999999;stroke-miterlimit:4;stroke-dasharray:none;stroke-linejoin:round;stroke-linecap:round"
     d="M 101.0,86.5 M 99.5000000000003,86.5 M 99.5000000000003,88.0 M 99.8882285676542,87.9488887394336 M 100.25,87.7990381056766 M 100.56066017178,87.5606601717799 M 100.799038105677,87.25 M 100.948888739434,86.8882285676538 " />
  <path
     id="path152"
     style="fill:none;stroke:#000000;stroke-width:0.49999999;stroke-miterlimit:4;stroke-dasharray:none;stroke-linejoin:round;stroke-linecap:round"
     d="M 141.111771432347,83.9488887394336 M 141.5,84.0 M 141.5,82.5 M 140.0,82.5 M 140.051111260567,82.8882285676538 M 140.200961894324,83.25 M 140.43933982822,83.5606601717799 M 140.75,83.7990381056767 M 141.0,83.9025914962699 " />
  <path
     id="path154"
     style="fill:none;stroke:#000000;stroke-width:0.49999999;stroke-miterlimit:4;stroke-dasharray:none;stroke-linejoin:round;stroke-linecap:round"
     d="M 57.1117714323466,83.9488887394336 M 57.5000000000003,83.9999999999999 M 57.5000000000003,82.5 M 56.0000000000004,82.5 M 56.0511112605668,82.8882285676538 M 56.2009618943237,83.25 M 56.4393398282204,83.5606601717799 M 56.7500000000003,83.7990381056767 " />
  <path
     id="path156"
     style="fill:none;stroke:#000000;stroke-width:0.49999999;stroke-miterlimit:4;stroke-dasharray:none;stroke-linejoin:round;stroke-linecap:round"
     d="M 57.8882285676542,81.0511112605664 M 57.5000000000003,81.0 M 57.5000000000003,82.5 M 59.0000000000004,82.5 M 58.9488887394339,82.1117714323462 M 58.7990381056771,81.75 M 58.5606601717802,81.4393398282201 M 58.2500000000004,81.2009618943234 " />
  <path
     id="path158"
     style="fill:none;stroke:#000000;stroke-width:0.49999999;stroke-miterlimit:4;stroke-dasharray:none;stroke-linejoin:round;stroke-linecap:round"
     d="M 57.8882285676542,26.5511112605664 M 57.5000000000003,26.5 M 57.5000000000003,27.9999999999999 M 59.0000000000004,28.0 M 58.9488887394339,27.6117714323463 M 58.7990381056771,27.25 M 58.5606601717802,26.9393398282202 M 58.2500000000004,26.7009618943233 " />
  <path
     id="path160"
     style="fill:none;stroke:#000000;stroke-width:0.49999999;stroke-miterlimit:4;stroke-dasharray:none;stroke-linejoin:round;stroke-linecap:round"
     d="M 59.0000000000004,28.0 M 57.5000000000003,27.9999999999999 M 57.5000000000003,29.5 M 57.8882285676542,29.4488887394337 M 58.2500000000004,29.2990381056767 M 58.5606601717802,29.0606601717798 M 58.7990381056771,28.75 M 58.9488887394339,28.3882285676539 " />
  <path
     id="path162"
     style="fill:none;stroke:#000000;stroke-width:0.49999999;stroke-miterlimit:4;stroke-dasharray:none;stroke-linejoin:round;stroke-linecap:round"
     d="M 56.0000000000004,82.5 M 57.5000000000003,82.5 M 57.5000000000003,81.0 M 57.1117714323465,81.0511112605664 M 56.7500000000003,81.2009618943233 M 56.4393398282204,81.4393398282201 M 56.2009618943237,81.75 M 56.0511112605668,82.1117714323462 " />
  <path
     id="path164"
     style="fill:none;stroke:#000000;stroke-width:0.49999999;stroke-miterlimit:4;stroke-dasharray:none;stroke-linejoin:round;stroke-linecap:round"
     d="M 59.0000000000004,82.5 M 57.5000000000003,82.5 M 57.5000000000003,83.9999999999999 M 57.8882285676542,83.9488887394336 M 58.2500000000004,83.7990381056767 M 58.5606601717802,83.5606601717798 M 58.7990381056771,83.25 M 58.9488887394339,82.8882285676538 " />
  <path
     id="path166"
     style="fill:none;stroke:#000000;stroke-width:0.49999999;stroke-miterlimit:4;stroke-dasharray:none;stroke-linejoin:round;stroke-linecap:round"
     d="M 133.2,46.5 M 131.7,46.5 M 131.7,48.0 M 132.088228567654,47.9488887394335 M 132.45,47.7990381056766 M 132.76066017178,47.5606601717798 M 132.999038105677,47.25 M 133.148888739434,46.8882285676538 " />
  <path
     id="path168"
     style="fill:none;stroke:#000000;stroke-width:0.49999999;stroke-miterlimit:4;stroke-dasharray:none;stroke-linejoin:round;stroke-linecap:round"
     d="M 141.0,50.5 M 141.068546426175,50.2616702801444 M 141.158670876981,50.0306351069031 M 141.269613047371,49.8088435319123 M 141.40043701051,49.5981666262569 M 141.550039113407,49.4003816957987 M 141.717157287526,49.2171572875254 M 141.900381695799,49.050039113407 M 142.098166626257,48.9004370105093 M 142.308843531913,48.769613047371 M 142.530635106903,48.6586708769807 M 142.761670280145,48.5685464261746 M 143.0,48.5000000000001 M 161.0,48.5000000000001 M 161.0,27.0 M 160.897777478868,26.2235428646925 M 160.598076211354,25.5 M 160.12132034356,24.8786796564404 M 159.5,24.4019237886468 M 158.776457135308,24.1022225211328 M 131.0,20.0 M 66.5000000000003,20.0 M 55.7500000000003,24.9689110867545 M 55.0251262658474,25.5251262658472 M 54.4689110867548,26.2500000000001 M 54.1192596079886,27.0941333421412 M 54.0000000000003,27.9999999999999 M 54.0000000000003,82.5 M 54.1192596079886,83.4058666578589 M 54.4689110867548,84.25 M 55.0251262658474,84.9748737341529 M 55.7500000000003,85.5310889132456 M 64.5000000000003,89.5 M 134.0,89.5 M 143.25,85.5310889132456 M 143.974873734153,84.9748737341529 M 144.531088913246,84.25 M 144.880740392012,83.4058666578589 M 145.0,82.5 M 144.880740392012,81.5941333421412 M 144.531088913246,80.75 M 143.974873734153,80.0251262658471 M 143.25,79.4689110867544 M 142.405866657859,79.1192596079882 M 141.5,79.0 M 141.0,79.0 M 132.088228567654,47.9488887394335 M 131.7,48.0 M 131.311771432347,47.9488887394335 M 130.95,47.7990381056766 M 130.639339828221,47.5606601717798 M 130.400961894324,47.25 M 130.251111260567,46.8882285676538 M 130.2,46.5 M 130.251111260567,46.1117714323462 M 130.400961894324,45.7499999999999 M 130.639339828221,45.4393398282201 M 130.95,45.2009618943234 M 131.311771432347,45.0511112605664 M 131.7,44.9999999999999 M 132.088228567654,45.0511112605664 M 132.45,45.2009618943234 M 132.76066017178,45.4393398282201 M 132.999038105677,45.7499999999999 M 133.148888739434,46.1117714323462 M 133.2,46.5 M 133.148888739434,46.8882285676538 M 132.999038105677,47.25 M 132.76066017178,47.5606601717798 M 132.45,47.7990381056766 M 158.0,28.5 M 157.611771432347,28.4488887394336 M 157.25,28.2990381056767 M 156.939339828221,28.0606601717799 M 156.700961894324,27.75 M 156.551111260567,27.3882285676538 M 156.5,27.0000000000001 M 156.551111260567,26.6117714323462 M 156.700961894324,26.2500000000001 M 156.939339828221,25.9393398282202 M 157.25,25.7009618943234 M 157.611771432347,25.5511112605664 M 158.0,25.5 M 158.388228567654,25.5511112605664 M 158.75,25.7009618943234 M 159.06066017178,25.9393398282202 M 159.299038105677,26.2500000000001 M 159.448888739434,26.6117714323462 M 159.5,27.0000000000001 M 159.448888739434,27.3882285676538 M 159.299038105677,27.75 M 159.06066017178,28.0606601717799 M 158.75,28.2990381056767 M 158.388228567654,28.4488887394336 M 57.5000000000003,26.5 M 57.8882285676542,26.5511112605664 M 58.2500000000004,26.7009618943233 M 58.5606601717802,26.9393398282202 M 58.7990381056771,27.25 M 58.9488887394339,27.6117714323463 M 59.0000000000004,28.0 M 58.9488887394339,28.3882285676539 M 58.7990381056771,28.75 M 58.5606601717802,29.0606601717798 M 58.2500000000004,29.2990381056767 M 57.8882285676542,29.4488887394337 M 57.5000000000003,29.5 M 57.1117714323465,29.4488887394337 M 56.7500000000003,29.2990381056767 M 56.4393398282205,29.0606601717798 M 56.2009618943237,28.75 M 56.0511112605668,28.3882285676539 M 56.0000000000003,28.0 M 56.0511112605668,27.6117714323463 M 56.2009618943237,27.25 M 56.4393398282204,26.9393398282202 M 56.7500000000003,26.7009618943234 M 57.1117714323465,26.5511112605664 M 99.1117714323466,85.0511112605664 M 99.5000000000003,85.0 M 99.8882285676542,85.0511112605664 M 100.25,85.2009618943234 M 100.56066017178,85.4393398282202 M 100.799038105677,85.75 M 100.948888739434,86.1117714323462 M 101.0,86.5 M 100.948888739434,86.8882285676538 M 100.799038105677,87.25 M 100.56066017178,87.5606601717799 M 100.25,87.7990381056766 M 99.8882285676542,87.9488887394336 M 99.5000000000003,88.0 M 99.1117714323466,87.9488887394336 M 98.7500000000003,87.7990381056767 M 98.4393398282205,87.5606601717799 M 98.2009618943236,87.25 M 98.0511112605668,86.8882285676538 M 98.0000000000003,86.5 M 98.0511112605668,86.1117714323462 M 98.2009618943236,85.75 M 98.4393398282205,85.4393398282202 M 98.7500000000003,85.2009618943234 M 141.0,81.0974085037301 M 141.111771432347,81.0511112605664 M 141.5,81.0000000000001 M 141.888228567654,81.0511112605664 M 142.25,81.2009618943234 M 142.56066017178,81.4393398282201 M 142.799038105677,81.75 M 142.948888739434,82.1117714323462 M 143.0,82.5 M 142.948888739434,82.8882285676538 M 142.799038105677,83.25 M 142.56066017178,83.5606601717799 M 142.25,83.7990381056767 M 141.888228567654,83.9488887394336 M 141.5,84.0 M 141.111771432347,83.9488887394336 M 141.0,83.9025914962699 M 140.75,83.7990381056767 M 140.43933982822,83.5606601717799 M 140.200961894324,83.25 M 140.051111260567,82.8882285676538 M 140.0,82.5 M 140.051111260567,82.1117714323462 M 140.200961894324,81.75 M 140.43933982822,81.4393398282201 M 140.75,81.2009618943234 M 58.9488887394339,82.1117714323462 M 59.0000000000004,82.5 M 58.9488887394339,82.8882285676538 M 58.7990381056771,83.25 M 58.5606601717802,83.5606601717798 M 58.2500000000004,83.7990381056767 M 57.8882285676542,83.9488887394336 M 57.5000000000003,83.9999999999999 M 57.1117714323466,83.9488887394336 M 56.7500000000003,83.7990381056767 M 56.4393398282204,83.5606601717799 M 56.2009618943237,83.25 M 56.0511112605668,82.8882285676538 M 56.0000000000004,82.5 M 56.0511112605668,82.1117714323462 M 56.2009618943237,81.75 M 56.4393398282204,81.4393398282201 M 56.7500000000003,81.2009618943233 M 57.1117714323465,81.0511112605664 M 57.5000000000003,81.0 M 57.8882285676542,81.0511112605664 M 58.2500000000004,81.2009618943234 M 58.5606601717802,81.4393398282201 M 58.7990381056771,81.75 " />
  <path
     id="path170"
     style="fill:none;stroke:#000000;stroke-width:0.49999999;stroke-miterlimit:4;stroke-dasharray:none;stroke-linejoin:round;stroke-linecap:round"
     d="M 10.0,10.0 M 10.0,110.0 M 182.5,110.0 M 182.5,10.0 M 18.690370196006,16.5470666710705 M 18.7500000000002,17.0000000000001 M 18.690370196006,17.4529333289294 M 18.5155444566229,17.8750000000001 M 18.2374368670767,18.2374368670766 M 17.8750000000001,18.5155444566229 M 17.4529333289296,18.690370196006 M 17.0000000000001,18.7500000000001 M 16.5470666710706,18.690370196006 M 16.1250000000001,18.5155444566228 M 15.7625631329236,18.2374368670766 M 15.4844555433773,17.8750000000001 M 15.3096298039942,17.4529333289294 M 15.25,17.0000000000001 M 15.3096298039942,16.5470666710707 M 15.4844555433773,16.125 M 15.7625631329236,15.7625631329236 M 16.1250000000001,15.4844555433771 M 16.5470666710706,15.309629803994 M 17.0000000000001,15.2499999999999 M 17.4529333289296,15.3096298039941 M 17.8750000000001,15.4844555433771 M 18.2374368670767,15.7625631329235 M 18.5155444566229,16.125 M 177.190370196006,102.547066671071 M 177.250000000001,103.0 M 177.190370196006,103.452933328929 M 177.015544456623,103.875 M 176.737436867077,104.237436867077 M 176.375,104.515544456623 M 175.95293332893,104.690370196006 M 175.5,104.75 M 175.047066671071,104.690370196006 M 174.625,104.515544456623 M 174.262563132924,104.237436867077 M 173.984455543378,103.875 M 173.809629803995,103.452933328929 M 173.75,103.0 M 173.809629803995,102.547066671071 M 173.984455543378,102.125 M 174.262563132924,101.762563132924 M 174.625,101.484455543377 M 175.047066671071,101.309629803994 M 175.5,101.25 M 175.95293332893,101.309629803994 M 176.375,101.484455543377 M 176.737436867077,101.762563132923 M 177.015544456623,102.125 M 141.068546426175,50.2616702801444 M 141.0,50.5 M 141.0,79.0 M 141.5,79.0 M 142.405866657859,79.1192596079882 M 143.25,79.4689110867544 M 143.974873734153,80.0251262658471 M 144.531088913246,80.75 M 144.880740392012,81.5941333421412 M 145.0,82.5 M 144.880740392012,83.4058666578589 M 144.531088913246,84.25 M 143.974873734153,84.9748737341529 M 143.25,85.5310889132456 M 134.0,89.5 M 64.5000000000003,89.5 M 55.7500000000003,85.5310889132456 M 55.0251262658474,84.9748737341529 M 54.4689110867548,84.25 M 54.1192596079886,83.4058666578589 M 54.0000000000003,82.5 M 54.0000000000003,27.9999999999999 M 54.1192596079886,27.0941333421412 M 54.4689110867548,26.2500000000001 M 55.0251262658474,25.5251262658472 M 55.7500000000003,24.9689110867545 M 66.5000000000003,20.0 M 131.0,20.0 M 158.776457135308,24.1022225211328 M 159.5,24.4019237886468 M 160.12132034356,24.8786796564404 M 160.598076211354,25.5 M 160.897777478868,26.2235428646925 M 161.0,27.0 M 161.0,48.5000000000001 M 143.0,48.5000000000001 M 142.761670280145,48.5685464261746 M 142.530635106903,48.6586708769807 M 142.308843531913,48.769613047371 M 142.098166626257,48.9004370105093 M 141.900381695799,49.050039113407 M 141.717157287526,49.2171572875254 M 141.550039113407,49.4003816957987 M 141.40043701051,49.5981666262569 M 141.269613047371,49.8088435319123 M 141.158670876981,50.0306351069031 M 177.190370196006,16.5470666710706 M 177.250000000001,17.0 M 177.190370196006,17.4529333289294 M 177.015544456623,17.8750000000001 M 176.737436867077,18.2374368670766 M 176.375,18.5155444566229 M 175.95293332893,18.690370196006 M 175.5,18.7500000000001 M 175.047066671071,18.690370196006 M 174.625,18.5155444566229 M 174.262563132924,18.2374368670766 M 173.984455543378,17.8750000000001 M 173.809629803995,17.4529333289294 M 173.75,17.0 M 173.809629803995,16.5470666710706 M 173.984455543378,16.125 M 174.262563132924,15.7625631329235 M 174.625,15.4844555433772 M 175.047066671071,15.309629803994 M 175.5,15.25 M 175.95293332893,15.3096298039941 M 176.375,15.4844555433772 M 176.737436867077,15.7625631329235 M 177.015544456623,16.125 M 18.690370196006,102.547066671071 M 18.7500000000002,103.0 M 18.690370196006,103.452933328929 M 18.5155444566229,103.875 M 18.2374368670767,104.237436867077 M 17.8750000000001,104.515544456623 M 17.4529333289296,104.690370196006 M 17.0000000000001,104.75 M 16.5470666710706,104.690370196006 M 16.1250000000001,104.515544456623 M 15.7625631329236,104.237436867077 M 15.4844555433774,103.875 M 15.3096298039942,103.452933328929 M 15.25,103.0 M 15.3096298039943,102.547066671071 M 15.4844555433774,102.125 M 15.7625631329236,101.762563132924 M 16.1250000000001,101.484455543377 M 16.5470666710706,101.309629803994 M 17.0000000000001,101.25 M 17.4529333289296,101.309629803994 M 17.8750000000001,101.484455543377 M 18.2374368670767,101.762563132923 M 18.5155444566229,102.125 " />
</svg>
