solid MIDIBox
facet normal -2.7665353988398e-016 9.43310267432709e-017 -1.0
  outer loop
    vertex -222.176836719494 475.550336559442 1.73258740687743e-014
    vertex -222.676836719494 475.050336559442 9.20437059903634e-015
    vertex -222.676836719494 475.550336559442 1.20920162771654e-014
  endloop
endfacet
facet normal -2.7665353988398e-016 9.43310267432709e-017 -1.0
  outer loop
    vertex -220.676836719494 478.148412770795 1.73258740687743e-014
    vertex -221.176836719494 475.050336559442 1.28139276966976e-014
    vertex -221.298157063054 477.671656903001 1.73258740687743e-014
  endloop
endfacet
facet normal -2.7665353988398e-016 9.43310267432709e-017 -1.0
  outer loop
    vertex -221.176836719494 475.050336559442 1.28139276966976e-014
    vertex -220.676836719494 478.148412770795 1.73258740687743e-014
    vertex -220.142762545783 475.291517514339 1.15505827125162e-014
  endloop
endfacet
facet normal -2.7665353988398e-016 9.43310267432709e-017 -1.0
  outer loop
    vertex -221.176836719494 475.050336559442 1.28139276966976e-014
    vertex -220.142762545783 475.291517514339 1.15505827125162e-014
    vertex -220.042862123279 475.050336559442 1.15505827125162e-014
  endloop
endfacet
facet normal -2.7665353988398e-016 9.43310267432709e-017 -1.0
  outer loop
    vertex -220.142762545783 475.291517514339 1.15505827125162e-014
    vertex -220.676836719494 478.148412770795 1.73258740687743e-014
    vertex -220.176836719494 475.550336559442 1.15505827125162e-014
  endloop
endfacet
facet normal -2.7665353988398e-016 9.43310267432709e-017 -1.0
  outer loop
    vertex -227.576836719494 475.050336559442 1.15505827125162e-014
    vertex -225.576836719494 473.050336559442 1.15505827125162e-014
    vertex -227.576836719494 448.050336559442 0.0
  endloop
endfacet
facet normal -2.7665353988398e-016 9.43310267432709e-017 -1.0
  outer loop
    vertex -225.576836719494 473.050336559442 1.15505827125162e-014
    vertex -227.576836719494 475.050336559442 1.15505827125162e-014
    vertex -222.676836719494 475.050336559442 9.20437059903634e-015
  endloop
endfacet
facet normal -2.7665353988398e-016 9.43310267432709e-017 -1.0
  outer loop
    vertex -225.576836719494 473.050336559442 1.15505827125162e-014
    vertex -222.676836719494 475.050336559442 9.20437059903634e-015
    vertex -221.176836719494 473.050336559442 1.28139276966976e-014
  endloop
endfacet
facet normal -2.7665353988398e-016 9.43310267432709e-017 -1.0
  outer loop
    vertex -221.176836719494 473.050336559442 1.28139276966976e-014
    vertex -222.676836719494 475.050336559442 9.20437059903634e-015
    vertex -222.176836719494 475.550336559442 1.73258740687743e-014
  endloop
endfacet
facet normal -2.7665353988398e-016 9.43310267432709e-017 -1.0
  outer loop
    vertex -221.176836719494 473.050336559442 1.28139276966976e-014
    vertex -222.176836719494 475.550336559442 1.73258740687743e-014
    vertex -222.074614198362 476.326793694749 1.73258740687743e-014
  endloop
endfacet
facet normal -2.7665353988398e-016 9.43310267432709e-017 -1.0
  outer loop
    vertex -221.176836719494 473.050336559442 1.28139276966976e-014
    vertex -222.074614198362 476.326793694749 1.73258740687743e-014
    vertex -221.774912930848 477.050336559442 1.73258740687743e-014
  endloop
endfacet
facet normal -2.7665353988398e-016 9.43310267432709e-017 -1.0
  outer loop
    vertex -221.176836719494 473.050336559442 1.28139276966976e-014
    vertex -221.774912930848 477.050336559442 1.73258740687743e-014
    vertex -221.298157063054 477.671656903001 1.73258740687743e-014
  endloop
endfacet
facet normal -2.7665353988398e-016 9.43310267432709e-017 -1.0
  outer loop
    vertex -221.176836719494 473.050336559442 1.28139276966976e-014
    vertex -221.298157063054 477.671656903001 1.73258740687743e-014
    vertex -221.176836719494 475.050336559442 1.28139276966976e-014
  endloop
endfacet
facet normal -2.7665353988398e-016 9.43310267432709e-017 -1.0
  outer loop
    vertex -219.953293854802 478.448114038309 1.73258740687743e-014
    vertex -220.176836719494 475.550336559442 1.15505827125162e-014
    vertex -220.676836719494 478.148412770795 1.73258740687743e-014
  endloop
endfacet
facet normal -2.7665353988398e-016 9.43310267432709e-017 -1.0
  outer loop
    vertex -220.176836719494 475.550336559442 1.15505827125162e-014
    vertex -219.953293854802 478.448114038309 1.73258740687743e-014
    vertex -220.142762545783 475.809155604544 1.15505827125162e-014
  endloop
endfacet
facet normal -2.7665353988398e-016 9.43310267432709e-017 -1.0
  outer loop
    vertex -220.142762545783 475.809155604544 1.15505827125162e-014
    vertex -219.953293854802 478.448114038309 1.73258740687743e-014
    vertex -220.042862123279 476.050336559442 1.15505827125162e-014
  endloop
endfacet
facet normal -2.7665353988398e-016 9.43310267432709e-017 -1.0
  outer loop
    vertex -220.042862123279 476.050336559442 1.15505827125162e-014
    vertex -219.953293854802 478.448114038309 1.73258740687743e-014
    vertex -219.883943500681 476.257443340628 1.15505827125162e-014
  endloop
endfacet
facet normal -2.7665353988398e-016 9.43310267432709e-017 -1.0
  outer loop
    vertex -219.883943500681 476.257443340628 1.15505827125162e-014
    vertex -219.953293854802 478.448114038309 1.73258740687743e-014
    vertex -219.176836719494 478.550336559442 1.44382283906452e-014
  endloop
endfacet
facet normal -2.7665353988398e-016 9.43310267432709e-017 -1.0
  outer loop
    vertex -219.883943500681 476.257443340628 1.15505827125162e-014
    vertex -219.176836719494 478.550336559442 1.44382283906452e-014
    vertex -219.676836719494 476.416361963226 1.15505827125162e-014
  endloop
endfacet
facet normal -2.7665353988398e-016 9.43310267432709e-017 -1.0
  outer loop
    vertex -219.676836719494 476.416361963226 1.15505827125162e-014
    vertex -219.176836719494 478.550336559442 1.44382283906452e-014
    vertex -219.435655764597 476.516262385731 1.15505827125162e-014
  endloop
endfacet
facet normal -2.7665353988398e-016 9.43310267432709e-017 -1.0
  outer loop
    vertex -219.435655764597 476.516262385731 1.15505827125162e-014
    vertex -219.176836719494 478.550336559442 1.44382283906452e-014
    vertex -219.176836719494 476.550336559442 1.15505827125162e-014
  endloop
endfacet
facet normal -2.7665353988398e-016 9.43310267432709e-017 -1.0
  outer loop
    vertex -219.176836719494 476.550336559442 1.15505827125162e-014
    vertex -219.176836719494 478.550336559442 1.44382283906452e-014
    vertex -218.400379584187 478.448114038309 1.44382283906452e-014
  endloop
endfacet
facet normal -2.7665353988398e-016 9.43310267432709e-017 -1.0
  outer loop
    vertex -219.176836719494 476.550336559442 1.15505827125162e-014
    vertex -218.400379584187 478.448114038309 1.44382283906452e-014
    vertex -218.918017674392 476.516262385731 1.15505827125162e-014
  endloop
endfacet
facet normal -2.7665353988398e-016 9.43310267432709e-017 -1.0
  outer loop
    vertex -218.918017674392 476.516262385731 1.15505827125162e-014
    vertex -218.400379584187 478.448114038309 1.44382283906452e-014
    vertex -218.676836719494 476.416361963226 8.66293703438714e-015
  endloop
endfacet
facet normal -2.7665353988398e-016 9.43310267432709e-017 -1.0
  outer loop
    vertex -218.676836719494 476.416361963226 8.66293703438714e-015
    vertex -218.400379584187 478.448114038309 1.44382283906452e-014
    vertex -218.469729938308 476.257443340628 8.66293703438714e-015
  endloop
endfacet
facet normal -2.7665353988398e-016 9.43310267432709e-017 -1.0
  outer loop
    vertex -218.469729938308 476.257443340628 8.66293703438714e-015
    vertex -218.400379584187 478.448114038309 1.44382283906452e-014
    vertex -218.31081131571 476.050336559442 8.66293703438714e-015
  endloop
endfacet
facet normal -2.7665353988398e-016 9.43310267432709e-017 -1.0
  outer loop
    vertex -218.31081131571 476.050336559442 8.66293703438714e-015
    vertex -218.400379584187 478.448114038309 1.44382283906452e-014
    vertex -217.676836719494 478.148412770795 1.15505827125162e-014
  endloop
endfacet
facet normal -2.7665353988398e-016 9.43310267432709e-017 -1.0
  outer loop
    vertex -218.31081131571 476.050336559442 8.66293703438714e-015
    vertex -217.676836719494 478.148412770795 1.15505827125162e-014
    vertex -218.210910893205 475.809155604544 8.66293703438714e-015
  endloop
endfacet
facet normal -2.7665353988398e-016 9.43310267432709e-017 -1.0
  outer loop
    vertex -218.210910893205 475.809155604544 8.66293703438714e-015
    vertex -217.676836719494 478.148412770795 1.15505827125162e-014
    vertex -218.176836719494 475.550336559442 8.66293703438714e-015
  endloop
endfacet
facet normal -2.7665353988398e-016 9.43310267432709e-017 -1.0
  outer loop
    vertex -220.176836719494 447.550336559442 1.15505827125162e-014
    vertex -219.953293854802 444.652559080575 1.15505827125162e-014
    vertex -220.676836719494 444.952260348089 1.15505827125162e-014
  endloop
endfacet
facet normal -2.7665353988398e-016 9.43310267432709e-017 -1.0
  outer loop
    vertex -219.953293854802 444.652559080575 1.15505827125162e-014
    vertex -220.176836719494 447.550336559442 1.15505827125162e-014
    vertex -220.142762545783 447.291517514339 1.15505827125162e-014
  endloop
endfacet
facet normal -2.7665353988398e-016 9.43310267432709e-017 -1.0
  outer loop
    vertex -219.953293854802 444.652559080575 1.15505827125162e-014
    vertex -220.142762545783 447.291517514339 1.15505827125162e-014
    vertex -220.042862123279 447.050336559442 1.15505827125162e-014
  endloop
endfacet
facet normal -2.7665353988398e-016 9.43310267432709e-017 -1.0
  outer loop
    vertex -219.953293854802 444.652559080575 1.15505827125162e-014
    vertex -220.042862123279 447.050336559442 1.15505827125162e-014
    vertex -219.883943500681 446.843229778255 1.15505827125162e-014
  endloop
endfacet
facet normal -2.7665353988398e-016 9.43310267432709e-017 -1.0
  outer loop
    vertex -219.953293854802 444.652559080575 1.15505827125162e-014
    vertex -219.883943500681 446.843229778255 1.15505827125162e-014
    vertex -219.176836719494 444.550336559442 8.66293703438714e-015
  endloop
endfacet
facet normal -2.7665353988398e-016 9.43310267432709e-017 -1.0
  outer loop
    vertex -219.176836719494 444.550336559442 8.66293703438714e-015
    vertex -219.883943500681 446.843229778255 1.15505827125162e-014
    vertex -219.676836719494 446.684311155657 1.15505827125162e-014
  endloop
endfacet
facet normal -2.7665353988398e-016 9.43310267432709e-017 -1.0
  outer loop
    vertex -219.176836719494 444.550336559442 8.66293703438714e-015
    vertex -219.676836719494 446.684311155657 1.15505827125162e-014
    vertex -219.435655764597 446.584410733153 8.66293703438714e-015
  endloop
endfacet
facet normal -2.7665353988398e-016 9.43310267432709e-017 -1.0
  outer loop
    vertex -219.176836719494 444.550336559442 8.66293703438714e-015
    vertex -219.435655764597 446.584410733153 8.66293703438714e-015
    vertex -219.176836719494 446.550336559442 8.66293703438714e-015
  endloop
endfacet
facet normal -2.7665353988398e-016 9.43310267432709e-017 -1.0
  outer loop
    vertex -219.176836719494 444.550336559442 8.66293703438714e-015
    vertex -219.176836719494 446.550336559442 8.66293703438714e-015
    vertex -218.400379584187 444.652559080575 8.66293703438714e-015
  endloop
endfacet
facet normal -2.7665353988398e-016 9.43310267432709e-017 -1.0
  outer loop
    vertex -218.400379584187 444.652559080575 8.66293703438714e-015
    vertex -219.176836719494 446.550336559442 8.66293703438714e-015
    vertex -218.918017674392 446.584410733153 8.66293703438714e-015
  endloop
endfacet
facet normal -2.7665353988398e-016 9.43310267432709e-017 -1.0
  outer loop
    vertex -218.400379584187 444.652559080575 8.66293703438714e-015
    vertex -218.918017674392 446.584410733153 8.66293703438714e-015
    vertex -218.676836719494 446.684311155657 8.66293703438714e-015
  endloop
endfacet
facet normal -2.7665353988398e-016 9.43310267432709e-017 -1.0
  outer loop
    vertex -218.400379584187 444.652559080575 8.66293703438714e-015
    vertex -218.676836719494 446.684311155657 8.66293703438714e-015
    vertex -218.469729938308 446.843229778255 8.66293703438714e-015
  endloop
endfacet
facet normal -2.7665353988398e-016 9.43310267432709e-017 -1.0
  outer loop
    vertex -218.400379584187 444.652559080575 8.66293703438714e-015
    vertex -218.469729938308 446.843229778255 8.66293703438714e-015
    vertex -218.31081131571 447.050336559442 8.66293703438714e-015
  endloop
endfacet
facet normal -2.7665353988398e-016 9.43310267432709e-017 -1.0
  outer loop
    vertex -218.400379584187 444.652559080575 8.66293703438714e-015
    vertex -218.31081131571 447.050336559442 8.66293703438714e-015
    vertex -217.676836719494 444.952260348089 5.77529135625809e-015
  endloop
endfacet
facet normal -2.7665353988398e-016 9.43310267432709e-017 -1.0
  outer loop
    vertex -217.676836719494 444.952260348089 5.77529135625809e-015
    vertex -218.31081131571 447.050336559442 8.66293703438714e-015
    vertex -218.210910893205 447.291517514339 8.66293703438714e-015
  endloop
endfacet
facet normal -2.7665353988398e-016 9.43310267432709e-017 -1.0
  outer loop
    vertex -217.676836719494 444.952260348089 5.77529135625809e-015
    vertex -218.210910893205 447.291517514339 8.66293703438714e-015
    vertex -218.176836719494 447.550336559442 8.66293703438714e-015
  endloop
endfacet
facet normal -2.7665353988398e-016 9.43310267432709e-017 -1.0
  outer loop
    vertex -218.210910893205 475.291517514339 8.66293703438714e-015
    vertex -217.176836719494 475.050336559442 1.28139276966976e-014
    vertex -218.31081131571 475.050336559442 8.66293703438714e-015
  endloop
endfacet
facet normal -2.7665353988398e-016 9.43310267432709e-017 -1.0
  outer loop
    vertex -217.176836719494 475.050336559442 1.28139276966976e-014
    vertex -218.210910893205 475.291517514339 8.66293703438714e-015
    vertex -218.176836719494 475.550336559442 8.66293703438714e-015
  endloop
endfacet
facet normal -2.7665353988398e-016 9.43310267432709e-017 -1.0
  outer loop
    vertex -217.176836719494 475.050336559442 1.28139276966976e-014
    vertex -218.176836719494 475.550336559442 8.66293703438714e-015
    vertex -217.676836719494 478.148412770795 1.15505827125162e-014
  endloop
endfacet
facet normal -2.7665353988398e-016 9.43310267432709e-017 -1.0
  outer loop
    vertex -217.176836719494 475.050336559442 1.28139276966976e-014
    vertex -217.676836719494 478.148412770795 1.15505827125162e-014
    vertex -217.055516375935 477.671656903001 1.15505827125162e-014
  endloop
endfacet
facet normal -2.7665353988398e-016 9.43310267432709e-017 -1.0
  outer loop
    vertex -217.176836719494 475.050336559442 1.28139276966976e-014
    vertex -217.055516375935 477.671656903001 1.15505827125162e-014
    vertex -217.176836719494 473.050336559442 1.28139276966976e-014
  endloop
endfacet
facet normal -2.7665353988398e-016 9.43310267432709e-017 -1.0
  outer loop
    vertex -217.176836719494 473.050336559442 1.28139276966976e-014
    vertex -217.055516375935 477.671656903001 1.15505827125162e-014
    vertex -216.176836719494 475.550336559442 8.66293703438714e-015
  endloop
endfacet
facet normal -2.7665353988398e-016 9.43310267432709e-017 -1.0
  outer loop
    vertex -217.176836719494 473.050336559442 1.28139276966976e-014
    vertex -216.176836719494 475.550336559442 8.66293703438714e-015
    vertex -215.676836719494 475.050336559442 9.20437059903634e-015
  endloop
endfacet
facet normal -2.7665353988398e-016 9.43310267432709e-017 -1.0
  outer loop
    vertex -217.176836719494 473.050336559442 1.28139276966976e-014
    vertex -215.676836719494 475.050336559442 9.20437059903634e-015
    vertex -212.776836719494 473.050336559442 1.14477295842793e-014
  endloop
endfacet
facet normal -2.7665353988398e-016 9.43310267432709e-017 -1.0
  outer loop
    vertex -216.176836719494 475.550336559442 8.66293703438714e-015
    vertex -217.055516375935 477.671656903001 1.15505827125162e-014
    vertex -216.578760508141 477.050336559442 8.66293703438714e-015
  endloop
endfacet
facet normal -2.7665353988398e-016 9.43310267432709e-017 -1.0
  outer loop
    vertex -216.176836719494 475.550336559442 8.66293703438714e-015
    vertex -216.578760508141 477.050336559442 8.66293703438714e-015
    vertex -216.279059240627 476.326793694749 8.66293703438714e-015
  endloop
endfacet
facet normal -2.7665353988398e-016 9.43310267432709e-017 -1.0
  outer loop
    vertex -215.676836719494 475.050336559442 9.20437059903634e-015
    vertex -216.176836719494 475.550336559442 8.66293703438714e-015
    vertex -215.676836719494 475.550336559442 9.20437059903634e-015
  endloop
endfacet
facet normal -2.7665353988398e-016 9.43310267432709e-017 -1.0
  outer loop
    vertex -212.776836719494 473.050336559442 1.14477295842793e-014
    vertex -215.676836719494 475.050336559442 9.20437059903634e-015
    vertex -210.776836719494 475.050336559442 1.14477295842793e-014
  endloop
endfacet
facet normal -2.7665353988398e-016 9.43310267432709e-017 -1.0
  outer loop
    vertex -212.776836719494 473.050336559442 1.14477295842793e-014
    vertex -210.776836719494 475.050336559442 1.14477295842793e-014
    vertex -212.776836719494 450.050336559442 1.14477295842793e-014
  endloop
endfacet
facet normal -2.7665353988398e-016 9.43310267432709e-017 -1.0
  outer loop
    vertex -227.576836719494 448.050336559442 0.0
    vertex -225.576836719494 450.050336559442 1.15505827125162e-014
    vertex -222.176836719494 448.050336559442 1.44382283906452e-014
  endloop
endfacet
facet normal -2.7665353988398e-016 9.43310267432709e-017 -1.0
  outer loop
    vertex -225.576836719494 450.050336559442 1.15505827125162e-014
    vertex -227.576836719494 448.050336559442 0.0
    vertex -225.576836719494 473.050336559442 1.15505827125162e-014
  endloop
endfacet
facet normal -2.7665353988398e-016 9.43310267432709e-017 -1.0
  outer loop
    vertex -222.176836719494 448.050336559442 1.44382283906452e-014
    vertex -225.576836719494 450.050336559442 1.15505827125162e-014
    vertex -212.776836719494 450.050336559442 1.14477295842793e-014
  endloop
endfacet
facet normal -2.7665353988398e-016 9.43310267432709e-017 -1.0
  outer loop
    vertex -222.176836719494 448.050336559442 1.44382283906452e-014
    vertex -212.776836719494 450.050336559442 1.14477295842793e-014
    vertex -219.435655764597 448.516262385731 1.15505827125162e-014
  endloop
endfacet
facet normal -2.7665353988398e-016 9.43310267432709e-017 -1.0
  outer loop
    vertex -222.176836719494 448.050336559442 1.44382283906452e-014
    vertex -219.435655764597 448.516262385731 1.15505827125162e-014
    vertex -222.176836719494 447.550336559442 1.73258740687743e-014
  endloop
endfacet
facet normal -2.7665353988398e-016 9.43310267432709e-017 -1.0
  outer loop
    vertex -222.176836719494 447.550336559442 1.73258740687743e-014
    vertex -219.435655764597 448.516262385731 1.15505827125162e-014
    vertex -219.676836719494 448.416361963226 1.15505827125162e-014
  endloop
endfacet
facet normal -2.7665353988398e-016 9.43310267432709e-017 -1.0
  outer loop
    vertex -222.176836719494 447.550336559442 1.73258740687743e-014
    vertex -219.676836719494 448.416361963226 1.15505827125162e-014
    vertex -222.074614198361 446.773879424134 1.73258740687743e-014
  endloop
endfacet
facet normal -2.7665353988398e-016 9.43310267432709e-017 -1.0
  outer loop
    vertex -222.074614198361 446.773879424134 1.73258740687743e-014
    vertex -219.676836719494 448.416361963226 1.15505827125162e-014
    vertex -219.883943500681 448.257443340628 1.15505827125162e-014
  endloop
endfacet
facet normal -2.7665353988398e-016 9.43310267432709e-017 -1.0
  outer loop
    vertex -222.074614198361 446.773879424134 1.73258740687743e-014
    vertex -219.883943500681 448.257443340628 1.15505827125162e-014
    vertex -221.774912930848 446.050336559442 1.44382283906452e-014
  endloop
endfacet
facet normal -2.7665353988398e-016 9.43310267432709e-017 -1.0
  outer loop
    vertex -221.774912930848 446.050336559442 1.44382283906452e-014
    vertex -219.883943500681 448.257443340628 1.15505827125162e-014
    vertex -220.042862123279 448.050336559442 1.15505827125162e-014
  endloop
endfacet
facet normal -2.7665353988398e-016 9.43310267432709e-017 -1.0
  outer loop
    vertex -221.774912930848 446.050336559442 1.44382283906452e-014
    vertex -220.042862123279 448.050336559442 1.15505827125162e-014
    vertex -221.298157063054 445.429016215882 1.44382283906452e-014
  endloop
endfacet
facet normal -2.7665353988398e-016 9.43310267432709e-017 -1.0
  outer loop
    vertex -221.298157063054 445.429016215882 1.44382283906452e-014
    vertex -220.042862123279 448.050336559442 1.15505827125162e-014
    vertex -220.142762545783 447.809155604544 1.15505827125162e-014
  endloop
endfacet
facet normal -2.7665353988398e-016 9.43310267432709e-017 -1.0
  outer loop
    vertex -221.298157063054 445.429016215882 1.44382283906452e-014
    vertex -220.142762545783 447.809155604544 1.15505827125162e-014
    vertex -220.676836719494 444.952260348089 1.15505827125162e-014
  endloop
endfacet
facet normal -2.7665353988398e-016 9.43310267432709e-017 -1.0
  outer loop
    vertex -220.676836719494 444.952260348089 1.15505827125162e-014
    vertex -220.142762545783 447.809155604544 1.15505827125162e-014
    vertex -220.176836719494 447.550336559442 1.15505827125162e-014
  endloop
endfacet
facet normal -2.7665353988398e-016 9.43310267432709e-017 -1.0
  outer loop
    vertex -219.435655764597 448.516262385731 1.15505827125162e-014
    vertex -212.776836719494 450.050336559442 1.14477295842793e-014
    vertex -219.176836719494 448.550336559442 1.15505827125162e-014
  endloop
endfacet
facet normal -2.7665353988398e-016 9.43310267432709e-017 -1.0
  outer loop
    vertex -219.176836719494 448.550336559442 1.15505827125162e-014
    vertex -212.776836719494 450.050336559442 1.14477295842793e-014
    vertex -218.918017674392 448.516262385731 1.15505827125162e-014
  endloop
endfacet
facet normal -2.7665353988398e-016 9.43310267432709e-017 -1.0
  outer loop
    vertex -218.918017674392 448.516262385731 1.15505827125162e-014
    vertex -212.776836719494 450.050336559442 1.14477295842793e-014
    vertex -218.676836719494 448.416361963226 8.66293703438714e-015
  endloop
endfacet
facet normal -2.7665353988398e-016 9.43310267432709e-017 -1.0
  outer loop
    vertex -218.676836719494 448.416361963226 8.66293703438714e-015
    vertex -212.776836719494 450.050336559442 1.14477295842793e-014
    vertex -218.469729938308 448.257443340628 8.66293703438714e-015
  endloop
endfacet
facet normal -2.7665353988398e-016 9.43310267432709e-017 -1.0
  outer loop
    vertex -218.469729938308 448.257443340628 8.66293703438714e-015
    vertex -212.776836719494 450.050336559442 1.14477295842793e-014
    vertex -218.31081131571 448.050336559442 8.66293703438714e-015
  endloop
endfacet
facet normal -2.7665353988398e-016 9.43310267432709e-017 -1.0
  outer loop
    vertex -218.31081131571 448.050336559442 8.66293703438714e-015
    vertex -212.776836719494 450.050336559442 1.14477295842793e-014
    vertex -218.210910893205 447.809155604544 8.66293703438714e-015
  endloop
endfacet
facet normal -2.7665353988398e-016 9.43310267432709e-017 -1.0
  outer loop
    vertex -218.210910893205 447.809155604544 8.66293703438714e-015
    vertex -212.776836719494 450.050336559442 1.14477295842793e-014
    vertex -218.176836719494 447.550336559442 8.66293703438714e-015
  endloop
endfacet
facet normal -2.7665353988398e-016 9.43310267432709e-017 -1.0
  outer loop
    vertex -218.176836719494 447.550336559442 8.66293703438714e-015
    vertex -212.776836719494 450.050336559442 1.14477295842793e-014
    vertex -216.176836719494 448.050336559442 1.15505827125162e-014
  endloop
endfacet
facet normal -2.7665353988398e-016 9.43310267432709e-017 -1.0
  outer loop
    vertex -218.176836719494 447.550336559442 8.66293703438714e-015
    vertex -216.176836719494 448.050336559442 1.15505827125162e-014
    vertex -217.676836719494 444.952260348089 5.77529135625809e-015
  endloop
endfacet
facet normal -2.7665353988398e-016 9.43310267432709e-017 -1.0
  outer loop
    vertex -217.676836719494 444.952260348089 5.77529135625809e-015
    vertex -216.176836719494 448.050336559442 1.15505827125162e-014
    vertex -217.055516375935 445.429016215882 5.77529135625809e-015
  endloop
endfacet
facet normal -2.7665353988398e-016 9.43310267432709e-017 -1.0
  outer loop
    vertex -217.055516375935 445.429016215882 5.77529135625809e-015
    vertex -216.176836719494 448.050336559442 1.15505827125162e-014
    vertex -216.578760508141 446.050336559442 5.77529135625809e-015
  endloop
endfacet
facet normal -2.7665353988398e-016 9.43310267432709e-017 -1.0
  outer loop
    vertex -216.578760508141 446.050336559442 5.77529135625809e-015
    vertex -216.176836719494 448.050336559442 1.15505827125162e-014
    vertex -216.279059240627 446.773879424134 5.77529135625809e-015
  endloop
endfacet
facet normal -2.7665353988398e-016 9.43310267432709e-017 -1.0
  outer loop
    vertex -216.176836719494 448.050336559442 1.15505827125162e-014
    vertex -212.776836719494 450.050336559442 1.14477295842793e-014
    vertex -210.776836719494 448.050336559442 1.14477295842793e-014
  endloop
endfacet
facet normal -2.7665353988398e-016 9.43310267432709e-017 -1.0
  outer loop
    vertex -210.776836719494 448.050336559442 1.14477295842793e-014
    vertex -212.776836719494 450.050336559442 1.14477295842793e-014
    vertex -210.776836719494 475.050336559442 1.14477295842793e-014
  endloop
endfacet
facet normal -2.7665353988398e-016 9.43310267432709e-017 -1.0
  outer loop
    vertex -216.176836719494 447.550336559442 8.66293703438714e-015
    vertex -216.279059240627 446.773879424134 5.77529135625809e-015
    vertex -216.176836719494 448.050336559442 1.15505827125162e-014
  endloop
endfacet
facet normal 0.0 -1.0 0.0
  outer loop
    vertex -222.176836719494 448.050336559442 1.44382283906452e-014
    vertex -227.576836719494 448.050336559442 3.0
    vertex -227.576836719494 448.050336559442 0.0
  endloop
endfacet
facet normal 0.0 -1.0 0.0
  outer loop
    vertex -227.576836719494 448.050336559442 3.0
    vertex -222.176836719494 448.050336559442 1.44382283906452e-014
    vertex -222.176836719494 448.050336559442 3.00000000000001
  endloop
endfacet
facet normal -0.130526192219876 -0.991444861373833 -6.5630598295664e-019
  outer loop
    vertex -219.176836719494 444.550336559442 3.00000000000001
    vertex -219.953293854802 444.652559080575 1.15505827125162e-014
    vertex -219.176836719494 444.550336559442 8.66293703438714e-015
  endloop
endfacet
facet normal -0.130526192219876 -0.991444861373833 -6.5630598295664e-019
  outer loop
    vertex -219.953293854802 444.652559080575 1.15505827125162e-014
    vertex -219.176836719494 444.550336559442 3.00000000000001
    vertex -219.953293854802 444.652559080575 3.00000000000001
  endloop
endfacet
facet normal 0.130526192219884 -0.991444861373833 0.0
  outer loop
    vertex -218.400379584187 444.652559080575 3.00000000000001
    vertex -219.176836719494 444.550336559442 8.66293703438714e-015
    vertex -218.400379584187 444.652559080575 8.66293703438714e-015
  endloop
endfacet
facet normal 0.130526192219884 -0.991444861373833 0.0
  outer loop
    vertex -219.176836719494 444.550336559442 8.66293703438714e-015
    vertex -218.400379584187 444.652559080575 3.00000000000001
    vertex -219.176836719494 444.550336559442 3.00000000000001
  endloop
endfacet
facet normal 0.0 1.0 0.0
  outer loop
    vertex -227.576836719494 475.050336559442 1.15505827125162e-014
    vertex -222.676836719494 475.050336559442 3.00000000000002
    vertex -222.676836719494 475.050336559442 9.20437059903634e-015
  endloop
endfacet
facet normal 0.0 1.0 0.0
  outer loop
    vertex -222.676836719494 475.050336559442 3.00000000000002
    vertex -227.576836719494 475.050336559442 1.15505827125162e-014
    vertex -227.576836719494 475.050336559442 3.00000000000001
  endloop
endfacet
facet normal 0.130526192219884 0.991444861373833 0.0
  outer loop
    vertex -219.176836719494 478.550336559442 3.00000000000001
    vertex -218.400379584187 478.448114038309 1.44382283906452e-014
    vertex -219.176836719494 478.550336559442 1.44382283906452e-014
  endloop
endfacet
facet normal 0.130526192219884 0.991444861373833 0.0
  outer loop
    vertex -218.400379584187 478.448114038309 1.44382283906452e-014
    vertex -219.176836719494 478.550336559442 3.00000000000001
    vertex -218.400379584187 478.448114038309 3.00000000000001
  endloop
endfacet
facet normal 1.0 0.0 -2.05706256473712e-016
  outer loop
    vertex -210.776836719494 475.050336559442 1.14477295842793e-014
    vertex -210.776836719494 448.050336559442 3.00000000000001
    vertex -210.776836719494 448.050336559442 1.14477295842793e-014
  endloop
endfacet
facet normal 1.0 0.0 -2.05706256473712e-016
  outer loop
    vertex -210.776836719494 448.050336559442 3.00000000000001
    vertex -210.776836719494 475.050336559442 1.14477295842793e-014
    vertex -210.776836719494 475.050336559442 3.00000000000001
  endloop
endfacet
facet normal -0.60876142900864 0.793353340291297 0.0
  outer loop
    vertex -221.298157063054 477.671656903001 3.00000000000002
    vertex -220.676836719494 478.148412770795 1.73258740687743e-014
    vertex -221.298157063054 477.671656903001 1.73258740687743e-014
  endloop
endfacet
facet normal -0.60876142900864 0.793353340291297 0.0
  outer loop
    vertex -220.676836719494 478.148412770795 1.73258740687743e-014
    vertex -221.298157063054 477.671656903001 3.00000000000002
    vertex -220.676836719494 478.148412770795 3.00000000000002
  endloop
endfacet
facet normal 0.0 1.0 0.0
  outer loop
    vertex -215.676836719494 475.050336559442 3.00000000000001
    vertex -210.776836719494 475.050336559442 1.14477295842793e-014
    vertex -215.676836719494 475.050336559442 9.20437059903634e-015
  endloop
endfacet
facet normal 0.0 1.0 0.0
  outer loop
    vertex -210.776836719494 475.050336559442 1.14477295842793e-014
    vertex -215.676836719494 475.050336559442 3.00000000000001
    vertex -210.776836719494 475.050336559442 3.00000000000001
  endloop
endfacet
facet normal 0.60876142900864 0.793353340291297 0.0
  outer loop
    vertex -217.676836719494 478.148412770795 3.00000000000001
    vertex -217.055516375935 477.671656903001 1.15505827125162e-014
    vertex -217.676836719494 478.148412770795 1.15505827125162e-014
  endloop
endfacet
facet normal 0.60876142900864 0.793353340291297 0.0
  outer loop
    vertex -217.055516375935 477.671656903001 1.15505827125162e-014
    vertex -217.676836719494 478.148412770795 3.00000000000001
    vertex -217.055516375935 477.671656903001 3.00000000000001
  endloop
endfacet
facet normal -1.0 0.0 0.0
  outer loop
    vertex -222.176836719494 448.050336559442 3.00000000000001
    vertex -222.176836719494 447.550336559442 1.73258740687743e-014
    vertex -222.176836719494 447.550336559442 3.00000000000002
  endloop
endfacet
facet normal -1.0 0.0 0.0
  outer loop
    vertex -222.176836719494 447.550336559442 1.73258740687743e-014
    vertex -222.176836719494 448.050336559442 3.00000000000001
    vertex -222.176836719494 448.050336559442 1.44382283906452e-014
  endloop
endfacet
facet normal -0.923879532511245 0.382683432365191 0.0
  outer loop
    vertex -221.774912930848 477.050336559442 3.00000000000002
    vertex -222.074614198362 476.326793694749 1.73258740687743e-014
    vertex -222.074614198362 476.326793694749 3.00000000000002
  endloop
endfacet
facet normal -0.923879532511245 0.382683432365191 0.0
  outer loop
    vertex -222.074614198362 476.326793694749 1.73258740687743e-014
    vertex -221.774912930848 477.050336559442 3.00000000000002
    vertex -221.774912930848 477.050336559442 1.73258740687743e-014
  endloop
endfacet
facet normal -0.382683432365149 0.923879532511262 0.0
  outer loop
    vertex -220.676836719494 478.148412770795 3.00000000000002
    vertex -219.953293854802 478.448114038309 1.73258740687743e-014
    vertex -220.676836719494 478.148412770795 1.73258740687743e-014
  endloop
endfacet
facet normal -0.382683432365149 0.923879532511262 0.0
  outer loop
    vertex -219.953293854802 478.448114038309 1.73258740687743e-014
    vertex -220.676836719494 478.148412770795 3.00000000000002
    vertex -219.953293854802 478.448114038309 3.00000000000002
  endloop
endfacet
facet normal -0.923879532511287 -0.38268343236509 3.21051460964123e-018
  outer loop
    vertex -222.074614198361 446.773879424134 3.00000000000002
    vertex -221.774912930848 446.050336559442 1.44382283906452e-014
    vertex -221.774912930848 446.050336559442 3.00000000000001
  endloop
endfacet
facet normal -0.923879532511287 -0.38268343236509 3.21051460964123e-018
  outer loop
    vertex -221.774912930848 446.050336559442 1.44382283906452e-014
    vertex -222.074614198361 446.773879424134 3.00000000000002
    vertex -222.074614198361 446.773879424134 1.73258740687743e-014
  endloop
endfacet
facet normal 0.382683432365191 -0.923879532511245 1.07397427402107e-017
  outer loop
    vertex -217.676836719494 444.952260348089 3.00000000000001
    vertex -218.400379584187 444.652559080575 8.66293703438714e-015
    vertex -217.676836719494 444.952260348089 5.77529135625809e-015
  endloop
endfacet
facet normal 0.382683432365191 -0.923879532511245 1.07397427402107e-017
  outer loop
    vertex -218.400379584187 444.652559080575 8.66293703438714e-015
    vertex -217.676836719494 444.952260348089 3.00000000000001
    vertex -218.400379584187 444.652559080575 3.00000000000001
  endloop
endfacet
facet normal 0.60876142900864 -0.793353340291297 0.0
  outer loop
    vertex -217.055516375935 445.429016215882 3.00000000000001
    vertex -217.676836719494 444.952260348089 5.77529135625809e-015
    vertex -217.055516375935 445.429016215882 5.77529135625809e-015
  endloop
endfacet
facet normal 0.60876142900864 -0.793353340291297 0.0
  outer loop
    vertex -217.676836719494 444.952260348089 5.77529135625809e-015
    vertex -217.055516375935 445.429016215882 3.00000000000001
    vertex -217.676836719494 444.952260348089 3.00000000000001
  endloop
endfacet
facet normal 0.793353340291284 -0.608761429008657 0.0
  outer loop
    vertex -216.578760508141 446.050336559442 5.77529135625809e-015
    vertex -217.055516375935 445.429016215882 3.00000000000001
    vertex -217.055516375935 445.429016215882 5.77529135625809e-015
  endloop
endfacet
facet normal 0.793353340291284 -0.608761429008657 0.0
  outer loop
    vertex -217.055516375935 445.429016215882 3.00000000000001
    vertex -216.578760508141 446.050336559442 5.77529135625809e-015
    vertex -216.578760508141 446.050336559442 3.00000000000001
  endloop
endfacet
facet normal 0.923879532511287 -0.38268343236509 0.0
  outer loop
    vertex -216.279059240627 446.773879424134 5.77529135625809e-015
    vertex -216.578760508141 446.050336559442 3.00000000000001
    vertex -216.578760508141 446.050336559442 5.77529135625809e-015
  endloop
endfacet
facet normal 0.923879532511287 -0.38268343236509 0.0
  outer loop
    vertex -216.578760508141 446.050336559442 3.00000000000001
    vertex -216.279059240627 446.773879424134 5.77529135625809e-015
    vertex -216.279059240627 446.773879424134 3.00000000000001
  endloop
endfacet
facet normal 3.66059191537822e-016 -1.11728446745584e-016 1.0
  outer loop
    vertex -227.576836719494 475.050336559442 3.00000000000001
    vertex -225.576836719494 473.050336559442 3.00000000000001
    vertex -222.676836719494 475.050336559442 3.00000000000002
  endloop
endfacet
facet normal 3.66059191537822e-016 -1.11728446745584e-016 1.0
  outer loop
    vertex -225.576836719494 473.050336559442 3.00000000000001
    vertex -227.576836719494 475.050336559442 3.00000000000001
    vertex -225.576836719494 450.050336559442 3.00000000000001
  endloop
endfacet
facet normal 3.66059191537822e-016 -1.11728446745584e-016 1.0
  outer loop
    vertex -222.676836719494 475.050336559442 3.00000000000002
    vertex -225.576836719494 473.050336559442 3.00000000000001
    vertex -221.176836719494 473.050336559442 3.00000000000001
  endloop
endfacet
facet normal 3.66059191537822e-016 -1.11728446745584e-016 1.0
  outer loop
    vertex -222.676836719494 475.050336559442 3.00000000000002
    vertex -221.176836719494 473.050336559442 3.00000000000001
    vertex -222.676836719494 475.550336559442 3.00000000000002
  endloop
endfacet
facet normal 3.66059191537822e-016 -1.11728446745584e-016 1.0
  outer loop
    vertex -222.676836719494 475.550336559442 3.00000000000002
    vertex -221.176836719494 473.050336559442 3.00000000000001
    vertex -222.176836719494 475.550336559442 3.00000000000002
  endloop
endfacet
facet normal 3.66059191537822e-016 -1.11728446745584e-016 1.0
  outer loop
    vertex -222.176836719494 475.550336559442 3.00000000000002
    vertex -221.176836719494 473.050336559442 3.00000000000001
    vertex -222.074614198362 476.326793694749 3.00000000000002
  endloop
endfacet
facet normal 3.66059191537822e-016 -1.11728446745584e-016 1.0
  outer loop
    vertex -222.074614198362 476.326793694749 3.00000000000002
    vertex -221.176836719494 473.050336559442 3.00000000000001
    vertex -221.774912930848 477.050336559442 3.00000000000002
  endloop
endfacet
facet normal 3.66059191537822e-016 -1.11728446745584e-016 1.0
  outer loop
    vertex -221.774912930848 477.050336559442 3.00000000000002
    vertex -221.176836719494 473.050336559442 3.00000000000001
    vertex -221.298157063054 477.671656903001 3.00000000000002
  endloop
endfacet
facet normal 3.66059191537822e-016 -1.11728446745584e-016 1.0
  outer loop
    vertex -221.298157063054 477.671656903001 3.00000000000002
    vertex -221.176836719494 473.050336559442 3.00000000000001
    vertex -221.176836719494 475.050336559442 3.00000000000001
  endloop
endfacet
facet normal 3.66059191537822e-016 -1.11728446745584e-016 1.0
  outer loop
    vertex -221.298157063054 477.671656903001 3.00000000000002
    vertex -221.176836719494 475.050336559442 3.00000000000001
    vertex -220.676836719494 478.148412770795 3.00000000000002
  endloop
endfacet
facet normal 3.66059191537822e-016 -1.11728446745584e-016 1.0
  outer loop
    vertex -220.676836719494 478.148412770795 3.00000000000002
    vertex -221.176836719494 475.050336559442 3.00000000000001
    vertex -220.142762545783 475.291517514339 3.00000000000001
  endloop
endfacet
facet normal 3.66059191537822e-016 -1.11728446745584e-016 1.0
  outer loop
    vertex -220.142762545783 475.291517514339 3.00000000000001
    vertex -221.176836719494 475.050336559442 3.00000000000001
    vertex -220.042862123279 475.050336559442 3.00000000000001
  endloop
endfacet
facet normal 3.66059191537822e-016 -1.11728446745584e-016 1.0
  outer loop
    vertex -220.676836719494 478.148412770795 3.00000000000002
    vertex -220.142762545783 475.291517514339 3.00000000000001
    vertex -220.176836719494 475.550336559442 3.00000000000001
  endloop
endfacet
facet normal 3.66059191537822e-016 -1.11728446745584e-016 1.0
  outer loop
    vertex -219.953293854802 444.652559080575 3.00000000000001
    vertex -220.176836719494 447.550336559442 3.00000000000001
    vertex -220.676836719494 444.952260348089 3.00000000000001
  endloop
endfacet
facet normal 3.66059191537822e-016 -1.11728446745584e-016 1.0
  outer loop
    vertex -220.176836719494 447.550336559442 3.00000000000001
    vertex -219.953293854802 444.652559080575 3.00000000000001
    vertex -220.142762545783 447.291517514339 3.00000000000001
  endloop
endfacet
facet normal 3.66059191537822e-016 -1.11728446745584e-016 1.0
  outer loop
    vertex -220.142762545783 447.291517514339 3.00000000000001
    vertex -219.953293854802 444.652559080575 3.00000000000001
    vertex -220.042862123279 447.050336559442 3.00000000000001
  endloop
endfacet
facet normal 3.66059191537822e-016 -1.11728446745584e-016 1.0
  outer loop
    vertex -220.042862123279 447.050336559442 3.00000000000001
    vertex -219.953293854802 444.652559080575 3.00000000000001
    vertex -219.883943500681 446.843229778255 3.00000000000001
  endloop
endfacet
facet normal 3.66059191537822e-016 -1.11728446745584e-016 1.0
  outer loop
    vertex -219.883943500681 446.843229778255 3.00000000000001
    vertex -219.953293854802 444.652559080575 3.00000000000001
    vertex -219.176836719494 444.550336559442 3.00000000000001
  endloop
endfacet
facet normal 3.66059191537822e-016 -1.11728446745584e-016 1.0
  outer loop
    vertex -219.883943500681 446.843229778255 3.00000000000001
    vertex -219.176836719494 444.550336559442 3.00000000000001
    vertex -219.676836719494 446.684311155657 3.00000000000001
  endloop
endfacet
facet normal 3.66059191537822e-016 -1.11728446745584e-016 1.0
  outer loop
    vertex -219.676836719494 446.684311155657 3.00000000000001
    vertex -219.176836719494 444.550336559442 3.00000000000001
    vertex -219.435655764597 446.584410733153 3.00000000000001
  endloop
endfacet
facet normal 3.66059191537822e-016 -1.11728446745584e-016 1.0
  outer loop
    vertex -219.435655764597 446.584410733153 3.00000000000001
    vertex -219.176836719494 444.550336559442 3.00000000000001
    vertex -219.176836719494 446.550336559442 3.00000000000001
  endloop
endfacet
facet normal 3.66059191537822e-016 -1.11728446745584e-016 1.0
  outer loop
    vertex -219.176836719494 446.550336559442 3.00000000000001
    vertex -219.176836719494 444.550336559442 3.00000000000001
    vertex -218.400379584187 444.652559080575 3.00000000000001
  endloop
endfacet
facet normal 3.66059191537822e-016 -1.11728446745584e-016 1.0
  outer loop
    vertex -219.176836719494 446.550336559442 3.00000000000001
    vertex -218.400379584187 444.652559080575 3.00000000000001
    vertex -218.918017674392 446.584410733153 3.00000000000001
  endloop
endfacet
facet normal 3.66059191537822e-016 -1.11728446745584e-016 1.0
  outer loop
    vertex -218.918017674392 446.584410733153 3.00000000000001
    vertex -218.400379584187 444.652559080575 3.00000000000001
    vertex -218.676836719494 446.684311155657 3.00000000000001
  endloop
endfacet
facet normal 3.66059191537822e-016 -1.11728446745584e-016 1.0
  outer loop
    vertex -218.676836719494 446.684311155657 3.00000000000001
    vertex -218.400379584187 444.652559080575 3.00000000000001
    vertex -218.469729938308 446.843229778255 3.00000000000001
  endloop
endfacet
facet normal 3.66059191537822e-016 -1.11728446745584e-016 1.0
  outer loop
    vertex -218.469729938308 446.843229778255 3.00000000000001
    vertex -218.400379584187 444.652559080575 3.00000000000001
    vertex -218.31081131571 447.050336559442 3.00000000000001
  endloop
endfacet
facet normal 3.66059191537822e-016 -1.11728446745584e-016 1.0
  outer loop
    vertex -218.31081131571 447.050336559442 3.00000000000001
    vertex -218.400379584187 444.652559080575 3.00000000000001
    vertex -217.676836719494 444.952260348089 3.00000000000001
  endloop
endfacet
facet normal 3.66059191537822e-016 -1.11728446745584e-016 1.0
  outer loop
    vertex -218.31081131571 447.050336559442 3.00000000000001
    vertex -217.676836719494 444.952260348089 3.00000000000001
    vertex -218.210910893205 447.291517514339 3.00000000000001
  endloop
endfacet
facet normal 3.66059191537822e-016 -1.11728446745584e-016 1.0
  outer loop
    vertex -218.210910893205 447.291517514339 3.00000000000001
    vertex -217.676836719494 444.952260348089 3.00000000000001
    vertex -218.176836719494 447.550336559442 3.00000000000001
  endloop
endfacet
facet normal 3.66059191537822e-016 -1.11728446745584e-016 1.0
  outer loop
    vertex -217.176836719494 475.050336559442 3.00000000000001
    vertex -218.210910893205 475.291517514339 3.00000000000001
    vertex -218.31081131571 475.050336559442 3.00000000000001
  endloop
endfacet
facet normal 3.66059191537822e-016 -1.11728446745584e-016 1.0
  outer loop
    vertex -218.210910893205 475.291517514339 3.00000000000001
    vertex -217.176836719494 475.050336559442 3.00000000000001
    vertex -218.176836719494 475.550336559442 3.00000000000001
  endloop
endfacet
facet normal 3.66059191537822e-016 -1.11728446745584e-016 1.0
  outer loop
    vertex -218.176836719494 475.550336559442 3.00000000000001
    vertex -217.176836719494 475.050336559442 3.00000000000001
    vertex -217.676836719494 478.148412770795 3.00000000000001
  endloop
endfacet
facet normal 3.66059191537822e-016 -1.11728446745584e-016 1.0
  outer loop
    vertex -217.676836719494 478.148412770795 3.00000000000001
    vertex -217.176836719494 475.050336559442 3.00000000000001
    vertex -217.055516375935 477.671656903001 3.00000000000001
  endloop
endfacet
facet normal 3.66059191537822e-016 -1.11728446745584e-016 1.0
  outer loop
    vertex -220.176836719494 475.550336559442 3.00000000000001
    vertex -219.953293854802 478.448114038309 3.00000000000002
    vertex -220.676836719494 478.148412770795 3.00000000000002
  endloop
endfacet
facet normal 3.66059191537822e-016 -1.11728446745584e-016 1.0
  outer loop
    vertex -219.953293854802 478.448114038309 3.00000000000002
    vertex -220.176836719494 475.550336559442 3.00000000000001
    vertex -220.142762545783 475.809155604544 3.00000000000001
  endloop
endfacet
facet normal 3.66059191537822e-016 -1.11728446745584e-016 1.0
  outer loop
    vertex -219.953293854802 478.448114038309 3.00000000000002
    vertex -220.142762545783 475.809155604544 3.00000000000001
    vertex -220.042862123279 476.050336559442 3.00000000000001
  endloop
endfacet
facet normal 3.66059191537822e-016 -1.11728446745584e-016 1.0
  outer loop
    vertex -219.953293854802 478.448114038309 3.00000000000002
    vertex -220.042862123279 476.050336559442 3.00000000000001
    vertex -219.883943500681 476.257443340628 3.00000000000001
  endloop
endfacet
facet normal 3.66059191537822e-016 -1.11728446745584e-016 1.0
  outer loop
    vertex -219.953293854802 478.448114038309 3.00000000000002
    vertex -219.883943500681 476.257443340628 3.00000000000001
    vertex -219.176836719494 478.550336559442 3.00000000000001
  endloop
endfacet
facet normal 3.66059191537822e-016 -1.11728446745584e-016 1.0
  outer loop
    vertex -219.176836719494 478.550336559442 3.00000000000001
    vertex -219.883943500681 476.257443340628 3.00000000000001
    vertex -219.676836719494 476.416361963226 3.00000000000001
  endloop
endfacet
facet normal 3.66059191537822e-016 -1.11728446745584e-016 1.0
  outer loop
    vertex -219.176836719494 478.550336559442 3.00000000000001
    vertex -219.676836719494 476.416361963226 3.00000000000001
    vertex -219.435655764597 476.516262385731 3.00000000000001
  endloop
endfacet
facet normal 3.66059191537822e-016 -1.11728446745584e-016 1.0
  outer loop
    vertex -219.176836719494 478.550336559442 3.00000000000001
    vertex -219.435655764597 476.516262385731 3.00000000000001
    vertex -219.176836719494 476.550336559442 3.00000000000001
  endloop
endfacet
facet normal 3.66059191537822e-016 -1.11728446745584e-016 1.0
  outer loop
    vertex -219.176836719494 478.550336559442 3.00000000000001
    vertex -219.176836719494 476.550336559442 3.00000000000001
    vertex -218.400379584187 478.448114038309 3.00000000000001
  endloop
endfacet
facet normal 3.66059191537822e-016 -1.11728446745584e-016 1.0
  outer loop
    vertex -218.400379584187 478.448114038309 3.00000000000001
    vertex -219.176836719494 476.550336559442 3.00000000000001
    vertex -218.918017674392 476.516262385731 3.00000000000001
  endloop
endfacet
facet normal 3.66059191537822e-016 -1.11728446745584e-016 1.0
  outer loop
    vertex -218.400379584187 478.448114038309 3.00000000000001
    vertex -218.918017674392 476.516262385731 3.00000000000001
    vertex -218.676836719494 476.416361963226 3.00000000000001
  endloop
endfacet
facet normal 3.66059191537822e-016 -1.11728446745584e-016 1.0
  outer loop
    vertex -218.400379584187 478.448114038309 3.00000000000001
    vertex -218.676836719494 476.416361963226 3.00000000000001
    vertex -218.469729938308 476.257443340628 3.00000000000001
  endloop
endfacet
facet normal 3.66059191537822e-016 -1.11728446745584e-016 1.0
  outer loop
    vertex -218.400379584187 478.448114038309 3.00000000000001
    vertex -218.469729938308 476.257443340628 3.00000000000001
    vertex -218.31081131571 476.050336559442 3.00000000000001
  endloop
endfacet
facet normal 3.66059191537822e-016 -1.11728446745584e-016 1.0
  outer loop
    vertex -218.400379584187 478.448114038309 3.00000000000001
    vertex -218.31081131571 476.050336559442 3.00000000000001
    vertex -217.676836719494 478.148412770795 3.00000000000001
  endloop
endfacet
facet normal 3.66059191537822e-016 -1.11728446745584e-016 1.0
  outer loop
    vertex -217.676836719494 478.148412770795 3.00000000000001
    vertex -218.31081131571 476.050336559442 3.00000000000001
    vertex -218.210910893205 475.809155604544 3.00000000000001
  endloop
endfacet
facet normal 3.66059191537822e-016 -1.11728446745584e-016 1.0
  outer loop
    vertex -217.676836719494 478.148412770795 3.00000000000001
    vertex -218.210910893205 475.809155604544 3.00000000000001
    vertex -218.176836719494 475.550336559442 3.00000000000001
  endloop
endfacet
facet normal 3.66059191537822e-016 -1.11728446745584e-016 1.0
  outer loop
    vertex -222.074614198361 446.773879424134 3.00000000000002
    vertex -222.176836719494 448.050336559442 3.00000000000001
    vertex -222.176836719494 447.550336559442 3.00000000000002
  endloop
endfacet
facet normal 3.66059191537822e-016 -1.11728446745584e-016 1.0
  outer loop
    vertex -227.576836719494 448.050336559442 3.0
    vertex -225.576836719494 450.050336559442 3.00000000000001
    vertex -227.576836719494 475.050336559442 3.00000000000001
  endloop
endfacet
facet normal 3.66059191537822e-016 -1.11728446745584e-016 1.0
  outer loop
    vertex -225.576836719494 450.050336559442 3.00000000000001
    vertex -227.576836719494 448.050336559442 3.0
    vertex -222.176836719494 448.050336559442 3.00000000000001
  endloop
endfacet
facet normal 3.66059191537822e-016 -1.11728446745584e-016 1.0
  outer loop
    vertex -225.576836719494 450.050336559442 3.00000000000001
    vertex -222.176836719494 448.050336559442 3.00000000000001
    vertex -212.776836719494 450.050336559442 3.00000000000001
  endloop
endfacet
facet normal 3.66059191537822e-016 -1.11728446745584e-016 1.0
  outer loop
    vertex -212.776836719494 450.050336559442 3.00000000000001
    vertex -222.176836719494 448.050336559442 3.00000000000001
    vertex -219.435655764597 448.516262385731 3.00000000000001
  endloop
endfacet
facet normal 3.66059191537822e-016 -1.11728446745584e-016 1.0
  outer loop
    vertex -219.435655764597 448.516262385731 3.00000000000001
    vertex -222.176836719494 448.050336559442 3.00000000000001
    vertex -219.676836719494 448.416361963226 3.00000000000001
  endloop
endfacet
facet normal 3.66059191537822e-016 -1.11728446745584e-016 1.0
  outer loop
    vertex -219.676836719494 448.416361963226 3.00000000000001
    vertex -222.176836719494 448.050336559442 3.00000000000001
    vertex -222.074614198361 446.773879424134 3.00000000000002
  endloop
endfacet
facet normal 3.66059191537822e-016 -1.11728446745584e-016 1.0
  outer loop
    vertex -219.676836719494 448.416361963226 3.00000000000001
    vertex -222.074614198361 446.773879424134 3.00000000000002
    vertex -219.883943500681 448.257443340628 3.00000000000001
  endloop
endfacet
facet normal 3.66059191537822e-016 -1.11728446745584e-016 1.0
  outer loop
    vertex -219.883943500681 448.257443340628 3.00000000000001
    vertex -222.074614198361 446.773879424134 3.00000000000002
    vertex -221.774912930848 446.050336559442 3.00000000000001
  endloop
endfacet
facet normal 3.66059191537822e-016 -1.11728446745584e-016 1.0
  outer loop
    vertex -219.883943500681 448.257443340628 3.00000000000001
    vertex -221.774912930848 446.050336559442 3.00000000000001
    vertex -220.042862123279 448.050336559442 3.00000000000001
  endloop
endfacet
facet normal 3.66059191537822e-016 -1.11728446745584e-016 1.0
  outer loop
    vertex -220.042862123279 448.050336559442 3.00000000000001
    vertex -221.774912930848 446.050336559442 3.00000000000001
    vertex -221.298157063054 445.429016215882 3.00000000000001
  endloop
endfacet
facet normal 3.66059191537822e-016 -1.11728446745584e-016 1.0
  outer loop
    vertex -220.042862123279 448.050336559442 3.00000000000001
    vertex -221.298157063054 445.429016215882 3.00000000000001
    vertex -220.142762545783 447.809155604544 3.00000000000001
  endloop
endfacet
facet normal 3.66059191537822e-016 -1.11728446745584e-016 1.0
  outer loop
    vertex -220.142762545783 447.809155604544 3.00000000000001
    vertex -221.298157063054 445.429016215882 3.00000000000001
    vertex -220.676836719494 444.952260348089 3.00000000000001
  endloop
endfacet
facet normal 3.66059191537822e-016 -1.11728446745584e-016 1.0
  outer loop
    vertex -220.142762545783 447.809155604544 3.00000000000001
    vertex -220.676836719494 444.952260348089 3.00000000000001
    vertex -220.176836719494 447.550336559442 3.00000000000001
  endloop
endfacet
facet normal 3.66059191537822e-016 -1.11728446745584e-016 1.0
  outer loop
    vertex -212.776836719494 450.050336559442 3.00000000000001
    vertex -219.435655764597 448.516262385731 3.00000000000001
    vertex -219.176836719494 448.550336559442 3.00000000000001
  endloop
endfacet
facet normal 3.66059191537822e-016 -1.11728446745584e-016 1.0
  outer loop
    vertex -212.776836719494 450.050336559442 3.00000000000001
    vertex -219.176836719494 448.550336559442 3.00000000000001
    vertex -218.918017674392 448.516262385731 3.00000000000001
  endloop
endfacet
facet normal 3.66059191537822e-016 -1.11728446745584e-016 1.0
  outer loop
    vertex -212.776836719494 450.050336559442 3.00000000000001
    vertex -218.918017674392 448.516262385731 3.00000000000001
    vertex -218.676836719494 448.416361963226 3.00000000000001
  endloop
endfacet
facet normal 3.66059191537822e-016 -1.11728446745584e-016 1.0
  outer loop
    vertex -212.776836719494 450.050336559442 3.00000000000001
    vertex -218.676836719494 448.416361963226 3.00000000000001
    vertex -218.469729938308 448.257443340628 3.00000000000001
  endloop
endfacet
facet normal 3.66059191537822e-016 -1.11728446745584e-016 1.0
  outer loop
    vertex -212.776836719494 450.050336559442 3.00000000000001
    vertex -218.469729938308 448.257443340628 3.00000000000001
    vertex -218.31081131571 448.050336559442 3.00000000000001
  endloop
endfacet
facet normal 3.66059191537822e-016 -1.11728446745584e-016 1.0
  outer loop
    vertex -212.776836719494 450.050336559442 3.00000000000001
    vertex -218.31081131571 448.050336559442 3.00000000000001
    vertex -218.210910893205 447.809155604544 3.00000000000001
  endloop
endfacet
facet normal 3.66059191537822e-016 -1.11728446745584e-016 1.0
  outer loop
    vertex -212.776836719494 450.050336559442 3.00000000000001
    vertex -218.210910893205 447.809155604544 3.00000000000001
    vertex -218.176836719494 447.550336559442 3.00000000000001
  endloop
endfacet
facet normal 3.66059191537822e-016 -1.11728446745584e-016 1.0
  outer loop
    vertex -212.776836719494 450.050336559442 3.00000000000001
    vertex -218.176836719494 447.550336559442 3.00000000000001
    vertex -216.176836719494 448.050336559442 3.00000000000001
  endloop
endfacet
facet normal 3.66059191537822e-016 -1.11728446745584e-016 1.0
  outer loop
    vertex -216.176836719494 448.050336559442 3.00000000000001
    vertex -218.176836719494 447.550336559442 3.00000000000001
    vertex -217.676836719494 444.952260348089 3.00000000000001
  endloop
endfacet
facet normal 3.66059191537822e-016 -1.11728446745584e-016 1.0
  outer loop
    vertex -216.176836719494 448.050336559442 3.00000000000001
    vertex -217.676836719494 444.952260348089 3.00000000000001
    vertex -217.055516375935 445.429016215882 3.00000000000001
  endloop
endfacet
facet normal 3.66059191537822e-016 -1.11728446745584e-016 1.0
  outer loop
    vertex -216.176836719494 448.050336559442 3.00000000000001
    vertex -217.055516375935 445.429016215882 3.00000000000001
    vertex -216.578760508141 446.050336559442 3.00000000000001
  endloop
endfacet
facet normal 3.66059191537822e-016 -1.11728446745584e-016 1.0
  outer loop
    vertex -216.176836719494 448.050336559442 3.00000000000001
    vertex -216.578760508141 446.050336559442 3.00000000000001
    vertex -216.279059240627 446.773879424134 3.00000000000001
  endloop
endfacet
facet normal 3.66059191537822e-016 -1.11728446745584e-016 1.0
  outer loop
    vertex -216.176836719494 448.050336559442 3.00000000000001
    vertex -216.279059240627 446.773879424134 3.00000000000001
    vertex -216.176836719494 447.550336559442 3.00000000000001
  endloop
endfacet
facet normal 3.66059191537822e-016 -1.11728446745584e-016 1.0
  outer loop
    vertex -212.776836719494 450.050336559442 3.00000000000001
    vertex -216.176836719494 448.050336559442 3.00000000000001
    vertex -210.776836719494 448.050336559442 3.00000000000001
  endloop
endfacet
facet normal 3.66059191537822e-016 -1.11728446745584e-016 1.0
  outer loop
    vertex -212.776836719494 450.050336559442 3.00000000000001
    vertex -210.776836719494 448.050336559442 3.00000000000001
    vertex -212.776836719494 473.050336559442 3.00000000000001
  endloop
endfacet
facet normal 3.66059191537822e-016 -1.11728446745584e-016 1.0
  outer loop
    vertex -212.776836719494 473.050336559442 3.00000000000001
    vertex -217.176836719494 475.050336559442 3.00000000000001
    vertex -217.176836719494 473.050336559442 3.00000000000001
  endloop
endfacet
facet normal 3.66059191537822e-016 -1.11728446745584e-016 1.0
  outer loop
    vertex -217.176836719494 475.050336559442 3.00000000000001
    vertex -212.776836719494 473.050336559442 3.00000000000001
    vertex -215.676836719494 475.050336559442 3.00000000000001
  endloop
endfacet
facet normal 3.66059191537822e-016 -1.11728446745584e-016 1.0
  outer loop
    vertex -217.176836719494 475.050336559442 3.00000000000001
    vertex -215.676836719494 475.050336559442 3.00000000000001
    vertex -216.176836719494 475.550336559442 3.00000000000001
  endloop
endfacet
facet normal 3.66059191537822e-016 -1.11728446745584e-016 1.0
  outer loop
    vertex -217.176836719494 475.050336559442 3.00000000000001
    vertex -216.176836719494 475.550336559442 3.00000000000001
    vertex -217.055516375935 477.671656903001 3.00000000000001
  endloop
endfacet
facet normal 3.66059191537822e-016 -1.11728446745584e-016 1.0
  outer loop
    vertex -217.055516375935 477.671656903001 3.00000000000001
    vertex -216.176836719494 475.550336559442 3.00000000000001
    vertex -216.578760508141 477.050336559442 3.00000000000001
  endloop
endfacet
facet normal 3.66059191537822e-016 -1.11728446745584e-016 1.0
  outer loop
    vertex -216.578760508141 477.050336559442 3.00000000000001
    vertex -216.176836719494 475.550336559442 3.00000000000001
    vertex -216.279059240627 476.326793694749 3.00000000000001
  endloop
endfacet
facet normal 3.66059191537822e-016 -1.11728446745584e-016 1.0
  outer loop
    vertex -215.676836719494 475.050336559442 3.00000000000001
    vertex -212.776836719494 473.050336559442 3.00000000000001
    vertex -210.776836719494 475.050336559442 3.00000000000001
  endloop
endfacet
facet normal 3.66059191537822e-016 -1.11728446745584e-016 1.0
  outer loop
    vertex -210.776836719494 475.050336559442 3.00000000000001
    vertex -212.776836719494 473.050336559442 3.00000000000001
    vertex -210.776836719494 448.050336559442 3.00000000000001
  endloop
endfacet
facet normal 3.66059191537822e-016 -1.11728446745584e-016 1.0
  outer loop
    vertex -215.676836719494 475.550336559442 3.00000000000001
    vertex -216.176836719494 475.550336559442 3.00000000000001
    vertex -215.676836719494 475.050336559442 3.00000000000001
  endloop
endfacet
facet normal -0.60876142900864 -0.793353340291297 3.20031081010494e-019
  outer loop
    vertex -220.676836719494 444.952260348089 3.00000000000001
    vertex -221.298157063054 445.429016215882 1.44382283906452e-014
    vertex -220.676836719494 444.952260348089 1.15505827125162e-014
  endloop
endfacet
facet normal -0.60876142900864 -0.793353340291297 3.20031081010494e-019
  outer loop
    vertex -221.298157063054 445.429016215882 1.44382283906452e-014
    vertex -220.676836719494 444.952260348089 3.00000000000001
    vertex -221.298157063054 445.429016215882 3.00000000000001
  endloop
endfacet
facet normal -0.130526192219884 0.991444861373833 4.07427375830094e-019
  outer loop
    vertex -219.953293854802 478.448114038309 1.73258740687743e-014
    vertex -219.176836719494 478.550336559442 3.00000000000001
    vertex -219.176836719494 478.550336559442 1.44382283906452e-014
  endloop
endfacet
facet normal -0.130526192219884 0.991444861373833 4.07427375830094e-019
  outer loop
    vertex -219.176836719494 478.550336559442 3.00000000000001
    vertex -219.953293854802 478.448114038309 1.73258740687743e-014
    vertex -219.953293854802 478.448114038309 3.00000000000002
  endloop
endfacet
facet normal 0.991444861373802 0.130526192220116 0.0
  outer loop
    vertex -216.279059240627 476.326793694749 8.66293703438714e-015
    vertex -216.176836719494 475.550336559442 3.00000000000001
    vertex -216.176836719494 475.550336559442 8.66293703438714e-015
  endloop
endfacet
facet normal 0.991444861373802 0.130526192220116 0.0
  outer loop
    vertex -216.176836719494 475.550336559442 3.00000000000001
    vertex -216.279059240627 476.326793694749 8.66293703438714e-015
    vertex -216.279059240627 476.326793694749 3.00000000000001
  endloop
endfacet
facet normal 0.923879532511287 0.38268343236509 0.0
  outer loop
    vertex -216.578760508141 477.050336559442 8.66293703438714e-015
    vertex -216.279059240627 476.326793694749 3.00000000000001
    vertex -216.279059240627 476.326793694749 8.66293703438714e-015
  endloop
endfacet
facet normal 0.923879532511287 0.38268343236509 0.0
  outer loop
    vertex -216.279059240627 476.326793694749 3.00000000000001
    vertex -216.578760508141 477.050336559442 8.66293703438714e-015
    vertex -216.578760508141 477.050336559442 3.00000000000001
  endloop
endfacet
facet normal 0.382683432365191 0.923879532511245 1.07397427402107e-017
  outer loop
    vertex -218.400379584187 478.448114038309 1.44382283906452e-014
    vertex -217.676836719494 478.148412770795 3.00000000000001
    vertex -217.676836719494 478.148412770795 1.15505827125162e-014
  endloop
endfacet
facet normal 0.382683432365191 0.923879532511245 1.07397427402107e-017
  outer loop
    vertex -217.676836719494 478.148412770795 3.00000000000001
    vertex -218.400379584187 478.448114038309 1.44382283906452e-014
    vertex -218.400379584187 478.448114038309 3.00000000000001
  endloop
endfacet
facet normal 0.793353340291284 0.608761429008657 -2.68866120449634e-018
  outer loop
    vertex -217.055516375935 477.671656903001 1.15505827125162e-014
    vertex -216.578760508141 477.050336559442 3.00000000000001
    vertex -216.578760508141 477.050336559442 8.66293703438714e-015
  endloop
endfacet
facet normal 0.793353340291284 0.608761429008657 -2.68866120449634e-018
  outer loop
    vertex -216.578760508141 477.050336559442 3.00000000000001
    vertex -217.055516375935 477.671656903001 1.15505827125162e-014
    vertex -217.055516375935 477.671656903001 3.00000000000001
  endloop
endfacet
facet normal -0.793353340291341 0.608761429008583 0.0
  outer loop
    vertex -221.298157063054 477.671656903001 3.00000000000002
    vertex -221.774912930848 477.050336559442 1.73258740687743e-014
    vertex -221.774912930848 477.050336559442 3.00000000000002
  endloop
endfacet
facet normal -0.793353340291341 0.608761429008583 0.0
  outer loop
    vertex -221.774912930848 477.050336559442 1.73258740687743e-014
    vertex -221.298157063054 477.671656903001 3.00000000000002
    vertex -221.298157063054 477.671656903001 1.73258740687743e-014
  endloop
endfacet
facet normal -0.991444861373817 0.13052619222 0.0
  outer loop
    vertex -222.074614198362 476.326793694749 3.00000000000002
    vertex -222.176836719494 475.550336559442 1.73258740687743e-014
    vertex -222.176836719494 475.550336559442 3.00000000000002
  endloop
endfacet
facet normal -0.991444861373817 0.13052619222 0.0
  outer loop
    vertex -222.176836719494 475.550336559442 1.73258740687743e-014
    vertex -222.074614198362 476.326793694749 3.00000000000002
    vertex -222.074614198362 476.326793694749 1.73258740687743e-014
  endloop
endfacet
facet normal -1.0 -8.80010048104325e-032 2.05706256473712e-016
  outer loop
    vertex -227.576836719494 475.050336559442 3.00000000000001
    vertex -227.576836719494 448.050336559442 0.0
    vertex -227.576836719494 448.050336559442 3.0
  endloop
endfacet
facet normal -1.0 -8.80010048104325e-032 2.05706256473712e-016
  outer loop
    vertex -227.576836719494 448.050336559442 0.0
    vertex -227.576836719494 475.050336559442 3.00000000000001
    vertex -227.576836719494 475.050336559442 1.15505827125162e-014
  endloop
endfacet
facet normal -0.99144486137381 -0.130526192220058 0.0
  outer loop
    vertex -222.176836719494 447.550336559442 3.00000000000002
    vertex -222.074614198361 446.773879424134 1.73258740687743e-014
    vertex -222.074614198361 446.773879424134 3.00000000000002
  endloop
endfacet
facet normal -0.99144486137381 -0.130526192220058 0.0
  outer loop
    vertex -222.074614198361 446.773879424134 1.73258740687743e-014
    vertex -222.176836719494 447.550336559442 3.00000000000002
    vertex -222.176836719494 447.550336559442 1.73258740687743e-014
  endloop
endfacet
facet normal -0.793353340291284 -0.608761429008657 0.0
  outer loop
    vertex -221.774912930848 446.050336559442 3.00000000000001
    vertex -221.298157063054 445.429016215882 1.44382283906452e-014
    vertex -221.298157063054 445.429016215882 3.00000000000001
  endloop
endfacet
facet normal -0.793353340291284 -0.608761429008657 0.0
  outer loop
    vertex -221.298157063054 445.429016215882 1.44382283906452e-014
    vertex -221.774912930848 446.050336559442 3.00000000000001
    vertex -221.774912930848 446.050336559442 1.44382283906452e-014
  endloop
endfacet
facet normal -0.382683432365191 -0.923879532511245 0.0
  outer loop
    vertex -219.953293854802 444.652559080575 3.00000000000001
    vertex -220.676836719494 444.952260348089 1.15505827125162e-014
    vertex -219.953293854802 444.652559080575 1.15505827125162e-014
  endloop
endfacet
facet normal -0.382683432365191 -0.923879532511245 0.0
  outer loop
    vertex -220.676836719494 444.952260348089 1.15505827125162e-014
    vertex -219.953293854802 444.652559080575 3.00000000000001
    vertex -220.676836719494 444.952260348089 3.00000000000001
  endloop
endfacet
facet normal 0.130526192219853 0.991444861373836 0.0
  outer loop
    vertex -219.435655764597 446.584410733153 3.00000000000001
    vertex -219.176836719494 446.550336559442 8.66293703438714e-015
    vertex -219.435655764597 446.584410733153 8.66293703438714e-015
  endloop
endfacet
facet normal 0.130526192219853 0.991444861373836 0.0
  outer loop
    vertex -219.176836719494 446.550336559442 8.66293703438714e-015
    vertex -219.435655764597 446.584410733153 3.00000000000001
    vertex -219.176836719494 446.550336559442 3.00000000000001
  endloop
endfacet
facet normal 0.0 -1.0 0.0
  outer loop
    vertex -210.776836719494 448.050336559442 3.00000000000001
    vertex -216.176836719494 448.050336559442 1.15505827125162e-014
    vertex -210.776836719494 448.050336559442 1.14477295842793e-014
  endloop
endfacet
facet normal 0.0 -1.0 0.0
  outer loop
    vertex -216.176836719494 448.050336559442 1.15505827125162e-014
    vertex -210.776836719494 448.050336559442 3.00000000000001
    vertex -216.176836719494 448.050336559442 3.00000000000001
  endloop
endfacet
facet normal 0.382683432365191 0.923879532511245 2.95247856919184e-018
  outer loop
    vertex -219.676836719494 446.684311155657 1.15505827125162e-014
    vertex -219.435655764597 446.584410733153 3.00000000000001
    vertex -219.435655764597 446.584410733153 8.66293703438714e-015
  endloop
endfacet
facet normal 0.382683432365191 0.923879532511245 2.95247856919184e-018
  outer loop
    vertex -219.435655764597 446.584410733153 3.00000000000001
    vertex -219.676836719494 446.684311155657 1.15505827125162e-014
    vertex -219.676836719494 446.684311155657 3.00000000000001
  endloop
endfacet
facet normal 0.382683432365191 -0.923879532511245 0.0
  outer loop
    vertex -219.435655764597 448.516262385731 3.00000000000001
    vertex -219.676836719494 448.416361963226 1.15505827125162e-014
    vertex -219.435655764597 448.516262385731 1.15505827125162e-014
  endloop
endfacet
facet normal 0.382683432365191 -0.923879532511245 0.0
  outer loop
    vertex -219.676836719494 448.416361963226 1.15505827125162e-014
    vertex -219.435655764597 448.516262385731 3.00000000000001
    vertex -219.676836719494 448.416361963226 3.00000000000001
  endloop
endfacet
facet normal -0.382683432365191 0.923879532511245 0.0
  outer loop
    vertex -218.918017674392 446.584410733153 3.00000000000001
    vertex -218.676836719494 446.684311155657 8.66293703438714e-015
    vertex -218.918017674392 446.584410733153 8.66293703438714e-015
  endloop
endfacet
facet normal -0.382683432365191 0.923879532511245 0.0
  outer loop
    vertex -218.676836719494 446.684311155657 8.66293703438714e-015
    vertex -218.918017674392 446.584410733153 3.00000000000001
    vertex -218.676836719494 446.684311155657 3.00000000000001
  endloop
endfacet
facet normal 0.130526192219853 -0.991444861373836 0.0
  outer loop
    vertex -219.176836719494 448.550336559442 3.00000000000001
    vertex -219.435655764597 448.516262385731 1.15505827125162e-014
    vertex -219.176836719494 448.550336559442 1.15505827125162e-014
  endloop
endfacet
facet normal 0.130526192219853 -0.991444861373836 0.0
  outer loop
    vertex -219.435655764597 448.516262385731 1.15505827125162e-014
    vertex -219.176836719494 448.550336559442 3.00000000000001
    vertex -219.435655764597 448.516262385731 3.00000000000001
  endloop
endfacet
facet normal 0.923879532511349 0.38268343236494 0.0
  outer loop
    vertex -220.142762545783 447.291517514339 1.15505827125162e-014
    vertex -220.042862123279 447.050336559442 3.00000000000001
    vertex -220.042862123279 447.050336559442 1.15505827125162e-014
  endloop
endfacet
facet normal 0.923879532511349 0.38268343236494 0.0
  outer loop
    vertex -220.042862123279 447.050336559442 3.00000000000001
    vertex -220.142762545783 447.291517514339 1.15505827125162e-014
    vertex -220.142762545783 447.291517514339 3.00000000000001
  endloop
endfacet
facet normal 0.991444861373836 0.130526192219853 0.0
  outer loop
    vertex -220.176836719494 447.550336559442 1.15505827125162e-014
    vertex -220.142762545783 447.291517514339 3.00000000000001
    vertex -220.142762545783 447.291517514339 1.15505827125162e-014
  endloop
endfacet
facet normal 0.991444861373836 0.130526192219853 0.0
  outer loop
    vertex -220.142762545783 447.291517514339 3.00000000000001
    vertex -220.176836719494 447.550336559442 1.15505827125162e-014
    vertex -220.176836719494 447.550336559442 3.00000000000001
  endloop
endfacet
facet normal 0.793353340291227 -0.608761429008732 0.0
  outer loop
    vertex -219.883943500681 448.257443340628 1.15505827125162e-014
    vertex -220.042862123279 448.050336559442 3.00000000000001
    vertex -220.042862123279 448.050336559442 1.15505827125162e-014
  endloop
endfacet
facet normal 0.793353340291227 -0.608761429008732 0.0
  outer loop
    vertex -220.042862123279 448.050336559442 3.00000000000001
    vertex -219.883943500681 448.257443340628 1.15505827125162e-014
    vertex -219.883943500681 448.257443340628 3.00000000000001
  endloop
endfacet
facet normal -0.793353340291227 -0.608761429008732 0.0
  outer loop
    vertex -218.469729938308 448.257443340628 3.00000000000001
    vertex -218.31081131571 448.050336559442 8.66293703438714e-015
    vertex -218.31081131571 448.050336559442 3.00000000000001
  endloop
endfacet
facet normal -0.793353340291227 -0.608761429008732 0.0
  outer loop
    vertex -218.31081131571 448.050336559442 8.66293703438714e-015
    vertex -218.469729938308 448.257443340628 3.00000000000001
    vertex -218.469729938308 448.257443340628 8.66293703438714e-015
  endloop
endfacet
facet normal -0.92387953251137 0.382683432364888 0.0
  outer loop
    vertex -218.210910893205 447.291517514339 3.00000000000001
    vertex -218.31081131571 447.050336559442 8.66293703438714e-015
    vertex -218.31081131571 447.050336559442 3.00000000000001
  endloop
endfacet
facet normal -0.92387953251137 0.382683432364888 0.0
  outer loop
    vertex -218.31081131571 447.050336559442 8.66293703438714e-015
    vertex -218.210910893205 447.291517514339 3.00000000000001
    vertex -218.210910893205 447.291517514339 8.66293703438714e-015
  endloop
endfacet
facet normal 0.793353340290964 0.608761429009073 0.0
  outer loop
    vertex -220.042862123279 447.050336559442 1.15505827125162e-014
    vertex -219.883943500681 446.843229778255 3.00000000000001
    vertex -219.883943500681 446.843229778255 1.15505827125162e-014
  endloop
endfacet
facet normal 0.793353340290964 0.608761429009073 0.0
  outer loop
    vertex -219.883943500681 446.843229778255 3.00000000000001
    vertex -220.042862123279 447.050336559442 1.15505827125162e-014
    vertex -220.042862123279 447.050336559442 3.00000000000001
  endloop
endfacet
facet normal 0.608761429008903 0.793353340291096 0.0
  outer loop
    vertex -219.883943500681 446.843229778255 3.00000000000001
    vertex -219.676836719494 446.684311155657 1.15505827125162e-014
    vertex -219.883943500681 446.843229778255 1.15505827125162e-014
  endloop
endfacet
facet normal 0.608761429008903 0.793353340291096 0.0
  outer loop
    vertex -219.676836719494 446.684311155657 1.15505827125162e-014
    vertex -219.883943500681 446.843229778255 3.00000000000001
    vertex -219.676836719494 446.684311155657 3.00000000000001
  endloop
endfacet
facet normal 0.923879532511245 -0.382683432365191 0.0
  outer loop
    vertex -220.042862123279 476.050336559442 1.15505827125162e-014
    vertex -220.142762545783 475.809155604544 3.00000000000001
    vertex -220.142762545783 475.809155604544 1.15505827125162e-014
  endloop
endfacet
facet normal 0.923879532511245 -0.382683432365191 0.0
  outer loop
    vertex -220.142762545783 475.809155604544 3.00000000000001
    vertex -220.042862123279 476.050336559442 1.15505827125162e-014
    vertex -220.042862123279 476.050336559442 3.00000000000001
  endloop
endfacet
facet normal 0.991444861373824 -0.130526192219945 0.0
  outer loop
    vertex -220.142762545783 475.809155604544 1.15505827125162e-014
    vertex -220.176836719494 475.550336559442 3.00000000000001
    vertex -220.176836719494 475.550336559442 1.15505827125162e-014
  endloop
endfacet
facet normal 0.991444861373824 -0.130526192219945 0.0
  outer loop
    vertex -220.176836719494 475.550336559442 3.00000000000001
    vertex -220.142762545783 475.809155604544 1.15505827125162e-014
    vertex -220.142762545783 475.809155604544 3.00000000000001
  endloop
endfacet
facet normal -0.991444861373791 0.130526192220201 0.0
  outer loop
    vertex -218.176836719494 447.550336559442 3.00000000000001
    vertex -218.210910893205 447.291517514339 8.66293703438714e-015
    vertex -218.210910893205 447.291517514339 3.00000000000001
  endloop
endfacet
facet normal -0.991444861373791 0.130526192220201 0.0
  outer loop
    vertex -218.210910893205 447.291517514339 8.66293703438714e-015
    vertex -218.176836719494 447.550336559442 3.00000000000001
    vertex -218.176836719494 447.550336559442 8.66293703438714e-015
  endloop
endfacet
facet normal 0.991444861373824 -0.130526192219945 0.0
  outer loop
    vertex -220.142762545783 447.809155604544 1.15505827125162e-014
    vertex -220.176836719494 447.550336559442 3.00000000000001
    vertex -220.176836719494 447.550336559442 1.15505827125162e-014
  endloop
endfacet
facet normal 0.991444861373824 -0.130526192219945 0.0
  outer loop
    vertex -220.176836719494 447.550336559442 3.00000000000001
    vertex -220.142762545783 447.809155604544 1.15505827125162e-014
    vertex -220.142762545783 447.809155604544 3.00000000000001
  endloop
endfacet
facet normal 0.923879532511245 -0.382683432365191 0.0
  outer loop
    vertex -220.042862123279 448.050336559442 1.15505827125162e-014
    vertex -220.142762545783 447.809155604544 3.00000000000001
    vertex -220.142762545783 447.809155604544 1.15505827125162e-014
  endloop
endfacet
facet normal 0.923879532511245 -0.382683432365191 0.0
  outer loop
    vertex -220.142762545783 447.809155604544 3.00000000000001
    vertex -220.042862123279 448.050336559442 1.15505827125162e-014
    vertex -220.042862123279 448.050336559442 3.00000000000001
  endloop
endfacet
facet normal 0.99144486137381 -0.130526192220058 -4.07427375786813e-019
  outer loop
    vertex -216.176836719494 447.550336559442 8.66293703438714e-015
    vertex -216.279059240627 446.773879424134 3.00000000000001
    vertex -216.279059240627 446.773879424134 5.77529135625809e-015
  endloop
endfacet
facet normal 0.99144486137381 -0.130526192220058 -4.07427375786813e-019
  outer loop
    vertex -216.279059240627 446.773879424134 3.00000000000001
    vertex -216.176836719494 447.550336559442 8.66293703438714e-015
    vertex -216.176836719494 447.550336559442 3.00000000000001
  endloop
endfacet
facet normal 0.608761429008903 -0.793353340291096 0.0
  outer loop
    vertex -219.676836719494 448.416361963226 3.00000000000001
    vertex -219.883943500681 448.257443340628 1.15505827125162e-014
    vertex -219.676836719494 448.416361963226 1.15505827125162e-014
  endloop
endfacet
facet normal 0.608761429008903 -0.793353340291096 0.0
  outer loop
    vertex -219.883943500681 448.257443340628 1.15505827125162e-014
    vertex -219.676836719494 448.416361963226 3.00000000000001
    vertex -219.883943500681 448.257443340628 3.00000000000001
  endloop
endfacet
facet normal 0.793353340291227 -0.608761429008732 0.0
  outer loop
    vertex -219.883943500681 476.257443340628 1.15505827125162e-014
    vertex -220.042862123279 476.050336559442 3.00000000000001
    vertex -220.042862123279 476.050336559442 1.15505827125162e-014
  endloop
endfacet
facet normal 0.793353340291227 -0.608761429008732 0.0
  outer loop
    vertex -220.042862123279 476.050336559442 3.00000000000001
    vertex -219.883943500681 476.257443340628 1.15505827125162e-014
    vertex -219.883943500681 476.257443340628 3.00000000000001
  endloop
endfacet
facet normal 1.0 0.0 0.0
  outer loop
    vertex -216.176836719494 448.050336559442 1.15505827125162e-014
    vertex -216.176836719494 447.550336559442 3.00000000000001
    vertex -216.176836719494 447.550336559442 8.66293703438714e-015
  endloop
endfacet
facet normal 1.0 0.0 0.0
  outer loop
    vertex -216.176836719494 447.550336559442 3.00000000000001
    vertex -216.176836719494 448.050336559442 1.15505827125162e-014
    vertex -216.176836719494 448.050336559442 3.00000000000001
  endloop
endfacet
facet normal -0.130526192219899 -0.991444861373831 0.0
  outer loop
    vertex -218.918017674392 448.516262385731 3.00000000000001
    vertex -219.176836719494 448.550336559442 1.15505827125162e-014
    vertex -218.918017674392 448.516262385731 1.15505827125162e-014
  endloop
endfacet
facet normal -0.130526192219899 -0.991444861373831 0.0
  outer loop
    vertex -219.176836719494 448.550336559442 1.15505827125162e-014
    vertex -218.918017674392 448.516262385731 3.00000000000001
    vertex -219.176836719494 448.550336559442 3.00000000000001
  endloop
endfacet
facet normal -0.608761429008732 -0.793353340291227 0.0
  outer loop
    vertex -218.469729938308 448.257443340628 3.00000000000001
    vertex -218.676836719494 448.416361963226 8.66293703438714e-015
    vertex -218.469729938308 448.257443340628 8.66293703438714e-015
  endloop
endfacet
facet normal -0.608761429008732 -0.793353340291227 0.0
  outer loop
    vertex -218.676836719494 448.416361963226 8.66293703438714e-015
    vertex -218.469729938308 448.257443340628 3.00000000000001
    vertex -218.676836719494 448.416361963226 3.00000000000001
  endloop
endfacet
facet normal -0.92387953251137 -0.382683432364888 0.0
  outer loop
    vertex -218.31081131571 448.050336559442 3.00000000000001
    vertex -218.210910893205 447.809155604544 8.66293703438714e-015
    vertex -218.210910893205 447.809155604544 3.00000000000001
  endloop
endfacet
facet normal -0.92387953251137 -0.382683432364888 0.0
  outer loop
    vertex -218.210910893205 447.809155604544 8.66293703438714e-015
    vertex -218.31081131571 448.050336559442 3.00000000000001
    vertex -218.31081131571 448.050336559442 8.66293703438714e-015
  endloop
endfacet
facet normal -0.382683432365191 -0.923879532511245 -2.95247856919184e-018
  outer loop
    vertex -218.676836719494 448.416361963226 3.00000000000001
    vertex -218.918017674392 448.516262385731 1.15505827125162e-014
    vertex -218.676836719494 448.416361963226 8.66293703438714e-015
  endloop
endfacet
facet normal -0.382683432365191 -0.923879532511245 -2.95247856919184e-018
  outer loop
    vertex -218.918017674392 448.516262385731 1.15505827125162e-014
    vertex -218.676836719494 448.416361963226 3.00000000000001
    vertex -218.918017674392 448.516262385731 3.00000000000001
  endloop
endfacet
facet normal -0.991444861373779 -0.130526192220293 0.0
  outer loop
    vertex -218.210910893205 447.809155604544 3.00000000000001
    vertex -218.176836719494 447.550336559442 8.66293703438714e-015
    vertex -218.176836719494 447.550336559442 3.00000000000001
  endloop
endfacet
facet normal -0.991444861373779 -0.130526192220293 0.0
  outer loop
    vertex -218.176836719494 447.550336559442 8.66293703438714e-015
    vertex -218.210910893205 447.809155604544 3.00000000000001
    vertex -218.210910893205 447.809155604544 8.66293703438714e-015
  endloop
endfacet
facet normal -0.793353340291227 0.608761429008732 0.0
  outer loop
    vertex -218.31081131571 447.050336559442 3.00000000000001
    vertex -218.469729938308 446.843229778255 8.66293703438714e-015
    vertex -218.469729938308 446.843229778255 3.00000000000001
  endloop
endfacet
facet normal -0.793353340291227 0.608761429008732 0.0
  outer loop
    vertex -218.469729938308 446.843229778255 8.66293703438714e-015
    vertex -218.31081131571 447.050336559442 3.00000000000001
    vertex -218.31081131571 447.050336559442 8.66293703438714e-015
  endloop
endfacet
facet normal -0.608761429008732 0.793353340291227 0.0
  outer loop
    vertex -218.676836719494 446.684311155657 3.00000000000001
    vertex -218.469729938308 446.843229778255 8.66293703438714e-015
    vertex -218.676836719494 446.684311155657 8.66293703438714e-015
  endloop
endfacet
facet normal -0.608761429008732 0.793353340291227 0.0
  outer loop
    vertex -218.469729938308 446.843229778255 8.66293703438714e-015
    vertex -218.676836719494 446.684311155657 3.00000000000001
    vertex -218.469729938308 446.843229778255 3.00000000000001
  endloop
endfacet
facet normal -0.130526192219899 0.991444861373831 0.0
  outer loop
    vertex -219.176836719494 446.550336559442 3.00000000000001
    vertex -218.918017674392 446.584410733153 8.66293703438714e-015
    vertex -219.176836719494 446.550336559442 8.66293703438714e-015
  endloop
endfacet
facet normal -0.130526192219899 0.991444861373831 0.0
  outer loop
    vertex -218.918017674392 446.584410733153 8.66293703438714e-015
    vertex -219.176836719494 446.550336559442 3.00000000000001
    vertex -218.918017674392 446.584410733153 3.00000000000001
  endloop
endfacet
facet normal -0.991444861373779 -0.130526192220293 0.0
  outer loop
    vertex -218.210910893205 475.809155604544 3.00000000000001
    vertex -218.176836719494 475.550336559442 8.66293703438714e-015
    vertex -218.176836719494 475.550336559442 3.00000000000001
  endloop
endfacet
facet normal -0.991444861373779 -0.130526192220293 0.0
  outer loop
    vertex -218.176836719494 475.550336559442 8.66293703438714e-015
    vertex -218.210910893205 475.809155604544 3.00000000000001
    vertex -218.210910893205 475.809155604544 8.66293703438714e-015
  endloop
endfacet
facet normal 0.923879532511349 0.38268343236494 0.0
  outer loop
    vertex -220.142762545783 475.291517514339 1.15505827125162e-014
    vertex -220.042862123279 475.050336559442 3.00000000000001
    vertex -220.042862123279 475.050336559442 1.15505827125162e-014
  endloop
endfacet
facet normal 0.923879532511349 0.38268343236494 0.0
  outer loop
    vertex -220.042862123279 475.050336559442 3.00000000000001
    vertex -220.142762545783 475.291517514339 1.15505827125162e-014
    vertex -220.142762545783 475.291517514339 3.00000000000001
  endloop
endfacet
facet normal 0.0 -1.0 0.0
  outer loop
    vertex -221.176836719494 473.050336559442 1.28139276966976e-014
    vertex -225.576836719494 473.050336559442 3.00000000000001
    vertex -225.576836719494 473.050336559442 1.15505827125162e-014
  endloop
endfacet
facet normal 0.0 -1.0 0.0
  outer loop
    vertex -225.576836719494 473.050336559442 3.00000000000001
    vertex -221.176836719494 473.050336559442 1.28139276966976e-014
    vertex -221.176836719494 473.050336559442 3.00000000000001
  endloop
endfacet
facet normal 0.0 1.0 1.04043110758361e-016
  outer loop
    vertex -225.576836719494 450.050336559442 1.15505827125162e-014
    vertex -212.776836719494 450.050336559442 3.00000000000001
    vertex -212.776836719494 450.050336559442 1.14477295842793e-014
  endloop
endfacet
facet normal 0.0 1.0 1.04043110758361e-016
  outer loop
    vertex -212.776836719494 450.050336559442 3.00000000000001
    vertex -225.576836719494 450.050336559442 1.15505827125162e-014
    vertex -225.576836719494 450.050336559442 3.00000000000001
  endloop
endfacet
facet normal 0.991444861373836 0.130526192219853 0.0
  outer loop
    vertex -220.176836719494 475.550336559442 1.15505827125162e-014
    vertex -220.142762545783 475.291517514339 3.00000000000001
    vertex -220.142762545783 475.291517514339 1.15505827125162e-014
  endloop
endfacet
facet normal 0.991444861373836 0.130526192219853 0.0
  outer loop
    vertex -220.142762545783 475.291517514339 3.00000000000001
    vertex -220.176836719494 475.550336559442 1.15505827125162e-014
    vertex -220.176836719494 475.550336559442 3.00000000000001
  endloop
endfacet
facet normal -1.0 0.0 2.05706256473712e-016
  outer loop
    vertex -212.776836719494 473.050336559442 3.00000000000001
    vertex -212.776836719494 450.050336559442 1.14477295842793e-014
    vertex -212.776836719494 450.050336559442 3.00000000000001
  endloop
endfacet
facet normal -1.0 0.0 2.05706256473712e-016
  outer loop
    vertex -212.776836719494 450.050336559442 1.14477295842793e-014
    vertex -212.776836719494 473.050336559442 3.00000000000001
    vertex -212.776836719494 473.050336559442 1.14477295842793e-014
  endloop
endfacet
facet normal -0.991444861373791 0.130526192220201 0.0
  outer loop
    vertex -218.176836719494 475.550336559442 3.00000000000001
    vertex -218.210910893205 475.291517514339 8.66293703438714e-015
    vertex -218.210910893205 475.291517514339 3.00000000000001
  endloop
endfacet
facet normal -0.991444861373791 0.130526192220201 0.0
  outer loop
    vertex -218.210910893205 475.291517514339 8.66293703438714e-015
    vertex -218.176836719494 475.550336559442 3.00000000000001
    vertex -218.176836719494 475.550336559442 8.66293703438714e-015
  endloop
endfacet
facet normal -0.793353340291227 -0.608761429008732 0.0
  outer loop
    vertex -218.469729938308 476.257443340628 3.00000000000001
    vertex -218.31081131571 476.050336559442 8.66293703438714e-015
    vertex -218.31081131571 476.050336559442 3.00000000000001
  endloop
endfacet
facet normal -0.793353340291227 -0.608761429008732 0.0
  outer loop
    vertex -218.31081131571 476.050336559442 8.66293703438714e-015
    vertex -218.469729938308 476.257443340628 3.00000000000001
    vertex -218.469729938308 476.257443340628 8.66293703438714e-015
  endloop
endfacet
facet normal 1.0 0.0 -2.05706256473712e-016
  outer loop
    vertex -225.576836719494 473.050336559442 1.15505827125162e-014
    vertex -225.576836719494 450.050336559442 3.00000000000001
    vertex -225.576836719494 450.050336559442 1.15505827125162e-014
  endloop
endfacet
facet normal 1.0 0.0 -2.05706256473712e-016
  outer loop
    vertex -225.576836719494 450.050336559442 3.00000000000001
    vertex -225.576836719494 473.050336559442 1.15505827125162e-014
    vertex -225.576836719494 473.050336559442 3.00000000000001
  endloop
endfacet
facet normal -0.608761429008732 -0.793353340291227 0.0
  outer loop
    vertex -218.469729938308 476.257443340628 3.00000000000001
    vertex -218.676836719494 476.416361963226 8.66293703438714e-015
    vertex -218.469729938308 476.257443340628 8.66293703438714e-015
  endloop
endfacet
facet normal -0.608761429008732 -0.793353340291227 0.0
  outer loop
    vertex -218.676836719494 476.416361963226 8.66293703438714e-015
    vertex -218.469729938308 476.257443340628 3.00000000000001
    vertex -218.676836719494 476.416361963226 3.00000000000001
  endloop
endfacet
facet normal 0.130526192219853 -0.991444861373836 0.0
  outer loop
    vertex -219.176836719494 476.550336559442 3.00000000000001
    vertex -219.435655764597 476.516262385731 1.15505827125162e-014
    vertex -219.176836719494 476.550336559442 1.15505827125162e-014
  endloop
endfacet
facet normal 0.130526192219853 -0.991444861373836 0.0
  outer loop
    vertex -219.435655764597 476.516262385731 1.15505827125162e-014
    vertex -219.176836719494 476.550336559442 3.00000000000001
    vertex -219.435655764597 476.516262385731 3.00000000000001
  endloop
endfacet
facet normal 0.608761429008903 -0.793353340291096 0.0
  outer loop
    vertex -219.676836719494 476.416361963226 3.00000000000001
    vertex -219.883943500681 476.257443340628 1.15505827125162e-014
    vertex -219.676836719494 476.416361963226 1.15505827125162e-014
  endloop
endfacet
facet normal 0.608761429008903 -0.793353340291096 0.0
  outer loop
    vertex -219.883943500681 476.257443340628 1.15505827125162e-014
    vertex -219.676836719494 476.416361963226 3.00000000000001
    vertex -219.883943500681 476.257443340628 3.00000000000001
  endloop
endfacet
facet normal 0.382683432365191 -0.923879532511245 0.0
  outer loop
    vertex -219.435655764597 476.516262385731 3.00000000000001
    vertex -219.676836719494 476.416361963226 1.15505827125162e-014
    vertex -219.435655764597 476.516262385731 1.15505827125162e-014
  endloop
endfacet
facet normal 0.382683432365191 -0.923879532511245 0.0
  outer loop
    vertex -219.676836719494 476.416361963226 1.15505827125162e-014
    vertex -219.435655764597 476.516262385731 3.00000000000001
    vertex -219.676836719494 476.416361963226 3.00000000000001
  endloop
endfacet
facet normal -0.130526192219899 -0.991444861373831 0.0
  outer loop
    vertex -218.918017674392 476.516262385731 3.00000000000001
    vertex -219.176836719494 476.550336559442 1.15505827125162e-014
    vertex -218.918017674392 476.516262385731 1.15505827125162e-014
  endloop
endfacet
facet normal -0.130526192219899 -0.991444861373831 0.0
  outer loop
    vertex -219.176836719494 476.550336559442 1.15505827125162e-014
    vertex -218.918017674392 476.516262385731 3.00000000000001
    vertex -219.176836719494 476.550336559442 3.00000000000001
  endloop
endfacet
facet normal -0.92387953251137 -0.382683432364888 0.0
  outer loop
    vertex -218.31081131571 476.050336559442 3.00000000000001
    vertex -218.210910893205 475.809155604544 8.66293703438714e-015
    vertex -218.210910893205 475.809155604544 3.00000000000001
  endloop
endfacet
facet normal -0.92387953251137 -0.382683432364888 0.0
  outer loop
    vertex -218.210910893205 475.809155604544 8.66293703438714e-015
    vertex -218.31081131571 476.050336559442 3.00000000000001
    vertex -218.31081131571 476.050336559442 8.66293703438714e-015
  endloop
endfacet
facet normal -0.92387953251137 0.382683432364888 0.0
  outer loop
    vertex -218.210910893205 475.291517514339 3.00000000000001
    vertex -218.31081131571 475.050336559442 8.66293703438714e-015
    vertex -218.31081131571 475.050336559442 3.00000000000001
  endloop
endfacet
facet normal -0.92387953251137 0.382683432364888 0.0
  outer loop
    vertex -218.31081131571 475.050336559442 8.66293703438714e-015
    vertex -218.210910893205 475.291517514339 3.00000000000001
    vertex -218.210910893205 475.291517514339 8.66293703438714e-015
  endloop
endfacet
facet normal -0.382683432365191 -0.923879532511245 -2.95247856919184e-018
  outer loop
    vertex -218.676836719494 476.416361963226 3.00000000000001
    vertex -218.918017674392 476.516262385731 1.15505827125162e-014
    vertex -218.676836719494 476.416361963226 8.66293703438714e-015
  endloop
endfacet
facet normal -0.382683432365191 -0.923879532511245 -2.95247856919184e-018
  outer loop
    vertex -218.918017674392 476.516262385731 1.15505827125162e-014
    vertex -218.676836719494 476.416361963226 3.00000000000001
    vertex -218.918017674392 476.516262385731 3.00000000000001
  endloop
endfacet
facet normal -1.62974835606573e-013 -1.0 -3.10764818407518e-031
  outer loop
    vertex -220.042862123279 475.050336559442 3.00000000000001
    vertex -221.176836719494 475.050336559442 1.28139276966976e-014
    vertex -220.042862123279 475.050336559442 1.15505827125162e-014
  endloop
endfacet
facet normal -1.62974835606573e-013 -1.0 -3.10764818407518e-031
  outer loop
    vertex -221.176836719494 475.050336559442 1.28139276966976e-014
    vertex -220.042862123279 475.050336559442 3.00000000000001
    vertex -221.176836719494 475.050336559442 3.00000000000001
  endloop
endfacet
facet normal 1.0 0.0 0.0
  outer loop
    vertex -221.176836719494 475.050336559442 1.28139276966976e-014
    vertex -221.176836719494 473.050336559442 3.00000000000001
    vertex -221.176836719494 473.050336559442 1.28139276966976e-014
  endloop
endfacet
facet normal 1.0 0.0 0.0
  outer loop
    vertex -221.176836719494 473.050336559442 3.00000000000001
    vertex -221.176836719494 475.050336559442 1.28139276966976e-014
    vertex -221.176836719494 475.050336559442 3.00000000000001
  endloop
endfacet
facet normal -1.0 0.0 0.0
  outer loop
    vertex -217.176836719494 475.050336559442 3.00000000000001
    vertex -217.176836719494 473.050336559442 1.28139276966976e-014
    vertex -217.176836719494 473.050336559442 3.00000000000001
  endloop
endfacet
facet normal -1.0 0.0 0.0
  outer loop
    vertex -217.176836719494 473.050336559442 1.28139276966976e-014
    vertex -217.176836719494 475.050336559442 3.00000000000001
    vertex -217.176836719494 475.050336559442 1.28139276966976e-014
  endloop
endfacet
facet normal 0.0 -1.0 0.0
  outer loop
    vertex -217.176836719494 475.050336559442 1.28139276966976e-014
    vertex -218.31081131571 475.050336559442 3.00000000000001
    vertex -218.31081131571 475.050336559442 8.66293703438714e-015
  endloop
endfacet
facet normal 0.0 -1.0 0.0
  outer loop
    vertex -218.31081131571 475.050336559442 3.00000000000001
    vertex -217.176836719494 475.050336559442 1.28139276966976e-014
    vertex -217.176836719494 475.050336559442 3.00000000000001
  endloop
endfacet
facet normal 0.0 -1.0 0.0
  outer loop
    vertex -212.776836719494 473.050336559442 3.00000000000001
    vertex -217.176836719494 473.050336559442 1.28139276966976e-014
    vertex -212.776836719494 473.050336559442 1.14477295842793e-014
  endloop
endfacet
facet normal 0.0 -1.0 0.0
  outer loop
    vertex -217.176836719494 473.050336559442 1.28139276966976e-014
    vertex -212.776836719494 473.050336559442 3.00000000000001
    vertex -217.176836719494 473.050336559442 3.00000000000001
  endloop
endfacet
facet normal -1.0 0.0 0.0
  outer loop
    vertex -222.676836719494 475.550336559442 3.00000000000002
    vertex -222.676836719494 475.050336559442 9.20437059903634e-015
    vertex -222.676836719494 475.050336559442 3.00000000000002
  endloop
endfacet
facet normal -1.0 0.0 0.0
  outer loop
    vertex -222.676836719494 475.050336559442 9.20437059903634e-015
    vertex -222.676836719494 475.550336559442 3.00000000000002
    vertex -222.676836719494 475.550336559442 1.20920162771654e-014
  endloop
endfacet
facet normal 0.0 1.0 0.0
  outer loop
    vertex -222.676836719494 475.550336559442 3.00000000000002
    vertex -222.176836719494 475.550336559442 1.73258740687743e-014
    vertex -222.676836719494 475.550336559442 1.20920162771654e-014
  endloop
endfacet
facet normal 0.0 1.0 0.0
  outer loop
    vertex -222.176836719494 475.550336559442 1.73258740687743e-014
    vertex -222.676836719494 475.550336559442 3.00000000000002
    vertex -222.176836719494 475.550336559442 3.00000000000002
  endloop
endfacet
facet normal 1.0 0.0 0.0
  outer loop
    vertex -215.676836719494 475.550336559442 9.20437059903634e-015
    vertex -215.676836719494 475.050336559442 3.00000000000001
    vertex -215.676836719494 475.050336559442 9.20437059903634e-015
  endloop
endfacet
facet normal 1.0 0.0 0.0
  outer loop
    vertex -215.676836719494 475.050336559442 3.00000000000001
    vertex -215.676836719494 475.550336559442 9.20437059903634e-015
    vertex -215.676836719494 475.550336559442 3.00000000000001
  endloop
endfacet
facet normal 0.0 1.0 0.0
  outer loop
    vertex -216.176836719494 475.550336559442 3.00000000000001
    vertex -215.676836719494 475.550336559442 9.20437059903634e-015
    vertex -216.176836719494 475.550336559442 8.66293703438714e-015
  endloop
endfacet
facet normal 0.0 1.0 0.0
  outer loop
    vertex -215.676836719494 475.550336559442 9.20437059903634e-015
    vertex -216.176836719494 475.550336559442 3.00000000000001
    vertex -215.676836719494 475.550336559442 3.00000000000001
  endloop
endfacet
endsolid MIDIBox
